/* XPM */
static char * edit_delete_xpm[] = {
"48 48 523 2",
"  	c None",
". 	c #2F2F2F",
"+ 	c #FF4B33",
"@ 	c #FF4A33",
"# 	c #FF462F",
"$ 	c #FF452D",
"% 	c #FF4A32",
"& 	c #FF4731",
"* 	c #FF4632",
"= 	c #FF6351",
"- 	c #FF9079",
"; 	c #FFAE97",
"> 	c #FFC1A9",
", 	c #FFCCB7",
"' 	c #FFD1B9",
") 	c #FF8F78",
"! 	c #FF624D",
"~ 	c #FF4732",
"{ 	c #FF4631",
"] 	c #FF4633",
"^ 	c #FF4B37",
"/ 	c #FF8876",
"( 	c #FFB8A5",
"_ 	c #FFC2AD",
": 	c #FFB69B",
"< 	c #FFAC8B",
"[ 	c #FFA883",
"} 	c #FFA47B",
"| 	c #FFA279",
"1 	c #FFB7A5",
"2 	c #FF8875",
"3 	c #FF4B38",
"4 	c #FF4733",
"5 	c #FF8471",
"6 	c #FFB7A8",
"7 	c #FFAD98",
"8 	c #FF9A7C",
"9 	c #FF916E",
"0 	c #FF946F",
"a 	c #FF9671",
"b 	c #FF9972",
"c 	c #FF9A73",
"d 	c #FF9B74",
"e 	c #FFAE98",
"f 	c #FF8371",
"g 	c #FF4334",
"h 	c #FF5747",
"i 	c #FFA799",
"j 	c #FFA998",
"k 	c #FF8B72",
"l 	c #FF8669",
"m 	c #FF8A6A",
"n 	c #FF8C6C",
"o 	c #FF8F6D",
"p 	c #FF936F",
"q 	c #FF9571",
"r 	c #FF9470",
"s 	c #FFAA98",
"t 	c #FFA697",
"u 	c #FF4535",
"v 	c #FF4335",
"w 	c #FF695C",
"x 	c #FFAA9D",
"y 	c #FF8F7C",
"z 	c #FF7B62",
"A 	c #FF7D64",
"B 	c #FF8166",
"C 	c #FF8468",
"D 	c #FF8768",
"E 	c #FF8B6B",
"F 	c #FF8E6C",
"G 	c #FF8E6D",
"H 	c #FF8F7D",
"I 	c #FFA99D",
"J 	c #FF685A",
"K 	c #FF4336",
"L 	c #FF4435",
"M 	c #FF6C62",
"N 	c #FFA399",
"O 	c #FF7A6A",
"P 	c #FF725E",
"Q 	c #FF765F",
"R 	c #FF7861",
"S 	c #FF7C63",
"T 	c #FF7F65",
"U 	c #FF8266",
"V 	c #FF745A",
"W 	c #FF6750",
"X 	c #FF5A47",
"Y 	c #FF5442",
"Z 	c #FF5642",
"` 	c #FF5F49",
" .	c #FF775D",
"..	c #FF8466",
"+.	c #FF7B6A",
"@.	c #FFA198",
"#.	c #FF6D61",
"$.	c #FF6359",
"%.	c #FF9E94",
"&.	c #FF7262",
"*.	c #FF6A59",
"=.	c #FF6C5B",
"-.	c #FF705C",
";.	c #FF735E",
">.	c #FF7660",
",.	c #FF735C",
"'.	c #FF594A",
").	c #FF4437",
"!.	c #FF4638",
"~.	c #FF4235",
"{.	c #FF4035",
"].	c #FF4438",
"^.	c #FF4538",
"/.	c #FF5A4B",
"(.	c #FF755E",
"_.	c #FF9C94",
":.	c #FF635A",
"<.	c #FF5248",
"[.	c #FF9990",
"}.	c #FF7164",
"|.	c #FF6657",
"1.	c #FF6758",
"2.	c #FF6859",
"3.	c #FF6E5C",
"4.	c #FF7360",
"5.	c #FF5448",
"6.	c #FF4136",
"7.	c #FF4238",
"8.	c #FF594B",
"9.	c #FF6E5B",
"0.	c #FF9890",
"a.	c #FF4E46",
"b.	c #FF443A",
"c.	c #FF8B83",
"d.	c #FF786D",
"e.	c #FF6256",
"f.	c #FF6357",
"g.	c #FF6557",
"h.	c #FF6858",
"i.	c #FF796A",
"j.	c #FF9488",
"k.	c #FF483F",
"l.	c #FF4138",
"m.	c #FF4B41",
"n.	c #FF6655",
"o.	c #FF786F",
"p.	c #FF8A82",
"q.	c #FF4239",
"r.	c #FF6C65",
"s.	c #FF867E",
"t.	c #FF5F54",
"u.	c #FF6054",
"v.	c #FF6155",
"w.	c #FF6355",
"x.	c #FF6457",
"y.	c #FF8276",
"z.	c #FF877D",
"A.	c #FF433C",
"B.	c #FF453C",
"C.	c #FF6356",
"D.	c #FF8780",
"E.	c #FF6763",
"F.	c #FF3F39",
"G.	c #FF453E",
"H.	c #FF8A83",
"I.	c #FF645A",
"J.	c #FF5D52",
"K.	c #FF5F53",
"L.	c #FF6055",
"M.	c #FF584D",
"N.	c #FF6556",
"O.	c #FF867B",
"P.	c #FF7B72",
"Q.	c #FF413A",
"R.	c #FF403A",
"S.	c #FF4741",
"T.	c #FF645B",
"U.	c #FF443E",
"V.	c #FF3F3A",
"W.	c #FF6661",
"X.	c #FF7A73",
"Y.	c #FF5951",
"Z.	c #FF5B52",
"`.	c #FF5C52",
" +	c #FF5E53",
".+	c #FF5249",
"++	c #FF3E3A",
"@+	c #FF544A",
"#+	c #FF6558",
"$+	c #FF8A7F",
"%+	c #FF6D66",
"&+	c #FF3F3C",
"*+	c #FF4F48",
"=+	c #FF3D3B",
"-+	c #FF3E3D",
";+	c #FF7B77",
">+	c #FF615A",
",+	c #FF5750",
"'+	c #FF5850",
")+	c #FF5A51",
"!+	c #FF584F",
"~+	c #FF3E3E",
"{+	c #FF403D",
"]+	c #FF574E",
"^+	c #FF665A",
"/+	c #FF8B81",
"(+	c #FF615C",
"_+	c #FF5950",
":+	c #FF625B",
"<+	c #FF7C79",
"[+	c #FF4A4A",
"}+	c #FF7A76",
"|+	c #FF534D",
"1+	c #FF554E",
"2+	c #FF564F",
"3+	c #FF4A46",
"4+	c #FF3D3D",
"5+	c #FF3F3D",
"6+	c #FF5D53",
"7+	c #FF685D",
"8+	c #FF8880",
"9+	c #FF514E",
"0+	c #FF3F3F",
"a+	c #FF4B49",
"b+	c #FF5C5C",
"c+	c #FF6965",
"d+	c #FF514C",
"e+	c #FF524D",
"f+	c #FF544E",
"g+	c #FF544D",
"h+	c #FF3E3F",
"i+	c #FF3F41",
"j+	c #FF6A60",
"k+	c #FF837D",
"l+	c #FF4747",
"m+	c #FF6A66",
"n+	c #FF5B5A",
"o+	c #FF3C40",
"p+	c #FF6565",
"q+	c #FF5B59",
"r+	c #FF4F4B",
"s+	c #FF504B",
"t+	c #FF4D4A",
"u+	c #FF3E40",
"v+	c #FF4144",
"w+	c #FF5A50",
"x+	c #FF5A52",
"y+	c #FF6E67",
"z+	c #FF7D77",
"A+	c #FF4245",
"B+	c #FF3E42",
"C+	c #FF4E4A",
"D+	c #FF6564",
"E+	c #FF3D3F",
"F+	c #FF3C42",
"G+	c #FF6767",
"H+	c #FF524F",
"I+	c #FF4C4A",
"J+	c #FF4D4B",
"K+	c #FF3D41",
"L+	c #FF4646",
"M+	c #FF574F",
"N+	c #FF726B",
"O+	c #FF726E",
"P+	c #FF3E45",
"Q+	c #FF5350",
"R+	c #FF6867",
"S+	c #FF3B43",
"T+	c #FF6666",
"U+	c #FF4B4A",
"V+	c #FF4A49",
"W+	c #FF4145",
"X+	c #FF3B42",
"Y+	c #FF4848",
"Z+	c #FF746E",
"`+	c #FF6764",
" @	c #FF3D42",
".@	c #FF4246",
"+@	c #FF6566",
"@@	c #FF3B41",
"#@	c #FF3A46",
"$@	c #FF6364",
"%@	c #FF4948",
"&@	c #FF3F45",
"*@	c #FF3B46",
"=@	c #FF4949",
"-@	c #FF524C",
";@	c #FF554F",
">@	c #FF736F",
",@	c #FF5A5D",
"'@	c #FF3C46",
")@	c #FF4046",
"!@	c #FF6163",
"~@	c #FF3B45",
"{@	c #FF3947",
"]@	c #FF5D5F",
"^@	c #FF4546",
"/@	c #FF3E46",
"(@	c #FF3C45",
"_@	c #FF5351",
":@	c #FF7270",
"<@	c #FF5056",
"[@	c #FF3944",
"}@	c #FF3E47",
"|@	c #FF5C5D",
"1@	c #FF3749",
"2@	c #FF585C",
"3@	c #FF4346",
"4@	c #FF4244",
"5@	c #FF4345",
"6@	c #FF4445",
"7@	c #FF3F47",
"8@	c #FF3B48",
"9@	c #FF5553",
"0@	c #FF6E6D",
"a@	c #FF4551",
"b@	c #FF3848",
"c@	c #FF5258",
"d@	c #FF4348",
"e@	c #FF3F43",
"f@	c #FF4143",
"g@	c #FF3748",
"h@	c #FF3B4A",
"i@	c #FF5555",
"j@	c #FF696A",
"k@	c #FF3E4D",
"l@	c #FF3849",
"m@	c #FF3A49",
"n@	c #FF3949",
"o@	c #FF4B54",
"p@	c #FF4449",
"q@	c #FF3C41",
"r@	c #FF3F42",
"s@	c #FF3D44",
"t@	c #FF384A",
"u@	c #FF394A",
"v@	c #FF3D4A",
"w@	c #FF5859",
"x@	c #FF6266",
"y@	c #FF3B4C",
"z@	c #FF3D45",
"A@	c #FF4B55",
"B@	c #FF4452",
"C@	c #FF474F",
"D@	c #FF393F",
"E@	c #FF3A40",
"F@	c #FF374D",
"G@	c #FF3D49",
"H@	c #FF4344",
"I@	c #FF595B",
"J@	c #FF565F",
"K@	c #FF364C",
"L@	c #FF364A",
"M@	c #FF4253",
"N@	c #FF3B52",
"O@	c #FF4C53",
"P@	c #FF373E",
"Q@	c #FF383E",
"R@	c #FF383F",
"S@	c #FF3847",
"T@	c #FF354D",
"U@	c #FF3C47",
"V@	c #FF4044",
"W@	c #FF595C",
"X@	c #FF4D5A",
"Y@	c #FF354F",
"Z@	c #FF3D51",
"`@	c #FF344E",
" #	c #FF4853",
".#	c #FF3942",
"+#	c #FF343D",
"@#	c #FF363D",
"##	c #FF363F",
"$#	c #FF3A44",
"%#	c #FF3B40",
"&#	c #FF575C",
"*#	c #FF4756",
"=#	c #FF3650",
"-#	c #FF3740",
";#	c #FF4953",
">#	c #FF3452",
",#	c #FF4052",
"'#	c #FF424C",
")#	c #FF313B",
"!#	c #FF323C",
"~#	c #FF333C",
"{#	c #FF3647",
"]#	c #FF3551",
"^#	c #FF3842",
"/#	c #FF5359",
"(#	c #FF3F56",
"_#	c #FF3346",
":#	c #FF3F53",
"<#	c #FF3353",
"[#	c #FF3454",
"}#	c #FF4758",
"|#	c #FF3343",
"1#	c #FF313E",
"2#	c #FF303D",
"3#	c #FF313C",
"4#	c #FF334E",
"5#	c #FF3251",
"6#	c #FF333F",
"7#	c #FF353E",
"8#	c #FF4D57",
"9#	c #FF3747",
"0#	c #FF4759",
"a#	c #FF3456",
"b#	c #FF3256",
"c#	c #FF3D5A",
"d#	c #FF4255",
"e#	c #FF2F43",
"f#	c #FF3042",
"g#	c #FF3041",
"h#	c #FF313F",
"i#	c #FF3140",
"j#	c #FF3250",
"k#	c #FF3351",
"l#	c #FF303C",
"m#	c #FF3845",
"n#	c #FF3240",
"o#	c #FF3D5B",
"p#	c #FF3159",
"q#	c #FF445D",
"r#	c #FF3A51",
"s#	c #FF2F46",
"t#	c #FF3046",
"u#	c #FF3044",
"v#	c #FF2F44",
"w#	c #FF3142",
"x#	c #FF3151",
"y#	c #FF3457",
"z#	c #FF3051",
"A#	c #FF3040",
"B#	c #FF445E",
"C#	c #FF3359",
"D#	c #FF345D",
"E#	c #FF4562",
"F#	c #FF2F4B",
"G#	c #FF2E4A",
"H#	c #FF2F48",
"I#	c #FF2F4F",
"J#	c #FF3059",
"K#	c #FF3158",
"L#	c #FF2F58",
"M#	c #FF2F4E",
"N#	c #FF4561",
"O#	c #FF345A",
"P#	c #FF305B",
"Q#	c #FF365F",
"R#	c #FF4363",
"S#	c #FF3153",
"T#	c #FF2E50",
"U#	c #FF2E4F",
"V#	c #FF2E4D",
"W#	c #FF2E4B",
"X#	c #FF315A",
"Y#	c #FF305A",
"Z#	c #FF2F59",
"`#	c #FF2F4C",
" $	c #FF3860",
".$	c #FF305D",
"+$	c #FF3965",
"@$	c #FF466D",
"#$	c #FF325A",
"$$	c #FF2D55",
"%$	c #FF2E55",
"&$	c #FF2E53",
"*$	c #FF2D52",
"=$	c #FF2D50",
"-$	c #FF2F52",
";$	c #FF2F56",
">$	c #FF2F57",
",$	c #FF2D59",
"'$	c #FF2E5A",
")$	c #FF2F5A",
"!$	c #FF2D5E",
"~$	c #FF2D5F",
"{$	c #FF3A6A",
"]$	c #FF4A77",
"^$	c #FF3C66",
"/$	c #FF2C5A",
"($	c #FF2C58",
"_$	c #FF2D58",
":$	c #FF2D57",
"<$	c #FF2D56",
"[$	c #FF4A75",
"}$	c #FF2D61",
"|$	c #FF3669",
"1$	c #FF4D7C",
"2$	c #FF4A78",
"3$	c #FF3267",
"4$	c #FF2C60",
"5$	c #FF2C5E",
"6$	c #FF2C5D",
"7$	c #FF2B5D",
"8$	c #FF4D7D",
"9$	c #FF2D65",
"0$	c #FF4479",
"a$	c #FF5786",
"b$	c #FF4A7E",
"c$	c #FF3670",
"d$	c #FF2A64",
"e$	c #FF2C64",
"f$	c #FF2B63",
"g$	c #FF2F69",
"h$	c #FF467E",
"i$	c #FF5A8E",
"j$	c #FF4B83",
"k$	c #FF3F7A",
"l$	c #FF3673",
"m$	c #FF2E6D",
"n$	c #FF2B6C",
"o$	c #FF306E",
"p$	c #FF5A8F",
"q$	c #FF4680",
"r$	c #FF3775",
"s$	c #FF4983",
"t$	c #FF548E",
"u$	c #FF5C94",
"v$	c #FF629A",
"w$	c #FF649A",
"x$	c #FF4786",
". . . . . . . . . . . . . . . . . . . . . . . . . . . . . . . . . . . . . . . . . . . . . . . . ",
". . . . . . . . . . . . . . . . . . . . . . . . . . . . . . . . . . . . . . . . . . . . . . . . ",
". . . . . . . . . . . . . . . . . . . . . . . . . . . . . . . . . . . . . . . . . . . . . . . . ",
". . . . . . . . . . . . . . . . . . . . . . . . . . . . . . . . . . . . . . . . . . . . . . . . ",
". . . . . . . . . . . . . . . . . . . . . . . . . . . . . . . . . . . . . . . . . . . . . . . . ",
". . . . . . . . . . . . . . . . . . . . + @ # $ $ # % + . . . . . . . . . . . . . . . . . . . . ",
". . . . . . . . . . . . . . . . & * = - ; > , ' ' , > ; ) ! ~ { . . . . . . . . . . . . . . . . ",
". . . . . . . . . . . . . . ] ^ / ( _ : < [ } | | } [ < : _ 1 2 3 ] . . . . . . . . . . . . . . ",
". . . . . . . . . . . . . 4 5 6 7 8 9 0 a b c d d c b a 0 9 8 e 6 f ] . . . . . . . . . . . . . ",
". . . . . . . . . . . g h i j k l m n o 9 p q r r q p 9 o n m l k s t h u . . . . . . . . . . . ",
". . . . . . . . . . v w x y z A B C D m E F G o o G F E m D C B A z H I J K . . . . . . . . . . ",
". . . . . . . . . L M N O P Q R S T B U V W X Y Z ` W  ...B T S R Q P +.@.#.L . . . . . . . . . ",
". . . . . . . . K $.%.&.*.=.-.;.>.,.'.).!.~.. . . . {.].^./.(.>.;.-.=.*.&._.:.).. . . . . . . . ",
". . . . . . . . <.[.}.|.1.2.*.3.4.5.6.. . . . . . . . . . ).7.8.9.*.2.1.|.}.0.a.. . . . . . . . ",
". . . . . . . b.c.d.e.f.g.|.h.2.i.j.k.. . . . . . . . . . . . l.m.n.|.g.f.e.o.p.q.. . . . . . . ",
". . . . . . q.r.s.t.u.v.w.x.g.|.1.y.z.A.. . . . . . . . . . . . q.B.C.w.v.u.t.D.E.F.. . . . . . ",
". . . . . . G.H.I.J.K.t.L.M.w.x.N.|.O.P.Q.. . . . . . . . . . . . R.S.v.t.K.J.T.H.U.. . . . . . ",
". . . . . V.W.X.Y.Z.`. +.+++@+v.e.w.#+$+%+Q.. . . . . . . . . . . . &+*+ +`.Z.Y.X.W.=+. . . . . ",
". . . . . -+;+>+,+'+)+!+~+. {+]+t.L.v.^+/+(+~+. . . . . . . . . . . . ~+_+)+'+,+:+<+-+. . . . . ",
". . . . . [+}+|+1+2+,+3+4+. . 5+!+6+K.t.7+8+9+=+. . . . . . . . . . . 0+3+,+2+1+|+}+a+. . . . . ",
". . . . . b+c+d+e+f+g+h+. . . . i+_+`.`.J.j+k+l+. . . . . . . . . . . . h+g+f+e+d+m+n+. . . . . ",
". . . . o+p+q+r+s+d+t+u+. . . . 0+v+'+)+w+x+y+z+A+. . . . . . . . . . . B+C+d+s+r+n+D+E+. . . . ",
". . . . F+G+H+I+J+r+l+K+. . . . . K+L+M+,+,+,+N+O+P+. . . . . . . . . . o+l+r+J+I+Q+R+o+. . . . ",
". . . . S+T+U+V+a+I+W+. . . . . . . X+Y+f+f+1+2+Z+`+ @. . . . . . . . . . .@I+a+V+U++@@@. . . . ",
". . . . #@$@l+l+Y+%@&@. . . . . . . . *@=@d+-@-@;@>@,@'@. . . . . . . . . )@%@Y+l+l+!@~@. . . . ",
". . . . {@]@^@^@L+l+/@. . . . . . . . . (@V+r+r+r+_@:@<@[@. . . . . . . . }@l+L+^@^@|@#@. . . . ",
". . . . 1@2@3@4@5@6@7@. . . . . . . . . . 8@=@I+I+I+9@0@a@. . . . . . . . }@6@5@4@5@2@{@. . . . ",
". . . . b@c@d@e@f@4@/@g@. . . . . . . . . . h@Y+%@%@%@i@j@k@. . . . . . l@'@4@f@e@d@c@m@. . . . ",
". . . . n@o@p@q@ @r@s@t@. . . . . . . . . . u@v@L+L+L+^@w@x@y@. . . . . t@z@r@ @q@p@A@t@. . . . ",
". . . . . B@C@D@E@@@@@F@. . . . . . . . . . . F@G@H@H@4@4@I@J@K@. . . . L@ @@@E@D@C@M@. . . . . ",
". . . . . N@O@P@Q@R@D@S@T@. . . . . . . . . . . F@U@e@e@r@V@W@X@F@. . Y@S@D@R@Q@P@O@Z@. . . . . ",
". . . . . `@ #.#+#@#P@##`@. . . . . . . . . . . . `@$#q@@@%# @&#*#=#. `@-#P@@#+#.#;#`@. . . . . ",
". . . . . >#,#'#)#!#~#~#{#]#. . . . . . . . . . . . >#^#R@R@Q@S+/#(#>#_#~#~#!#)#'#:#<#. . . . . ",
". . . . . . [#}#|#1#2#3#)#4#5#. . . . . . . . . . . . >#6#+#7#~#(@8#9#3#3#2#1#|#0#a#. . . . . . ",
". . . . . . b#c#d#e#f#g#h#i#j#k#. . . . . . . . . . . <#k#l#)#3#2#m#n#h#g#f#e#d#o#<#. . . . . . ",
". . . . . . . p#q#r#s#t#u#v#w#x#y#. . . . . . . . . . . b#z#A#g#f#f#v#u#t#s#r#B#C#. . . . . . . ",
". . . . . . . . D#E#>#F#G#H#H#s#I#J#K#. . . . . . . . . . L#M#s#s#H#H#G#F#>#N#O#. . . . . . . . ",
". . . . . . . . P#Q#R#S#T#U#V#V#F#W#S#X#Y#. . . . . . Z#Z#S#`#F#V#V#U#T#S#R# $.$. . . . . . . . ",
". . . . . . . . . .$+$@$#$$$%$&$*$*$=$T#-$;$>$,$'$)$;$&$=$=$*$*$&$%$$$#$@$+$!$. . . . . . . . . ",
". . . . . . . . . . ~${$]$^$/$/$($_$_$:$<$<$$$$$$$$$<$<$:$_$_$($/$/$^$[${$}$. . . . . . . . . . ",
". . . . . . . . . . . . |$1$2$3$4$5$6$6$6$7$7$7$7$7$7$6$6$6$5$4$3$2$8$|$. . . . . . . . . . . . ",
". . . . . . . . . . . . . 9$0$a$b$c$d$d$e$f$f$f$f$f$f$e$d$d$c$b$a$0$9$. . . . . . . . . . . . . ",
". . . . . . . . . . . . . . . g$h$i$i$j$k$l$m$n$n$o$l$k$j$i$p$q$g$. . . . . . . . . . . . . . . ",
". . . . . . . . . . . . . . . . . . r$s$t$u$v$w$w$v$u$t$x$r$. . . . . . . . . . . . . . . . . . ",
". . . . . . . . . . . . . . . . . . . . . . . . . . . . . . . . . . . . . . . . . . . . . . . . ",
". . . . . . . . . . . . . . . . . . . . . . . . . . . . . . . . . . . . . . . . . . . . . . . . ",
". . . . . . . . . . . . . . . . . . . . . . . . . . . . . . . . . . . . . . . . . . . . . . . . ",
". . . . . . . . . . . . . . . . . . . . . . . . . . . . . . . . . . . . . . . . . . . . . . . . "};
