/* XPM */
static char * edit_copy_xpm[] = {
"48 48 256 2",
"  	c None",
". 	c #000000",
"+ 	c #BEBEBE",
"@ 	c #BDBDBD",
"# 	c #BCBCBC",
"$ 	c #FEFEFE",
"% 	c #FFFFFF",
"& 	c #BBBBBB",
"* 	c #F5F5F5",
"= 	c #F1F1F1",
"- 	c #BABABA",
"; 	c #F4F4F4",
"> 	c #B9B9B9",
", 	c #F3F3F3",
"' 	c #F0F0F0",
") 	c #B8B8B8",
"! 	c #EFEFEF",
"~ 	c #B7B7B7",
"{ 	c #F2F2F2",
"] 	c #EEEEEE",
"^ 	c #B6B6B6",
"/ 	c #EDEDED",
"( 	c #E1E1E1",
"_ 	c #E5E5E5",
": 	c #ADADAD",
"< 	c #B5B5B5",
"[ 	c #ECECEC",
"} 	c #E0E0E0",
"| 	c #BFBFBF",
"1 	c #B4B4B4",
"2 	c #EBEBEB",
"3 	c #DFDFDF",
"4 	c #B3B3B3",
"5 	c #B2B2B2",
"6 	c #EAEAEA",
"7 	c #DEDEDE",
"8 	c #B1B1B1",
"9 	c #E9E9E9",
"0 	c #E6E7E6",
"a 	c #ACBEA8",
"b 	c #8CA088",
"c 	c #E3E8E2",
"d 	c #B0B0B0",
"e 	c #E8E8E8",
"f 	c #9AB88F",
"g 	c #71A450",
"h 	c #8BA085",
"i 	c #AFAFAF",
"j 	c #E7E7E7",
"k 	c #AEC4A7",
"l 	c #71A748",
"m 	c #96B28B",
"n 	c #E6E6E6",
"o 	c #D5DBD4",
"p 	c #82AD69",
"q 	c #86B465",
"r 	c #C1CBBF",
"s 	c #E7E9E6",
"t 	c #DBE1D9",
"u 	c #ACACAC",
"v 	c #A4BC9A",
"w 	c #B7D49D",
"x 	c #8AB66E",
"y 	c #C7CDC5",
"z 	c #E1E5E0",
"A 	c #7EA76F",
"B 	c #C4D1C1",
"C 	c #ABABAB",
"D 	c #E4E4E4",
"E 	c #7EAA68",
"F 	c #DDF1C6",
"G 	c #9CC677",
"H 	c #ABBDA6",
"I 	c #E0E4DF",
"J 	c #74A855",
"K 	c #7EB059",
"L 	c #A7C09E",
"M 	c #E7E8E7",
"N 	c #AAAAAA",
"O 	c #DBDEDA",
"P 	c #79AA5D",
"Q 	c #DEF6BB",
"R 	c #D0EBB3",
"S 	c #73A456",
"T 	c #A3AAA1",
"U 	c #76AB55",
"V 	c #E0F4C4",
"W 	c #8ABD61",
"X 	c #8BB17B",
"Y 	c #DDE2DC",
"Z 	c #A9A9A9",
"` 	c #E3E3E3",
" .	c #D6DBD5",
"..	c #77AB58",
"+.	c #D4F2AC",
"@.	c #CBF09A",
"#.	c #B3DB8C",
"$.	c #669A46",
"%.	c #AEC6A8",
"&.	c #D7DDD5",
"*.	c #DBE0DA",
"=.	c #73A851",
"-.	c #E2F6C6",
";.	c #D9F3B6",
">.	c #A2CF77",
",.	c #78A75E",
"'.	c #C9D4C7",
").	c #A8A8A8",
"!.	c #E2E2E2",
"~.	c #DFE0DE",
"{.	c #6BA04F",
"].	c #CFEEA8",
"^.	c #A0E051",
"/.	c #BEEA88",
"(.	c #C4E79C",
"_.	c #8CC25F",
":.	c #76AB53",
"<.	c #70A453",
"[.	c #6AA643",
"}.	c #D1F0AA",
"|.	c #A0E050",
"1.	c #C2EB8E",
"2.	c #B4DC89",
"3.	c #70A74C",
"4.	c #ADC3A7",
"5.	c #A7A7A7",
"6.	c #84AB72",
"7.	c #99CE68",
"8.	c #A9DF69",
"9.	c #93D743",
"0.	c #9CDA53",
"a.	c #ACE06F",
"b.	c #B8E584",
"c.	c #BBE689",
"d.	c #BAE587",
"e.	c #B7E482",
"f.	c #A7DF66",
"g.	c #B8E189",
"h.	c #73AD47",
"i.	c #8FB280",
"j.	c #DEE1DD",
"k.	c #A6A6A6",
"l.	c #BCC9B9",
"m.	c #66A43F",
"n.	c #AADC74",
"o.	c #90D348",
"p.	c #89D03C",
"q.	c #91D34A",
"r.	c #AADC73",
"s.	c #7AB848",
"t.	c #74A35E",
"u.	c #CDD6CB",
"v.	c #A5A5A5",
"w.	c #8EAF83",
"x.	c #65A836",
"y.	c #95D259",
"z.	c #89CD45",
"A.	c #80C936",
"B.	c #7FC935",
"C.	c #89CD44",
"D.	c #97D35C",
"E.	c #5EA230",
"F.	c #86AA7A",
"G.	c #E2E3E1",
"H.	c #A4A4A4",
"I.	c #DBDBDB",
"J.	c #D4D5D3",
"K.	c #8AAA7F",
"L.	c #599A33",
"M.	c #71B735",
"N.	c #82C642",
"O.	c #7FC53B",
"P.	c #7CC437",
"Q.	c #7CC436",
"R.	c #7BC334",
"S.	c #76C12D",
"T.	c #7EC439",
"U.	c #7BBF3D",
"V.	c #5D9D36",
"W.	c #97B58D",
"X.	c #E1E2E0",
"Y.	c #A3A3A3",
"Z.	c #D7D7D7",
"`.	c #D4D4D4",
" +	c #D0D0D0",
".+	c #A5B2A2",
"++	c #5A8649",
"@+	c #5B963B",
"#+	c #5CA130",
"$+	c #5FA72B",
"%+	c #66AE30",
"&+	c #80C343",
"*+	c #6CBA26",
"=+	c #6EBB29",
"-+	c #7DC23F",
";+	c #6CB235",
">+	c #5F9843",
",+	c #B6C8B2",
"'+	c #A2A2A2",
")+	c #DDDDDD",
"!+	c #DCDCDC",
"~+	c #D8D8D8",
"{+	c #D1D1D1",
"]+	c #CDCDCD",
"^+	c #C0C0C0",
"/+	c #999999",
"(+	c #BFC5BE",
"_+	c #A5B4A2",
":+	c #95AB90",
"<+	c #539036",
"[+	c #7CBE48",
"}+	c #66B32A",
"|+	c #7ABE46",
"1+	c #5AA12F",
"2+	c #6D9D5A",
"3+	c #CED6CC",
"4+	c #A1A1A1",
"5+	c #DADADA",
"6+	c #D3D3D3",
"7+	c #CFCFCF",
"8+	c #CCCCCC",
"9+	c #969696",
"0+	c #CACACA",
"a+	c #C4C4C4",
"b+	c #BEC2BD",
"c+	c #508D37",
"d+	c #7BBB53",
"e+	c #75B54D",
"f+	c #4E922D",
"g+	c #81A676",
"h+	c #D6D9D5",
"i+	c #A0A0A0",
"j+	c #C8C8C8",
"k+	c #979797",
"l+	c #C0C4BF",
"m+	c #4B8935",
"n+	c #60A641",
"o+	c #4A8A35",
"p+	c #9DB498",
"q+	c #DADBDA",
"r+	c #9D9D9D",
"s+	c #9B9B9B",
"t+	c #8D8D8D",
"u+	c #D2D2D2",
"v+	c #C4C8C3",
"w+	c #448332",
"x+	c #558D46",
"y+	c #BBC5B9",
"z+	c #9C9C9C",
"A+	c #C8CCC7",
"B+	c #84A37E",
"C+	c #CACEC9",
"D+	c #9F9F9F",
"E+	c #D6D6D6",
"F+	c #D4D5D4",
"G+	c #D5D6D5",
". . . . . . . . . . . . . . . . . . . . . . . . . . . . . . . . . . . . . . . . . . . . . . . . ",
". . . . . . . . . . . . . . . . . . . . . . . . . . . . . . . . . . . . . . . . . . . . . . . . ",
". . . . . . . . . . . . . . . . . . . . . . . . . . . . . . . . . . . . . . . . . . . . . . . . ",
". . . . . . . . . . . . . . . . . . . . . . . . . . . . . . . . . . . . . . . . . . . . . . . . ",
". . . . . . + @ @ @ @ @ @ @ @ @ @ @ @ @ @ @ @ @ @ @ @ @ @ + . . . . . . . . . . . . . . . . . . ",
". . . . . . # $ % % % % % % % % % % % % % % % % % % % % $ # . . . . . . . . . . . . . . . . . . ",
". . . . . . & * = = = = = = = = = = = = = = = = = = = = * & . . . . . . . . . . . . . . . . . . ",
". . . . . . - ; = = = = = = = = = = = = = = = = = = = = ; - . . . . . . . . . . . . . . . . . . ",
". . . . . . > , ' ' ' ' ' ' ' ' ' ' ' ' ' ' ' ' ' ' ' ' , > . . . . . . . . . . . . . . . . . . ",
". . . . . . ) , ! ! ! ! ! ! ! ! ! ! ! ! ! ! ! ! ! ! ! ! , ) . . . . . . . . . . . . . . . . . . ",
". . . . . . ~ { ] ] ] ] ] ] ] ] ] ] ] ] ] ] ] ] ] ] ] ] { ~ . . . . . . . . . . . . . . . . . . ",
". . . . . . ^ = / / / / / / / / / ( ( ( ( ( ( ( ( ( ( ( _ : . . . . . . . . . . . . . . . . . . ",
". . . . . . < ' [ [ [ [ [ [ [ [ [ } | @ @ @ @ @ @ @ @ @ @ @ @ @ @ @ @ @ @ @ @ @ @ + . . . . . . ",
". . . . . . 1 ! 2 2 2 2 2 2 2 2 2 3 # $ % % % % % % % % % % % % % % % % % % % % $ # . . . . . . ",
". . . . . . 4 ! 2 2 2 2 2 2 2 2 2 3 & * = = = = = = = = = = = = = = = = = = = = * & . . . . . . ",
". . . . . . 5 ] 6 6 6 6 6 6 6 6 6 7 - ; = = = = = = = = = = = = = = = = = = = = ; - . . . . . . ",
". . . . . . 8 / 9 9 9 9 9 9 9 9 0 a b c ' ' ' ' ' ' ' ' ' ' ' ' ' ' ' ' ' ' ' ' , > . . . . . . ",
". . . . . . d / e e e e e e e 0 f g h , ! ! ! ! ! ! ! ! ! ! ! ! ! ! ! ! ! ! ! ! , ) . . . . . . ",
". . . . . . i [ j j j j j j j k l m ^ { ] ] ] ] ] ] ] ] ] ] ] ] ] ] ] ] ] ] ] ] { ~ . . . . . . ",
". . . . . . : 2 n n n n n n o p q r ^ = / s t / / / / / / / / / / / / / / / / / = ^ . . . . . . ",
". . . . . . u 6 _ _ _ _ _ _ v w x y < ' [ z A B [ [ [ [ [ [ [ [ [ [ [ [ [ [ [ [ ' < . . . . . . ",
". . . . . . C 6 _ _ _ _ _ D E F G H 1 ! 2 I J K L M 2 2 2 2 2 2 2 2 2 2 2 2 2 2 ! 1 . . . . . . ",
". . . . . . N 9 D D D D D O P Q R S T ! 2 I U V W X Y 2 2 2 2 2 2 2 2 2 2 2 2 2 ! 4 . . . . . . ",
". . . . . . Z e ` ` ` ` `  ...+.@.#.$.%.&.*.=.-.;.>.,.'.6 6 6 6 6 6 6 6 6 6 6 6 ] 5 . . . . . . ",
". . . . . . ).j !.!.!.!.!.~.{.].^./.(._.:.<.[.}.|.1.2.3.4.M 9 9 9 9 9 9 9 9 9 9 / 8 . . . . . . ",
". . . . . . 5.n ( ( ( ( ( ( 6.7.8.9.0.a.b.c.d.e.9.9.f.g.h.i.j.e e e e e e e e e / d . . . . . . ",
". . . . . . k._ } } } } } } l.m.n.o.p.p.p.p.p.p.p.p.p.q.r.s.t.u.j j j j j j j j [ i . . . . . . ",
". . . . . . v.D 3 3 3 3 3 3 3 w.x.y.z.A.B.B.B.B.B.B.B.B.C.D.E.F.G.n n n n n n n 2 : . . . . . . ",
". . . . . . H.` 7 7 7 7 7 7 I.J.K.L.M.N.O.P.Q.R.S.S.S.T.U.V.W.X._ _ _ _ _ _ _ _ 6 u . . . . . . ",
". . . . . . Y.` 7 7 7 7 7 I.Z.`. +.+++@+#+$+%+&+*+=+-+;+>+,+_ _ _ _ _ _ _ _ _ _ 6 C . . . . . . ",
". . . . . . '+!.)+)+)+)+!+~+`.{+]+^+/+(+_+:+<+[+}+|+1+2+3+D D D D D D D D D D D 9 N . . . . . . ",
". . . . . . 4+( !+!+!+!+5+Z.6+7+8+@ 9+0+a+b+c+d+e+f+g+h+` ` ` ` ` ` ` ` ` ` ` ` e Z . . . . . . ",
". . . . . . i+n j j j j n !.7 5+Z.j+k+]+j+l+m+n+o+p+q+7 !.!.!.!.!.!.!.!.!.!.!.!.j ).. . . . . . ",
". . . . . . 4+i+i+i+i+i+i+r+s+/+k+t+/+u+]+v+w+x+y+~+!+3 ( ( ( ( ( ( ( ( ( ( ( ( n 5.. . . . . . ",
". . . . . . .                       z+Z.u+A+B+C+~+I.7 } } } } } } } } } } } } } _ k.. . . . . . ",
". . . . . . . . . . . . . . . . . . D+I.E+F+G+5+!+7 3 3 3 3 3 3 3 3 3 3 3 3 3 3 D v.. . . . . . ",
". . . . . . . . . . . . . . . . . . Y.} I.I.)+7 7 7 7 7 7 7 7 7 7 7 7 7 7 7 7 7 ` H.. . . . . . ",
". . . . . . . . . . . . . . . . . . Y.` 7 7 7 7 7 7 7 7 7 7 7 7 7 7 7 7 7 7 7 7 ` Y.. . . . . . ",
". . . . . . . . . . . . . . . . . . '+!.)+)+)+)+)+)+)+)+)+)+)+)+)+)+)+)+)+)+)+)+!.'+. . . . . . ",
". . . . . . . . . . . . . . . . . . 4+( !+!+!+!+!+!+!+!+!+!+!+!+!+!+!+!+!+!+!+!+( 4+. . . . . . ",
". . . . . . . . . . . . . . . . . . i+n j j j j j j j j j j j j j j j j j j j j n i+. . . . . . ",
". . . . . . . . . . . . . . . . . . 4+i+i+i+i+i+i+i+i+i+i+i+i+i+i+i+i+i+i+i+i+i+i+4+. . . . . . ",
". . . . . . . . . . . . . . . . . . .                                             . . . . . . . ",
". . . . . . . . . . . . . . . . . . . . . . . . . . . . . . . . . . . . . . . . . . . . . . . . ",
". . . . . . . . . . . . . . . . . . . . . . . . . . . . . . . . . . . . . . . . . . . . . . . . ",
". . . . . . . . . . . . . . . . . . . . . . . . . . . . . . . . . . . . . . . . . . . . . . . . ",
". . . . . . . . . . . . . . . . . . . . . . . . . . . . . . . . . . . . . . . . . . . . . . . . ",
". . . . . . . . . . . . . . . . . . . . . . . . . . . . . . . . . . . . . . . . . . . . . . . . "};
