/* XPM */
static char * edit_cut_xpm[] = {
"48 48 278 2",
"  	c None",
". 	c #000000",
"+ 	c #888A85",
"@ 	c #8C8D8A",
"# 	c #989A95",
"$ 	c #8B8D8A",
"% 	c #8D8F89",
"& 	c #BCBCB8",
"* 	c #949690",
"= 	c #90928D",
"- 	c #ECEBE9",
"; 	c #8D8F8A",
"> 	c #F4F3F2",
", 	c #A3A4A0",
"' 	c #CDCCC9",
") 	c #F6F5F4",
"! 	c #B5B6B1",
"~ 	c #C5C5C1",
"{ 	c #F6F5F3",
"] 	c #E0DFDC",
"^ 	c #969792",
"/ 	c #F2F1F0",
"( 	c #F4F3F1",
"_ 	c #DBDAD7",
": 	c #8D8E88",
"< 	c #8E908A",
"[ 	c #DFDEDB",
"} 	c #F3F2F1",
"| 	c #F5F4F3",
"1 	c #A3A49F",
"2 	c #8A8C89",
"3 	c #CECECA",
"4 	c #F2F1EF",
"5 	c #DDDDD9",
"6 	c #8E8F8B",
"7 	c #8D908B",
"8 	c #DAD9D6",
"9 	c #F2F1EE",
"0 	c #F3F2F0",
"a 	c #E0E0DD",
"b 	c #959792",
"c 	c #F2F2F0",
"d 	c #F1F0EE",
"e 	c #ECEBE8",
"f 	c #DCDAD6",
"g 	c #8D8F88",
"h 	c #DEDCD8",
"i 	c #E8E7E3",
"j 	c #F0EFED",
"k 	c #A4A5A2",
"l 	c #8C8F89",
"m 	c #CFCFCC",
"n 	c #F0EEEC",
"o 	c #DEDBD6",
"p 	c #E3E1DE",
"q 	c #8B8D87",
"r 	c #E4E3DF",
"s 	c #DBD8D3",
"t 	c #EEECEA",
"u 	c #E1E0DE",
"v 	c #969791",
"w 	c #91938F",
"x 	c #E6E4E0",
"y 	c #D9D6D0",
"z 	c #8A8C87",
"A 	c #8B8C87",
"B 	c #E2E0DD",
"C 	c #DAD7D2",
"D 	c #E1DFDA",
"E 	c #A5A7A2",
"F 	c #8B8E89",
"G 	c #EEECE9",
"H 	c #DAD7D1",
"I 	c #DCD9D4",
"J 	c #D9D7D3",
"K 	c #8E908B",
"L 	c #D2D1CD",
"M 	c #EAE9E5",
"N 	c #E1E1DE",
"O 	c #969692",
"P 	c #C4C3BE",
"Q 	c #8C8E89",
"R 	c #B5B5B1",
"S 	c #E4E2DD",
"T 	c #DDDAD5",
"U 	c #F0EFEC",
"V 	c #A4A6A1",
"W 	c #8E8E89",
"X 	c #D1D1CE",
"Y 	c #EAE8E5",
"Z 	c #949590",
"` 	c #E1DFDC",
" .	c #DCDAD4",
"..	c #E6E4DF",
"+.	c #E2E1DE",
"@.	c #92948E",
"#.	c #F0F0ED",
"$.	c #E1DFDB",
"%.	c #C8C8C4",
"&.	c #B7B7B2",
"*.	c #E5E3DF",
"=.	c #A6A7A2",
"-.	c #E3E2DE",
";.	c #91938D",
">.	c #8B8D88",
",.	c #D8D7D3",
"'.	c #E0DED9",
").	c #E1DEDA",
"!.	c #959591",
"~.	c #93958F",
"{.	c #EEEDEB",
"].	c #AFAEAA",
"^.	c #959892",
"/.	c #E4E2DE",
"(.	c #A2A39E",
"_.	c #91938E",
":.	c #D2D2CF",
"<.	c #E3E0DC",
"[.	c #CECDC9",
"}.	c #8C8E87",
"|.	c #B1B2AC",
"1.	c #D9D6D1",
"2.	c #EDEBEA",
"3.	c #C0C0BD",
"4.	c #939490",
"5.	c #EBE9E6",
"6.	c #8F908A",
"7.	c #D7D5D1",
"8.	c #A5A5A2",
"9.	c #D3D3CF",
"0.	c #DBD8D2",
"a.	c #E7E5E1",
"b.	c #90918B",
"c.	c #DFDDDA",
"d.	c #DDDBD5",
"e.	c #BDBAB6",
"f.	c #979894",
"g.	c #C5C3BE",
"h.	c #A0A09C",
"i.	c #A0A09A",
"j.	c #C5C4C1",
"k.	c #BEBFBC",
"l.	c #CECCC6",
"m.	c #E3E1DD",
"n.	c #D4D3CE",
"o.	c #8B8D89",
"p.	c #A6A7A3",
"q.	c #959691",
"r.	c #F9F9F9",
"s.	c #EFEFEE",
"t.	c #9B9C97",
"u.	c #DDDBD7",
"v.	c #8D8E8A",
"w.	c #BEBEBB",
"x.	c #C5C5C3",
"y.	c #DADBD9",
"z.	c #959793",
"A.	c #959692",
"B.	c #A70202",
"C.	c #A50000",
"D.	c #A40000",
"E.	c #A0514F",
"F.	c #B4B4AF",
"G.	c #A5A5A1",
"H.	c #9C9D98",
"I.	c #B6B6B2",
"J.	c #9A4542",
"K.	c #A60101",
"L.	c #BA1A1A",
"M.	c #DD3F3F",
"N.	c #ED5151",
"O.	c #EE5151",
"P.	c #E74646",
"Q.	c #AD0F0F",
"R.	c #CB7E7C",
"S.	c #AEAEAA",
"T.	c #A8A9A4",
"U.	c #C97170",
"V.	c #AB0C0C",
"W.	c #C52727",
"X.	c #F48888",
"Y.	c #C82424",
"Z.	c #A80707",
"`.	c #A70505",
" +	c #A70404",
".+	c #F14343",
"++	c #E94949",
"@+	c #B01111",
"#+	c #AF5150",
"$+	c #B85B5A",
"%+	c #F08484",
"&+	c #ED4141",
"*+	c #A50303",
"=+	c #A60404",
"-+	c #A50404",
";+	c #A70707",
">+	c #BC1D1D",
",+	c #E74B4B",
"'+	c #B00F0F",
")+	c #EC4D4D",
"!+	c #AF0C0C",
"~+	c #A70101",
"{+	c #EF2929",
"]+	c #F24B4B",
"^+	c #DA3838",
"/+	c #A40808",
"(+	c #A50909",
"_+	c #E92626",
":+	c #AC0A0A",
"<+	c #EC4E4E",
"[+	c #A80303",
"}+	c #D63737",
"|+	c #D73131",
"1+	c #A80202",
"2+	c #030000",
"3+	c #F03535",
"4+	c #EF4F4F",
"5+	c #AB0A0A",
"6+	c #E93131",
"7+	c #E44646",
"8+	c #C01818",
"9+	c #F14949",
"0+	c #D02828",
"a+	c #A60303",
"b+	c #EB4545",
"c+	c #A50101",
"d+	c #ED5050",
"e+	c #AC0808",
"f+	c #F25353",
"g+	c #AB0606",
"h+	c #EC4F4F",
"i+	c #A60505",
"j+	c #A60202",
"k+	c #E64848",
"l+	c #C01616",
"m+	c #BA1B1B",
"n+	c #EC4646",
"o+	c #B31717",
"p+	c #DC3C3C",
"q+	c #D82E2E",
"r+	c #DA3737",
"s+	c #D93232",
"t+	c #D73434",
"u+	c #B91919",
"v+	c #EF4B4B",
"w+	c #D11B1B",
"x+	c #B80B0B",
"y+	c #B00606",
"z+	c #D21E1E",
"A+	c #F25050",
"B+	c #B51313",
"C+	c #B41313",
"D+	c #D31F1F",
"E+	c #B20808",
"F+	c #AA0404",
"G+	c #BC0D0D",
"H+	c #D31C1C",
"I+	c #BA1919",
"J+	c #DA3939",
"K+	c #F24D4D",
"L+	c #F03737",
"M+	c #F03030",
"N+	c #F03939",
"O+	c #CA2929",
"P+	c #A40101",
"Q+	c #C72525",
"R+	c #DD3E3E",
"S+	c #E84C4C",
"T+	c #DB3D3D",
"U+	c #BE1F1F",
"V+	c #A30101",
"W+	c #950000",
"X+	c #A20202",
"Y+	c #9D0202",
"Z+	c #840000",
"`+	c #8C0000",
" @	c #A00202",
".@	c #8E0000",
". . . . . . . . . . . . . . . . . . . . . . . . . . . . . . . . . . . . . . . . . . . . . . . . ",
". . . . . . . . . . . . . . . . . . . . . . . . . . . . . . . . . . . . . . . . . . . . . . . . ",
". . . . . . . . . . . . . . . . . . . . . . . . . . . . . . . . . . . . . . . . . . . . . . . . ",
". . . . . . . . . . . . . . . . . . . . . . . . . . . . . . . . . . . . . . . . . . . . . . . . ",
". . . . . . . . . . . . . . . . . . . . . . . . . . . . . . . . . . . . . . . . . . . . . . . . ",
". . . . . . . . . . . . . . . . . . . . . . . . . . . . . . . . . . . . . . . . . . . . . . . . ",
". . . . . . . . . . . . . . . . . . . . . . . . . . . . . . . . . . . . . . . . . . . . . . . . ",
". . . . . . . . . . . . . . . . . . . . . . . . . . . . . . . . . . . . . . . . . . . . . . . . ",
". . . . . . . . . . . . . . . . + . . . . . . . . . . . . . . @ # $ . . . . . . . . . . . . . . ",
". . . . . . . . . . . . . . . % & * . . . . . . . . . . . . . = - ; . . . . . . . . . . . . . . ",
". . . . . . . . . . . . . . . * > , . . . . . . . . . . . . $ ' ) ! . . . . . . . . . . . . . . ",
". . . . . . . . . . . . . . . ~ { ] ^ . . . . . . . . . . . = / ( _ : . . . . . . . . . . . . . ",
". . . . . . . . . . . . . . < [ } | 1 . . . . . . . . . . 2 3 > 4 5 6 . . . . . . . . . . . . . ",
". . . . . . . . . . . . . . 7 8 9 0 a b . . . . . . . . . = c d e f ; . . . . . . . . . . . . . ",
". . . . . . . . . . . . . . g h i j | k . . . . . . . . l m > n o p q . . . . . . . . . . . . . ",
". . . . . . . . . . . . . . q r s t 0 u v . . . . . . . w 0 d x y x z . . . . . . . . . . . . . ",
". . . . . . . . . . . . . . A B C D j | E . . . . . . F m > G H I J K . . . . . . . . . . . . . ",
". . . . . . . . . . . . . . . L o y M 0 N O . . . . . w } d D y D P Q . . . . . . . . . . . . . ",
". . . . . . . . . . . . . . . R S y T U | V . . . . W X ( Y y H x Z . . . . . . . . . . . . . . ",
". . . . . . . . . . . . . . . . `  .y ..0 +.b . . . @.} #. .y $.%.. . . . . . . . . . . . . . . ",
". . . . . . . . . . . . . . . . &.*.y H t | =.. . 6 X ( *.y T -.;.. . . . . . . . . . . . . . . ",
". . . . . . . . . . . . . . . . >.,.'.y ).0 +.!.. ~.} {.H H x ].. . . . . . . . . . . . . . . . ",
". . . . . . . . . . . . . . . . . ^./.I y M | (._.:.( '.y <.[.F . . . . . . . . . . . . . . . . ",
". . . . . . . . . . . . . . . . . }.|.x 1. .2.3.4.} 5.y o $.6.. . . . . . . . . . . . . . . . . ",
". . . . . . . . . . . . . . . . . . F [.$.y 7.8.9.( I 0.a.V . . . . . . . . . . . . . . . . . . ",
". . . . . . . . . . . . . . . . . . . b.c.d.e.f.( x H *.g.Q . . . . . . . . . . . . . . . . . . ",
". . . . . . . . . . . . . . . . . . . . h.*.i.j.k.l.m.n.o.. . . . . . . . . . . . . . . . . . . ",
". . . . . . . . . . . . . . . . . . . . l p.q.r.s.t.u.< . . . . . . . . . . . . . . . . . . . . ",
". . . . . . . . . . . . . . . . . . . . . v.w.x.y.z.A.. . . . . . . . . . . . . . . . . . . . . ",
". . . . . . . . . . . . . . . B.C.C.D.C.D.E./ F.G.H.I.J.D.C.D.C.C.B.. . . . . . . . . . . . . . ",
". . . . . . . . . . . . . K.L.M.N.N.N.O.P.Q.R.x S.T.U.V.P.O.N.N.N.M.L.K.. . . . . . . . . . . . ",
". . . . . . . . . . . . B.W.X.Y.Z.`.`. +.+++@+#+; $+@+%+&+*+=+-+;+>+,+W.B.. . . . . . . . . . . ",
". . . . . . . . . . . . '+)+!+~+. . . D.{+]+^+/+. (+^+]+_+D.. . . C.:+<+'+. . . . . . . . . . . ",
". . . . . . . . . . . [+}+|+1+. . . 2+D.3+4+5+. . . V.4+6+C.. . . . [+|+}+[+. . . . . . . . . . ",
". . . . . . . . . . . B.7+8+. . . . 2+D.9+0+a+. . .  +0+b+c+. . . . . 8+7+B.. . . . . . . . . . ",
". . . . . . . . . . . D.d+e+. . . . . =+f+g+. . . . . g+h+i+. . . . . e+d+D.. . . . . . . . . . ",
". . . . . . . . . . . j+k+l+. . . . . m+n+C.. . . . . C.n+o+. . . . . l+k+j+. . . . . . . . . . ",
". . . . . . . . . . . 1+p+q+B.. . . K.r+s+1+. . . . . 1+s+t+~+. . . j+q+p+1+. . . . . . . . . . ",
". . . . . . . . . . . . u+v+w+x+1+y+z+A+B+. . . . . . . C+A+D+E+F+G+H+v+I+. . . . . . . . . . . ",
". . . . . . . . . . . . c+J+K+L+M+N+K+O+P+. . . . . . . P+O+K+N+M+L+K+J+P+. . . . . . . . . . . ",
". . . . . . . . . . . . . c+Q+R+S+T+U+V+. . . . . . . . . V+U+T+S+R+Q+P+. . . . . . . . . . . . ",
". . . . . . . . . . . . . . W+X+V+Y+Z+. . . . . . . . . . . `+ @V+ @.@. . . . . . . . . . . . . ",
". . . . . . . . . . . . . . . . . . . . . . . . . . . . . . . . . . . . . . . . . . . . . . . . ",
". . . . . . . . . . . . . . . . . . . . . . . . . . . . . . . . . . . . . . . . . . . . . . . . ",
". . . . . . . . . . . . . . . . . . . . . . . . . . . . . . . . . . . . . . . . . . . . . . . . ",
". . . . . . . . . . . . . . . . . . . . . . . . . . . . . . . . . . . . . . . . . . . . . . . . ",
". . . . . . . . . . . . . . . . . . . . . . . . . . . . . . . . . . . . . . . . . . . . . . . . ",
". . . . . . . . . . . . . . . . . . . . . . . . . . . . . . . . . . . . . . . . . . . . . . . . "};
