/* XPM */
static char * edit_paste_xpm[] = {
"48 48 366 2",
"  	c None",
". 	c #000000",
"+ 	c #6D6D6D",
"@ 	c #6C6C6C",
"# 	c #C4C4C4",
"$ 	c #E2E2E2",
"% 	c #E4E4E4",
"& 	c #E3E3E3",
"* 	c #C1C1C1",
"= 	c #656565",
"- 	c #D9D9D9",
"; 	c #F3F3F3",
"> 	c #F9F9F9",
", 	c #EFEFEF",
"' 	c #D8D8D8",
") 	c #636363",
"! 	c #606062",
"~ 	c #CECECF",
"{ 	c #E3E4E4",
"] 	c #C5C6C7",
"^ 	c #606060",
"/ 	c #8D6527",
"( 	c #8E6629",
"_ 	c #7E5B24",
": 	c #71695E",
"< 	c #C0C0C2",
"[ 	c #C9C9CB",
"} 	c #BDBDBF",
"| 	c #71695D",
"1 	c #DBB477",
"2 	c #E8C389",
"3 	c #D5B37E",
"4 	c #8D816E",
"5 	c #959697",
"6 	c #A2A3A4",
"7 	c #A3A3A5",
"8 	c #969799",
"9 	c #8D826F",
"0 	c #D3B17D",
"a 	c #DAB477",
"b 	c #8C6527",
"c 	c #90682B",
"d 	c #E5BC7B",
"e 	c #E2B369",
"f 	c #8F7A58",
"g 	c #BCBDBE",
"h 	c #CDCECF",
"i 	c #BEBEBF",
"j 	c #8E7958",
"k 	c #BB965B",
"l 	c #827159",
"m 	c #7D705A",
"n 	c #827359",
"o 	c #B6925A",
"p 	c #E5BC7A",
"q 	c #DCAE66",
"r 	c #D6AA64",
"s 	c #D9B274",
"t 	c #E4BB7A",
"u 	c #E1B269",
"v 	c #E1B268",
"w 	c #D6A963",
"x 	c #9B825D",
"y 	c #99886E",
"z 	c #9A8B75",
"A 	c #7B705D",
"B 	c #727272",
"C 	c #8F6829",
"D 	c #E3BA79",
"E 	c #E0B168",
"F 	c #D5A863",
"G 	c #998971",
"H 	c #FEFEFE",
"I 	c #FFFFFF",
"J 	c #757575",
"K 	c #E3BA78",
"L 	c #DFB167",
"M 	c #DFB067",
"N 	c #D4A762",
"O 	c #988971",
"P 	c #F5F5F5",
"Q 	c #F1F1F1",
"R 	c #8F6729",
"S 	c #E2B977",
"T 	c #DEB066",
"U 	c #DEAF66",
"V 	c #D3A661",
"W 	c #988871",
"X 	c #F4F4F4",
"Y 	c #E1B775",
"Z 	c #DDAF65",
"` 	c #D2A560",
" .	c #97886F",
"..	c #F0F0F0",
"+.	c #8E6729",
"@.	c #E0B775",
"#.	c #DCAE65",
"$.	c #DCAE64",
"%.	c #C9A75B",
"&.	c #B79B52",
"*.	c #8F8568",
"=.	c #8E6728",
"-.	c #DFB674",
";.	c #DBAD64",
">.	c #B59F52",
",.	c #73983A",
"'.	c #818A39",
").	c #91846B",
"!.	c #F2F2F2",
"~.	c #EEEEEE",
"{.	c #747474",
"].	c #8E6528",
"^.	c #DEB473",
"/.	c #DAAC63",
"(.	c #C1A257",
"_.	c #749B3B",
":.	c #7F973D",
"<.	c #C69F5A",
"[.	c #95866E",
"}.	c #EDEDED",
"|.	c #DDB472",
"1.	c #D9AB62",
"2.	c #D6A960",
"3.	c #849A47",
"4.	c #7FB054",
"5.	c #AD9A4C",
"6.	c #CEA25D",
"7.	c #94856D",
"8.	c #ECECEC",
"9.	c #E4E7E3",
"0.	c #8C6528",
"a.	c #DCB371",
"b.	c #D8AA61",
"c.	c #B19B4E",
"d.	c #98BC76",
"e.	c #96BC6F",
"f.	c #BB9E53",
"g.	c #CDA15C",
"h.	c #EBEBEB",
"i.	c #89AC7F",
"j.	c #D2DAD0",
"k.	c #DBB170",
"l.	c #D7A961",
"m.	c #8B9741",
"n.	c #C7E1AF",
"o.	c #9FC778",
"p.	c #A7984A",
"q.	c #CCA05C",
"r.	c #93846D",
"s.	c #73A557",
"t.	c #78AA58",
"u.	c #BACBB4",
"v.	c #EAEAEA",
"w.	c #8C6427",
"x.	c #DAB170",
"y.	c #D6A860",
"z.	c #72963C",
"A.	c #DAF1BC",
"B.	c #CEE8B0",
"C.	c #739535",
"D.	c #BE9A55",
"E.	c #92846C",
"F.	c #6FA353",
"G.	c #CDEBAA",
"H.	c #7CB154",
"I.	c #9BB890",
"J.	c #E5E7E4",
"K.	c #D9B06F",
"L.	c #D5A75F",
"M.	c #D3A75E",
"N.	c #6A9434",
"O.	c #D8F3B5",
"P.	c #CCF09E",
"Q.	c #A4D179",
"R.	c #6D8F2F",
"S.	c #7B7B58",
"T.	c #E9EBE9",
"U.	c #E9E9E9",
"V.	c #6DA150",
"W.	c #DCF4BF",
"X.	c #DAF2BC",
"Y.	c #8DC161",
"Z.	c #81AB6C",
"`.	c #D6DCD4",
" +	c #8B6427",
".+	c #D8AE6D",
"++	c #D4A65E",
"@+	c #698F2E",
"#+	c #CFEBB1",
"$+	c #9FDE54",
"%+	c #CAEDA1",
"&+	c #B6DD8F",
"*+	c #71A745",
"=+	c #70A457",
"-+	c #82AC6E",
";+	c #649E43",
">+	c #D3F0B3",
",+	c #A2DF5A",
"'+	c #CAEDA2",
")+	c #A2D078",
"!+	c #70A553",
"~+	c #BFCDBB",
"{+	c #E8E8E8",
"]+	c #717171",
"^+	c #D7AD6D",
"/+	c #D3A55E",
"(+	c #D2A55E",
"_+	c #D2A55D",
":+	c #839037",
"<+	c #9BCE6B",
"[+	c #A8DE6B",
"}+	c #8FD441",
"|+	c #A4DC64",
"1+	c #BAE589",
"2+	c #BFE496",
"3+	c #B2DB88",
"4+	c #ACD783",
"5+	c #C6E89E",
"6+	c #91D544",
"7+	c #90D542",
"8+	c #AFE076",
"9+	c #AFDA83",
"0+	c #6BA546",
"a+	c #A1BB97",
"b+	c #E3E5E3",
"c+	c #E7E7E7",
"d+	c #8B6327",
"e+	c #D6AD6C",
"f+	c #D1A45D",
"g+	c #B0984D",
"h+	c #649C2E",
"i+	c #B0DF7F",
"j+	c #8BD043",
"k+	c #85CD39",
"l+	c #85CD3A",
"m+	c #88CE3E",
"n+	c #94D351",
"o+	c #A8DA76",
"p+	c #6EAD42",
"q+	c #82AA72",
"r+	c #D8DDD7",
"s+	c #E6E6E6",
"t+	c #6F6F6F",
"u+	c #8A6325",
"v+	c #D4AB6B",
"w+	c #D0A35C",
"x+	c #CFA25C",
"y+	c #7F8C35",
"z+	c #6AAC34",
"A+	c #9AD361",
"B+	c #82C93D",
"C+	c #7BC632",
"D+	c #82C93C",
"E+	c #98D35F",
"F+	c #61A62F",
"G+	c #77A268",
"H+	c #DBDEDA",
"I+	c #E5E5E5",
"J+	c #D3AA6A",
"K+	c #CFA25B",
"L+	c #C99F58",
"M+	c #768931",
"N+	c #5B9B25",
"O+	c #7DC041",
"P+	c #7FC43F",
"Q+	c #78C135",
"R+	c #75C030",
"S+	c #73BF2D",
"T+	c #74C02F",
"U+	c #71BE2A",
"V+	c #7EC43F",
"W+	c #63A92F",
"X+	c #6F9F5A",
"Y+	c #CCD5CA",
"Z+	c #D2AA68",
"`+	c #CEA25A",
" @	c #CEA15A",
".@	c #CBA059",
"+@	c #999041",
"@@	c #588321",
"#@	c #529425",
"$@	c #5FA82B",
"%@	c #6BB234",
"&@	c #71B637",
"*@	c #7EC043",
"=@	c #68B723",
"-@	c #71BC31",
";@	c #79BD3E",
">@	c #589B2F",
",@	c #88AC7B",
"'@	c #D1A968",
")@	c #CDA15A",
"!@	c #CDA05A",
"~@	c #CDA059",
"{@	c #BF9752",
"]@	c #767954",
"^@	c #9DB995",
"/@	c #7FA770",
"(@	c #4D8D32",
"_@	c #77BC48",
":@	c #5AAC20",
"<@	c #6DB63A",
"[@	c #68AE3B",
"}@	c #549339",
"|@	c #A7BEA1",
"1@	c #E1E2E1",
"2@	c #886125",
"3@	c #D0A867",
"4@	c #CCA059",
"5@	c #CC9F59",
"6@	c #C29754",
"7@	c #8D7E67",
"8@	c #558F41",
"9@	c #74B64F",
"0@	c #70B44A",
"a@	c #569E33",
"b@	c #5B9348",
"c@	c #C1CDBE",
"d@	c #6E6E6E",
"e@	c #886124",
"f@	c #CFA766",
"g@	c #CB9F58",
"h@	c #C19654",
"i@	c #8C7E67",
"j@	c #E1E1E1",
"k@	c #518C40",
"l@	c #68AC4C",
"m@	c #458E2C",
"n@	c #76A06B",
"o@	c #D3D8D2",
"p@	c #CEA665",
"q@	c #CA9E57",
"r@	c #C09653",
"s@	c #8B7D66",
"t@	c #E0E0E0",
"u@	c #4D893F",
"v@	c #3E842C",
"w@	c #99B492",
"x@	c #DCDDDC",
"y@	c #CDA565",
"z@	c #C99D56",
"A@	c #BF9552",
"B@	c #8B7C66",
"C@	c #DFDFDF",
"D@	c #6F9A67",
"E@	c #B9C7B6",
"F@	c #876024",
"G@	c #CCA463",
"H@	c #C89C56",
"I@	c #BE9452",
"J@	c #8A7C65",
"K@	c #DEDEDE",
"L@	c #CED4CD",
"M@	c #845D21",
"N@	c #C39C5E",
"O@	c #CFA96D",
"P@	c #C4A067",
"Q@	c #8C806C",
"R@	c #805B20",
"S@	c #856024",
"T@	c #736858",
"U@	c #DDDDDD",
"V@	c #676767",
"W@	c #DCDCDC",
"X@	c #6B6B6B",
"Y@	c #494949",
". . . . . . . . . . . . . . . . . . . . . . . . . . . . . . . . . . . . . . . . . . . . . . . . ",
". . . . . . . . . . . . . . . . . . . . . . . . . . . . . . . . . . . . . . . . . . . . . . . . ",
". . . . . . . . . . . . . . . . . . . . . . . . . . . . . . . . . . . . . . . . . . . . . . . . ",
". . . . . . . . . . . . . . . . . . . . . . . . . . . . . . . . . . . . . . . . . . . . . . . . ",
". . . . . . . . . . . . . . . .   + @ @ @ @ @ @ @ @   . . . . . . . . . . . . . . . . . . . . . ",
". . . . . . . . . . . . . . .   # $ % % % % % % % & *   . . . . . . . . . . . . . . . . . . . . ",
". . . . . . . . . . . . . . . = - ; > > > > > > > , ' ) . . . . . . . . . . . . . . . . . . . . ",
". . . . . . . . . . . . . . . ! ~ { ] ] ] ] ] ] ] { ~ ^ . . . . . . . . . . . . . . . . . . . . ",
". . . . . .   / ( ( ( ( ( ( _ : < [ } } } } } } } [ < | _ ( ( ( ( ( ( /   . . . . . . . . . . . ",
". . . . . . / 1 2 2 2 2 2 3 4 5 6 7 6 6 6 6 6 6 6 7 6 8 9 0 2 2 2 2 2 a b . . . . . . . . . . . ",
". . . . . . c d e e e e e f g h h h h h h h h h h h h h i j e e e e e d c . . . . . . . . . . . ",
". . . . . . c d e e e e e k l m m m m m m m m m m m m m n o e e e e e d c . . . . . . . . . . . ",
". . . . . . c p e e e e e e e e e e e e e e e e e e e e e e e e e e e p c . . . . . . . . . . . ",
". . . . . . c p e e e e e e e e e e q r r r r r r r r r r r r r r r r s c . . . . . . . . . . . ",
". . . . . . c t u u v v v v v v v v w x y y y y y y y y y y y y y y y z A B B B B B   . . . . . ",
". . . . . . C D E E E E E E E E E E F G H I I I I I I I I I I I I I I I I I I I I H J . . . . . ",
". . . . . . C K L L L M M M M M M M N O P Q Q Q Q Q Q Q Q Q Q Q Q Q Q Q Q Q Q Q Q P J . . . . . ",
". . . . . . R S T T T T T T T U U U V W X Q Q Q Q Q Q Q Q Q Q Q Q Q Q Q Q Q Q Q Q X J . . . . . ",
". . . . . . R Y Z Z Z Z Z Z Z Z Z Z `  .; ........................................; J . . . . . ",
". . . . . . +.@.#.#.#.#.#.#.#.#.$.%.&.*.; , , , , , , , , , , , , , , , , , , , , ; J . . . . . ",
". . . . . . =.-.;.;.;.;.;.;.;.;.>.,.'.).!.~.~.~.~.~.~.~.~.~.~.~.~.~.~.~.~.~.~.~.~.!.{.. . . . . ",
". . . . . . ].^./././././././.(._.:.<.[.Q }.}.}.}.}.}.}.}.}.}.}.}.}.}.}.}.}.}.}.}.Q {.. . . . . ",
". . . . . . ].|.1.1.1.1.1.1.2.3.4.5.6.7...8.9.8.8.8.8.8.8.8.8.8.8.8.8.8.8.8.8.8.8...B . . . . . ",
". . . . . . 0.a.b.b.b.b.b.b.c.d.e.f.g.7., h.i.j.h.h.h.h.h.h.h.h.h.h.h.h.h.h.h.h.h., B . . . . . ",
". . . . . . 0.k.l.l.l.l.l.l.m.n.o.p.q.r., h.s.t.u.v.h.h.h.h.h.h.h.h.h.h.h.h.h.h.h., B . . . . . ",
". . . . . . w.x.y.y.y.y.y.y.z.A.B.C.D.E.~.v.F.G.H.I.J.v.v.v.v.v.v.v.v.v.v.v.v.v.v.~.B . . . . . ",
". . . . . . w.K.L.L.L.L.L.M.N.O.P.Q.R.S.T.U.V.W.X.Y.Z.`.U.U.U.U.U.U.U.U.U.U.U.U.U.}.B . . . . . ",
". . . . . .  +.+++++++++++++@+#+$+%+&+*+=+-+;+>+,+'+)+!+~+{+{+{+{+{+{+{+{+{+{+{+{+}.]+. . . . . ",
". . . . . .  +^+/+/+/+(+_+_+:+<+[+}+|+1+2+3+4+5+6+7+8+9+0+a+b+c+c+c+c+c+c+c+c+c+c+8.]+. . . . . ",
". . . . . . d+e+f+f+f+f+f+f+g+h+i+j+k+k+l+m+m+m+l+k+k+n+o+p+q+r+s+s+s+s+s+s+s+s+s+h.t+. . . . . ",
". . . . . . u+v+w+w+w+w+w+w+x+y+z+A+B+C+C+C+C+C+C+C+C+C+D+E+F+G+H+I+I+I+I+I+I+I+I+v.t+. . . . . ",
". . . . . . u+J+K+K+K+K+K+K+K+L+M+N+O+P+Q+R+S+T+U+U+U+T+V+W+X+Y+I+I+I+I+I+I+I+I+I+v.t+. . . . . ",
". . . . . . u+Z+`+ @ @ @ @ @ @ @.@+@@@#@$@%@&@*@=@=@-@;@>@,@H+% % % % % % % % % % U.t+. . . . . ",
". . . . . . u+'@)@)@)@)@!@!@!@!@!@~@{@]@^@/@(@_@:@<@[@}@|@1@& & & & & & & & & & & {+t+. . . . . ",
". . . . . . 2@3@4@4@4@4@4@4@4@5@5@5@6@7@c+$ 8@9@0@a@b@c@$ $ $ $ $ $ $ $ $ $ $ $ $ c+d@. . . . . ",
". . . . . . e@f@g@g@g@g@g@g@g@g@g@g@h@i@s+j@k@l@m@n@o@j@j@j@j@j@j@j@j@j@j@j@j@j@j@s+d@. . . . . ",
". . . . . . e@p@q@q@q@q@q@q@q@q@q@q@r@s@I+t@u@v@w@x@t@t@t@t@t@t@t@t@t@t@t@t@t@t@t@I+@ . . . . . ",
". . . . . . e@y@z@z@z@z@z@z@z@z@z@z@A@B@% C@D@E@C@C@C@C@C@C@C@C@C@C@C@C@C@C@C@C@C@% @ . . . . . ",
". . . . . . F@G@H@H@H@H@H@H@H@H@H@H@I@J@& K@L@K@K@K@K@K@K@K@K@K@K@K@K@K@K@K@K@K@K@& @ . . . . . ",
". . . . . . M@N@O@O@O@O@O@O@O@O@O@O@P@Q@& K@K@K@K@K@K@K@K@K@K@K@K@K@K@K@K@K@K@K@K@& @ . . . . . ",
". . . . . .   R@S@S@S@S@S@S@S@S@S@S@S@T@$ U@U@U@U@U@U@U@U@U@U@U@U@U@U@U@U@U@U@U@U@$ @ . . . . . ",
". . . . . . . .                       V@j@W@W@W@W@W@W@W@W@W@W@W@W@W@W@W@W@W@W@W@W@j@X@. . . . . ",
". . . . . . . . . . . . . . . . . . . X@s+c+c+c+c+c+c+c+c+c+c+c+c+c+c+c+c+c+c+c+c+s+X@. . . . . ",
". . . . . . . . . . . . . . . . . . . Y@X@X@X@X@X@X@X@X@X@X@X@X@X@X@X@X@X@X@X@X@X@X@Y@. . . . . ",
". . . . . . . . . . . . . . . . . . . .                                             . . . . . . ",
". . . . . . . . . . . . . . . . . . . . . . . . . . . . . . . . . . . . . . . . . . . . . . . . ",
". . . . . . . . . . . . . . . . . . . . . . . . . . . . . . . . . . . . . . . . . . . . . . . . ",
". . . . . . . . . . . . . . . . . . . . . . . . . . . . . . . . . . . . . . . . . . . . . . . . "};
