/* XPM */
static char * go_bottom_xpm[] = {
"48 48 306 2",
"  	c None",
". 	c #000000",
"+ 	c #317918",
"@ 	c #4C8C28",
"# 	c #387C1B",
"$ 	c #4D8E28",
"% 	c #D6F5A1",
"& 	c #DBF9A7",
"* 	c #DBF9A6",
"= 	c #DAF9A6",
"- 	c #DAF9A5",
"; 	c #DAF9A4",
"> 	c #D9F9A4",
", 	c #D9F9A3",
"' 	c #D9F9A2",
") 	c #D9F9A1",
"! 	c #D8F9A1",
"~ 	c #D8F9A0",
"{ 	c #D8F99F",
"] 	c #5E9C33",
"^ 	c #4A8D27",
"/ 	c #D2F39C",
"( 	c #C4F375",
"_ 	c #C3F373",
": 	c #D3F699",
"< 	c #5B9B31",
"[ 	c #488D24",
"} 	c #CFF197",
"| 	c #BFF16F",
"1 	c #BEF16D",
"2 	c #CFF593",
"3 	c #5A9B2E",
"4 	c #478B23",
"5 	c #CBEF93",
"6 	c #BAEE6A",
"7 	c #B9EE68",
"8 	c #CBF28E",
"9 	c #579A2D",
"0 	c #468A20",
"a 	c #C6EE8E",
"b 	c #B4EC64",
"c 	c #B3EC62",
"d 	c #C6F189",
"e 	c #55982A",
"f 	c #448A1F",
"g 	c #C2EB89",
"h 	c #AFE95F",
"i 	c #AEE95C",
"j 	c #C1EE83",
"k 	c #539728",
"l 	c #43891D",
"m 	c #BEE984",
"n 	c #AAE65A",
"o 	c #A9E657",
"p 	c #BDEC7E",
"q 	c #519626",
"r 	c #40891A",
"s 	c #BAE87E",
"t 	c #A5E454",
"u 	c #A4E451",
"v 	c #B8EA78",
"w 	c #4E9523",
"x 	c #3F8719",
"y 	c #B6E67A",
"z 	c #A1E150",
"A 	c #9FE14D",
"B 	c #B4E773",
"C 	c #4D9421",
"D 	c #3D8618",
"E 	c #B2E377",
"F 	c #9CDE4C",
"G 	c #9ADD49",
"H 	c #AFE470",
"I 	c #4B9220",
"J 	c #3C8418",
"K 	c #AEE173",
"L 	c #98DB49",
"M 	c #96DA46",
"N 	c #ABE26C",
"O 	c #48901F",
"P 	c #3B8316",
"Q 	c #AADD6E",
"R 	c #93D745",
"S 	c #91D642",
"T 	c #A7DE67",
"U 	c #478F1C",
"V 	c #398315",
"W 	c #A6DB6B",
"X 	c #8ED441",
"Y 	c #8DD33F",
"Z 	c #A2DB63",
"` 	c #468F1B",
" .	c #368214",
"..	c #A1D767",
"+.	c #89D03D",
"@.	c #88CF3B",
"#.	c #9DD85E",
"$.	c #438C1A",
"%.	c #1D6806",
"&.	c #347F12",
"*.	c #3E8817",
"=.	c #9CD563",
"-.	c #84CD3A",
";.	c #83CC38",
">.	c #98D55A",
",.	c #48911C",
"'.	c #337E12",
").	c #438B1A",
"!.	c #91CA59",
"~.	c #99D061",
"{.	c #98D060",
"].	c #97D05F",
"^.	c #97D05E",
"/.	c #9CD463",
"(.	c #81C936",
"_.	c #7FC834",
":.	c #94D155",
"<.	c #8FCD51",
"[.	c #8ECC4F",
"}.	c #8ECC4E",
"|.	c #8DCC4E",
"1.	c #8DCC4D",
"2.	c #8CCB4C",
"3.	c #84C445",
"4.	c #428C18",
"5.	c #4B9322",
"6.	c #95CF5E",
"7.	c #83C93F",
"8.	c #7CC634",
"9.	c #7AC531",
"0.	c #7CC633",
"a.	c #7BC533",
"b.	c #80C83A",
"c.	c #89CA4A",
"d.	c #4C951F",
"e.	c #549A24",
"f.	c #91CD58",
"g.	c #7AC333",
"h.	c #76C12D",
"i.	c #79C231",
"j.	c #86C846",
"k.	c #539C22",
"l.	c #5BA22B",
"m.	c #8CCA53",
"n.	c #73BF2D",
"o.	c #71BE2A",
"p.	c #72BF2C",
"q.	c #81C541",
"r.	c #5AA225",
"s.	c #25700A",
"t.	c #63A932",
"u.	c #84C549",
"v.	c #6DBA27",
"w.	c #6CBA26",
"x.	c #7AC03A",
"y.	c #5EA829",
"z.	c #27730B",
"A.	c #2A750A",
"B.	c #69AE36",
"C.	c #7CC140",
"D.	c #68B723",
"E.	c #73BC33",
"F.	c #64AD2C",
"G.	c #2B750B",
"H.	c #2C770C",
"I.	c #6BB13A",
"J.	c #70BA37",
"K.	c #61B221",
"L.	c #6AB72E",
"M.	c #66AF30",
"N.	c #2E7A0D",
"O.	c #2F7B0E",
"P.	c #6CB03C",
"Q.	c #65B22E",
"R.	c #5AAC1F",
"S.	c #60AF28",
"T.	c #64AE31",
"U.	c #307E0F",
"V.	c #328011",
"W.	c #69B03C",
"X.	c #5BAB28",
"Y.	c #53A71D",
"Z.	c #58A923",
"`.	c #61AD31",
" +	c #348212",
".+	c #358215",
"++	c #65AD3B",
"@+	c #51A521",
"#+	c #4CA21B",
"$+	c #4FA31F",
"%+	c #5CAA2F",
"&+	c #358513",
"*+	c #378517",
"=+	c #5DA938",
"-+	c #489E1D",
";+	c #459C19",
">+	c #469D1B",
",+	c #55A42D",
"'+	c #388817",
")+	c #39891C",
"!+	c #54A331",
"~+	c #409819",
"{+	c #3E9717",
"]+	c #3F9718",
"^+	c #4C9F28",
"/+	c #398A1A",
"(+	c #1A6804",
"_+	c #196804",
":+	c #3A8C1E",
"<+	c #499C2A",
"[+	c #379215",
"}+	c #449924",
"|+	c #398C1D",
"1+	c #1C6A05",
"2+	c #1A6A05",
"3+	c #388B1F",
"4+	c #3F9424",
"5+	c #308C13",
"6+	c #3A911E",
"7+	c #388C1F",
"8+	c #1A6B07",
"9+	c #186A06",
"0+	c #358A20",
"a+	c #338D1B",
"b+	c #298710",
"c+	c #308B17",
"d+	c #368C1F",
"e+	c #1B6B07",
"f+	c #31881F",
"g+	c #298616",
"h+	c #268413",
"i+	c #30891E",
"j+	c #1A6C09",
"k+	c #196B08",
"l+	c #2D861E",
"m+	c #2D861D",
"n+	c #196E0A",
"o+	c #1A6E0A",
"p+	c #1C710C",
"q+	c #125402",
"r+	c #125F03",
"s+	c #146404",
"t+	c #146304",
"u+	c #136204",
"v+	c #136104",
"w+	c #136004",
"x+	c #146104",
"y+	c #136103",
"z+	c #136504",
"A+	c #559C48",
"B+	c #5CA24D",
"C+	c #5CA14D",
"D+	c #5BA14C",
"E+	c #5BA04C",
"F+	c #5AA04C",
"G+	c #5AA04B",
"H+	c #589F4A",
"I+	c #156806",
"J+	c #136604",
"K+	c #549C43",
"L+	c #4E9A2A",
"M+	c #4D9927",
"N+	c #4C9827",
"O+	c #4B9826",
"P+	c #4B9726",
"Q+	c #4A9625",
"R+	c #499524",
"S+	c #489423",
"T+	c #489422",
"U+	c #479322",
"V+	c #479321",
"W+	c #469221",
"X+	c #459220",
"Y+	c #459120",
"Z+	c #44901F",
"`+	c #43901E",
" @	c #438F1E",
".@	c #428F1D",
"+@	c #428E1D",
"@@	c #418E1C",
"#@	c #418D1C",
"$@	c #408D1B",
"%@	c #408C1B",
"&@	c #3F8C1A",
"*@	c #3F8B1A",
"=@	c #3E8A19",
"-@	c #539B41",
";@	c #156807",
">@	c #136704",
",@	c #499638",
"'@	c #509B3F",
")@	c #509A3E",
"!@	c #4F9A3E",
"~@	c #4F9A3D",
"{@	c #4F993D",
"]@	c #4E993C",
"^@	c #4E983C",
"/@	c #4D983C",
"(@	c #4D983B",
"_@	c #4D973B",
":@	c #4C973B",
"<@	c #499639",
"[@	c #156907",
"}@	c #126203",
"|@	c #156605",
"1@	c #156505",
". . . . . . . . . . . . . . . . . . . . . . . . . . . . . . . . . . . . . . . . . . . . . . . . ",
". . . . . . . . . . . . . . . . . . . . . . . . . . . . . . . . . . . . . . . . . . . . . . . . ",
". . . . . . . . . . . . . . . . . . . . . . . . . . . . . . . . . . . . . . . . . . . . . . . . ",
". . . . . . . . . . . . . . . . . . . . . . . . . . . . . . . . . . . . . . . . . . . . . . . . ",
". . . . . . . . . . . . . . . . . . . . . . . . . . . . . . . . . . . . . . . . . . . . . . . . ",
". . . . . . . . . . . . . . . + @ @ @ @ @ @ @ @ @ @ @ @ @ @ @ @ # . . . . . . . . . . . . . . . ",
". . . . . . . . . . . . . . . $ % & * = - - ; > , , ' ) ! ~ ~ { ] . . . . . . . . . . . . . . . ",
". . . . . . . . . . . . . . . ^ / ( _ _ _ _ _ _ _ _ _ _ _ _ _ : < . . . . . . . . . . . . . . . ",
". . . . . . . . . . . . . . . [ } | 1 1 1 1 1 1 1 1 1 1 1 1 1 2 3 . . . . . . . . . . . . . . . ",
". . . . . . . . . . . . . . . 4 5 6 7 7 7 7 7 7 7 7 7 7 7 7 7 8 9 . . . . . . . . . . . . . . . ",
". . . . . . . . . . . . . . . 0 a b c c c c c c c c c c c c c d e . . . . . . . . . . . . . . . ",
". . . . . . . . . . . . . . . f g h i i i i i i i i i i i i i j k . . . . . . . . . . . . . . . ",
". . . . . . . . . . . . . . . l m n o o o o o o o o o o o o o p q . . . . . . . . . . . . . . . ",
". . . . . . . . . . . . . . . r s t u u u u u u u u u u u u u v w . . . . . . . . . . . . . . . ",
". . . . . . . . . . . . . . . x y z A A A A A A A A A A A A A B C . . . . . . . . . . . . . . . ",
". . . . . . . . . . . . . . . D E F G G G G G G G G G G G G G H I . . . . . . . . . . . . . . . ",
". . . . . . . . . . . . . . . J K L M M M M M M M M M M M M M N O . . . . . . . . . . . . . . . ",
". . . . . . . . . . . . . . . P Q R S S S S S S S S S S S S S T U . . . . . . . . . . . . . . . ",
". . . . . . . . . . . . . . . V W X Y Y Y Y Y Y Y Y Y Y Y Y Y Z ` . . . . . . . . . . . . . . . ",
". . . . . . . . . . . . . . .  ...+.@.@.@.@.@.@.@.@.@.@.@.@.@.#.$.. . . . . . . . . . . . . . . ",
". . . . . . . %.&.&.&.&.&.&.&.*.=.-.;.;.;.;.;.;.;.;.;.;.;.;.;.>.,.'.&.&.&.&.&.&.%.. . . . . . . ",
". . . . . . . . ).!.~.~.{.{.].^./.(._._._._._._._._._._._._._.:.<.[.}.|.1.2.3.4.. . . . . . . . ",
". . . . . . . . . 5.6.7.8.8.8.8.8.9.9.9.9.9.9.9.9.9.9.9.9.9.9.0.0.a.a.a.b.c.d.. . . . . . . . . ",
". . . . . . . . . . e.f.g.h.h.h.h.h.h.h.h.h.h.h.h.h.h.h.h.h.h.h.h.h.h.i.j.k.. . . . . . . . . . ",
". . . . . . . . . . . l.m.n.o.o.o.o.o.o.o.o.o.o.o.o.o.o.o.o.o.o.o.o.p.q.r.. . . . . . . . . . . ",
". . . . . . . . . . . s.t.u.v.w.w.w.w.w.w.w.w.w.w.w.w.w.w.w.w.w.w.v.x.y.z.. . . . . . . . . . . ",
". . . . . . . . . . . . A.B.C.D.D.D.D.D.D.D.D.D.D.D.D.D.D.D.D.D.D.E.F.G.. . . . . . . . . . . . ",
". . . . . . . . . . . . . H.I.J.K.K.K.K.K.K.K.K.K.K.K.K.K.K.K.K.L.M.N.. . . . . . . . . . . . . ",
". . . . . . . . . . . . . . O.P.Q.R.R.R.R.R.R.R.R.R.R.R.R.R.R.S.T.U.. . . . . . . . . . . . . . ",
". . . . . . . . . . . . . . . V.W.X.Y.Y.Y.Y.Y.Y.Y.Y.Y.Y.Y.Y.Z.`. +. . . . . . . . . . . . . . . ",
". . . . . . . . . . . . . . . . .+++@+#+#+#+#+#+#+#+#+#+#+$+%+&+. . . . . . . . . . . . . . . . ",
". . . . . . . . . . . . . . . . . *+=+-+;+;+;+;+;+;+;+;+>+,+'+. . . . . . . . . . . . . . . . . ",
". . . . . . . . . . . . . . . . . . )+!+~+{+{+{+{+{+{+]+^+/+(+. . . . . . . . . . . . . . . . . ",
". . . . . . . . . . . . . . . . . . _+:+<+[+[+[+[+[+[+}+|+1+. . . . . . . . . . . . . . . . . . ",
". . . . . . . . . . . . . . . . . . . 2+3+4+5+5+5+5+6+7+8+. . . . . . . . . . . . . . . . . . . ",
". . . . . . . . . . . . . . . . . . . . 9+0+a+b+b+c+d+e+. . . . . . . . . . . . . . . . . . . . ",
". . . . . . . . . . . . . . . . . . . . . 9+f+g+h+i+j+. . . . . . . . . . . . . . . . . . . . . ",
". . . . . . . . . . . . . . . . . . . . . . k+l+m+n+. . . . . . . . . . . . . . . . . . . . . . ",
". . . . . . . . . . . . . . . . . . . . . . . o+p+. . . . . . . . . . . . . . . . . . . . . . . ",
". . . . . . . . . . . . . . . . . . . . . . . . q+. . . . . . . . . . . . . . . . . . . . . . . ",
". . . . . . . r+s+s+s+s+t+t+t+t+u+u+u+v+v+v+v+w+x+v+v+v+v+u+u+u+t+t+t+t+s+s+s+s+y+. . . . . . . ",
". . . . . . . z+A+B+B+B+B+B+C+C+C+D+D+D+D+D+D+D+D+D+D+D+E+E+F+F+G+G+G+G+G+G+G+H+I+. . . . . . . ",
". . . . . . . J+K+L+M+N+O+P+P+Q+Q+R+R+S+T+U+V+W+X+Y+Z+Z+`+ @.@+@@@#@$@%@&@*@=@-@;@. . . . . . . ",
". . . . . . . >@,@'@'@)@)@)@)@)@)@!@!@~@{@{@{@{@{@]@]@]@^@^@/@/@/@(@(@_@_@_@:@<@[@. . . . . . . ",
". . . . . . . }@|@|@|@|@|@|@1@1@1@1@1@1@1@1@1@1@1@1@1@1@1@1@1@1@1@|@|@|@|@|@|@|@y+. . . . . . . ",
". . . . . . . . . . . . . . . . . . . . . . . . . . . . . . . . . . . . . . . . . . . . . . . . ",
". . . . . . . . . . . . . . . . . . . . . . . . . . . . . . . . . . . . . . . . . . . . . . . . ",
". . . . . . . . . . . . . . . . . . . . . . . . . . . . . . . . . . . . . . . . . . . . . . . . "};
