/* XPM */
static char * go_next_xpm[] = {
"48 48 278 2",
"  	c None",
". 	c #2F2F2F",
"+ 	c #51912B",
"@ 	c #5F9C35",
"# 	c #52912C",
"$ 	c #CAEE96",
"% 	c #70AA45",
"& 	c #51912A",
"* 	c #D9F8A5",
"= 	c #D0F29B",
"- 	c #7EB552",
"; 	c #509129",
"> 	c #D6F6A1",
", 	c #C4F377",
"' 	c #D2F499",
") 	c #8FC15F",
"! 	c #3C811D",
"~ 	c #4E8F27",
"{ 	c #D4F59F",
"] 	c #BDF06C",
"^ 	c #BFF070",
"/ 	c #CFF493",
"( 	c #A4D170",
"_ 	c #478A24",
": 	c #4C8F26",
"< 	c #D1F49C",
"[ 	c #B9EE68",
"} 	c #BAEE69",
"| 	c #C9F28A",
"1 	c #AEDA7A",
"2 	c #51942A",
"3 	c #4B8E25",
"4 	c #CFF399",
"5 	c #B5EC64",
"6 	c #C2EF7F",
"7 	c #B8E283",
"8 	c #5E9D34",
"9 	c #4A8E23",
"0 	c #CCF196",
"a 	c #B1EA5F",
"b 	c #BAED72",
"c 	c #C0E98B",
"d 	c #6CAA3F",
"e 	c #488D21",
"f 	c #C9F094",
"g 	c #ADE85B",
"h 	c #B3EA68",
"i 	c #C3EB8D",
"j 	c #79B649",
"k 	c #478D20",
"l 	c #C7EF91",
"m 	c #A9E757",
"n 	c #ADE85F",
"o 	c #C1ED88",
"p 	c #8BC458",
"q 	c #398018",
"r 	c #337B15",
"s 	c #438B1D",
"t 	c #438A1D",
"u 	c #559B27",
"v 	c #C4EE8E",
"w 	c #A5E553",
"x 	c #A7E657",
"y 	c #BDEC80",
"z 	c #96CC62",
"A 	c #42891E",
"B 	c #458B1D",
"C 	c #B8E781",
"D 	c #BAE784",
"E 	c #BEEA87",
"F 	c #C0EC89",
"G 	c #A1E34F",
"H 	c #A2E350",
"I 	c #B6E977",
"J 	c #A3D76E",
"K 	c #4C9224",
"L 	c #BFEA88",
"M 	c #A0E150",
"N 	c #9FE04D",
"O 	c #9EE04C",
"P 	c #AFE56B",
"Q 	c #ADDD77",
"R 	c #599C2D",
"S 	c #42891C",
"T 	c #BCE885",
"U 	c #9BDD49",
"V 	c #A6E15E",
"W 	c #B4E37C",
"X 	c #67A636",
"Y 	c #40871A",
"Z 	c #B8E782",
"` 	c #97DB47",
" .	c #9EDE54",
"..	c #B3E37C",
"+.	c #74B342",
"@.	c #307811",
"#.	c #3F8719",
"$.	c #B5E47E",
"%.	c #94D844",
"&.	c #99DA4C",
"*.	c #B0E176",
"=.	c #84BF4E",
"-.	c #357E13",
";.	c #3E8619",
">.	c #B2E27B",
",.	c #90D642",
"'.	c #92D746",
").	c #AADF6E",
"!.	c #90C95A",
"~.	c #418A1A",
"{.	c #3C8518",
"].	c #AFE077",
"^.	c #8DD33F",
"/.	c #8DD340",
"(.	c #A2DB62",
"_.	c #98CF61",
":.	c #499021",
"<.	c #3B8316",
"[.	c #ABDD74",
"}.	c #89D03C",
"|.	c #98D654",
"1.	c #9ED367",
"2.	c #539827",
"3.	c #3A8315",
"4.	c #A8DC71",
"5.	c #86CE3A",
"6.	c #91D34D",
"7.	c #A1D86A",
"8.	c #60A330",
"9.	c #398215",
"0.	c #A3D96C",
"a.	c #82CB37",
"b.	c #89CE43",
"c.	c #A0D767",
"d.	c #6CAF39",
"e.	c #2D770E",
"f.	c #398114",
"g.	c #A0D669",
"h.	c #7FC834",
"i.	c #84CA3C",
"j.	c #A0D668",
"k.	c #64A931",
"l.	c #26720B",
"m.	c #378112",
"n.	c #9CD465",
"o.	c #7BC632",
"p.	c #7EC736",
"q.	c #94D159",
"r.	c #7BBA47",
"s.	c #378114",
"t.	c #368012",
"u.	c #99D262",
"v.	c #78C32F",
"w.	c #7DC536",
"x.	c #94CF5B",
"y.	c #6BAF3A",
"z.	c #2D790D",
"A.	c #357E11",
"B.	c #95D05E",
"C.	c #75C12D",
"D.	c #7DC439",
"E.	c #91CB58",
"F.	c #599F2B",
"G.	c #28720A",
"H.	c #337D10",
"I.	c #91CD5A",
"J.	c #71BE2A",
"K.	c #7EC43D",
"L.	c #89C753",
"M.	c #4A9220",
"N.	c #337C0E",
"O.	c #8DCA56",
"P.	c #6EBB27",
"Q.	c #7EC340",
"R.	c #7FBE49",
"S.	c #3E8917",
"T.	c #327C0E",
"U.	c #89C852",
"V.	c #6AB925",
"W.	c #6BBA27",
"X.	c #7FC344",
"Y.	c #70B43D",
"Z.	c #358113",
"`.	c #317A0D",
" +	c #85C54E",
".+	c #66B622",
"++	c #69B726",
"@+	c #7FC246",
"#+	c #64A932",
"$+	c #2B750C",
"%+	c #2E7A0C",
"&+	c #7FC14C",
"*+	c #61B221",
"=+	c #67B529",
"-+	c #7BBE46",
";+	c #519A26",
">+	c #247109",
",+	c #2C780C",
"'+	c #7ABD48",
")+	c #5CAE1F",
"!+	c #64B22A",
"~+	c #74B943",
"{+	c #448F1D",
"]+	c #29770C",
"^+	c #73B945",
"/+	c #72B843",
"(+	c #70B740",
"_+	c #56AA1E",
":+	c #63B130",
"<+	c #6AB13D",
"[+	c #388515",
"}+	c #206C06",
"|+	c #29780C",
"1+	c #29790D",
"2+	c #338311",
"3+	c #6EB541",
"4+	c #51A61C",
"5+	c #52A61D",
"6+	c #63AF33",
"7+	c #5DA733",
"8+	c #2C780E",
"9+	c #26730A",
"0+	c #68B13F",
"a+	c #4CA21B",
"b+	c #4DA31D",
"c+	c #60AD35",
"d+	c #509C2C",
"e+	c #26720A",
"f+	c #237109",
"g+	c #62AC3B",
"h+	c #479E19",
"i+	c #4BA01E",
"j+	c #5DAA36",
"k+	c #449121",
"l+	c #1E6B08",
"m+	c #216F09",
"n+	c #5CA839",
"o+	c #419A18",
"p+	c #479D1F",
"q+	c #59A535",
"r+	c #358719",
"s+	c #1A6106",
"t+	c #206D09",
"u+	c #56A435",
"v+	c #3C9616",
"w+	c #459B21",
"x+	c #509F30",
"y+	c #2B7C11",
"z+	c #1E6B09",
"A+	c #4F9F31",
"B+	c #379215",
"C+	c #449924",
"D+	c #47972A",
"E+	c #22700C",
"F+	c #1C6908",
"G+	c #499B2E",
"H+	c #328E13",
"I+	c #338E14",
"J+	c #419625",
"K+	c #3C8E21",
"L+	c #1E6B0A",
"M+	c #1B6808",
"N+	c #42962B",
"O+	c #2E8B14",
"P+	c #3D9326",
"Q+	c #31841B",
"R+	c #186106",
"S+	c #186706",
"T+	c #3C9227",
"U+	c #398F24",
"V+	c #267A13",
"W+	c #155C05",
"X+	c #166505",
"Y+	c #348B22",
"Z+	c #1F720D",
"`+	c #156405",
" @	c #166A06",
".@	c #115D03",
". . . . . . . . . . . . . . . . . . . . . . . . . . . . . . . . . . . . . . . . . . . . . . . . ",
". . . . . . . . . . . . . . . . . . . . . . . . . . . . . . . . . . . . . . . . . . . . . . . . ",
". . . . . . . . . . . . . . . . . . . . . + @ . . . . . . . . . . . . . . . . . . . . . . . . . ",
". . . . . . . . . . . . . . . . . . . . . # $ % . . . . . . . . . . . . . . . . . . . . . . . . ",
". . . . . . . . . . . . . . . . . . . . . & * = - . . . . . . . . . . . . . . . . . . . . . . . ",
". . . . . . . . . . . . . . . . . . . . . ; > , ' ) ! . . . . . . . . . . . . . . . . . . . . . ",
". . . . . . . . . . . . . . . . . . . . . ~ { ] ^ / ( _ . . . . . . . . . . . . . . . . . . . . ",
". . . . . . . . . . . . . . . . . . . . . : < [ [ } | 1 2 . . . . . . . . . . . . . . . . . . . ",
". . . . . . . . . . . . . . . . . . . . . 3 4 5 5 5 5 6 7 8 . . . . . . . . . . . . . . . . . . ",
". . . . . . . . . . . . . . . . . . . . . 9 0 a a a a a b c d . . . . . . . . . . . . . . . . . ",
". . . . . . . . . . . . . . . . . . . . . e f g g g g g g h i j . . . . . . . . . . . . . . . . ",
". . . . . . . . . . . . . . . . . . . . . k l m m m m m m m n o p q . . . . . . . . . . . . . . ",
". r s s s s s s s s s s s s s s s s s s t u v w w w w w w w w x y z A . . . . . . . . . . . . . ",
". B C D D D D D D D D D D D D D D D D D D E F G G G G G G G G G H I J K . . . . . . . . . . . . ",
". t L M M M M M M M M M M M M M M M M M M M N O O O O O O O O O O O P Q R . . . . . . . . . . . ",
". S T U U U U U U U U U U U U U U U U U U U U U U U U U U U U U U U U V W X . . . . . . . . . . ",
". Y Z ` ` ` ` ` ` ` ` ` ` ` ` ` ` ` ` ` ` ` ` ` ` ` ` ` ` ` ` ` ` ` ` `  ...+.@.. . . . . . . . ",
". #.$.%.%.%.%.%.%.%.%.%.%.%.%.%.%.%.%.%.%.%.%.%.%.%.%.%.%.%.%.%.%.%.%.%.%.&.*.=.-.. . . . . . . ",
". ;.>.,.,.,.,.,.,.,.,.,.,.,.,.,.,.,.,.,.,.,.,.,.,.,.,.,.,.,.,.,.,.,.,.,.,.,.'.).!.~.. . . . . . ",
". {.].^.^.^.^.^.^.^.^.^.^.^.^.^.^.^.^.^.^.^.^.^.^.^.^.^.^.^.^.^.^.^.^.^.^.^.^./.(._.:.. . . . . ",
". <.[.}.}.}.}.}.}.}.}.}.}.}.}.}.}.}.}.}.}.}.}.}.}.}.}.}.}.}.}.}.}.}.}.}.}.}.}.}.}.|.1.2.. . . . ",
". 3.4.5.5.5.5.5.5.5.5.5.5.5.5.5.5.5.5.5.5.5.5.5.5.5.5.5.5.5.5.5.5.5.5.5.5.5.5.5.5.5.6.7.8.. . . ",
". 9.0.a.a.a.a.a.a.a.a.a.a.a.a.a.a.a.a.a.a.a.a.a.a.a.a.a.a.a.a.a.a.a.a.a.a.a.a.a.a.a.a.b.c.d.e.. ",
". f.g.h.h.h.h.h.h.h.h.h.h.h.h.h.h.h.h.h.h.h.h.h.h.h.h.h.h.h.h.h.h.h.h.h.h.h.h.h.h.h.h.h.i.j.k.l.",
". m.n.o.o.o.o.o.o.o.o.o.o.o.o.o.o.o.o.o.o.o.o.o.o.o.o.o.o.o.o.o.o.o.o.o.o.o.o.o.o.o.o.p.q.r.s.. ",
". t.u.v.v.v.v.v.v.v.v.v.v.v.v.v.v.v.v.v.v.v.v.v.v.v.v.v.v.v.v.v.v.v.v.v.v.v.v.v.v.v.w.x.y.z.. . ",
". A.B.C.C.C.C.C.C.C.C.C.C.C.C.C.C.C.C.C.C.C.C.C.C.C.C.C.C.C.C.C.C.C.C.C.C.C.C.C.C.D.E.F.G.. . . ",
". H.I.J.J.J.J.J.J.J.J.J.J.J.J.J.J.J.J.J.J.J.J.J.J.J.J.J.J.J.J.J.J.J.J.J.J.J.J.J.K.L.M.. . . . . ",
". N.O.P.P.P.P.P.P.P.P.P.P.P.P.P.P.P.P.P.P.P.P.P.P.P.P.P.P.P.P.P.P.P.P.P.P.P.P.Q.R.S.. . . . . . ",
". T.U.V.V.V.V.V.V.V.V.V.V.V.V.V.V.V.V.V.V.V.V.V.V.V.V.V.V.V.V.V.V.V.V.V.V.W.X.Y.Z.. . . . . . . ",
". `. +.+.+.+.+.+.+.+.+.+.+.+.+.+.+.+.+.+.+.+.+.+.+.+.+.+.+.+.+.+.+.+.+.+++@+#+$+. . . . . . . . ",
". %+&+*+*+*+*+*+*+*+*+*+*+*+*+*+*+*+*+*+*+*+*+*+*+*+*+*+*+*+*+*+*+*+*+=+-+;+>+. . . . . . . . . ",
". ,+'+)+)+)+)+)+)+)+)+)+)+)+)+)+)+)+)+)+)+)+)+)+)+)+)+)+)+)+)+)+)+)+!+~+{+. . . . . . . . . . . ",
". ]+^+/+/+/+/+/+/+/+/+/+/+/+/+/+/+/+/+/+/+/+(+_+_+_+_+_+_+_+_+_+_+:+<+[+. . . . . . . . . . . . ",
". }+|+1+1+1+1+1+1+1+1+1+1+1+1+1+1+1+1+1+1+2+3+4+4+4+4+4+4+4+4+5+6+7+8+. . . . . . . . . . . . . ",
". . . . . . . . . . . . . . . . . . . . . 9+0+a+a+a+a+a+a+a+b+c+d+e+. . . . . . . . . . . . . . ",
". . . . . . . . . . . . . . . . . . . . . f+g+h+h+h+h+h+h+i+j+k+l+. . . . . . . . . . . . . . . ",
". . . . . . . . . . . . . . . . . . . . . m+n+o+o+o+o+o+p+q+r+s+. . . . . . . . . . . . . . . . ",
". . . . . . . . . . . . . . . . . . . . . t+u+v+v+v+v+w+x+y+. . . . . . . . . . . . . . . . . . ",
". . . . . . . . . . . . . . . . . . . . . z+A+B+B+B+C+D+E+. . . . . . . . . . . . . . . . . . . ",
". . . . . . . . . . . . . . . . . . . . . F+G+H+I+J+K+L+. . . . . . . . . . . . . . . . . . . . ",
". . . . . . . . . . . . . . . . . . . . . M+N+O+P+Q+R+. . . . . . . . . . . . . . . . . . . . . ",
". . . . . . . . . . . . . . . . . . . . . S+T+U+V+W+. . . . . . . . . . . . . . . . . . . . . . ",
". . . . . . . . . . . . . . . . . . . . . X+Y+Z+. . . . . . . . . . . . . . . . . . . . . . . . ",
". . . . . . . . . . . . . . . . . . . . . `+ @. . . . . . . . . . . . . . . . . . . . . . . . . ",
". . . . . . . . . . . . . . . . . . . . . .@. . . . . . . . . . . . . . . . . . . . . . . . . . ",
". . . . . . . . . . . . . . . . . . . . . . . . . . . . . . . . . . . . . . . . . . . . . . . . ",
". . . . . . . . . . . . . . . . . . . . . . . . . . . . . . . . . . . . . . . . . . . . . . . . "};
