/* XPM */
static char * go_previous_xpm[] = {
"48 48 277 2",
"  	c None",
". 	c #2F2F2F",
"+ 	c #599832",
"@ 	c #51912B",
"# 	c #6DA742",
"$ 	c #C7EB93",
"% 	c #52912C",
"& 	c #7CB24E",
"* 	c #CFF19A",
"= 	c #D9F8A5",
"- 	c #51912A",
"; 	c #3B801B",
"> 	c #8BBF5B",
", 	c #D1F49A",
"' 	c #C4F378",
") 	c #D6F6A1",
"! 	c #509129",
"~ 	c #458722",
"{ 	c #9DCD69",
"] 	c #CEF393",
"^ 	c #BFF071",
"/ 	c #BDF06C",
"( 	c #D4F59F",
"_ 	c #4E8F27",
": 	c #4D8D28",
"< 	c #ABD777",
"[ 	c #C9F28C",
"} 	c #BAEE6A",
"| 	c #B9EE68",
"1 	c #D1F49C",
"2 	c #4C8F26",
"3 	c #5A9932",
"4 	c #B5E182",
"5 	c #C4F083",
"6 	c #B5EC65",
"7 	c #B5EC64",
"8 	c #CFF399",
"9 	c #4B8E25",
"0 	c #68A63B",
"a 	c #BEE889",
"b 	c #BBED74",
"c 	c #B1EA5F",
"d 	c #CCF196",
"e 	c #4A8E23",
"f 	c #77B246",
"g 	c #C2EB8B",
"h 	c #B4EA6A",
"i 	c #ADE85B",
"j 	c #C9F094",
"k 	c #488D21",
"l 	c #2D312C",
"m 	c #367C16",
"n 	c #84BD50",
"o 	c #C1ED89",
"p 	c #AEE860",
"q 	c #A9E757",
"r 	c #C7EF91",
"s 	c #478D20",
"t 	c #42891E",
"u 	c #96CC60",
"v 	c #BEEC82",
"w 	c #A7E658",
"x 	c #A5E553",
"y 	c #C4EE8E",
"z 	c #559B27",
"A 	c #438A1D",
"B 	c #438B1D",
"C 	c #337B15",
"D 	c #498E22",
"E 	c #A3D76E",
"F 	c #B6E977",
"G 	c #A2E350",
"H 	c #A1E34F",
"I 	c #C0EC89",
"J 	c #BDE986",
"K 	c #BAE784",
"L 	c #B8E781",
"M 	c #458B1D",
"N 	c #569A2B",
"O 	c #ABDC76",
"P 	c #AFE56B",
"Q 	c #9EE04C",
"R 	c #A0E04F",
"S 	c #A0E150",
"T 	c #BFEA88",
"U 	c #63A634",
"V 	c #B2E07B",
"W 	c #A7E15F",
"X 	c #9BDD49",
"Y 	c #BCE885",
"Z 	c #42891C",
"` 	c #6FAF3E",
" .	c #B3E37C",
"..	c #9FDE55",
"+.	c #97DB47",
"@.	c #B8E782",
"#.	c #40871A",
"$.	c #347C12",
"%.	c #7CBA49",
"&.	c #B0E377",
"*.	c #99DA4D",
"=.	c #94D844",
"-.	c #B5E47E",
";.	c #3F8719",
">.	c #3E851A",
",.	c #8CC757",
"'.	c #ABE06F",
").	c #93D746",
"!.	c #90D642",
"~.	c #B2E27B",
"{.	c #3E8619",
"].	c #468E1E",
"^.	c #95CD5F",
"/.	c #A2DB63",
"(.	c #8ED341",
"_.	c #8DD33F",
":.	c #AFE077",
"<.	c #3C8518",
"[.	c #519725",
"}.	c #9CD366",
"|.	c #9AD758",
"1.	c #89D03C",
"2.	c #ABDD74",
"3.	c #3B8316",
"4.	c #5DA12D",
"5.	c #A1D76A",
"6.	c #92D34D",
"7.	c #86CE3A",
"8.	c #A8DC71",
"9.	c #3A8315",
"0.	c #2C740F",
"a.	c #68AB36",
"b.	c #9FD668",
"c.	c #8ACE44",
"d.	c #82CB37",
"e.	c #A3D96C",
"f.	c #398215",
"g.	c #27710B",
"h.	c #65A931",
"i.	c #A0D668",
"j.	c #84CA3C",
"k.	c #7FC834",
"l.	c #A0D669",
"m.	c #398114",
"n.	c #347D13",
"o.	c #77B744",
"p.	c #95D15A",
"q.	c #7EC736",
"r.	c #7BC632",
"s.	c #9CD465",
"t.	c #378112",
"u.	c #2D770C",
"v.	c #66AA34",
"w.	c #94D05C",
"x.	c #7DC537",
"y.	c #78C32F",
"z.	c #99D262",
"A.	c #368012",
"B.	c #589D28",
"C.	c #90CB58",
"D.	c #7EC53A",
"E.	c #75C12D",
"F.	c #95D05E",
"G.	c #357E11",
"H.	c #48911E",
"I.	c #88C651",
"J.	c #7EC43E",
"K.	c #71BE2A",
"L.	c #91CD5A",
"M.	c #337D10",
"N.	c #3C8516",
"O.	c #7CBD48",
"P.	c #80C442",
"Q.	c #6EBB27",
"R.	c #8DCA56",
"S.	c #337C0E",
"T.	c #317D0F",
"U.	c #6EB23B",
"V.	c #80C345",
"W.	c #6BBA27",
"X.	c #6AB925",
"Y.	c #89C852",
"Z.	c #327C0E",
"`.	c #2B760B",
" +	c #5FA72F",
".+	c #7FC147",
"++	c #6AB827",
"@+	c #66B622",
"#+	c #85C54E",
"$+	c #317A0D",
"%+	c #247008",
"&+	c #4E9823",
"*+	c #7BBD46",
"=+	c #67B52A",
"-+	c #61B221",
";+	c #7FC14C",
">+	c #2E7A0C",
",+	c #418D1B",
"'+	c #74B843",
")+	c #66B32C",
"!+	c #5CAE1F",
"~+	c #7ABD48",
"{+	c #2C780C",
"]+	c #368214",
"^+	c #69B13D",
"/+	c #63B130",
"(+	c #56AA1E",
"_+	c #70B740",
":+	c #72B843",
"<+	c #73B945",
"[+	c #29770C",
"}+	c #2C780E",
"|+	c #5DA733",
"1+	c #63AF33",
"2+	c #52A61D",
"3+	c #51A61C",
"4+	c #6EB541",
"5+	c #338311",
"6+	c #29790D",
"7+	c #28780C",
"8+	c #206C06",
"9+	c #24710A",
"0+	c #4F9C29",
"a+	c #61AD36",
"b+	c #4DA31D",
"c+	c #4CA21B",
"d+	c #68B13F",
"e+	c #26730A",
"f+	c #1E6705",
"g+	c #418E1E",
"h+	c #5EAB37",
"i+	c #4BA01E",
"j+	c #479E19",
"k+	c #62AC3B",
"l+	c #237109",
"m+	c #358317",
"n+	c #58A535",
"o+	c #489E20",
"p+	c #419A18",
"q+	c #5CA839",
"r+	c #216F09",
"s+	c #297910",
"t+	c #509F30",
"u+	c #469B22",
"v+	c #3C9616",
"w+	c #56A435",
"x+	c #206D09",
"y+	c #22700B",
"z+	c #459628",
"A+	c #459A26",
"B+	c #379215",
"C+	c #4F9F31",
"D+	c #1E6B09",
"E+	c #1C6708",
"F+	c #3A8D21",
"G+	c #429726",
"H+	c #338E14",
"I+	c #328E13",
"J+	c #499B2E",
"K+	c #1C6908",
"L+	c #176006",
"M+	c #2F821A",
"N+	c #3E9426",
"O+	c #2E8B14",
"P+	c #42962B",
"Q+	c #1B6808",
"R+	c #165A05",
"S+	c #267912",
"T+	c #3A8F24",
"U+	c #3C9227",
"V+	c #186706",
"W+	c #1E730D",
"X+	c #348A21",
"Y+	c #166505",
"Z+	c #166905",
"`+	c #156405",
" @	c #115D03",
". . . . . . . . . . . . . . . . . . . . . . . . . . . . . . . . . . . . . . . . . . . . . . . . ",
". . . . . . . . . . . . . . . . . . . . . . . . . . . . . . . . . . . . . . . . . . . . . . . . ",
". . . . . . . . . . . . . . . . . . . . . . . . . + @ . . . . . . . . . . . . . . . . . . . . . ",
". . . . . . . . . . . . . . . . . . . . . . . . # $ % . . . . . . . . . . . . . . . . . . . . . ",
". . . . . . . . . . . . . . . . . . . . . . . & * = - . . . . . . . . . . . . . . . . . . . . . ",
". . . . . . . . . . . . . . . . . . . . . ; > , ' ) ! . . . . . . . . . . . . . . . . . . . . . ",
". . . . . . . . . . . . . . . . . . . . ~ { ] ^ / ( _ . . . . . . . . . . . . . . . . . . . . . ",
". . . . . . . . . . . . . . . . . . . : < [ } | | 1 2 . . . . . . . . . . . . . . . . . . . . . ",
". . . . . . . . . . . . . . . . . . 3 4 5 6 7 7 7 8 9 . . . . . . . . . . . . . . . . . . . . . ",
". . . . . . . . . . . . . . . . . 0 a b c c c c c d e . . . . . . . . . . . . . . . . . . . . . ",
". . . . . . . . . . . . . . . . f g h i i i i i i j k . . . . . . . . . . . . . . . . . . . . . ",
". . . . . . . . . . . . . l m n o p q q q q q q q r s . . . . . . . . . . . . . . . . . . . . . ",
". . . . . . . . . . . . . t u v w x x x x x x x x y z A B B B B B B B B B B B B B B B B B B C . ",
". . . . . . . . . . . . D E F G H H H H H H H H H I J K K K K K K K K K K K K K K K K K K L M . ",
". . . . . . . . . . . N O P Q Q Q Q Q Q Q Q Q Q Q R S S S S S S S S S S S S S S S S S S S T A . ",
". . . . . . . . . . U V W X X X X X X X X X X X X X X X X X X X X X X X X X X X X X X X X Y Z . ",
". . . . . . . . . `  ...+.+.+.+.+.+.+.+.+.+.+.+.+.+.+.+.+.+.+.+.+.+.+.+.+.+.+.+.+.+.+.+.+.@.#.. ",
". . . . . . . $.%.&.*.=.=.=.=.=.=.=.=.=.=.=.=.=.=.=.=.=.=.=.=.=.=.=.=.=.=.=.=.=.=.=.=.=.=.-.;.. ",
". . . . . . >.,.'.).!.!.!.!.!.!.!.!.!.!.!.!.!.!.!.!.!.!.!.!.!.!.!.!.!.!.!.!.!.!.!.!.!.!.!.~.{.. ",
". . . . . ].^./.(._._._._._._._._._._._._._._._._._._._._._._._._._._._._._._._._._._._._.:.<.. ",
". . . . [.}.|.1.1.1.1.1.1.1.1.1.1.1.1.1.1.1.1.1.1.1.1.1.1.1.1.1.1.1.1.1.1.1.1.1.1.1.1.1.1.2.3.. ",
". . . 4.5.6.7.7.7.7.7.7.7.7.7.7.7.7.7.7.7.7.7.7.7.7.7.7.7.7.7.7.7.7.7.7.7.7.7.7.7.7.7.7.7.8.9.. ",
". 0.a.b.c.d.d.d.d.d.d.d.d.d.d.d.d.d.d.d.d.d.d.d.d.d.d.d.d.d.d.d.d.d.d.d.d.d.d.d.d.d.d.d.d.e.f.. ",
"g.h.i.j.k.k.k.k.k.k.k.k.k.k.k.k.k.k.k.k.k.k.k.k.k.k.k.k.k.k.k.k.k.k.k.k.k.k.k.k.k.k.k.k.k.l.m.. ",
". n.o.p.q.r.r.r.r.r.r.r.r.r.r.r.r.r.r.r.r.r.r.r.r.r.r.r.r.r.r.r.r.r.r.r.r.r.r.r.r.r.r.r.r.s.t.. ",
". . u.v.w.x.y.y.y.y.y.y.y.y.y.y.y.y.y.y.y.y.y.y.y.y.y.y.y.y.y.y.y.y.y.y.y.y.y.y.y.y.y.y.y.z.A.. ",
". . . . B.C.D.E.E.E.E.E.E.E.E.E.E.E.E.E.E.E.E.E.E.E.E.E.E.E.E.E.E.E.E.E.E.E.E.E.E.E.E.E.E.F.G.. ",
". . . . . H.I.J.K.K.K.K.K.K.K.K.K.K.K.K.K.K.K.K.K.K.K.K.K.K.K.K.K.K.K.K.K.K.K.K.K.K.K.K.K.L.M.. ",
". . . . . . N.O.P.Q.Q.Q.Q.Q.Q.Q.Q.Q.Q.Q.Q.Q.Q.Q.Q.Q.Q.Q.Q.Q.Q.Q.Q.Q.Q.Q.Q.Q.Q.Q.Q.Q.Q.Q.Q.R.S.. ",
". . . . . . . T.U.V.W.X.X.X.X.X.X.X.X.X.X.X.X.X.X.X.X.X.X.X.X.X.X.X.X.X.X.X.X.X.X.X.X.X.X.Y.Z.. ",
". . . . . . . . `. +.+++@+@+@+@+@+@+@+@+@+@+@+@+@+@+@+@+@+@+@+@+@+@+@+@+@+@+@+@+@+@+@+@+@+#+$+. ",
". . . . . . . . . %+&+*+=+-+-+-+-+-+-+-+-+-+-+-+-+-+-+-+-+-+-+-+-+-+-+-+-+-+-+-+-+-+-+-+-+;+>+. ",
". . . . . . . . . . . ,+'+)+!+!+!+!+!+!+!+!+!+!+!+!+!+!+!+!+!+!+!+!+!+!+!+!+!+!+!+!+!+!+!+~+{+. ",
". . . . . . . . . . . . ]+^+/+(+(+(+(+(+(+(+(+(+(+_+:+:+:+:+:+:+:+:+:+:+:+:+:+:+:+:+:+:+:+<+[+. ",
". . . . . . . . . . . . . }+|+1+2+3+3+3+3+3+3+3+3+4+5+6+6+6+6+6+6+6+6+6+6+6+6+6+6+6+6+6+6+7+8+. ",
". . . . . . . . . . . . . . 9+0+a+b+c+c+c+c+c+c+c+d+e+. . . . . . . . . . . . . . . . . . . . . ",
". . . . . . . . . . . . . . . f+g+h+i+j+j+j+j+j+j+k+l+. . . . . . . . . . . . . . . . . . . . . ",
". . . . . . . . . . . . . . . . . m+n+o+p+p+p+p+p+q+r+. . . . . . . . . . . . . . . . . . . . . ",
". . . . . . . . . . . . . . . . . . s+t+u+v+v+v+v+w+x+. . . . . . . . . . . . . . . . . . . . . ",
". . . . . . . . . . . . . . . . . . . y+z+A+B+B+B+C+D+. . . . . . . . . . . . . . . . . . . . . ",
". . . . . . . . . . . . . . . . . . . . E+F+G+H+I+J+K+. . . . . . . . . . . . . . . . . . . . . ",
". . . . . . . . . . . . . . . . . . . . . L+M+N+O+P+Q+. . . . . . . . . . . . . . . . . . . . . ",
". . . . . . . . . . . . . . . . . . . . . . R+S+T+U+V+. . . . . . . . . . . . . . . . . . . . . ",
". . . . . . . . . . . . . . . . . . . . . . . . W+X+Y+. . . . . . . . . . . . . . . . . . . . . ",
". . . . . . . . . . . . . . . . . . . . . . . . . Z+`+. . . . . . . . . . . . . . . . . . . . . ",
". . . . . . . . . . . . . . . . . . . . . . . . . .  @. . . . . . . . . . . . . . . . . . . . . ",
". . . . . . . . . . . . . . . . . . . . . . . . . . . . . . . . . . . . . . . . . . . . . . . . ",
". . . . . . . . . . . . . . . . . . . . . . . . . . . . . . . . . . . . . . . . . . . . . . . . "};
