/* XPM */
static char * leftright_xpm[] = {
"48 48 109 2",
"  	c None",
". 	c #337B15",
"+ 	c #438B1D",
"@ 	c #40881B",
"# 	c #428A1D",
"$ 	c #5A9D2F",
"% 	c #66A639",
"& 	c #5FA52D",
"* 	c #5FA42C",
"= 	c #5EA32C",
"- 	c #67A73D",
"; 	c #478F1F",
"> 	c #438A1D",
", 	c #428A1C",
"' 	c #327B14",
") 	c #458B1D",
"! 	c #B8E781",
"~ 	c #BAE784",
"{ 	c #448A1C",
"] 	c #BFEA88",
"^ 	c #A0E150",
"/ 	c #42891C",
"( 	c #BCE885",
"_ 	c #9BDD49",
": 	c #41881B",
"< 	c #40871A",
"[ 	c #B8E782",
"} 	c #97DB47",
"| 	c #3F8619",
"1 	c #3F8719",
"2 	c #B5E47E",
"3 	c #94D844",
"4 	c #3E8618",
"5 	c #3E8619",
"6 	c #B2E27B",
"7 	c #90D642",
"8 	c #3D8518",
"9 	c #3C8518",
"0 	c #AFE077",
"a 	c #8DD33F",
"b 	c #3B8417",
"c 	c #3B8316",
"d 	c #ABDD74",
"e 	c #89D03C",
"f 	c #3A8215",
"g 	c #3A8315",
"h 	c #A8DC71",
"i 	c #86CE3A",
"j 	c #398214",
"k 	c #388114",
"l 	c #A3D96C",
"m 	c #82CB37",
"n 	c #367E12",
"o 	c #A0D669",
"p 	c #7FC834",
"q 	c #388013",
"r 	c #357F11",
"s 	c #9CD465",
"t 	c #7BC632",
"u 	c #368011",
"v 	c #368012",
"w 	c #99D262",
"x 	c #78C32F",
"y 	c #358011",
"z 	c #357E11",
"A 	c #95D05E",
"B 	c #75C12D",
"C 	c #347E10",
"D 	c #337D10",
"E 	c #91CD5A",
"F 	c #71BE2A",
"G 	c #327D0F",
"H 	c #337C0E",
"I 	c #8DCA56",
"J 	c #6EBB27",
"K 	c #327C0D",
"L 	c #327C0E",
"M 	c #89C852",
"N 	c #6AB925",
"O 	c #317C0D",
"P 	c #317A0D",
"Q 	c #85C54E",
"R 	c #66B622",
"S 	c #307A0C",
"T 	c #2E7A0C",
"U 	c #7FC14C",
"V 	c #61B221",
"W 	c #2D7A0B",
"X 	c #2C780C",
"Y 	c #7ABD48",
"Z 	c #5CAE1F",
"` 	c #2B780B",
" .	c #29770C",
"..	c #73B945",
"+.	c #72B843",
"@.	c #28770B",
"#.	c #206C06",
"$.	c #28780C",
"%.	c #29790D",
"&.	c #27770C",
"*.	c #29780D",
"=.	c #358416",
"-.	c #378616",
";.	c #338410",
">.	c #328410",
",.	c #3A8719",
"'.	c #2B7B0D",
").	c #27770B",
"!.	c #1F6B05",
"                                                                                                ",
"                                                                                                ",
"                                                                                                ",
"                                                                                                ",
"                                                                                                ",
"                                                                                                ",
"                                                                                                ",
"                                                                                                ",
"                                                                                                ",
"                                                                                                ",
"                                                                                                ",
"                                                                                                ",
". + + + + + + + + + + + @ # $ % & * * = * * * * * - ; > + + + + + + + + + + + + + + + + + + , ' ",
") ! ~ ~ ~ ~ ~ ~ ~ ~ ~ ~ ~ ~ ~ ~ ~ ~ ~ ~ ~ ~ ~ ~ ~ ~ ~ ~ ~ ~ ~ ~ ~ ~ ~ ~ ~ ~ ~ ~ ~ ~ ~ ~ ~ ~ ~ { ",
"> ] ^ ^ ^ ^ ^ ^ ^ ^ ^ ^ ^ ^ ^ ^ ^ ^ ^ ^ ^ ^ ^ ^ ^ ^ ^ ^ ^ ^ ^ ^ ^ ^ ^ ^ ^ ^ ^ ^ ^ ^ ^ ^ ^ ^ ^ / ",
"/ ( _ _ _ _ _ _ _ _ _ _ _ _ _ _ _ _ _ _ _ _ _ _ _ _ _ _ _ _ _ _ _ _ _ _ _ _ _ _ _ _ _ _ _ _ _ : ",
"< [ } } } } } } } } } } } } } } } } } } } } } } } } } } } } } } } } } } } } } } } } } } } } } | ",
"1 2 3 3 3 3 3 3 3 3 3 3 3 3 3 3 3 3 3 3 3 3 3 3 3 3 3 3 3 3 3 3 3 3 3 3 3 3 3 3 3 3 3 3 3 3 3 4 ",
"5 6 7 7 7 7 7 7 7 7 7 7 7 7 7 7 7 7 7 7 7 7 7 7 7 7 7 7 7 7 7 7 7 7 7 7 7 7 7 7 7 7 7 7 7 7 7 8 ",
"9 0 a a a a a a a a a a a a a a a a a a a a a a a a a a a a a a a a a a a a a a a a a a a a a b ",
"c d e e e e e e e e e e e e e e e e e e e e e e e e e e e e e e e e e e e e e e e e e e e e e f ",
"g h i i i i i i i i i i i i i i i i i i i i i i i i i i i i i i i i i i i i i i i i i i i i i j ",
"k l m m m m m m m m m m m m m m m m m m m m m m m m m m m m m m m m m m m m m m m m m m m m m k ",
"n o p p p p p p p p p p p p p p p p p p p p p p p p p p p p p p p p p p p p p p p p p p p p p q ",
"r s t t t t t t t t t t t t t t t t t t t t t t t t t t t t t t t t t t t t t t t t t t t t t u ",
"v w x x x x x x x x x x x x x x x x x x x x x x x x x x x x x x x x x x x x x x x x x x x x x y ",
"z A B B B B B B B B B B B B B B B B B B B B B B B B B B B B B B B B B B B B B B B B B B B B B C ",
"D E F F F F F F F F F F F F F F F F F F F F F F F F F F F F F F F F F F F F F F F F F F F F F G ",
"H I J J J J J J J J J J J J J J J J J J J J J J J J J J J J J J J J J J J J J J J J J J J J J K ",
"L M N N N N N N N N N N N N N N N N N N N N N N N N N N N N N N N N N N N N N N N N N N N N N O ",
"P Q R R R R R R R R R R R R R R R R R R R R R R R R R R R R R R R R R R R R R R R R R R R R R S ",
"T U V V V V V V V V V V V V V V V V V V V V V V V V V V V V V V V V V V V V V V V V V V V V V W ",
"X Y Z Z Z Z Z Z Z Z Z Z Z Z Z Z Z Z Z Z Z Z Z Z Z Z Z Z Z Z Z Z Z Z Z Z Z Z Z Z Z Z Z Z Z Z Z ` ",
" ...+.+.+.+.+.+.+.+.+.+.+.+.+.+.+.+.+.+.+.+.+.+.+.+.+.+.+.+.+.+.+.+.+.+.+.+.+.+.+.+.+.+.+.+.+.@.",
"#.$.%.%.%.%.%.%.%.%.%.%.&.*.=.-.;.>.>.>.>.>.>.>.>.,.'.%.%.%.%.%.%.%.%.%.%.%.%.%.%.%.%.%.%.$.).!.",
"                                                                                                ",
"                                                                                                ",
"                                                                                                ",
"                                                                                                ",
"                                                                                                ",
"                                                                                                ",
"                                                                                                ",
"                                                                                                ",
"                                                                                                ",
"                                                                                                ",
"                                                                                                ",
"                                                                                                ",
"                                                                                                "};
