/* XPM */
static char * list_expand_xpm[] = {
"48 48 487 2",
"  	c None",
". 	c #000000",
"+ 	c #468921",
"@ 	c #478A23",
"# 	c #478A22",
"$ 	c #42871F",
"% 	c #6BA842",
"& 	c #97C76C",
"* 	c #B7DC90",
"= 	c #CEE9AB",
"- 	c #DEF3C1",
"; 	c #E5F7CB",
"> 	c #96C66A",
", 	c #6AA641",
"' 	c #42881F",
") 	c #4F9328",
"! 	c #94C568",
"~ 	c #CCEAAA",
"{ 	c #DEF6BA",
"] 	c #D1F39E",
"^ 	c #C6F086",
"/ 	c #BEEE77",
"( 	c #B8EE6B",
"_ 	c #B7ED66",
": 	c #B9ED6C",
"< 	c #C5F086",
"[ 	c #D0F39E",
"} 	c #DEF6BB",
"| 	c #CBEAA8",
"1 	c #93C567",
"2 	c #4E9026",
"3 	c #448A20",
"4 	c #91C462",
"5 	c #D5EFB3",
"6 	c #CFF29E",
"7 	c #BAEC75",
"8 	c #B0EA5F",
"9 	c #B1EA5F",
"0 	c #B2EB60",
"a 	c #B2EB61",
"b 	c #B3EB61",
"c 	c #B0EA5E",
"d 	c #BBEC75",
"e 	c #CFF29F",
"f 	c #D4EFB3",
"g 	c #8FC360",
"h 	c #43881F",
"i 	c #61A135",
"j 	c #C0E399",
"k 	c #CEF1A0",
"l 	c #B3E967",
"m 	c #ACE85A",
"n 	c #ADE85B",
"o 	c #AEE95C",
"p 	c #AFE95D",
"q 	c #AFEA5E",
"r 	c #ADE95B",
"s 	c #ABE859",
"t 	c #B2E967",
"u 	c #CFF1A1",
"v 	c #BFE297",
"w 	c #5FA135",
"x 	c #76B246",
"y 	c #CFEEA8",
"z 	c #BAEB7A",
"A 	c #A7E554",
"B 	c #A8E656",
"C 	c #A9E657",
"D 	c #93D844",
"E 	c #A8E655",
"F 	c #B9EB7A",
"G 	c #CFEEA7",
"H 	c #76B247",
"I 	c #7BB64B",
"J 	c #CDEFA4",
"K 	c #ACE662",
"L 	c #A3E450",
"M 	c #A4E452",
"N 	c #A3E350",
"O 	c #ADE663",
"P 	c #CDEEA3",
"Q 	c #7AB74B",
"R 	c #00091E",
"S 	c #000205",
"T 	c #73B043",
"U 	c #C9ED9F",
"V 	c #A7E35B",
"W 	c #A0E14D",
"X 	c #A1E24E",
"Y 	c #76B755",
"Z 	c #8ED247",
"` 	c #A6E35B",
" .	c #C9EC9D",
"..	c #70AE41",
"+.	c #153E84",
"@.	c #194183",
"#.	c #488844",
"$.	c #C2E896",
"%.	c #A6E15C",
"&.	c #9DDF4B",
"*.	c #9EE04C",
"=.	c #3E7B97",
"-.	c #468398",
";.	c #75B657",
">.	c #92D745",
",.	c #9CDF4B",
"'.	c #A6E15D",
").	c #C3E996",
"!.	c #599D2C",
"~.	c #18448C",
"{.	c #9CCCF6",
"].	c #5D96CE",
"^.	c #5B9491",
"/.	c #88C952",
"(.	c #9BDD49",
"_.	c #3D7A9D",
":.	c #9CCEF8",
"<.	c #5996C8",
"[.	c #508F80",
"}.	c #82C54E",
"|.	c #99DC48",
"1.	c #ABE26A",
"2.	c #ACD97C",
"3.	c #3C8518",
"4.	c #17438B",
"5.	c #72BDFB",
"6.	c #A5D6FD",
"7.	c #8ABEF1",
"8.	c #4B87AF",
"9.	c #64A26E",
"0.	c #8DD148",
"a.	c #3C799C",
"b.	c #A6D6FD",
"c.	c #89BEF1",
"d.	c #4986AE",
"e.	c #61A06B",
"f.	c #8CD048",
"g.	c #97DB47",
"h.	c #96DA46",
"i.	c #B7E580",
"j.	c #7CB94A",
"k.	c #286592",
"l.	c #71BBFB",
"m.	c #5FB2F9",
"n.	c #83C5FB",
"o.	c #A7D5FB",
"p.	c #75ADE4",
"q.	c #45839E",
"r.	c #72B15B",
"s.	c #92D744",
"t.	c #70BBFA",
"u.	c #B2DAFC",
"v.	c #86C6FB",
"w.	c #76AFE3",
"x.	c #45839A",
"y.	c #6DAD5D",
"z.	c #91D645",
"A.	c #94D844",
"B.	c #9ADA50",
"C.	c #B5E083",
"D.	c #428A1B",
"E.	c #34709D",
"F.	c #6EB9F9",
"G.	c #7FC1F9",
"H.	c #64B4F8",
"I.	c #8FCAFB",
"J.	c #9ECDF8",
"K.	c #5C97CD",
"L.	c #4C8A84",
"M.	c #7FC050",
"N.	c #3B789C",
"O.	c #6DB9F9",
"P.	c #FFFFFF",
"Q.	c #D4EAFD",
"R.	c #4C8A83",
"S.	c #7EC150",
"T.	c #91D642",
"U.	c #ABDF70",
"V.	c #77B645",
"W.	c #378014",
"X.	c #3E77A7",
"Y.	c #6CB7F8",
"Z.	c #B2D9FB",
"`.	c #5FB1F7",
" +	c #9FD1FB",
".+	c #8CBEF0",
"++	c #4785B5",
"@+	c #3A805B",
"#+	c #54A526",
"$+	c #59AC1F",
"%+	c #2C6D93",
"&+	c #6BB7F7",
"*+	c #D4EAFC",
"=+	c #9DD1FA",
"-+	c #8CC0F1",
";+	c #4181B0",
">+	c #39805B",
",+	c #89CD49",
"'+	c #8ED440",
")+	c #96D74F",
"!+	c #A1D56D",
"~+	c #367F13",
"{+	c #529928",
"]+	c #4079A7",
"^+	c #68B4F7",
"/+	c #D5EAFC",
"(+	c #7CBEF7",
"_+	c #A2D2F9",
":+	c #70A9E2",
"<+	c #337594",
"[+	c #428D43",
"}+	c #58AA21",
"|+	c #2B6C92",
"1+	c #68B4F6",
"2+	c #A4D3F9",
"3+	c #79B0E4",
"4+	c #347594",
"5+	c #91D646",
"6+	c #8BD23E",
"7+	c #ABDE74",
"8+	c #519626",
"9+	c #71B33E",
"0+	c #3C77A1",
"a+	c #65B2F6",
"b+	c #8BC6F7",
"c+	c #9ACAF5",
"d+	c #5591CB",
"e+	c #337578",
"f+	c #4C9A31",
"g+	c #65B2F5",
"h+	c #9ECEF6",
"i+	c #5E9ACE",
"j+	c #317577",
"k+	c #78B953",
"l+	c #9DD75E",
"m+	c #6FB03C",
"n+	c #84C24E",
"o+	c #39759D",
"p+	c #63B0F5",
"q+	c #9ACDF8",
"r+	c #4180B0",
"s+	c #397F5C",
"t+	c #53A427",
"u+	c #2B6B92",
"v+	c #66B1F4",
"w+	c #98CBF8",
"x+	c #8EC0F1",
"y+	c #4382B1",
"z+	c #579572",
"A+	c #86C94B",
"B+	c #92D34D",
"C+	c #84C14D",
"D+	c #337F12",
"E+	c #90CA56",
"F+	c #377399",
"G+	c #60ADF3",
"H+	c #B2D7F8",
"I+	c #A0CEF7",
"J+	c #74AAE1",
"K+	c #327397",
"L+	c #438D43",
"M+	c #2B6B91",
"N+	c #96C8F6",
"O+	c #9ECEF7",
"P+	c #76ACE2",
"Q+	c #45819D",
"R+	c #6AAA60",
"S+	c #8AC557",
"T+	c #327D11",
"U+	c #357F11",
"V+	c #95D059",
"W+	c #357297",
"X+	c #6EB3F3",
"Y+	c #88C1F5",
"Z+	c #99C9F4",
"`+	c #5691CB",
" @	c #2A6CA9",
".@	c #E9F3FD",
"+@	c #84BEF4",
"@@	c #9DCAF6",
"#@	c #619BD1",
"$@	c #488390",
"%@	c #2C7425",
"&@	c #357D10",
"*@	c #93D158",
"=@	c #337197",
"-@	c #64ADF2",
";@	c #B2D6F8",
">@	c #7FB8F0",
",@	c #5590CB",
"'@	c #296AA9",
")@	c #D4E8FB",
"!@	c #E9F3FC",
"~@	c #619AD0",
"{@	c #47808F",
"]@	c #2D7324",
"^@	c #347D10",
"/@	c #8FCE52",
"(@	c #327096",
"_@	c #5FAAF1",
":@	c #7FBBF3",
"<@	c #468AD6",
"[@	c #2E6E94",
"}@	c #438C43",
"|@	c #296991",
"1@	c #478DD9",
"2@	c #2F6F90",
"3@	c #68A960",
"4@	c #8BC954",
"5@	c #347E10",
"6@	c #327D10",
"7@	c #89CA4D",
"8@	c #317095",
"9@	c #60AAF0",
"0@	c #3074A8",
"a@	c #387E5C",
"b@	c #286990",
"c@	c #96C7F5",
"d@	c #3174A9",
"e@	c #377D5D",
"f@	c #51A129",
"g@	c #88C94B",
"h@	c #307B0F",
"i@	c #7FC142",
"j@	c #316E96",
"k@	c #61A9F0",
"l@	c #3679BE",
"m@	c #307375",
"n@	c #286890",
"o@	c #80BAF3",
"p@	c #3A7EC0",
"q@	c #2E7275",
"r@	c #499535",
"s@	c #7DC142",
"t@	c #2F7A0D",
"u@	c #70B437",
"v@	c #316E97",
"w@	c #62A9EF",
"x@	c #3D86D4",
"y@	c #2C6F8F",
"z@	c #428C43",
"A@	c #70B1F0",
"B@	c #4087D6",
"C@	c #2D6E8F",
"D@	c #408B44",
"E@	c #57A922",
"F@	c #6FB537",
"G@	c #5DA629",
"H@	c #316D98",
"I@	c #64A9EE",
"J@	c #B6D3F3",
"K@	c #2C6EA5",
"L@	c #387E5B",
"M@	c #286790",
"N@	c #ABCCF2",
"O@	c #2E72A7",
"P@	c #387F5A",
"Q@	c #5CA528",
"R@	c #428C19",
"S@	c #66A8ED",
"T@	c #3578BC",
"U@	c #2F7473",
"V@	c #4D9A30",
"W@	c #26668F",
"X@	c #2F7372",
"Y@	c #408D17",
"Z@	c #2E790C",
"`@	c #2D6A95",
" #	c #65A7ED",
".#	c #E5F0FC",
"+#	c #5FA2EB",
"@#	c #4185D2",
"##	c #2B6C8F",
"$#	c #458F3F",
"%#	c #58AC20",
"&#	c #D0E4F9",
"*#	c #B2D2F4",
"=#	c #4186D0",
"-#	c #2B6D8B",
";#	c #428C42",
">#	c #76BC3B",
",#	c #2D780C",
"'#	c #256290",
")#	c #63A5EC",
"!#	c #A0C3EE",
"~#	c #2D6D9E",
"{#	c #3B8352",
"]#	c #55A725",
"^#	c #25658F",
"/#	c #66A7EC",
"(#	c #B2D2F5",
"_#	c #74A8E6",
":#	c #3A8254",
"<#	c #57A024",
"[#	c #1B5A8B",
"}#	c #5699E4",
"|#	c #3275B5",
"1#	c #31766C",
"2#	c #4F9D2C",
"3#	c #3375B6",
"4#	c #4F9E2D",
"5#	c #78BD3D",
"6#	c #32800E",
"7#	c #0C347E",
"8#	c #2A6985",
"9#	c #479339",
"0#	c #59AB20",
"a#	c #266587",
"b#	c #2B6D84",
"c#	c #47923A",
"d#	c #539D21",
"e#	c #2A7711",
"f#	c #6BB232",
"g#	c #489337",
"h#	c #56A823",
"i#	c #2D790C",
"j#	c #3A8712",
"k#	c #72B937",
"l#	c #71B837",
"m#	c #3B8612",
"n#	c #449018",
"o#	c #6FB836",
"p#	c #439018",
"q#	c #47941E",
"r#	c #6FB739",
"s#	c #62B126",
"t#	c #46931C",
"u#	c #286914",
"v#	c #438E1C",
"w#	c #70B63E",
"x#	c #64B22D",
"y#	c #5BAD1F",
"z#	c #6FB53E",
"A#	c #428F1C",
"B#	c #276C14",
"C#	c #346824",
"D#	c #398017",
"E#	c #67AD39",
"F#	c #6DB53C",
"G#	c #5DAE25",
"H#	c #58AB1E",
"I#	c #5CAD25",
"J#	c #6EB63D",
"K#	c #65AD38",
"L#	c #388017",
"M#	c #346624",
"N#	c #317219",
"O#	c #4C9425",
"P#	c #70B545",
"Q#	c #6BB43C",
"R#	c #5DAC29",
"S#	c #55A81D",
"T#	c #55A91D",
"U#	c #55A91E",
"V#	c #56A91E",
"W#	c #70B445",
"X#	c #4A9424",
"Y#	c #3E6831",
"Z#	c #327519",
"`#	c #4C9527",
" $	c #6BAF43",
".$	c #75B84B",
"+$	c #6AB33C",
"@$	c #5FAD2F",
"#$	c #59AA27",
"$$	c #55A720",
"%$	c #53A61D",
"&$	c #55A820",
"*$	c #6AAF43",
"=$	c #4B9527",
"-$	c #317518",
";$	c #3E6731",
">$	c #3E6536",
",$	c #316F1C",
"'$	c #387E1C",
")$	c #499328",
"!$	c #5DA437",
"~$	c #6AAE44",
"{$	c #75B64F",
"]$	c #7AB954",
"^$	c #499428",
"/$	c #387F1C",
"($	c #436439",
"_$	c #376928",
":$	c #316E1E",
"<$	c #2E7018",
"[$	c #2E7016",
". . . . . . . . . . . . . . . . . . . . . . . . . . . . . . . . . . . . . . . . . . . . . . . . ",
". . . . . . . . . . . . . . . . . . . . . . . . . . . . . . . . . . . . . . . . . . . . . . . . ",
". . . . . . . . . . . . . . . . . . . . . . . . . . . . . . . . . . . . . . . . . . . . . . . . ",
". . . . . . . . . . . . . . . . . . . . . . . . . . . . . . . . . . . . . . . . . . . . . . . . ",
". . . . . . . . . . . . . . . . . . . . . . . . . . . . . . . . . . . . . . . . . . . . . . . . ",
". . . . . . . . . . . . . . . . . . . . . + @ # # @ + . . . . . . . . . . . . . . . . . . . . . ",
". . . . . . . . . . . . . . . . . $ % & * = - ; ; - = * > , ' . . . . . . . . . . . . . . . . . ",
". . . . . . . . . . . . . . . ) ! ~ { ] ^ / ( _ _ : / < [ } | 1 2 . . . . . . . . . . . . . . . ",
". . . . . . . . . . . . . 3 4 5 6 7 8 9 0 a b b b a a 0 9 c d e f g h . . . . . . . . . . . . . ",
". . . . . . . . . . . . i j k l m n o o p q c c c c p p o r m s t u v w . . . . . . . . . . . . ",
". . . . . . . . . . . x y z A B C D D D D D D D D D D D D D D D E A F G H . . . . . . . . . . . ",
". . . . . . . . . . I J K L M D D D D D D D D D D D D D D D D D D D N O P Q . . . . . . . . . . ",
". . . . . . R S . T U V W X D D D D D D D D D D Y Z D D D D D D D D D W `  .... . . . . . . . . ",
". . . . . . +.@.#.$.%.&.*.D D D D D D D D D D D =.-.;.>.D D D D D D D D ,.'.).!.. . . . . . . . ",
". . . . . . ~.{.].^./.(.D D D D D D D D D D D D _.:.<.[.}.D D D D D D D D |.1.2.3.. . . . . . . ",
". . . . . . 4.5.6.7.8.9.0.D D D D D D D D D D D a.5.b.c.d.e.f.D D D D D D g.h.i.j.. . . . . . . ",
". . . . . . k.l.m.n.o.p.q.r.s.D D D D D D D D D a.t.u.v.o.w.x.y.z.D D D D D A.B.C.D.. . . . . . ",
". . . . . . E.F.G.G.H.I.J.K.L.M.D D D D D D D D N.O.P.P.Q.I.J.K.R.S.D D D D D T.U.V.. . . . . . ",
". . . . . W.X.Y.Z.Z.Z.Z.`. +.+++@+#+$+$+$+$+$+$+%+&+P.P.P.P.*+=+-+;+>+,+D D D '+)+!+~+. . . . . ",
". . . . . {+]+^+P./+/+/+/+/+(+_+:+<+[+}+$+$+$+$+|+1+P.P.P.P.P.P.(+2+3+4+[+5+D D 6+7+8+. . . . . ",
". . . . . 9+0+a+P.P.P.P.P.P.P.P.b+c+d+e+f+$+$+$+|+g+P.P.P.P.P.P.P.P.b+h+i+j+k+D D l+m+. . . . . ",
". . . . . n+o+p+P.P.P.P.P.P.P.P.P.P.q+.+r+s+t+$+u+v+P.P.P.P.P.P.P.P.P.P.w+x+y+z+A+B+C+. . . . . ",
". . . . D+E+F+G+P.P.P.P.P.P.P.P.P.P.P.H+I+J+K+L+M+N+P.P.P.P.P.P.P.P.P.P.P.P.O+P+Q+R+S+T+. . . . ",
". . . . U+V+W+X+P.P.P.P.P.P.P.P.P.P.P.P.P.Y+Z+`+ @.@P.P.P.P.P.P.P.P.P.P.P.P.P.+@@@#@$@%@. . . . ",
". . . . &@*@=@-@P.P.P.P.P.P.P.P.P.P.P.P.P.;@>@,@'@)@P.P.P.P.P.P.P.P.P.P.P.P.P.P.!@~@{@]@. . . . ",
". . . . ^@/@(@_@P.P.P.P.P.P.P.P.P.P.P.P.:@<@[@}@|@;@P.P.P.P.P.P.P.P.P.P.P.P.P.1@2@3@4@5@. . . . ",
". . . . 6@7@8@9@P.P.P.P.P.P.P.P.P.P.P.P.0@a@t+$+b@c@P.P.P.P.P.P.P.P.P.P.P.P.d@e@f@D g@6@. . . . ",
". . . . h@i@j@k@P.P.P.P.P.P.P.P.P.P.l@m@f+$+$+$+n@o@P.P.P.P.P.P.P.P.P.P.p@q@r@$+$+D s@t@. . . . ",
". . . . . u@v@w@P.P.P.P.P.P.P.P.x@y@z@}+$+$+$+$+n@A@P.P.P.P.P.P.P.P.B@C@D@E@$+$+$+D F@. . . . . ",
". . . . . G@H@I@P.P.P.P.P.P.J@K@L@#+$+$+$+$+$+$+M@I@P.P.P.P.P.P.N@O@P@t+$+$+$+$+$+D Q@. . . . . ",
". . . . . R@H@S@P.P.P.P.P.T@U@V@$+$+$+$+$+$+$+$+W@S@P.P.P.P.P.T@X@f+$+$+$+$+$+$+$+D Y@. . . . . ",
". . . . . Z@`@ #.#P.+#@###$#%#$+$+$+$+$+$+$+$+$+W@ #&#P.*#=#-#;#}+$+$+$+$+$+$+$+$+>#,#. . . . . ",
". . . . . . '#)#+#!#~#{#]#$+$+$+$+$+$+$+$+$+$+$+^#/#(#_#~#:##+$+$+$+$+$+$+$+$+$+D <#. . . . . . ",
". . . . . . [#}#|#1#2#$+$+$+$+$+$+$+$+$+$+$+$+$+^#P.3#1#4#$+$+$+$+$+$+$+$+$+$+$+5#6#. . . . . . ",
". . . . . . 7#8#9#0#$+$+$+$+$+$+$+$+$+$+$+$+$+$+a#b#c#0#$+$+$+$+$+$+$+$+$+$+$+D d#. . . . . . . ",
". . . . . . R e#f#$+$+$+$+$+$+$+$+$+$+$+$+$+$+$+g#h#$+$+$+$+$+$+$+$+$+$+$+$+$+f#i#. . . . . . . ",
". . . . . . . . j#k#$+$+$+$+$+$+$+$+$+$+$+$+$+$+$+$+$+$+$+$+$+$+$+$+$+$+$+$+l#m#. . . . . . . . ",
". . . . . . . . . n#o#$+$+$+$+$+$+$+$+$+$+$+$+$+$+$+$+$+$+$+$+$+$+$+$+$+$+o#p#. . . . . . . . . ",
". . . . . . . . . . q#r#s#$+$+$+$+$+$+$+$+$+$+$+$+$+$+$+$+$+$+$+$+$+$+$+r#t#. . . . . . . . . . ",
". . . . . . . . . . u#v#w#x#y#$+$+$+$+$+$+$+$+$+$+$+$+$+$+$+$+$+$+$+x#z#A#B#. . . . . . . . . . ",
". . . . . . . . . . . C#D#E#F#G#H#$+$+$+$+$+$+$+$+$+$+$+$+$+H#H#I#J#K#L#M#. . . . . . . . . . . ",
". . . . . . . . . . . . . N#O#P#Q#R#S#T#T#U#U#V#V#U#U#T#T#S#R#Q#W#X#N#. . . . . . . . . . . . . ",
". . . . . . . . . . . . . . Y#Z#`# $.$+$@$#$$$%$%$&$#$@$+$.$*$=$-$;$. . . . . . . . . . . . . . ",
". . . . . . . . . . . . . . . . >$,$'$)$!$~${$]$]${$~$!$^$/$,$>$. . . . . . . . . . . . . . . . ",
". . . . . . . . . . . . . . . . . . . ($_$:$<$[$[$<$:$_$($. . . . . . . . . . . . . . . . . . . ",
". . . . . . . . . . . . . . . . . . . . . . . . . . . . . . . . . . . . . . . . . . . . . . . . ",
". . . . . . . . . . . . . . . . . . . . . . . . . . . . . . . . . . . . . . . . . . . . . . . . ",
". . . . . . . . . . . . . . . . . . . . . . . . . . . . . . . . . . . . . . . . . . . . . . . . "};
