/* XPM */
static char * list_add_xpm[] = {
"48 48 452 2",
"  	c None",
". 	c #000000",
"+ 	c #468921",
"@ 	c #478A23",
"# 	c #478A22",
"$ 	c #42871F",
"% 	c #6BA842",
"& 	c #97C76C",
"* 	c #B7DC90",
"= 	c #CEE9AB",
"- 	c #DEF3C1",
"; 	c #E5F7CB",
"> 	c #96C66A",
", 	c #6AA641",
"' 	c #42881F",
") 	c #4F9328",
"! 	c #94C568",
"~ 	c #CCEAAA",
"{ 	c #DEF6BA",
"] 	c #D1F39E",
"^ 	c #C6F086",
"/ 	c #BEEE77",
"( 	c #B8EE6B",
"_ 	c #B7ED66",
": 	c #B9ED6C",
"< 	c #C5F086",
"[ 	c #D0F39E",
"} 	c #DEF6BB",
"| 	c #CBEAA8",
"1 	c #93C567",
"2 	c #4E9026",
"3 	c #448A20",
"4 	c #91C462",
"5 	c #D5EFB3",
"6 	c #CFF29E",
"7 	c #BAEC75",
"8 	c #B0EA5F",
"9 	c #B1EA5F",
"0 	c #B2EB60",
"a 	c #B2EB61",
"b 	c #B3EB61",
"c 	c #B0EA5E",
"d 	c #BBEC75",
"e 	c #CFF29F",
"f 	c #D4EFB3",
"g 	c #8FC360",
"h 	c #43881F",
"i 	c #61A135",
"j 	c #C0E399",
"k 	c #CEF1A0",
"l 	c #B3E967",
"m 	c #ACE85A",
"n 	c #ADE85B",
"o 	c #AEE95C",
"p 	c #AFE95D",
"q 	c #AFEA5E",
"r 	c #ADE95B",
"s 	c #ABE859",
"t 	c #B2E967",
"u 	c #CFF1A1",
"v 	c #BFE297",
"w 	c #5FA135",
"x 	c #76B246",
"y 	c #CFEEA8",
"z 	c #BAEB7A",
"A 	c #A7E554",
"B 	c #A8E656",
"C 	c #A9E657",
"D 	c #AAE758",
"E 	c #ABE759",
"F 	c #ACE859",
"G 	c #ABE758",
"H 	c #AAE757",
"I 	c #A9E656",
"J 	c #A8E655",
"K 	c #B9EB7A",
"L 	c #CFEEA7",
"M 	c #76B247",
"N 	c #7BB64B",
"O 	c #CDEFA4",
"P 	c #ACE662",
"Q 	c #A3E450",
"R 	c #A4E452",
"S 	c #A6E553",
"T 	c #A7E655",
"U 	c #A9E757",
"V 	c #A7E555",
"W 	c #A6E554",
"X 	c #A5E552",
"Y 	c #A4E451",
"Z 	c #A3E350",
"` 	c #ADE663",
" .	c #CDEEA3",
"..	c #7AB74B",
"+.	c #73B043",
"@.	c #C9ED9F",
"#.	c #A7E35B",
"$.	c #A0E14D",
"%.	c #A1E24E",
"&.	c #A2E34F",
"*.	c #A5E452",
"=.	c #A5E553",
"-.	c #A6E35B",
";.	c #C9EC9D",
">.	c #70AE41",
",.	c #599D2D",
"'.	c #C3E996",
").	c #A6E15C",
"!.	c #9DDF4B",
"~.	c #9EE04C",
"{.	c #9FE14D",
"].	c #A0E24E",
"^.	c #A2E250",
"/.	c #A3E451",
"(.	c #9DE04C",
"_.	c #9CDF4B",
":.	c #A6E15D",
"<.	c #599D2C",
"[.	c #3E8519",
"}.	c #ADDA7E",
"|.	c #ABE269",
"1.	c #99DD49",
"2.	c #9BDD49",
"3.	c #9CDE4A",
"4.	c #91D346",
"5.	c #FFFFFF",
"6.	c #9FE04C",
"7.	c #9BDE4A",
"8.	c #9ADD49",
"9.	c #99DC48",
"0.	c #ABE26A",
"a.	c #ACD97C",
"b.	c #3C8518",
"c.	c #7DB94C",
"d.	c #B6E57F",
"e.	c #96DA46",
"f.	c #97DB47",
"g.	c #98DC48",
"h.	c #8BCE44",
"i.	c #98DB47",
"j.	c #B7E580",
"k.	c #7CB94A",
"l.	c #42891C",
"m.	c #B5E184",
"n.	c #99DA4F",
"o.	c #94D844",
"p.	c #95D945",
"q.	c #8ACC42",
"r.	c #97DA46",
"s.	c #9ADA50",
"t.	c #B5E083",
"u.	c #428A1B",
"v.	c #79B646",
"w.	c #ABDF6F",
"x.	c #91D642",
"y.	c #92D743",
"z.	c #93D844",
"A.	c #95DA46",
"B.	c #87CA40",
"C.	c #94D945",
"D.	c #93D743",
"E.	c #ABDF70",
"F.	c #77B645",
"G.	c #378014",
"H.	c #A2D56E",
"I.	c #97D74F",
"J.	c #8FD440",
"K.	c #90D541",
"L.	c #92D642",
"M.	c #85C93F",
"N.	c #90D642",
"O.	c #8FD541",
"P.	c #8ED440",
"Q.	c #96D74F",
"R.	c #A1D56D",
"S.	c #367F13",
"T.	c #529928",
"U.	c #ABDE73",
"V.	c #8BD23E",
"W.	c #8CD33F",
"X.	c #8DD33F",
"Y.	c #83C73D",
"Z.	c #8CD23E",
"`.	c #ABDE74",
" +	c #519626",
".+	c #71B33E",
"++	c #9DD75D",
"@+	c #89D03C",
"#+	c #8AD13D",
"$+	c #81C63C",
"%+	c #80C53B",
"&+	c #8BD13D",
"*+	c #9DD75E",
"=+	c #6FB03C",
"-+	c #84C24E",
";+	c #91D34D",
">+	c #87CF3B",
",+	c #88CF3B",
"'+	c #8ED33F",
")+	c #7FC43A",
"!+	c #8AD23E",
"~+	c #87CE3A",
"{+	c #92D34D",
"]+	c #84C14D",
"^+	c #337F12",
"/+	c #90CA56",
"(+	c #89CE41",
"_+	c #85CD39",
":+	c #86CE3A",
"<+	c #7CC336",
"[+	c #84CD39",
"}+	c #8ECA55",
"|+	c #327D11",
"1+	c #357F11",
"2+	c #95D059",
"3+	c #84CB39",
"4+	c #83CB37",
"5+	c #83CC38",
"6+	c #84CC38",
"7+	c #85CD3A",
"8+	c #77BE34",
"9+	c #84CC39",
"0+	c #82CB37",
"a+	c #83CB39",
"b+	c #94D059",
"c+	c #337F11",
"d+	c #357D10",
"e+	c #93D158",
"f+	c #80C936",
"g+	c #80C935",
"h+	c #81CA36",
"i+	c #82CB38",
"j+	c #75BD33",
"k+	c #82CA36",
"l+	c #80C835",
"m+	c #93D058",
"n+	c #347E10",
"o+	c #347D10",
"p+	c #8FCE52",
"q+	c #7EC734",
"r+	c #7EC834",
"s+	c #7FC834",
"t+	c #7FC935",
"u+	c #74BB31",
"v+	c #73BB31",
"w+	c #7EC733",
"x+	c #8FCD52",
"y+	c #327D10",
"z+	c #89CA4D",
"A+	c #7DC633",
"B+	c #7CC632",
"C+	c #7DC733",
"D+	c #7DC734",
"E+	c #71B92F",
"F+	c #7BC632",
"G+	c #7CC634",
"H+	c #88C94B",
"I+	c #307B0F",
"J+	c #7FC142",
"K+	c #7CC536",
"L+	c #79C430",
"M+	c #7AC531",
"N+	c #7BC531",
"O+	c #7BC532",
"P+	c #6FB82E",
"Q+	c #6FB72E",
"R+	c #7AC430",
"S+	c #7DC142",
"T+	c #2F7A0D",
"U+	c #70B437",
"V+	c #7DC539",
"W+	c #77C22E",
"X+	c #78C32F",
"Y+	c #79C330",
"Z+	c #6DB72D",
"`+	c #579F24",
" @	c #579F25",
".@	c #569F24",
"+@	c #78C330",
"@@	c #77C32F",
"#@	c #7EC439",
"$@	c #6FB537",
"%@	c #5DA629",
"&@	c #80C53E",
"*@	c #74C02C",
"=@	c #75C12D",
"-@	c #76C22E",
";@	c #6DB82B",
">@	c #6BB52B",
",@	c #6CB62C",
"'@	c #6DB62C",
")@	c #6BB62C",
"!@	c #76C12D",
"~@	c #7FC53E",
"{@	c #5CA528",
"]@	c #428C19",
"^@	c #83C645",
"/@	c #72BF2B",
"(@	c #73BF2B",
"_@	c #73C02C",
":@	c #75C02C",
"<@	c #72BE2A",
"[@	c #408D17",
"}@	c #2E790C",
"|@	c #76BB3A",
"1@	c #74BF30",
"2@	c #70BD29",
"3@	c #71BE2A",
"4@	c #74C02D",
"5@	c #69B329",
"6@	c #76BC3B",
"7@	c #2D780C",
"8@	c #58A224",
"9@	c #7AC13A",
"0@	c #6EBB27",
"a@	c #6FBC28",
"b@	c #67B228",
"c@	c #71BD29",
"d@	c #6EBC28",
"e@	c #57A024",
"f@	c #317F0F",
"g@	c #78BD3D",
"h@	c #6EBB2A",
"i@	c #6CBA26",
"j@	c #6DBB27",
"k@	c #6FBD29",
"l@	c #64B026",
"m@	c #32800E",
"n@	c #559F21",
"o@	c #77BE38",
"p@	c #6AB824",
"q@	c #6AB925",
"r@	c #6BB925",
"s@	c #6CBB27",
"t@	c #63AE24",
"u@	c #69B824",
"v@	c #539D21",
"w@	c #2C790C",
"x@	c #6BB232",
"y@	c #6FBA2E",
"z@	c #68B723",
"A@	c #60AC22",
"B@	c #69B723",
"C@	c #67B623",
"D@	c #6EBA2E",
"E@	c #2D790C",
"F@	c #3A8712",
"G@	c #72B937",
"H@	c #68B627",
"I@	c #65B422",
"J@	c #65B522",
"K@	c #66B522",
"L@	c #66B623",
"M@	c #67B723",
"N@	c #5EAB21",
"O@	c #4C961C",
"P@	c #4C971D",
"Q@	c #66B622",
"R@	c #64B422",
"S@	c #71B837",
"T@	c #3B8612",
"U@	c #449018",
"V@	c #6FB836",
"W@	c #63B324",
"X@	c #61B221",
"Y@	c #62B221",
"Z@	c #63B321",
"`@	c #63B322",
" #	c #5CAB20",
".#	c #5BA920",
"+#	c #5DAC20",
"@#	c #63B422",
"##	c #62B321",
"$#	c #63B224",
"%#	c #439018",
"&#	c #47941E",
"*#	c #6FB739",
"=#	c #62B126",
"-#	c #5EB020",
";#	c #5FB020",
">#	c #60B121",
",#	c #61B121",
"'#	c #5EAF20",
")#	c #61B126",
"!#	c #46931C",
"~#	c #286914",
"{#	c #438E1C",
"]#	c #70B63E",
"^#	c #64B22D",
"/#	c #5BAD1F",
"(#	c #5CAE1F",
"_#	c #5CAE20",
":#	c #5DAE20",
"<#	c #5DAF20",
"[#	c #6FB53E",
"}#	c #428F1C",
"|#	c #276C14",
"1#	c #346824",
"2#	c #398017",
"3#	c #67AD39",
"4#	c #6DB53C",
"5#	c #5DAE25",
"6#	c #58AB1E",
"7#	c #59AB1F",
"8#	c #59AC1F",
"9#	c #59AB1E",
"0#	c #5CAD25",
"a#	c #6EB63D",
"b#	c #65AD38",
"c#	c #388017",
"d#	c #346624",
"e#	c #317219",
"f#	c #4C9425",
"g#	c #70B545",
"h#	c #6BB43C",
"i#	c #5DAC29",
"j#	c #55A81D",
"k#	c #55A91D",
"l#	c #55A91E",
"m#	c #56A91E",
"n#	c #70B445",
"o#	c #4A9424",
"p#	c #3E6831",
"q#	c #327519",
"r#	c #4C9527",
"s#	c #6BAF43",
"t#	c #75B84B",
"u#	c #6AB33C",
"v#	c #5FAD2F",
"w#	c #59AA27",
"x#	c #55A720",
"y#	c #53A61D",
"z#	c #55A820",
"A#	c #6AAF43",
"B#	c #4B9527",
"C#	c #317518",
"D#	c #3E6731",
"E#	c #3E6536",
"F#	c #316F1C",
"G#	c #387E1C",
"H#	c #499328",
"I#	c #5DA437",
"J#	c #6AAE44",
"K#	c #75B64F",
"L#	c #7AB954",
"M#	c #499428",
"N#	c #387F1C",
"O#	c #436439",
"P#	c #376928",
"Q#	c #316E1E",
"R#	c #2E7018",
"S#	c #2E7016",
". . . . . . . . . . . . . . . . . . . . . . . . . . . . . . . . . . . . . . . . . . . . . . . . ",
". . . . . . . . . . . . . . . . . . . . . . . . . . . . . . . . . . . . . . . . . . . . . . . . ",
". . . . . . . . . . . . . . . . . . . . . . . . . . . . . . . . . . . . . . . . . . . . . . . . ",
". . . . . . . . . . . . . . . . . . . . . . . . . . . . . . . . . . . . . . . . . . . . . . . . ",
". . . . . . . . . . . . . . . . . . . . . . . . . . . . . . . . . . . . . . . . . . . . . . . . ",
". . . . . . . . . . . . . . . . . . . . . + @ # # @ + . . . . . . . . . . . . . . . . . . . . . ",
". . . . . . . . . . . . . . . . . $ % & * = - ; ; - = * > , ' . . . . . . . . . . . . . . . . . ",
". . . . . . . . . . . . . . . ) ! ~ { ] ^ / ( _ _ : / < [ } | 1 2 . . . . . . . . . . . . . . . ",
". . . . . . . . . . . . . 3 4 5 6 7 8 9 0 a b b b a a 0 9 c d e f g h . . . . . . . . . . . . . ",
". . . . . . . . . . . . i j k l m n o o p q c c c c p p o r m s t u v w . . . . . . . . . . . . ",
". . . . . . . . . . . x y z A B C D E F m n n n n n m m s G H I J A K L M . . . . . . . . . . . ",
". . . . . . . . . . N O P Q R S A T B I U H D D D D H C I J V W X Y Z `  .... . . . . . . . . . ",
". . . . . . . . . +.@.#.$.%.&.Z Y *.=.S W A A V V A A W S X R Y Z &.%.$.-.;.>.. . . . . . . . . ",
". . . . . . . . ,.'.).!.~.{.$.].%.&.Z Q Y ^.^.^.^.^.^./.Z &.&.%.].{.~.(._.:.'.<.. . . . . . . . ",
". . . . . . . [.}.|.1.2.3._.!.~.{.{.].].4.5.5.5.5.5.5.4.].$.{.6.~.!._.7.8.9.0.a.b.. . . . . . . ",
". . . . . . . c.d.e.f.g.9.8.7.3._.!.~.!.h.5.5.5.5.5.5.h.!.!.!._.7.2.8.9.i.f.e.j.k.. . . . . . . ",
". . . . . . l.m.n.o.p.e.f.i.9.9.8.2.7.8.q.5.5.5.5.5.5.q.8.7.8.8.9.g.i.r.e.p.o.s.t.u.. . . . . . ",
". . . . . . v.w.x.y.z.o.p.A.e.f.i.i.9.i.B.5.5.5.5.5.5.B.i.g.i.f.r.e.p.C.o.D.y.x.E.F.. . . . . . ",
". . . . . G.H.I.J.K.x.L.y.z.o.C.p.e.e.p.M.5.5.5.5.5.5.M.p.e.p.p.C.o.z.y.x.N.O.P.Q.R.S.. . . . . ",
". . . . . T.U.V.W.X.P.O.K.x.x.y.D.z.z.D.Y.5.5.5.5.5.5.Y.D.z.z.y.y.x.N.K.O.P.X.Z.V.`. +. . . . . ",
". . . . . .+++@+#+V.Z.X.P.P.O.K.K.x.x.K.$+5.5.5.5.5.5.%+K.x.N.K.O.J.P.X.X.Z.&+#+@+*+=+. . . . . ",
". . . . . -+;+>+,+@+#+#+V.#+V.V.W.W.W.'+)+5.5.5.5.5.5.)+'+W.W.V.V.!+#+V.#+@+@+,+~+{+]+. . . . . ",
". . . . ^+/+(+_+:+~+>+,+<+5.5.5.5.5.5.5.5.5.5.5.5.5.5.5.5.5.5.5.5.5.5.<+,+>+:+_+[+(+}+|+. . . . ",
". . . . 1+2+3+4+5+6+_+7+8+5.5.5.5.5.5.5.5.5.5.5.5.5.5.5.5.5.5.5.5.5.5.8+9+_+6+5+0+a+b+c+. . . . ",
". . . . d+e+f+g+h+0+4+i+j+5.5.5.5.5.5.5.5.5.5.5.5.5.5.5.5.5.5.5.5.5.5.j+i+0+k+h+g+l+m+n+. . . . ",
". . . . o+p+q+r+s+t+g+f+u+5.5.5.5.5.5.5.5.5.5.5.5.5.5.5.5.5.5.5.5.5.5.v+f+g+t+r+w+q+x+n+. . . . ",
". . . . y+z+A+B+B+C+r+D+E+5.5.5.5.5.5.5.5.5.5.5.5.5.5.5.5.5.5.5.5.5.5.E+D+w+C+B+F+G+H+y+. . . . ",
". . . . I+J+K+L+M+N+F+O+P+5.5.5.5.5.5.5.5.5.5.5.5.5.5.5.5.5.5.5.5.5.5.Q+O+F+M+R+L+K+S+T+. . . . ",
". . . . . U+V+W+X+X+L+Y+Z+`+ @ @ @ @ @ @ @5.5.5.5.5.5. @ @ @ @ @ @`+.@Z++@L+X+@@W+#@$@. . . . . ",
". . . . . %@&@*@=@-@W+W+;@>@,@,@,@'@Z+Z+Z+5.5.5.5.5.5.Z+Z+Z+'@,@,@)@>@;@W+-@!@=@*@~@{@. . . . . ",
". . . . . ]@^@/@(@_@*@=@=@:@=@!@!@-@W+W+>@5.5.5.5.5.5.>@W+-@!@!@=@=@:@=@*@*@_@(@<@^@[@. . . . . ",
". . . . . }@|@1@2@3@<@/@(@(@*@*@*@=@=@4@5@5.5.5.5.5.5.5@4@=@=@*@*@_@(@(@/@3@3@2@1@6@7@. . . . . ",
". . . . . . 8@9@0@a@a@2@2@3@3@3@<@/@/@/@b@5.5.5.5.5.5.b@/@/@/@<@3@3@c@2@2@a@d@0@9@e@. . . . . . ",
". . . . . . f@g@h@i@j@j@0@d@a@a@k@2@2@k@l@5.5.5.5.5.5.l@k@2@k@a@a@d@d@0@j@i@i@h@g@m@. . . . . . ",
". . . . . . . n@o@p@q@r@r@i@i@i@j@j@j@s@t@5.5.5.5.5.5.t@s@j@j@j@i@i@i@r@r@q@u@o@v@. . . . . . . ",
". . . . . . . w@x@y@z@z@u@u@p@p@q@q@r@q@A@5.5.5.5.5.5.A@q@r@q@q@p@u@u@B@z@C@D@x@E@. . . . . . . ",
". . . . . . . . F@G@H@I@J@K@L@C@M@z@z@M@N@O@P@P@P@P@O@N@M@z@z@C@C@Q@K@J@R@H@S@T@. . . . . . . . ",
". . . . . . . . . U@V@W@X@Y@Z@`@R@R@R@I@ #.#.#.#.#.#.#+#I@R@R@@#`@##Y@X@$#V@%#. . . . . . . . . ",
". . . . . . . . . . &#*#=#-#;#;#>#>#>#,#X@>#>#>#>#>#>#X@,#>#>#>#;#;#'#)#*#!#. . . . . . . . . . ",
". . . . . . . . . . ~#{#]#^#/#/#(#_#:#<#<#<#<#<#<#<#<#<#:#_#_#(#/#/#^#[#}#|#. . . . . . . . . . ",
". . . . . . . . . . . 1#2#3#4#5#6#6#7#8#8#8#8#8#8#8#8#8#7#9#6#6#0#a#b#c#d#. . . . . . . . . . . ",
". . . . . . . . . . . . . e#f#g#h#i#j#k#k#l#l#m#m#l#l#k#k#j#i#h#n#o#e#. . . . . . . . . . . . . ",
". . . . . . . . . . . . . . p#q#r#s#t#u#v#w#x#y#y#z#w#v#u#t#A#B#C#D#. . . . . . . . . . . . . . ",
". . . . . . . . . . . . . . . . E#F#G#H#I#J#K#L#L#K#J#I#M#N#F#E#. . . . . . . . . . . . . . . . ",
". . . . . . . . . . . . . . . . . . . O#P#Q#R#S#S#R#Q#P#O#. . . . . . . . . . . . . . . . . . . ",
". . . . . . . . . . . . . . . . . . . . . . . . . . . . . . . . . . . . . . . . . . . . . . . . ",
". . . . . . . . . . . . . . . . . . . . . . . . . . . . . . . . . . . . . . . . . . . . . . . . ",
". . . . . . . . . . . . . . . . . . . . . . . . . . . . . . . . . . . . . . . . . . . . . . . . "};
