/* XPM */
static char * list_remove_xpm[] = {
"48 48 429 2",
"  	c None",
". 	c #000000",
"+ 	c #982D21",
"@ 	c #992E23",
"# 	c #982F22",
"$ 	c #97291F",
"% 	c #B24B3E",
"& 	c #CC7262",
"* 	c #DE917F",
"= 	c #E9A795",
"- 	c #F1B8A6",
"; 	c #F4BFAE",
"> 	c #F1B7A6",
", 	c #E9A695",
"' 	c #CC7261",
") 	c #B04A3D",
"! 	c #97281F",
"~ 	c #A03128",
"{ 	c #CA6C5E",
"] 	c #E8A292",
"^ 	c #F3B2A1",
"/ 	c #F1A38D",
"( 	c #EF957C",
"_ 	c #EE8D72",
": 	c #EE8769",
"< 	c #ED8466",
"[ 	c #ED8769",
"} 	c #F1A28D",
"| 	c #E8A191",
"1 	c #CA6B5C",
"2 	c #9E3027",
"3 	c #98261F",
"4 	c #C86558",
"5 	c #ECA699",
"6 	c #EF9D8B",
"7 	c #EB856E",
"8 	c #EA795F",
"9 	c #EA7A5F",
"0 	c #EB7C60",
"a 	c #EB7D61",
"b 	c #EB7E61",
"c 	c #EB7C61",
"d 	c #EB7B60",
"e 	c #EA785E",
"f 	c #EB846E",
"g 	c #EF9D8C",
"h 	c #ECA599",
"i 	c #C86457",
"j 	c #98251F",
"k 	c #A93A31",
"l 	c #E38F84",
"m 	c #EE998B",
"n 	c #E97863",
"o 	c #E8705A",
"p 	c #E8725B",
"q 	c #E9745C",
"r 	c #E9755C",
"s 	c #E9765D",
"t 	c #EA775E",
"u 	c #E9775D",
"v 	c #E9735B",
"w 	c #E8715A",
"x 	c #E86F59",
"y 	c #E97763",
"z 	c #EE998C",
"A 	c #E28D81",
"B 	c #AC3932",
"C 	c #B94940",
"D 	c #EA998F",
"E 	c #E97D6F",
"F 	c #E56754",
"G 	c #E66956",
"H 	c #E66B57",
"I 	c #E76D58",
"J 	c #E76E59",
"K 	c #E87059",
"L 	c #E76E58",
"M 	c #E76C57",
"N 	c #E66A56",
"O 	c #E66855",
"P 	c #E56654",
"Q 	c #EA988F",
"R 	c #BA4841",
"S 	c #BC4B45",
"T 	c #EB958B",
"U 	c #E56A5D",
"V 	c #E46050",
"W 	c #E46252",
"X 	c #E56453",
"Y 	c #E66755",
"Z 	c #E76B57",
"` 	c #E76C58",
" .	c #E56755",
"..	c #E56554",
"+.	c #E56352",
"@.	c #E46151",
"#.	c #E35F50",
"$.	c #EA948A",
"%.	c #BC4B44",
"&.	c #B6433D",
"*.	c #EA8F87",
"=.	c #E36457",
"-.	c #E25B4E",
";.	c #E25C4E",
">.	c #E35D4F",
",.	c #E56553",
"'.	c #E46051",
").	c #E35E50",
"!.	c #E98E86",
"~.	c #B7423C",
"{.	c #A6302B",
"].	c #E68881",
"^.	c #E26358",
"/.	c #E0584C",
"(.	c #E1594D",
"_.	c #E15A4D",
":.	c #E35C4F",
"<.	c #E45F50",
"[.	c #E35E4F",
"}.	c #E25A4D",
"|.	c #E1594C",
"1.	c #E26458",
"2.	c #E68880",
"3.	c #A72F2B",
"4.	c #951D19",
"5.	c #DB746E",
"6.	c #E26A61",
"7.	c #DF554A",
"8.	c #DF564B",
"9.	c #E0574B",
"0.	c #E35C4E",
"a.	c #E1584C",
"b.	c #E0574C",
"c.	c #E36B62",
"d.	c #DB726D",
"e.	c #931C18",
"f.	c #C14B47",
"g.	c #E57871",
"h.	c #DD5248",
"i.	c #DE5349",
"j.	c #DE544A",
"k.	c #DE5449",
"l.	c #DD5349",
"m.	c #E47871",
"n.	c #BF4844",
"o.	c #981E1C",
"p.	c #E17872",
"q.	c #DE574E",
"r.	c #DC5047",
"s.	c #DD5148",
"t.	c #E0564B",
"u.	c #DD5249",
"v.	c #DC4F47",
"w.	c #DD564F",
"x.	c #E07772",
"y.	c #991F1C",
"z.	c #BE4641",
"A.	c #E16C66",
"B.	c #DA4D45",
"C.	c #DB4E46",
"D.	c #DB4F46",
"E.	c #DB4D46",
"F.	c #DA4C45",
"G.	c #E16B65",
"H.	c #BE4441",
"I.	c #901716",
"J.	c #D76662",
"K.	c #DB544D",
"L.	c #D94B44",
"M.	c #DC5148",
"N.	c #DB4D45",
"O.	c #DA4B44",
"P.	c #D94A44",
"Q.	c #DB544E",
"R.	c #901614",
"S.	c #A62928",
"T.	c #DF6C68",
"U.	c #D84842",
"V.	c #D84943",
"W.	c #D94A43",
"X.	c #D94943",
"Y.	c #D84843",
"Z.	c #D84742",
"`.	c #DF6B67",
" +	c #A32825",
".+	c #BC3E3B",
"++	c #DB5C57",
"@+	c #D74641",
"#+	c #D74742",
"$+	c #D64541",
"%+	c #DB5B58",
"&+	c #B93C3A",
"*+	c #C94B4A",
"=+	c #D8504C",
"-+	c #D64340",
";+	c #D64440",
">+	c #D5433F",
",+	c #D84F4D",
"'+	c #C84B48",
")+	c #8F1414",
"!+	c #CF5250",
"~+	c #D54644",
"{+	c #D4413E",
"]+	c #D5423F",
"^+	c #CA403C",
"/+	c #FEF9F1",
"(+	c #D64745",
"_+	c #8E1412",
":+	c #901413",
"<+	c #D45555",
"[+	c #D4403F",
"}+	c #D33F3D",
"|+	c #D4403E",
"1+	c #C53C39",
"2+	c #FEF8F1",
"3+	c #C43C39",
"4+	c #D4403D",
"5+	c #D55555",
"6+	c #8F1313",
"7+	c #D65353",
"8+	c #D23D3C",
"9+	c #D33E3C",
"0+	c #C33A38",
"a+	c #FEF7F0",
"b+	c #D33E3D",
"c+	c #D13D3C",
"d+	c #901313",
"e+	c #D54F4F",
"f+	c #D13B3B",
"g+	c #D13B3A",
"h+	c #D13C3B",
"i+	c #D23C3B",
"j+	c #D23E3C",
"k+	c #C33937",
"l+	c #FDF6F0",
"m+	c #D13A3A",
"n+	c #D03B3B",
"o+	c #D44F4F",
"p+	c #8F1113",
"q+	c #D0494A",
"r+	c #CF3A3B",
"s+	c #D03939",
"t+	c #D0393A",
"u+	c #C23635",
"v+	c #FDF5F0",
"w+	c #D03A3A",
"x+	c #D03839",
"y+	c #D1494A",
"z+	c #8D1111",
"A+	c #8D1112",
"B+	c #C94142",
"C+	c #CF3B3C",
"D+	c #CF3638",
"E+	c #CF3738",
"F+	c #CF3839",
"G+	c #C13434",
"H+	c #FDF4EF",
"I+	c #C03434",
"J+	c #CE3638",
"K+	c #CF3A3C",
"L+	c #C93F42",
"M+	c #8D0F11",
"N+	c #C13639",
"O+	c #CF3B3E",
"P+	c #CD3436",
"Q+	c #CE3537",
"R+	c #BF3334",
"S+	c #A5292A",
"T+	c #A6292A",
"U+	c #A4292A",
"V+	c #BF3537",
"W+	c #B2292D",
"X+	c #CF3E42",
"Y+	c #CC3235",
"Z+	c #CD3336",
"`+	c #CE3437",
" @	c #C23133",
".@	c #BE3132",
"+@	c #BF3133",
"@@	c #BF3233",
"#@	c #BE3133",
"$@	c #CF3E41",
"%@	c #B2292C",
"&@	c #9D191D",
"*@	c #D04245",
"=@	c #CB3034",
"-@	c #CC3135",
";@	c #CC3134",
">@	c #CB2F34",
",@	c #9B1A1C",
"'@	c #8B0E0F",
")@	c #C5393D",
"!@	c #CB3237",
"~@	c #CA2E33",
"{@	c #CB2F33",
"]@	c #CD3235",
"^@	c #CC3034",
"/@	c #C5383D",
"(@	c #8A0E0E",
"_@	c #B02429",
":@	c #CC383E",
"<@	c #C92C31",
"[@	c #C92C32",
"}@	c #CA2D32",
"|@	c #C92D32",
"1@	c #C92B31",
"2@	c #AF2429",
"3@	c #921013",
"4@	c #C9393F",
"5@	c #C92C33",
"6@	c #C82A30",
"7@	c #C82A31",
"8@	c #C8393E",
"9@	c #911012",
"0@	c #AD2026",
"a@	c #CB353D",
"b@	c #C7282F",
"c@	c #C72930",
"d@	c #C82930",
"e@	c #C82B31",
"f@	c #C7272F",
"g@	c #CA353C",
"h@	c #AD2126",
"i@	c #8C0D10",
"j@	c #BE2F38",
"k@	c #C62E36",
"l@	c #C5262E",
"m@	c #C6262E",
"n@	c #C6272E",
"o@	c #C6272F",
"p@	c #C62D36",
"q@	c #BE2E37",
"r@	c #8B0D10",
"s@	c #97131A",
"t@	c #C3343F",
"u@	c #C22834",
"v@	c #C22530",
"w@	c #C3252F",
"x@	c #C4252F",
"y@	c #C5262F",
"z@	c #C12530",
"A@	c #C12834",
"B@	c #C2323E",
"C@	c #96131A",
"D@	c #9F1922",
"E@	c #C0323F",
"F@	c #BE2634",
"G@	c #BE2431",
"H@	c #BF2431",
"I@	c #C02430",
"J@	c #C12430",
"K@	c #C2252F",
"L@	c #C02431",
"M@	c #9E1822",
"N@	c #9F1C26",
"O@	c #BD3445",
"P@	c #BA2637",
"Q@	c #BA2233",
"R@	c #BB2333",
"S@	c #BB2332",
"T@	c #BC2332",
"U@	c #BD2332",
"V@	c #BD2431",
"W@	c #BD2432",
"X@	c #BA2333",
"Y@	c #791418",
"Z@	c #991B27",
"`@	c #BA3648",
" #	c #B82B3F",
".#	c #B62135",
"+#	c #B62134",
"@#	c #B72234",
"##	c #B82234",
"$#	c #B92233",
"%#	c #991C27",
"&#	c #7A1418",
"*#	c #742426",
"=#	c #8E1722",
"-#	c #B13244",
";#	c #B9364B",
">#	c #B4253B",
",#	c #B22036",
"'#	c #B32036",
")#	c #B32136",
"!#	c #B42136",
"~#	c #B42135",
"{#	c #B3253B",
"]#	c #8D1721",
"^#	c #722426",
"/#	c #801921",
"(#	c #9D2332",
"_#	c #B63C50",
":#	c #B5354C",
"<#	c #B1273F",
"[#	c #AE1F38",
"}#	c #AF1F38",
"|#	c #AF1F37",
"1#	c #B53B4F",
"2#	c #9B2131",
"3#	c #723134",
"4#	c #811821",
"5#	c #9C2336",
"6#	c #AF394F",
"7#	c #B64057",
"8#	c #B3354E",
"9#	c #AF2B45",
"0#	c #AD2640",
"a#	c #AB213B",
"b#	c #AA1F3A",
"c#	c #AB223C",
"d#	c #AF2B46",
"e#	c #9B2335",
"f#	c #811822",
"g#	c #713133",
"h#	c #6D3637",
"i#	c #7A1C25",
"j#	c #881B28",
"k#	c #982337",
"l#	c #A52F46",
"m#	c #AD3951",
"n#	c #B24159",
"o#	c #B5455D",
"p#	c #992337",
"q#	c #6D393B",
"r#	c #73282C",
"s#	c #7A1F27",
"t#	c #7C1822",
"u#	c #7B1620",
"v#	c #7A1F26",
". . . . . . . . . . . . . . . . . . . . . . . . . . . . . . . . . . . . . . . . . . . . . . . . ",
". . . . . . . . . . . . . . . . . . . . . . . . . . . . . . . . . . . . . . . . . . . . . . . . ",
". . . . . . . . . . . . . . . . . . . . . . . . . . . . . . . . . . . . . . . . . . . . . . . . ",
". . . . . . . . . . . . . . . . . . . . . . . . . . . . . . . . . . . . . . . . . . . . . . . . ",
". . . . . . . . . . . . . . . . . . . . . . . . . . . . . . . . . . . . . . . . . . . . . . . . ",
". . . . . . . . . . . . . . . . . . . . . + @ # # @ + . . . . . . . . . . . . . . . . . . . . . ",
". . . . . . . . . . . . . . . . . $ % & * = - ; ; > , * ' ) ! . . . . . . . . . . . . . . . . . ",
". . . . . . . . . . . . . . . ~ { ] ^ / ( _ : < < [ _ ( } ^ | 1 2 . . . . . . . . . . . . . . . ",
". . . . . . . . . . . . . 3 4 5 6 7 8 9 0 a a b b a c d 9 e f g h i j . . . . . . . . . . . . . ",
". . . . . . . . . . . . k l m n o p q r s t e e e e u s r v w x y z A B . . . . . . . . . . . . ",
". . . . . . . . . . . C D E F G H I J K w p p p p p w o x L M N O P E Q R . . . . . . . . . . . ",
". . . . . . . . . . S T U V W X P Y G N Z M ` I I ` M H N O  ...+.@.#.U $.%.. . . . . . . . . . ",
". . . . . . . . . &.*.=.-.;.>.#.@.W X ,.P P F  . .F P ..X +.W '.).>.;.-.=.!.~.. . . . . . . . . ",
". . . . . . . . {.].^./.(._.-.;.:.>.).<.'.@.@.@.@.@.@.'.#.[.>.;.-.}._.|./.1.2.3.. . . . . . . . ",
". . . . . . . 4.5.6.7.8.9./.|.(._.-.-.;.;.:.:.:.:.:.0.;.-.-.}._.(.a.b.9.8.7.c.d.e.. . . . . . . ",
". . . . . . . f.g.h.i.j.7.8.8.9./.a.|.(._._._._._._._.(.(.|./.b.9.8.7.j.k.l.h.m.n.. . . . . . . ",
". . . . . . o.p.q.r.s.h.i.i.j.7.7.8.t.9.9.b.b././.b.b.9.9.8.8.7.7.j.i.u.s.r.v.w.x.y.. . . . . . ",
". . . . . . z.A.B.C.D.r.r.s.h.u.i.k.j.j.7.7.7.7.7.7.7.7.j.j.i.i.u.h.s.r.v.C.E.F.G.H.. . . . . . ",
". . . . . I.J.K.L.F.B.E.C.v.r.r.s.s.h.h.u.u.i.i.i.l.u.h.h.s.s.M.r.v.D.C.N.F.O.P.Q.J.R.. . . . . ",
". . . . . S.T.U.V.W.P.O.F.B.E.C.C.v.v.r.r.r.r.r.r.r.r.r.v.v.D.C.C.N.F.F.L.P.X.Y.Z.`. +. . . . . ",
". . . . . .+++@+@+Z.Y.V.W.P.L.F.F.F.B.N.E.C.C.C.C.C.C.E.N.B.F.F.O.L.P.X.V.U.#+@+$+%+&+. . . . . ",
". . . . . *+=+-+;+$+@+#+Z.U.V.X.W.P.P.L.L.O.O.O.O.O.O.L.L.P.P.X.V.Y.U.#+@+@+$+;+>+,+'+. . . . . ",
". . . . )+!+~+{+]+>+;+;+$+^+/+/+/+/+/+/+/+/+/+/+/+/+/+/+/+/+/+/+/+/+^+$+;+-+>+]+{+(+!+_+. . . . ",
". . . . :+<+[+}+|+{+{+]+>+1+2+2+2+2+2+2+2+2+2+2+2+2+2+2+2+2+2+2+2+2+3+>+]+{+|+4+}+|+5+6+. . . . ",
". . . . 6+7+8+8+9+}+}+|+{+0+a+a+a+a+a+a+a+a+a+a+a+a+a+a+a+a+a+a+a+a+0+|+4+}+b+8+8+c+7+d+. . . . ",
". . . . 6+e+f+g+h+i+8+j+b+k+l+l+l+l+l+l+l+l+l+l+l+l+l+l+l+l+l+l+l+l+k+9+8+8+i+f+m+n+o+6+. . . . ",
". . . . p+q+r+s+t+m+g+f+i+u+v+v+v+v+v+v+v+v+v+v+v+v+v+v+v+v+v+v+v+v+u+h+f+m+w+s+x+t+y+z+. . . . ",
". . . . A+B+C+D+E+F+x+s+w+G+H+H+H+H+H+H+H+H+H+H+H+H+H+H+H+H+H+H+H+H+I+t+s+x+E+E+J+K+L+M+. . . . ",
". . . . . N+O+P+Q+Q+J+E+E+R+S+S+S+S+S+S+T+T+T+T+T+T+T+S+S+S+S+S+S+U+R+E+D+J+Q+Q+P+O+V+. . . . . ",
". . . . . W+X+Y+Z+Z+P+`+Q+ @.@+@@@@@@@@@R+R+R+R+R+R+R+@@@@@@@@+@#@.@ @Q+P+P+Z+Y+Y+$@%@. . . . . ",
". . . . . &@*@=@=@-@-@Y+Z+Z+Z+P+P+`+Q+Q+Q+Q+Q+Q+Q+Q+Q+Q+Q+Q+`+P+P+Z+Z+Y+Y+-@;@=@>@*@,@. . . . . ",
". . . . . '@)@!@~@{@{@=@=@;@-@-@Y+Y+Y+]@Z+Z+Z+Z+Z+Z+Z+Z+]@Y+Y+Y+-@-@^@=@>@{@~@~@!@/@(@. . . . . ",
". . . . . . _@:@<@[@}@}@~@~@{@{@>@=@=@=@=@=@=@^@^@=@=@=@=@=@=@>@{@~@~@~@}@|@[@1@:@2@. . . . . . ",
". . . . . . 3@4@5@6@7@1@1@[@[@|@}@}@}@~@~@~@~@~@~@~@~@~@~@}@}@}@[@[@<@1@1@7@6@5@8@9@. . . . . . ",
". . . . . . . 0@a@b@b@c@d@d@6@7@e@1@1@1@1@1@<@<@<@<@1@1@1@1@e@7@6@6@d@d@b@b@f@g@h@. . . . . . . ",
". . . . . . . i@j@k@l@m@n@f@f@b@b@b@c@c@d@d@d@d@d@d@d@d@c@c@b@b@b@f@o@n@m@l@p@q@r@. . . . . . . ",
". . . . . . . . s@t@u@v@w@w@x@l@l@m@m@m@m@n@n@n@n@n@n@m@m@m@m@l@y@x@w@v@z@A@B@C@. . . . . . . . ",
". . . . . . . . . D@E@F@G@H@H@I@J@z@z@v@v@v@K@w@K@K@v@v@v@z@z@I@L@H@G@G@F@E@M@. . . . . . . . . ",
". . . . . . . . . . N@O@P@Q@R@S@T@T@U@U@U@V@G@G@G@G@W@U@U@U@T@T@S@X@Q@P@O@N@. . . . . . . . . . ",
". . . . . . . . . . Y@Z@`@ #.#+#@#@#######$#$#$#$#$#$#######@#@#+#.# #`@%#&#. . . . . . . . . . ",
". . . . . . . . . . . *#=#-#;#>#,#'#'#)#!#~#~#~#~#~#~#)#)#'#,#,#{#;#-#]#^#. . . . . . . . . . . ",
". . . . . . . . . . . . . /#(#_#:#<#[#[#}#|#|#|#|#|#|#}#[#[#<#:#1#2#/#. . . . . . . . . . . . . ",
". . . . . . . . . . . . . . 3#4#5#6#7#8#9#0#a#b#b#c#0#d#8#7#6#e#f#g#. . . . . . . . . . . . . . ",
". . . . . . . . . . . . . . . . h#i#j#k#l#m#n#o#o#n#m#l#p#j#i#h#. . . . . . . . . . . . . . . . ",
". . . . . . . . . . . . . . . . . . . q#r#s#t#u#u#t#v#r#q#. . . . . . . . . . . . . . . . . . . ",
". . . . . . . . . . . . . . . . . . . . . . . . . . . . . . . . . . . . . . . . . . . . . . . . ",
". . . . . . . . . . . . . . . . . . . . . . . . . . . . . . . . . . . . . . . . . . . . . . . . ",
". . . . . . . . . . . . . . . . . . . . . . . . . . . . . . . . . . . . . . . . . . . . . . . . "};
