/* XPM */
static char * media_playback_start_xpm[] = {
"48 48 362 2",
"  	c None",
". 	c #000000",
"+ 	c #2B740F",
"@ 	c #408719",
"# 	c #82BB54",
"$ 	c #458B1F",
"% 	c #D8F2B7",
"& 	c #C3E69C",
"* 	c #7CB74C",
"= 	c #42891D",
"- 	c #ADE566",
"; 	c #A7E457",
"> 	c #D0F2A6",
", 	c #BCE193",
"' 	c #71AD44",
") 	c #3A8019",
"! 	c #ACE465",
"~ 	c #A2E34F",
"{ 	c #A4E452",
"] 	c #ABE65C",
"^ 	c #D6F3AE",
"/ 	c #B6DE8C",
"( 	c #69A73D",
"_ 	c #357D16",
": 	c #3F8719",
"< 	c #AAE463",
"[ 	c #A1E24E",
"} 	c #A3E451",
"| 	c #A6E553",
"1 	c #A8E657",
"2 	c #BEED80",
"3 	c #D9F5B3",
"4 	c #AFD884",
"5 	c #5F9E34",
"6 	c #A9E362",
"7 	c #A0E24E",
"8 	c #A5E452",
"9 	c #A7E554",
"0 	c #A9E657",
"a 	c #ACE75A",
"b 	c #C4EE89",
"c 	c #D8F2B2",
"d 	c #9ECC70",
"e 	c #56972C",
"f 	c #A8E261",
"g 	c #9FE14D",
"h 	c #A3E450",
"i 	c #A5E553",
"j 	c #A7E655",
"k 	c #A9E757",
"l 	c #ABE859",
"m 	c #AEE95E",
"n 	c #CCF197",
"o 	c #D5F0B1",
"p 	c #96C967",
"q 	c #509328",
"r 	c #3F8618",
"s 	c #A6E15F",
"t 	c #9EE04C",
"u 	c #A0E14D",
"v 	c #A4E451",
"w 	c #A8E655",
"x 	c #AAE757",
"y 	c #ADE85B",
"z 	c #B1E960",
"A 	c #D0F29E",
"B 	c #CEECA9",
"C 	c #8CC05F",
"D 	c #458820",
"E 	c #A5E05D",
"F 	c #9DDF4B",
"G 	c #ABE759",
"H 	c #ACE85A",
"I 	c #AEE95C",
"J 	c #B2EA62",
"K 	c #D4F4A7",
"L 	c #C7E8A1",
"M 	c #80B852",
"N 	c #40861D",
"O 	c #3D8618",
"P 	c #A3DF5B",
"Q 	c #9BDE4A",
"R 	c #9FE04C",
"S 	c #A7E555",
"T 	c #A9E656",
"U 	c #AAE758",
"V 	c #B1EA62",
"W 	c #D6F4AD",
"X 	c #BBE191",
"Y 	c #70AD42",
"Z 	c #3A811A",
"` 	c #A2DE5A",
" .	c #9ADD49",
"..	c #A6E554",
"+.	c #ACE85B",
"@.	c #BBEC78",
"#.	c #D8F3B2",
"$.	c #ADD782",
"%.	c #63A235",
"&.	c #9FDD58",
"*.	c #98DB47",
"=.	c #A3E350",
"-.	c #A8E656",
";.	c #A9E758",
">.	c #C1ED86",
",.	c #D6F2B2",
"'.	c #A3D175",
").	c #589B2D",
"!.	c #3C8618",
"~.	c #9EDC57",
"{.	c #96DA46",
"].	c #A1E34F",
"^.	c #A5E552",
"/.	c #C3ED8A",
"(.	c #D3EFAE",
"_.	c #98CA6A",
":.	c #4A9124",
"<.	c #3C8417",
"[.	c #9CDB56",
"}.	c #95D945",
"|.	c #99DC48",
"1.	c #9BDD49",
"2.	c #9CDE4A",
"3.	c #A2E350",
"4.	c #A3E352",
"5.	c #C4ED8E",
"6.	c #CCECA5",
"7.	c #89C258",
"8.	c #428B1C",
"9.	c #9BD955",
"0.	c #93D844",
"a.	c #94D945",
"b.	c #97DB47",
"c.	c #9CDF4B",
"d.	c #A2E252",
"e.	c #C9EE9B",
"f.	c #7BB84C",
"g.	c #3F8619",
"h.	c #3B8417",
"i.	c #9BD956",
"j.	c #91D642",
"k.	c #93D743",
"l.	c #94D844",
"m.	c #97DA46",
"n.	c #9FDF51",
"o.	c #CBEEA2",
"p.	c #B6DD8C",
"q.	c #6CAA3C",
"r.	c #3A8215",
"s.	c #3B8315",
"t.	c #9AD856",
"u.	c #8FD541",
"v.	c #92D743",
"w.	c #9CDC4F",
"x.	c #CDEDA6",
"y.	c #ABD783",
"z.	c #5EA232",
"A.	c #337C13",
"B.	c #398315",
"C.	c #99D756",
"D.	c #8DD33F",
"E.	c #8FD440",
"F.	c #90D541",
"G.	c #98DC48",
"H.	c #99DD49",
"I.	c #93D845",
"J.	c #ACE170",
"K.	c #CCECA8",
"L.	c #9FCE72",
"M.	c #509527",
"N.	c #99D657",
"O.	c #8BD23E",
"P.	c #8ED440",
"Q.	c #90D542",
"R.	c #B0E17A",
"S.	c #CAEAA8",
"T.	c #8FC663",
"U.	c #478D20",
"V.	c #388214",
"W.	c #98D557",
"X.	c #89D03C",
"Y.	c #8BD13D",
"Z.	c #8CD23E",
"`.	c #8ED243",
" +	c #CDEBAC",
".+	c #B9DF93",
"++	c #519924",
"@+	c #216B08",
"#+	c #97D457",
"$+	c #87CF3B",
"%+	c #88D03C",
"&+	c #8AD13D",
"*+	c #92D642",
"=+	c #8CD13F",
"-+	c #92D34A",
";+	c #95D453",
">+	c #76BB3B",
",+	c #418B1A",
"'+	c #378013",
")+	c #96D357",
"!+	c #85CD39",
"~+	c #86CE3A",
"{+	c #88CF3B",
"]+	c #8CD33F",
"^+	c #8BD13E",
"/+	c #91D347",
"(+	c #96D653",
"_+	c #7ABF3E",
":+	c #478F1D",
"<+	c #378014",
"[+	c #95D257",
"}+	c #83CC38",
"|+	c #84CC38",
"1+	c #8ED244",
"2+	c #95D450",
"3+	c #7FC340",
"4+	c #4E9820",
"5+	c #2F7A0F",
"6+	c #94D157",
"7+	c #81CA36",
"8+	c #82CB37",
"9+	c #87CE3A",
"0+	c #8BD040",
"a+	c #93D34D",
"b+	c #84C642",
"c+	c #579F25",
"d+	c #347D12",
"e+	c #357F13",
"f+	c #94D057",
"g+	c #7FC834",
"h+	c #80C935",
"i+	c #83CB37",
"j+	c #8AD040",
"k+	c #8FD249",
"l+	c #88CB45",
"m+	c #5FA72A",
"n+	c #368014",
"o+	c #357F11",
"p+	c #93D058",
"q+	c #7DC733",
"r+	c #7EC834",
"s+	c #86CD39",
"t+	c #87CE3C",
"u+	c #8DD045",
"v+	c #8ACD46",
"w+	c #67AE2E",
"x+	c #347D11",
"y+	c #92CE58",
"z+	c #7BC531",
"A+	c #7CC632",
"B+	c #7FC935",
"C+	c #85CD3B",
"D+	c #8BCF45",
"E+	c #8ECD49",
"F+	c #6DB131",
"G+	c #3C8715",
"H+	c #91CE58",
"I+	c #78C32F",
"J+	c #79C430",
"K+	c #7AC531",
"L+	c #7BC632",
"M+	c #7EC733",
"N+	c #82CA38",
"O+	c #8ACE44",
"P+	c #8ECF4D",
"Q+	c #71B636",
"R+	c #428E1A",
"S+	c #337D10",
"T+	c #91CD59",
"U+	c #76C22E",
"V+	c #77C32F",
"W+	c #7AC430",
"X+	c #7FC836",
"Y+	c #88CC42",
"Z+	c #8FCE4F",
"`+	c #76B939",
" @	c #47911B",
".@	c #327D10",
"+@	c #90CC59",
"@@	c #74C02C",
"#@	c #75C12D",
"$@	c #76C12D",
"%@	c #77C22E",
"&@	c #7DC633",
"*@	c #85CA40",
"=@	c #8FCE50",
"-@	c #7BBF3F",
";@	c #4E981E",
">@	c #2C770D",
",@	c #317C10",
"'@	c #8FCB59",
")@	c #72BE2A",
"!@	c #73BF2B",
"~@	c #81C83D",
"{@	c #8DCD4F",
"]@	c #80C144",
"^@	c #569E23",
"/@	c #30790E",
"(@	c #317C0F",
"_@	c #8ECA57",
":@	c #70BD29",
"<@	c #71BE2A",
"[@	c #72BF2B",
"}@	c #73C02C",
"|@	c #7DC438",
"1@	c #8BCC4F",
"2@	c #83C448",
"3@	c #5AA227",
"4@	c #317B0F",
"5@	c #307C0F",
"6@	c #8BC856",
"7@	c #6DBB27",
"8@	c #6EBC28",
"9@	c #6FBC28",
"0@	c #78C234",
"a@	c #89C94C",
"b@	c #87C74D",
"c@	c #60A72A",
"d@	c #348010",
"e@	c #2E7A0F",
"f@	c #8AC755",
"g@	c #6BB925",
"h@	c #6CBA26",
"i@	c #73BE2E",
"j@	c #83C646",
"k@	c #8AC851",
"l@	c #63AA2E",
"m@	c #388512",
"n@	c #2E7A0D",
"o@	c #88C653",
"p@	c #69B824",
"q@	c #6AB824",
"r@	c #6AB925",
"s@	c #6EBA29",
"t@	c #7EC341",
"u@	c #8BC955",
"v@	c #69B033",
"w@	c #3B8612",
"x@	c #2D790D",
"y@	c #85C353",
"z@	c #66B522",
"A@	c #69B726",
"B@	c #79BF3B",
"C@	c #89C753",
"D@	c #6FB43A",
"E@	c #408B15",
"F@	c #267108",
"G@	c #2C780D",
"H@	c #83C253",
"I@	c #72BB38",
"J@	c #85C352",
"K@	c #6FB43B",
"L@	c #438E17",
"M@	c #287209",
"N@	c #82C154",
"O@	c #71B53F",
"P@	c #48941B",
"Q@	c #2A770B",
"R@	c #29750C",
"S@	c #48951E",
"T@	c #2A780B",
"U@	c #1C6906",
". . . . . . . . . . . . . . . . . . . . . . . . . . . . . . . . . . . . . . . . . . . . . . . . ",
". . . . . . . . . . . . . . . . . . . . . . . . . . . . . . . . . . . . . . . . . . . . . . . . ",
". . . . . . . . . . . . . . . . . . . . . . . . . . . . . . . . . . . . . . . . . . . . . . . . ",
". . . . . . . . . . . . . . . . . . . . . . . . . . . . . . . . . . . . . . . . . . . . . . . . ",
". . . . . + . . . . . . . . . . . . . . . . . . . . . . . . . . . . . . . . . . . . . . . . . . ",
". . . . . @ # $ . . . . . . . . . . . . . . . . . . . . . . . . . . . . . . . . . . . . . . . . ",
". . . . . @ % & * = . . . . . . . . . . . . . . . . . . . . . . . . . . . . . . . . . . . . . . ",
". . . . . @ - ; > , ' ) . . . . . . . . . . . . . . . . . . . . . . . . . . . . . . . . . . . . ",
". . . . . @ ! ~ { ] ^ / ( _ . . . . . . . . . . . . . . . . . . . . . . . . . . . . . . . . . . ",
". . . . . : < [ } | 1 2 3 4 5 . . . . . . . . . . . . . . . . . . . . . . . . . . . . . . . . . ",
". . . . . : 6 7 ~ 8 9 0 a b c d e . . . . . . . . . . . . . . . . . . . . . . . . . . . . . . . ",
". . . . . : f g [ h i j k l m n o p q . . . . . . . . . . . . . . . . . . . . . . . . . . . . . ",
". . . . . r s t u ~ v | w x l y z A B C D . . . . . . . . . . . . . . . . . . . . . . . . . . . ",
". . . . . : E F t 7 ~ v | w k G H I J K L M N . . . . . . . . . . . . . . . . . . . . . . . . . ",
". . . . . O P Q F R 7 ~ v i S T U G H y V W X Y Z . . . . . . . . . . . . . . . . . . . . . . . ",
". . . . . O `  .Q F R 7 ~ h 8 ..w T x U G +.@.#.$.%.. . . . . . . . . . . . . . . . . . . . . . ",
". . . . . O &.*. .Q F t u [ =.v 8 ..S w -.0 0 ;.>.,.'.).. . . . . . . . . . . . . . . . . . . . ",
". . . . . !.~.{.*. .Q F t g 7 ].=.v { ^.| ........S /.(._.:.. . . . . . . . . . . . . . . . . . ",
". . . . . <.[.}.{.*.|.1.2.F t g 7 [ ~ 3.=.} v v v } =.4.5.6.7.8.. . . . . . . . . . . . . . . . ",
". . . . . <.9.0.a.{.b.|. .Q c.F t g g 7 7 [ [ [ [ [ 7 u g d.e.& f.g.. . . . . . . . . . . . . . ",
". . . . . h.i.j.k.l.}.m.*.|. .Q 2.c.F t t t R R R t t t F c.2.n.o.p.q.r.. . . . . . . . . . . . ",
". . . . . s.t.u.j.v.0.a.{.m.*.|.|. .1.Q 2.2.c.c.2.2.2.Q 1. .|.|.*.w.x.y.z.A.. . . . . . . . . . ",
". . . . . B.C.D.E.F.j.v.0.a.}.{.b.*.G.|.|.H. . . .H.|.|.G.*.b.{.}.a.I.J.K.L.M.. . . . . . . . . ",
". . . . . B.N.O.D.P.u.F.j.v.0.l.}.}.{.{.m.b.b.b.b.b.m.{.{.}.}.l.0.v.j.F.Q.R.S.T.U.. . . . . . . ",
". . . . . V.W.X.Y.Z.D.P.u.F.j.v.v.0.l.l.a.}.}.}.}.}.a.l.0.0.v.v.j.F.u.P.D.Z.`. +.+++@+. . . . . ",
". . . . . V.#+$+%+&+Y.Z.D.P.E.u.F.j.j.v.v.v.v.v.v.v.v.*+j.j.F.u.E.P.D.Z.=+-+;+>+,+. . . . . . . ",
". . . . . '+)+!+~+{+X.&+Y.O.]+D.P.P.E.u.u.F.F.F.F.F.u.u.E.P.P.D.Z.O.^+/+(+_+:+. . . . . . . . . ",
". . . . . <+[+}+|+!+~+$+%+X.&+Y.O.Z.]+D.D.D.D.D.D.D.D.D.]+Z.O.Y.&+1+2+3+4+5+. . . . . . . . . . ",
". . . . . '+6+7+8+}+|+!+~+9+{+%+X.X.&+&+Y.Y.Y.Y.Y.Y.Y.&+&+X.X.0+a+b+c+d+. . . . . . . . . . . . ",
". . . . . e+f+g+h+7+8+i+|+!+!+~+9+$+$+{+{+{+%+%+%+{+{+{+$+j+k+l+m+n+. . . . . . . . . . . . . . ",
". . . . . o+p+q+r+g+h+7+7+8+i+|+|+!+!+!+s+~+~+~+~+~+s+t+u+v+w+V.. . . . . . . . . . . . . . . . ",
". . . . . x+y+z+A+q+q+r+B+h+7+7+8+8+i+i+}+}+}+|+}+C+D+E+F+G+. . . . . . . . . . . . . . . . . . ",
". . . . . x+H+I+J+K+L+A+q+M+r+g+B+h+h+7+7+7+7+N+O+P+Q+R+. . . . . . . . . . . . . . . . . . . . ",
". . . . . S+T+U+V+I+J+W+z+L+A+A+q+q+r+r+r+X+Y+Z+`+ @. . . . . . . . . . . . . . . . . . . . . . ",
". . . . . .@+@@@#@$@%@V+I+J+J+K+z+z+L+&@*@=@-@;@>@. . . . . . . . . . . . . . . . . . . . . . . ",
". . . . . ,@'@)@!@@@@@#@U+%@%@I+I+J+~@{@]@^@/@. . . . . . . . . . . . . . . . . . . . . . . . . ",
". . . . . (@_@:@:@<@[@!@}@@@#@#@|@1@2@3@4@. . . . . . . . . . . . . . . . . . . . . . . . . . . ",
". . . . . 5@6@7@8@9@:@:@<@)@0@a@b@c@d@. . . . . . . . . . . . . . . . . . . . . . . . . . . . . ",
". . . . . e@f@g@h@7@7@8@i@j@k@l@m@. . . . . . . . . . . . . . . . . . . . . . . . . . . . . . . ",
". . . . . n@o@p@q@r@s@t@u@v@w@. . . . . . . . . . . . . . . . . . . . . . . . . . . . . . . . . ",
". . . . . x@y@z@A@B@C@D@E@F@. . . . . . . . . . . . . . . . . . . . . . . . . . . . . . . . . . ",
". . . . . G@H@I@J@K@L@M@. . . . . . . . . . . . . . . . . . . . . . . . . . . . . . . . . . . . ",
". . . . . G@N@O@P@Q@. . . . . . . . . . . . . . . . . . . . . . . . . . . . . . . . . . . . . . ",
". . . . . R@S@T@. . . . . . . . . . . . . . . . . . . . . . . . . . . . . . . . . . . . . . . . ",
". . . . . U@. . . . . . . . . . . . . . . . . . . . . . . . . . . . . . . . . . . . . . . . . . ",
". . . . . . . . . . . . . . . . . . . . . . . . . . . . . . . . . . . . . . . . . . . . . . . . ",
". . . . . . . . . . . . . . . . . . . . . . . . . . . . . . . . . . . . . . . . . . . . . . . . ",
". . . . . . . . . . . . . . . . . . . . . . . . . . . . . . . . . . . . . . . . . . . . . . . . "};
