/* XPM */
static char * media_playback_pause_xpm[] = {
"48 48 111 2",
"  	c None",
". 	c #000000",
"+ 	c #164DAF",
"@ 	c #205CBB",
"# 	c #B2DCFE",
"$ 	c #205BBB",
"% 	c #75C1FE",
"& 	c #62B8FE",
"* 	c #74C0FE",
"= 	c #61B7FD",
"- 	c #1F5BBB",
"; 	c #73BEFE",
"> 	c #60B5FD",
", 	c #1F59BA",
"' 	c #70BDFD",
") 	c #5EB4FC",
"! 	c #70BCFC",
"~ 	c #5DB3FB",
"{ 	c #1D59BA",
"] 	c #6FBBFC",
"^ 	c #5CB2FB",
"/ 	c #6EBAFB",
"( 	c #5BB1FA",
"_ 	c #1D58BA",
": 	c #6CB8FB",
"< 	c #5AAFFA",
"[ 	c #6BB7FA",
"} 	c #59AEF9",
"| 	c #1C58B8",
"1 	c #6AB6F9",
"2 	c #58ADF8",
"3 	c #1C57B8",
"4 	c #69B5F9",
"5 	c #57ACF8",
"6 	c #67B4F8",
"7 	c #55ABF7",
"8 	c #66B2F7",
"9 	c #54A9F6",
"0 	c #1C55B8",
"a 	c #65B1F7",
"b 	c #53A8F6",
"c 	c #1B55B8",
"d 	c #64B0F6",
"e 	c #52A7F5",
"f 	c #63AFF6",
"g 	c #51A6F5",
"h 	c #1B55B7",
"i 	c #62AEF5",
"j 	c #50A5F4",
"k 	c #1B54B7",
"l 	c #61ADF5",
"m 	c #4FA3F3",
"n 	c #1954B7",
"o 	c #5FABF4",
"p 	c #4EA2F3",
"q 	c #5EAAF4",
"r 	c #4CA1F2",
"s 	c #1953B7",
"t 	c #5DAAF4",
"u 	c #4BA0F2",
"v 	c #1853B7",
"w 	c #5CA9F3",
"x 	c #4A9FF1",
"y 	c #1853B6",
"z 	c #5AA6F2",
"A 	c #499DF0",
"B 	c #1851B6",
"C 	c #59A6F2",
"D 	c #489CF0",
"E 	c #58A5F1",
"F 	c #479BEF",
"G 	c #1751B6",
"H 	c #58A4F1",
"I 	c #469AEF",
"J 	c #56A2F0",
"K 	c #4599EE",
"L 	c #1750B6",
"M 	c #54A1EF",
"N 	c #4397ED",
"O 	c #1550B6",
"P 	c #53A0EF",
"Q 	c #4296ED",
"R 	c #1550B4",
"S 	c #519EEE",
"T 	c #4195EC",
"U 	c #154FB4",
"V 	c #519DED",
"W 	c #4094EB",
"X 	c #509CED",
"Y 	c #3F93EB",
"Z 	c #144FB4",
"` 	c #4F9BEC",
" .	c #3E91EA",
"..	c #144DB4",
"+.	c #4D99EC",
"@.	c #3D90EA",
"#.	c #4C98EB",
"$.	c #3C8FE9",
"%.	c #134DB3",
"&.	c #4A97EA",
"*.	c #3A8EE8",
"=.	c #4997EA",
"-.	c #398DE8",
";.	c #134CB3",
">.	c #4894E9",
",.	c #388BE7",
"'.	c #3A8CE7",
").	c #5EA0EB",
"!.	c #5C9FEB",
"~.	c #0C43AA",
"{.	c #114CB3",
". . . . . . . . . . . . . . . . . . . . . . . . . . . . . . . . . . . . . . . . . . . . . . . . ",
". . . . . . . . . . . . . . . . . . . . . . . . . . . . . . . . . . . . . . . . . . . . . . . . ",
". . . . . . . . . . . . . . . . . . . . . . . . . . . . . . . . . . . . . . . . . . . . . . . . ",
". . . . . . + @ @ @ @ @ @ @ @ @ @ @ @ @ + . . . . . . + @ @ @ @ @ @ @ @ @ @ @ @ @ + . . . . . . ",
". . . . . . @ # # # # # # # # # # # # # @ . . . . . . @ # # # # # # # # # # # # # @ . . . . . . ",
". . . . . . $ % & & & & & & & & & & & % $ . . . . . . $ % & & & & & & & & & & & % $ . . . . . . ",
". . . . . . $ * = = = = = = = = = = = * $ . . . . . . $ * = = = = = = = = = = = * $ . . . . . . ",
". . . . . . - ; > > > > > > > > > > > ; - . . . . . . - ; > > > > > > > > > > > ; - . . . . . . ",
". . . . . . , ' ) ) ) ) ) ) ) ) ) ) ) ' , . . . . . . , ' ) ) ) ) ) ) ) ) ) ) ) ' , . . . . . . ",
". . . . . . , ! ~ ~ ~ ~ ~ ~ ~ ~ ~ ~ ~ ! , . . . . . . , ! ~ ~ ~ ~ ~ ~ ~ ~ ~ ~ ~ ! , . . . . . . ",
". . . . . . { ] ^ ^ ^ ^ ^ ^ ^ ^ ^ ^ ^ ] { . . . . . . { ] ^ ^ ^ ^ ^ ^ ^ ^ ^ ^ ^ ] { . . . . . . ",
". . . . . . { / ( ( ( ( ( ( ( ( ( ( ( / { . . . . . . { / ( ( ( ( ( ( ( ( ( ( ( / { . . . . . . ",
". . . . . . _ : < < < < < < < < < < < : _ . . . . . . _ : < < < < < < < < < < < : _ . . . . . . ",
". . . . . . _ [ } } } } } } } } } } } [ _ . . . . . . _ [ } } } } } } } } } } } [ _ . . . . . . ",
". . . . . . | 1 2 2 2 2 2 2 2 2 2 2 2 1 | . . . . . . | 1 2 2 2 2 2 2 2 2 2 2 2 1 | . . . . . . ",
". . . . . . 3 4 5 5 5 5 5 5 5 5 5 5 5 4 3 . . . . . . 3 4 5 5 5 5 5 5 5 5 5 5 5 4 3 . . . . . . ",
". . . . . . 3 6 7 7 7 7 7 7 7 7 7 7 7 6 3 . . . . . . 3 6 7 7 7 7 7 7 7 7 7 7 7 6 3 . . . . . . ",
". . . . . . 3 8 9 9 9 9 9 9 9 9 9 9 9 8 3 . . . . . . 3 8 9 9 9 9 9 9 9 9 9 9 9 8 3 . . . . . . ",
". . . . . . 0 a b b b b b b b b b b b a 0 . . . . . . 0 a b b b b b b b b b b b a 0 . . . . . . ",
". . . . . . c d e e e e e e e e e e e d c . . . . . . c d e e e e e e e e e e e d c . . . . . . ",
". . . . . . c f g g g g g g g g g g g f c . . . . . . c f g g g g g g g g g g g f c . . . . . . ",
". . . . . . h i j j j j j j j j j j j i h . . . . . . h i j j j j j j j j j j j i h . . . . . . ",
". . . . . . k l m m m m m m m m m m m l k . . . . . . k l m m m m m m m m m m m l k . . . . . . ",
". . . . . . n o p p p p p p p p p p p o n . . . . . . n o p p p p p p p p p p p o n . . . . . . ",
". . . . . . n q r r r r r r r r r r r q n . . . . . . n q r r r r r r r r r r r q n . . . . . . ",
". . . . . . s t u u u u u u u u u u u t s . . . . . . s t u u u u u u u u u u u t s . . . . . . ",
". . . . . . v w x x x x x x x x x x x w v . . . . . . v w x x x x x x x x x x x w v . . . . . . ",
". . . . . . y z A A A A A A A A A A A z y . . . . . . y z A A A A A A A A A A A z y . . . . . . ",
". . . . . . B C D D D D D D D D D D D C B . . . . . . B C D D D D D D D D D D D C B . . . . . . ",
". . . . . . B E F F F F F F F F F F F E B . . . . . . B E F F F F F F F F F F F E B . . . . . . ",
". . . . . . G H I I I I I I I I I I I H G . . . . . . G H I I I I I I I I I I I H G . . . . . . ",
". . . . . . G J K K K K K K K K K K K J G . . . . . . G J K K K K K K K K K K K J G . . . . . . ",
". . . . . . L M N N N N N N N N N N N M L . . . . . . L M N N N N N N N N N N N M L . . . . . . ",
". . . . . . O P Q Q Q Q Q Q Q Q Q Q Q P O . . . . . . O P Q Q Q Q Q Q Q Q Q Q Q P O . . . . . . ",
". . . . . . R S T T T T T T T T T T T S R . . . . . . R S T T T T T T T T T T T S R . . . . . . ",
". . . . . . U V W W W W W W W W W W W V U . . . . . . U V W W W W W W W W W W W V U . . . . . . ",
". . . . . . U X Y Y Y Y Y Y Y Y Y Y Y X U . . . . . . U X Y Y Y Y Y Y Y Y Y Y Y X U . . . . . . ",
". . . . . . Z `  . . . . . . . . . . .` Z . . . . . . Z `  . . . . . . . . . . .` Z . . . . . . ",
". . . . . . ..+.@.@.@.@.@.@.@.@.@.@.@.+.... . . . . . ..+.@.@.@.@.@.@.@.@.@.@.@.+.... . . . . . ",
". . . . . . ..#.$.$.$.$.$.$.$.$.$.$.$.#.... . . . . . ..#.$.$.$.$.$.$.$.$.$.$.$.#.... . . . . . ",
". . . . . . %.&.*.*.*.*.*.*.*.*.*.*.*.&.%.. . . . . . %.&.*.*.*.*.*.*.*.*.*.*.*.&.%.. . . . . . ",
". . . . . . %.=.-.-.-.-.-.-.-.-.-.-.-.=.%.. . . . . . %.=.-.-.-.-.-.-.-.-.-.-.-.=.%.. . . . . . ",
". . . . . . ;.>.,.,.,.,.,.,.,.,.,.,.'.>.;.. . . . . . ;.>.,.,.,.,.,.,.,.,.,.,.'.>.;.. . . . . . ",
". . . . . . ;.).).).).).).).).).!.!.!.!.;.. . . . . . ;.).).).).).).).).).!.!.!.!.;.. . . . . . ",
". . . . . . ~.{.{.{.{.{.{.{.{.{.{.{.{.{.~.. . . . . . ~.{.{.{.{.{.{.{.{.{.{.{.{.{.~.. . . . . . ",
". . . . . . . . . . . . . . . . . . . . . . . . . . . . . . . . . . . . . . . . . . . . . . . . ",
". . . . . . . . . . . . . . . . . . . . . . . . . . . . . . . . . . . . . . . . . . . . . . . . ",
". . . . . . . . . . . . . . . . . . . . . . . . . . . . . . . . . . . . . . . . . . . . . . . . "};
