/* XPM */
static char * muted_xpm[] = {
"48 48 460 2",
"  	c None",
". 	c #2F2F2F",
"+ 	c #353535",
"@ 	c #3A3A3A",
"# 	c #444444",
"$ 	c #4F4F4F",
"% 	c #555555",
"& 	c #383838",
"* 	c #282828",
"= 	c #BEBEBE",
"- 	c #FFFFFF",
"; 	c #2E2E2E",
"> 	c #525252",
", 	c #CECECE",
"' 	c #585858",
") 	c #3D3D3D",
"! 	c #787878",
"~ 	c #8C8C8C",
"{ 	c #E0E0E0",
"] 	c #5A5A5A",
"^ 	c #3F3F3F",
"/ 	c #3B3B3B",
"( 	c #A4A4A4",
"_ 	c #AAAAAA",
": 	c #F0F0F0",
"< 	c #5C5C5C",
"[ 	c #424242",
"} 	c #404040",
"| 	c #D1D1D1",
"1 	c #C8C8C8",
"2 	c #FEFEFE",
"3 	c #606060",
"4 	c #454545",
"5 	c #F6F6F6",
"6 	c #E6E6E6",
"7 	c #FBFBFB",
"8 	c #626262",
"9 	c #474747",
"0 	c #494949",
"a 	c #C9C9C9",
"b 	c #D2D2D2",
"c 	c #EEEEEE",
"d 	c #F8F8F8",
"e 	c #646464",
"f 	c #4B4B4B",
"g 	c #4D4D4D",
"h 	c #F4F4F4",
"i 	c #E9E9E9",
"j 	c #EDEDED",
"k 	c #F2F2F2",
"l 	c #E8E8E8",
"m 	c #676767",
"n 	c #FAFAFA",
"o 	c #D5D5D5",
"p 	c #6A6A6A",
"q 	c #565656",
"r 	c #EFEFEF",
"s 	c #DBDBDB",
"t 	c #C2C2C2",
"u 	c #6C6C6C",
"v 	c #595959",
"w 	c #ECECEC",
"x 	c #E4E4E4",
"y 	c #CCCCCC",
"z 	c #ADADAD",
"A 	c #EAEAEA",
"B 	c #6E6E6E",
"C 	c #BA7C01",
"D 	c #BA7C00",
"E 	c #BE7E00",
"F 	c #C38100",
"G 	c #C88400",
"H 	c #CD8800",
"I 	c #5F5F5F",
"J 	c #DCDCDC",
"K 	c #BDBDBD",
"L 	c #989898",
"M 	c #FCFCFC",
"N 	c #727272",
"O 	c #B57A04",
"P 	c #D0D0D0",
"Q 	c #D6D6D6",
"R 	c #747474",
"S 	c #AF780A",
"T 	c #F7F7F7",
"U 	c #F5F5F5",
"V 	c #A1A1A1",
"W 	c #858585",
"X 	c #CBCBCB",
"Y 	c #767676",
"Z 	c #898782",
"` 	c #716F6C",
" .	c #4B4A49",
"..	c #A87510",
"+.	c #EBEBEB",
"@.	c #E7E7E7",
"#.	c #E3E3E3",
"$.	c #B1B1B1",
"%.	c #969696",
"&.	c #7C7C7C",
"*.	c #C0C0C0",
"=.	c #7A7A7A",
"-.	c #D9D9D9",
";.	c #CFCFCF",
">.	c #A27214",
",.	c #FFFCED",
"'.	c #D4D4D4",
").	c #BCBCBC",
"!.	c #8B8B8B",
"~.	c #737373",
"{.	c #B6B6B6",
"].	c #818181",
"^.	c #9C701A",
"/.	c #FFF7D2",
"(.	c #BFBFBF",
"_.	c #979797",
":.	c #808080",
"<.	c #ACACAC",
"[.	c #7E7E7E",
"}.	c #B7B7B7",
"|.	c #A8A8A8",
"1.	c #956E1F",
"2.	c #F9E4A2",
"3.	c #E5E5E5",
"4.	c #B0B0B0",
"5.	c #AFAFAF",
"6.	c #9E9E9E",
"7.	c #8A8A8A",
"8.	c #616161",
"9.	c #A2A2A2",
"0.	c #A5A5A5",
"a.	c #939393",
"b.	c #8E6B24",
"c.	c #F1C868",
"d.	c #A0A0A0",
"e.	c #9F9F9F",
"f.	c #909090",
"g.	c #6B6B6B",
"h.	c #848484",
"i.	c #929292",
"j.	c #7F7F7F",
"k.	c #88682A",
"l.	c #E9AC2C",
"m.	c #8F8F8F",
"n.	c #8E8E8E",
"o.	c #707070",
"p.	c #868686",
"q.	c #6F6F6F",
"r.	c #826630",
"s.	c #E49A00",
"t.	c #C4C4C4",
"u.	c #B9B9B9",
"v.	c #7D7D7D",
"w.	c #6D6D6D",
"x.	c #5D5D5D",
"y.	c #4C4C4C",
"z.	c #8D8D8D",
"A.	c #7B6434",
"B.	c #E9A600",
"C.	c #BBBBBB",
"D.	c #828282",
"E.	c #717171",
"F.	c #C75A5A",
"G.	c #B01010",
"H.	c #AF0F0F",
"I.	c #C65555",
"J.	c #666666",
"K.	c #74613A",
"L.	c #EEB400",
"M.	c #B3B3B3",
"N.	c #9B9B9B",
"O.	c #959595",
"P.	c #949494",
"Q.	c #757575",
"R.	c #D8D8D8",
"S.	c #8C6363",
"T.	c #AC0000",
"U.	c #DC8A78",
"V.	c #B4160E",
"W.	c #AD0000",
"X.	c #B3130C",
"Y.	c #DD8F7C",
"Z.	c #AC0101",
"`.	c #6E5E3F",
" +	c #F4C000",
".+	c #A3A3A3",
"++	c #9A9A9A",
"@+	c #686868",
"#+	c #AEAEAE",
"$+	c #CEA6A6",
"%+	c #A70606",
"&+	c #D7684D",
"*+	c #FD9B98",
"=+	c #EFA294",
"-+	c #B01009",
";+	c #A90000",
">+	c #EF9988",
",+	c #FEA2A0",
"'+	c #D76E56",
")+	c #5E5E5E",
"!+	c #414141",
"~+	c #685C44",
"{+	c #F8CE00",
"]+	c #BABABA",
"^+	c #B48D8D",
"/+	c #A80B0A",
"(+	c #D56245",
"_+	c #F68883",
":+	c #F37A7A",
"<+	c #F48483",
"[+	c #EEA190",
"}+	c #AC1009",
"|+	c #A10000",
"1+	c #A20000",
"2+	c #AE1009",
"3+	c #ED9985",
"4+	c #F47F7F",
"5+	c #F79895",
"6+	c #D56D54",
"7+	c #A60000",
"8+	c #615A4A",
"9+	c #FEDA00",
"0+	c #A6A6A6",
"a+	c #5B5B5B",
"b+	c #A71717",
"c+	c #C6462C",
"d+	c #F07F75",
"e+	c #E86D6D",
"f+	c #EA7878",
"g+	c #EA9E8A",
"h+	c #9C1009",
"i+	c #8C0000",
"j+	c #850000",
"k+	c #A41009",
"l+	c #EA9881",
"m+	c #EA7574",
"n+	c #F4A2A0",
"o+	c #C64E36",
"p+	c #A30000",
"q+	c #5B5750",
"r+	c #FFDD00",
"s+	c #B86464",
"t+	c #A71009",
"u+	c #E6805B",
"v+	c #DF6764",
"w+	c #DC6161",
"x+	c #E06E6D",
"y+	c #E39A83",
"z+	c #821009",
"A+	c #6C0000",
"B+	c #660000",
"C+	c #8B1009",
"D+	c #E6967C",
"E+	c #E06B6A",
"F+	c #E2716F",
"G+	c #EBA28E",
"H+	c #A00000",
"I+	c #565554",
"J+	c #C06A6A",
"K+	c #E47F57",
"L+	c #D75C58",
"M+	c #D25454",
"N+	c #D56361",
"O+	c #DC967B",
"P+	c #701009",
"Q+	c #791009",
"R+	c #E19477",
"S+	c #D8615F",
"T+	c #D8605D",
"U+	c #E7967D",
"V+	c #9D0000",
"W+	c #B4B4B4",
"X+	c #883333",
"Y+	c #A11009",
"Z+	c #E27F55",
"`+	c #D2514D",
" @	c #CC4848",
".@	c #CB4848",
"+@	c #CC5855",
"@@	c #DC9271",
"#@	c #DE9170",
"$@	c #D25754",
"%@	c #D2524E",
"&@	c #E48A66",
"*@	c #9A0000",
"=@	c #9D9D9D",
"-@	c #A9A9A9",
";@	c #6F6E6E",
">@	c #970000",
",@	c #9E1009",
"'@	c #E17E52",
")@	c #CE4642",
"!@	c #C83C3C",
"~@	c #C63C3C",
"{@	c #CB4A48",
"]@	c #CC4A48",
"^@	c #CF4F4F",
"/@	c #DF8583",
"(@	c #E79D7C",
"_@	c #920000",
":@	c #E07E4E",
"<@	c #CB3C36",
"[@	c #C52F2F",
"}@	c #C42F2F",
"|@	c #CD4848",
"1@	c #D66869",
"2@	c #D57171",
"3@	c #D16A62",
"4@	c #DC824B",
"5@	c #930000",
"6@	c #535353",
"7@	c #C6C6C6",
"8@	c #B2B2B2",
"9@	c #E2E2E2",
"0@	c #900000",
"a@	c #991009",
"b@	c #E18857",
"c@	c #C83C36",
"d@	c #C33232",
"e@	c #C53C3C",
"f@	c #BE2A2A",
"g@	c #B00202",
"h@	c #B61009",
"i@	c #DC7F48",
"j@	c #545454",
"k@	c #CACACA",
"l@	c #B8B8B8",
"m@	c #888888",
"n@	c #DEDEDE",
"o@	c #96100A",
"p@	c #DD7E4A",
"q@	c #BF0E08",
"r@	c #BA0000",
"s@	c #B90000",
"t@	c #BF100A",
"u@	c #DE814E",
"v@	c #890000",
"w@	c #93110A",
"x@	c #DE8050",
"y@	c #CA130C",
"z@	c #C40000",
"A@	c #C30000",
"B@	c #C10000",
"C@	c #CA150D",
"D@	c #DF8454",
"E@	c #93110B",
"F@	c #DADADA",
"G@	c #90110B",
"H@	c #E08355",
"I@	c #D3140D",
"J@	c #CE0000",
"K@	c #CC0000",
"L@	c #CC0F0A",
"M@	c #D3150E",
"N@	c #E0865A",
"O@	c #90110C",
"P@	c #797979",
"Q@	c #732B2B",
"R@	c #8D120C",
"S@	c #E0865C",
"T@	c #DC140D",
"U@	c #D80000",
"V@	c #D60000",
"W@	c #D6140F",
"X@	c #C68861",
"Y@	c #C78862",
"Z@	c #D71510",
"`@	c #D70000",
" #	c #DC1610",
".#	c #E18C6C",
"+#	c #8D120F",
"@#	c #820000",
"##	c #696969",
"$#	c #A55E5E",
"%#	c #8C120E",
"&#	c #E28C6B",
"*#	c #E41510",
"=#	c #E20000",
"-#	c #E10000",
";#	c #E11612",
">#	c #CB8E73",
",#	c #2C120E",
"'#	c #2B120F",
")#	c #CC9077",
"!#	c #E21613",
"~#	c #E51713",
"{#	c #E29580",
"]#	c #8C1311",
"^#	c #810101",
"/#	c #C5C5C5",
"(#	c #9D6662",
"_#	c #8A1F1A",
":#	c #E4927D",
"<#	c #EE1612",
"[#	c #EC0000",
"}#	c #EC1614",
"|#	c #D09482",
"1#	c #3A1311",
"2#	c #4A0000",
"3#	c #490000",
"4#	c #381311",
"5#	c #D09585",
"6#	c #EE1816",
"7#	c #E4988A",
"8#	c #9E3837",
"9#	c #A14141",
"0#	c #852F28",
"a#	c #B07362",
"b#	c #F75E54",
"c#	c #F40000",
"d#	c #F41715",
"e#	c #D69789",
"f#	c #401412",
"g#	c #4F0000",
"h#	c #4C0000",
"i#	c #D7988C",
"j#	c #F41716",
"k#	c #F8635C",
"l#	c #C17A74",
"m#	c #922323",
"n#	c #373737",
"o#	c #AA908E",
"p#	c #820E0D",
"q#	c #C2776D",
"r#	c #F74D47",
"s#	c #F50000",
"t#	c #F61716",
"u#	c #DB9A8E",
"v#	c #4B1412",
"w#	c #4E0000",
"x#	c #4D1413",
"y#	c #DC9A90",
"z#	c #F7504A",
"A#	c #C27870",
"B#	c #830303",
"C#	c #393939",
"D#	c #5F4141",
"E#	c #7F0404",
"F#	c #C27B71",
"G#	c #F8615A",
"H#	c #E09A90",
"I#	c #5C1413",
"J#	c #540000",
"K#	c #530000",
"L#	c #5F1413",
"M#	c #E39E93",
"N#	c #F8655E",
"O#	c #C2786F",
"P#	c #810000",
"Q#	c #7C261C",
"R#	c #AC6C60",
"S#	c #6F1514",
"T#	c #5D0000",
"U#	c #5F0101",
"V#	c #AF4A49",
"W#	c #C7746D",
"X#	c #7A0705",
"Y#	c #6F0000",
"Z#	c #982323",
"`#	c #8C0F0F",
". . . . . . . . . . . . . . . . . . . . . . . . . . . . . . . . . . . . . . . . . . . . . . . . ",
". . . . . . . . . . . . . . . . . . . . . . . . . . . . . . . . . . . . . . . . . . . . . . . . ",
". . . . . . . . . . . . . . . . . . . . . . . . . . . . . . . . . . . . . . . . . . . . . . . . ",
". . . . . . . . . . . . . . . . . . . . + @ # $ % % % % . . . . . . . . . . . . . . . . . . . . ",
". . . . . . . . . . . . . . . . . . . & * = = = = = - % . . . . . . . . . . . . . . . . . . . . ",
". . . . . . . . . . . . . . . . . . @ ; > , , , , , - ' . . . . . . . . . . . . . . . . . . . . ",
". . . . . . . . . . . . . . . . . ) + ! ~ { { { { { - ] . . . . . . . . . . . . . . . . . . . . ",
". . . . . . . . . . . . . . . . ^ / ( _ ~ : : : : : - < . . . . . . . . . . . . . . . . . . . . ",
". . . . . . . . . . . . . . . [ } | 1 _ ~ 2 2 2 2 2 - 3 . . . . . . . . . . . . . . . . . . . . ",
". . . . . . . . . . . . . . 4 4 5 6 1 _ _ 7 7 7 7 7 - 8 . . . . . . . . . . . . . . . . . . . . ",
". . . . . . . . . . . . . 9 0 5 2 6 a b c d d d d d - e . . . . . . . . . . . . . . . . . . . . ",
". . . . . . . . . . . . f g h - 2 i j k l 5 5 5 5 5 - m . . . . . . . . . . . . . . . . . . . . ",
". . . . . . . . . . . g > k - - 2 n 5 i o k k k k k - p . . . . . . . . . . . . . . . . . . . . ",
". . . . . . . . . . $ q r - - - - n c s t : : : : : - u . . . . . . . . . . . . . . . . . . . . ",
". . . . . . . . . > v w - - - - 2 5 x y z A A A A A 2 B . . . . . . . . . . . . . . . . . . . . ",
". . . C D E F G H I A - - - - - 2 k J K L { { { { { M N . . . . . . . . . . . . . . . . . . . . ",
". . . O - - - - - 2 2 - - - - 2 2 w P z ~ Q Q Q Q Q n R . . . . . . . . . . . . . . . . . . . . ",
". . . S - - - - - d 7 M n d T U k J = V W X X X X X d Y . . . . . . . . . . . . . . . . . . . . ",
"Z `  ...- - - - - - M k c +.@.#.{ X $.%.&.*.*.*.*.*.h =.. . . . . . . . . . . . . . . . . . . . ",
"W -.;.>.,.,.,.,.,.- - A s '.P P ;.).( !.~.{.{.{.{.{.: &.. . . . . . . . . . . . . . . . . . . . ",
"].a ).^./././././.M 7 i *.*.*.*.(.z _.:.p <.<.<.<.<.w [.. . . . . . . . . . . . . . . . . . . . ",
"&.}.|.1.2.2.2.2.2.k : 3.4.4.4.4.5.6.7.Y 8.9.9.9.9.9.6 ].. . . . . . . . . . . . . . . . . . . . ",
"! 0.a.b.c.c.c.c.c.x x { d.d.d.d.e.f.[.g.' %.%.%.%.%.{ h.. . . . . . . . . . . . . . . . . . . . ",
"R i.j.k.l.l.l.l.l.b b , m.m.m.m.n.].o.3 $ ~ ~ ~ ~ ~ -.p.. . . . . . . . . . . . . . . . . . . . ",
"q.j.g.r.s.s.s.s.s.t.t.u.7.7.7.7.7.v.w.x.y.z.z.z.z.z.o p.. . . . . . . . . . . . . . . . . . . . ",
"g.g.q A.B.B.B.B.B.C.C._ f.f.f.f.n.D.E.3 $ L L L L L Q h.. F.G.. . . . . . . . . . H.I.. . . . . ",
"J.] # K.L.L.L.L.L.M.M.N.O.O.O.O.P.p.Q.e > ( ( ( ( ( R.S.T.U.V.W.. . . . . . . . W.X.Y.Z.. . . . ",
"8 q [ `. + + + + +<..+++++++++++++!.=.@+% #+#+#+#+#+$+%+&+*+=+-+;+. . . . . . ;+-+>+,+'+;+. . . ",
")+> !+~+{+{+{+{+{+9.d.d.d.d.d.d.e.f.[.g.' ]+]+]+]+^+/+(+_+:+<+[+}+|+. . . . 1+2+3+4+:+5+6+7+. . ",
"v $ } 8+9+9+9+9+9+0+0+0+0+0+0+0+( O.D.q.a+t.t.t.t.b+c+d+e+e+e+f+g+h+i+. . j+k+l+m+e+e+e+n+o+p+. ",
". . . q+r+r+r+r+r+_ _ _ _ _ _ _ _ ++p.N )+P P P P s+t+u+v+w+w+w+x+y+z+A+B+C+D+E+w+w+w+F+G+t+H+. ",
". . . I+r+r+r+r+r+4.4.4.4.4.4.4.4.e.!.Y 8.s s s s s J+k+K+L+M+M+M+N+O+P+Q+R+S+M+M+M+T+U+k+V+. . ",
". . . % % % % % % < O.{.{.{.{.{.W+( m.=.e 6 6 6 6 6 r X+Y+Z+`+ @ @.@+@@@#@$@ @ @ @%@&@Y+*@. . . ",
". . . . . . . . . 8.> =@C.C.C.C.]+-@a.v.m w w w w w k ;@>@,@'@)@!@!@~@{@]@!@!@^@/@(@,@>@. . . . ",
". . . . . . . . . . q > 0+*.*.*.*.#+L :.p @.@.@.@.@.c u   _@h+:@<@[@[@}@|@1@2@3@4@h+5@. . . . . ",
". . . . . . . . . . . $ 6@5.7@7@t.8@N.h.w.9@9@9@9@9@A p     0@a@b@c@d@e@f@g@h@i@a@0@. . . . . . ",
". . . . . . . . . . . . f j@]+y k@l@d.m@o.n@n@n@n@n@6 m     i+o@p@q@r@s@s@r@t@u@o@i+. . . . . . ",
". . . . . . . . . . . . . 9 ' t P ).( !.~.R.R.R.R.R.{ e   v@w@x@y@z@A@B@B@z@z@C@D@E@v@. . . . . ",
". . . . . . . . . . . . . . 4 < y t.|.m.Y '.'.'.'.'.F@8 j+G@H@I@J@J@K@L@L@K@J@J@M@N@O@j+. . . . ",
". . . . . . . . . . . . . . . [ 8 b 4.i.P@, , , , , o Q@R@S@T@U@U@V@W@X@Y@Z@`@U@U@ #.#+#@#. . . ",
". . . . . . . . . . . . . . . . ^ ##1 P.=.k@k@k@k@k@$#%#&#*#=#=#-#;#>#,#'#)#!#-#=#=#~#{#]#^#. . ",
". . . . . . . . . . . . . . . . . ) q.5.=./#/#/#/#(#_#:#<#[#[#[#}#|#1#2#3#4#5#}#[#[#[#6#7#8#9#. ",
". . . . . . . . . . . . . . . . . . @ ~.!.*.*.*.*.0#a#b#c#c#c#d#e#f#g#. . h#f#i#j#c#c#c#k#l#m#. ",
". . . . . . . . . . . . . . . . . . . n#p ).).).).o#p#q#r#s#t#u#v#g#. . . . w#x#y#t#s#z#A#B#. . ",
". . . . . . . . . . . . . . . . . . . . + C## $ % % D#E#F#G#H#I#J#. . . . . . K#L#M#N#O#P#. . . ",
". . . . . . . . . . . . . . . . . . . . . . . . . . . . Q#R#S#T#. . . . . . . . U#V#W#P#. . . . ",
". . . . . . . . . . . . . . . . . . . . . . . . . . . . . X#Y#. . . . . . . . . . Z#`#. . . . . ",
". . . . . . . . . . . . . . . . . . . . . . . . . . . . . . . . . . . . . . . . . . . . . . . . "};
