/* XPM */
static char * noteon_xpm[] = {
"48 48 653 2",
"  	c None",
". 	c #000000",
"+ 	c #2B740F",
"@ 	c #408719",
"# 	c #82BB54",
"$ 	c #458B1F",
"% 	c #D8F2B7",
"& 	c #C3E69C",
"* 	c #7CB74C",
"= 	c #42891D",
"- 	c #ADE566",
"; 	c #A7E457",
"> 	c #D0F2A6",
", 	c #BCE193",
"' 	c #71AD44",
") 	c #3A8019",
"! 	c #ACE465",
"~ 	c #A2E34F",
"{ 	c #A4E452",
"] 	c #ABE65C",
"^ 	c #D6F3AE",
"/ 	c #B6DE8C",
"( 	c #69A73D",
"_ 	c #357D16",
": 	c #3F8719",
"< 	c #AAE463",
"[ 	c #A1E14E",
"} 	c #A4E250",
"| 	c #A6E551",
"1 	c #A6E658",
"2 	c #BEEB80",
"3 	c #D7F3B2",
"4 	c #AED784",
"5 	c #629E32",
"6 	c #030300",
"7 	c #070500",
"8 	c #000101",
"9 	c #030200",
"0 	c #030100",
"a 	c #020200",
"b 	c #000400",
"c 	c #000303",
"d 	c #000001",
"e 	c #A9E362",
"f 	c #A0E24E",
"g 	c #A3E24E",
"h 	c #A4E451",
"i 	c #A5E455",
"j 	c #A9E557",
"k 	c #AAE65A",
"l 	c #C3ED89",
"m 	c #D8F0B0",
"n 	c #9BCC71",
"o 	c #55982D",
"p 	c #010100",
"q 	c #010200",
"r 	c #A8E261",
"s 	c #9FE14D",
"t 	c #A2E24D",
"u 	c #A2E44F",
"v 	c #A4E453",
"w 	c #A7E555",
"x 	c #A8E656",
"y 	c #A9E859",
"z 	c #A9E45E",
"A 	c #9DC68B",
"B 	c #A6C79E",
"C 	c #91C669",
"D 	c #519129",
"E 	c #000405",
"F 	c #000102",
"G 	c #030003",
"H 	c #020001",
"I 	c #040400",
"J 	c #3F8618",
"K 	c #A6E15F",
"L 	c #9EE04C",
"M 	c #A1E14C",
"N 	c #A2E34E",
"O 	c #A4E252",
"P 	c #A6E354",
"Q 	c #A7E554",
"R 	c #AAE757",
"S 	c #96D05F",
"T 	c #001742",
"U 	c #021A46",
"V 	c #9ABF90",
"W 	c #CEECA9",
"X 	c #8BBF5E",
"Y 	c #448820",
"Z 	c #020002",
"` 	c #020100",
" .	c #A5E05D",
"..	c #9DDF4A",
"+.	c #9EE04B",
"@.	c #A2E24F",
"#.	c #A6E552",
"$.	c #A8E655",
"%.	c #93D061",
"&.	c #011F54",
"*.	c #0C3160",
"=.	c #2B5351",
"-.	c #ABE867",
";.	c #D3F3A4",
">.	c #C7E79F",
",.	c #80B653",
"'.	c #3F861D",
").	c #3D8618",
"!.	c #A3DF5B",
"~.	c #9BDE4A",
"{.	c #9FDF4C",
"].	c #A0E14E",
"^.	c #A5E553",
"/.	c #91CD5F",
"(.	c #00205B",
"_.	c #0A3467",
":.	c #0C315B",
"<.	c #598E5A",
"[.	c #ADE85B",
"}.	c #B3E65F",
"|.	c #D6F3AD",
"1.	c #B8E192",
"2.	c #6EAE43",
"3.	c #3A8119",
"4.	c #A2DE5A",
"5.	c #9ADD49",
"6.	c #9BDE49",
"7.	c #9DDE4A",
"8.	c #A1E24F",
"9.	c #A3E44F",
"0.	c #8FCC59",
"a.	c #00225B",
"b.	c #0A3565",
"c.	c #0A3567",
"d.	c #072951",
"e.	c #6CA458",
"f.	c #ABE759",
"g.	c #B8EA79",
"h.	c #D6F3B1",
"i.	c #ADD781",
"j.	c #63A235",
"k.	c #9FDD58",
"l.	c #98DB47",
"m.	c #9ADC48",
"n.	c #9BDD49",
"o.	c #9CDF4A",
"p.	c #9DE04B",
"q.	c #A0E04D",
"r.	c #A1E14D",
"s.	c #8FCB53",
"t.	c #002158",
"u.	c #0B3667",
"v.	c #093161",
"w.	c #0C3661",
"x.	c #0E3254",
"y.	c #78B461",
"z.	c #A9E657",
"A.	c #AAE355",
"B.	c #A8E657",
"C.	c #C1ED86",
"D.	c #D6F2B2",
"E.	c #A3D175",
"F.	c #589B2D",
"G.	c #3C8618",
"H.	c #9EDC57",
"I.	c #96DA46",
"J.	c #98DA47",
"K.	c #9EDF4C",
"L.	c #9FE04C",
"M.	c #8CCA53",
"N.	c #002154",
"O.	c #0C3261",
"P.	c #133758",
"Q.	c #093059",
"R.	c #0A3665",
"S.	c #062752",
"T.	c #8AC95F",
"U.	c #A6E453",
"V.	c #A5E354",
"W.	c #A4E555",
"X.	c #C3ED8A",
"Y.	c #D3EFAE",
"Z.	c #98CA6A",
"`.	c #4A9124",
" +	c #3C8417",
".+	c #9CDB56",
"++	c #95D945",
"@+	c #96D945",
"#+	c #99DB47",
"$+	c #9BDD48",
"%+	c #9DDF4B",
"&+	c #8AC953",
"*+	c #002156",
"=+	c #04275A",
"-+	c #74B565",
";+	c #508756",
">+	c #052B54",
",+	c #0A3363",
"'+	c #23494E",
")+	c #9AD854",
"!+	c #A3E351",
"~+	c #A1E352",
"{+	c #A3E451",
"]+	c #A3E350",
"^+	c #A3E352",
"/+	c #C4ED8E",
"(+	c #CCECA5",
"_+	c #89C258",
":+	c #428B1C",
"<+	c #9BD955",
"[+	c #93D844",
"}+	c #94D844",
"|+	c #96D946",
"1+	c #97DA46",
"2+	c #99DC47",
"3+	c #99DD49",
"4+	c #88C852",
"5+	c #00265B",
"6+	c #8ED45F",
"7+	c #6BA557",
"8+	c #0C3055",
"9+	c #09315E",
"0+	c #71AF57",
"a+	c #A1E24E",
"b+	c #A0E14D",
"c+	c #A2E252",
"d+	c #C9EE9B",
"e+	c #7BB84C",
"f+	c #3F8619",
"g+	c #3B8417",
"h+	c #9BD956",
"i+	c #91D642",
"j+	c #93D642",
"k+	c #94D744",
"l+	c #95D844",
"m+	c #97DA45",
"n+	c #97DB47",
"o+	c #99DC48",
"p+	c #86C650",
"q+	c #012659",
"r+	c #8DCF53",
"s+	c #9EDE49",
"t+	c #376151",
"u+	c #012D61",
"v+	c #2F5D50",
"w+	c #9FDE4D",
"x+	c #9CDF4B",
"y+	c #9CDE4A",
"z+	c #9FDF51",
"A+	c #CBEEA2",
"B+	c #B6DD8C",
"C+	c #6CAA3C",
"D+	c #3A8215",
"E+	c #3B8315",
"F+	c #9AD856",
"G+	c #8FD541",
"H+	c #91D541",
"I+	c #92D643",
"J+	c #93D743",
"K+	c #94D944",
"L+	c #95DA46",
"M+	c #84C54E",
"N+	c #032457",
"O+	c #8CCD56",
"P+	c #9BDD4A",
"Q+	c #81C261",
"R+	c #002552",
"S+	c #173D45",
"T+	c #9CDC4F",
"U+	c #CDEDA6",
"V+	c #ABD783",
"W+	c #5EA232",
"X+	c #337C13",
"Y+	c #398315",
"Z+	c #99D756",
"`+	c #8DD33F",
" @	c #8FD33F",
".@	c #90D441",
"+@	c #92D742",
"@@	c #92D844",
"#@	c #94D945",
"$@	c #82C34D",
"%@	c #012555",
"&@	c #87CB58",
"*@	c #96DC4A",
"=@	c #123952",
"-@	c #214446",
";@	c #99DB49",
">@	c #98DC48",
",@	c #93D845",
"'@	c #ACE170",
")@	c #CCECA8",
"!@	c #9FCE72",
"~@	c #509527",
"{@	c #99D657",
"]@	c #8BD23E",
"^@	c #8DD23E",
"/@	c #8ED340",
"(@	c #8FD440",
"_@	c #90D540",
":@	c #90D642",
"<@	c #92D743",
"[@	c #80C24C",
"}@	c #002756",
"|@	c #83CB56",
"1@	c #97D945",
"2@	c #95DA48",
"3@	c #214951",
"4@	c #4B7E51",
"5@	c #90D541",
"6@	c #90D542",
"7@	c #B0E17A",
"8@	c #CAEAA8",
"9@	c #8FC663",
"0@	c #478D20",
"a@	c #388214",
"b@	c #98D557",
"c@	c #89D03C",
"d@	c #8BD03C",
"e@	c #8CD13E",
"f@	c #8ED43F",
"g@	c #8ED541",
"h@	c #7EC04A",
"i@	c #012657",
"j@	c #82CB54",
"k@	c #94D843",
"l@	c #95D742",
"m@	c #93D945",
"n@	c #254943",
"o@	c #79BC4E",
"p@	c #95D845",
"q@	c #8ED440",
"r@	c #8CD23E",
"s@	c #8ED243",
"t@	c #CDEBAC",
"u@	c #B9DF93",
"v@	c #519924",
"w@	c #216B08",
"x@	c #97D457",
"y@	c #87CF3A",
"z@	c #88CF3B",
"A@	c #8AD03D",
"B@	c #8CD23D",
"C@	c #8CD33F",
"D@	c #7DBF49",
"E@	c #002056",
"F@	c #032157",
"G@	c #81C954",
"H@	c #92D642",
"I@	c #8DD546",
"J@	c #446E38",
"K@	c #8ED646",
"L@	c #8CD13F",
"M@	c #92D34A",
"N@	c #95D453",
"O@	c #76BB3B",
"P@	c #418B1A",
"Q@	c #020000",
"R@	c #060600",
"S@	c #020300",
"T@	c #368013",
"U@	c #96D356",
"V@	c #85CD38",
"W@	c #84CD3A",
"X@	c #88CD3C",
"Y@	c #89CF3B",
"Z@	c #8AD13B",
"`@	c #8BD13D",
" #	c #8BD03D",
".#	c #7ABE4C",
"+#	c #002057",
"@#	c #022457",
"##	c #7EC750",
"$#	c #8DD441",
"%#	c #8DD141",
"&#	c #8BD13E",
"*#	c #91D347",
"=#	c #96D653",
"-#	c #7ABF3E",
";#	c #478F1D",
">#	c #050500",
",#	c #010000",
"'#	c #378014",
")#	c #95D257",
"!#	c #85CD36",
"~#	c #84CC37",
"{#	c #84CC39",
"]#	c #85CE39",
"^#	c #84CF3C",
"/#	c #86D03E",
"(#	c #89D03B",
"_#	c #78BD4A",
":#	c #001F57",
"<#	c #012559",
"[#	c #7DC54D",
"}#	c #8DD140",
"|#	c #8DD23F",
"1#	c #8DD33E",
"2#	c #8AD13D",
"3#	c #8ED244",
"4#	c #95D450",
"5#	c #7FC340",
"6#	c #4E9820",
"7#	c #2F7A0F",
"8#	c #000100",
"9#	c #010001",
"0#	c #377F13",
"a#	c #94D057",
"b#	c #82CA35",
"c#	c #82CA36",
"d#	c #83CB38",
"e#	c #85C939",
"f#	c #86CA3C",
"g#	c #86CC3B",
"h#	c #87CD39",
"i#	c #75BC48",
"j#	c #002151",
"k#	c #012558",
"l#	c #7AC34C",
"m#	c #8BCF3E",
"n#	c #8BD13C",
"o#	c #8BD040",
"p#	c #93D34D",
"q#	c #84C642",
"r#	c #579F25",
"s#	c #347D12",
"t#	c #000200",
"u#	c #367E14",
"v#	c #94D056",
"w#	c #80C833",
"x#	c #7FC935",
"y#	c #81C936",
"z#	c #82CB37",
"A#	c #83CB37",
"B#	c #80C83A",
"C#	c #83CB3B",
"D#	c #73BD4E",
"E#	c #002454",
"F#	c #012557",
"G#	c #78C24B",
"H#	c #87CF3B",
"I#	c #87CE3A",
"J#	c #88CE3D",
"K#	c #88CF3C",
"L#	c #88D03B",
"M#	c #8AD040",
"N#	c #8FD249",
"O#	c #88CB45",
"P#	c #5FA72A",
"Q#	c #368014",
"R#	c #010300",
"S#	c #010002",
"T#	c #357F10",
"U#	c #7DC832",
"V#	c #7CC836",
"W#	c #76C841",
"X#	c #47814A",
"Y#	c #224E4B",
"Z#	c #163D4D",
"`#	c #1E434A",
" $	c #2E5B54",
".$	c #062C5D",
"+$	c #012458",
"@$	c #76C04A",
"#$	c #85CD39",
"$$	c #84CC38",
"%$	c #86CD39",
"&$	c #86CE3A",
"*$	c #86CD3A",
"=$	c #86CE39",
"-$	c #87CE3C",
";$	c #8DD045",
">$	c #8ACD46",
",$	c #67AE2E",
"'$	c #357D10",
")$	c #8FCE5A",
"!$	c #77C637",
"~$	c #4D8C46",
"{$	c #0D304C",
"]$	c #002555",
"^$	c #06335F",
"/$	c #073965",
"($	c #083161",
"_$	c #092C5A",
":$	c #09345F",
"<$	c #75C048",
"[$	c #83CC38",
"}$	c #83CA39",
"|$	c #84CB38",
"1$	c #83CC37",
"2$	c #85CD3B",
"3$	c #8BCF45",
"4$	c #8ECD49",
"5$	c #6DB131",
"6$	c #3C8715",
"7$	c #040300",
"8$	c #327D12",
"9$	c #91CE58",
"0$	c #3F7848",
"a$	c #092953",
"b$	c #09305E",
"c$	c #0B345F",
"d$	c #07305C",
"e$	c #07335D",
"f$	c #09335D",
"g$	c #092F57",
"h$	c #07355B",
"i$	c #012656",
"j$	c #73BF47",
"k$	c #80C935",
"l$	c #80CA35",
"m$	c #81CA36",
"n$	c #81C837",
"o$	c #82C938",
"p$	c #8ACE43",
"q$	c #8ECF4D",
"r$	c #71B636",
"s$	c #428E1A",
"t$	c #327E11",
"u$	c #6CA564",
"v$	c #001848",
"w$	c #083362",
"x$	c #073564",
"y$	c #072F61",
"z$	c #0A315E",
"A$	c #08335E",
"B$	c #09315C",
"C$	c #0B355E",
"D$	c #063261",
"E$	c #002558",
"F$	c #70BC44",
"G$	c #7EC834",
"H$	c #7DC633",
"I$	c #7FC836",
"J$	c #88CA43",
"K$	c #8FCD4F",
"L$	c #77B938",
"M$	c #47911B",
"N$	c #307F16",
"O$	c #2B4F50",
"P$	c #07325E",
"Q$	c #06345D",
"R$	c #083260",
"S$	c #073361",
"T$	c #09315F",
"U$	c #092E62",
"V$	c #093063",
"W$	c #0D2D4C",
"X$	c #76C638",
"Y$	c #7AC632",
"Z$	c #7DC532",
"`$	c #85CA3F",
" %	c #8FCD50",
".%	c #7BBF3F",
"+%	c #4E981E",
"@%	c #2D780C",
"#%	c #2F7A13",
"$%	c #204452",
"%%	c #09325D",
"&%	c #07315F",
"*%	c #093260",
"=%	c #07315D",
"-%	c #09325E",
";%	c #0A3360",
">%	c #07295D",
",%	c #3B6A3F",
"'%	c #78C430",
")%	c #7FC73E",
"!%	c #8DCD4D",
"~%	c #81C043",
"{%	c #569D23",
"]%	c #30790E",
"^%	c #307C0F",
"/%	c #396150",
"(%	c #052653",
"_%	c #073360",
":%	c #063361",
"<%	c #063562",
"[%	c #063464",
"}%	c #063262",
"|%	c #09345D",
"1%	c #042A53",
"2%	c #18474F",
"3%	c #72B93F",
"4%	c #88CC51",
"5%	c #82C447",
"6%	c #5CA326",
"7%	c #337C0E",
"8%	c #307C0E",
"9%	c #83C55E",
"0%	c #1A4046",
"a%	c #052855",
"b%	c #062F58",
"c%	c #05335F",
"d%	c #033162",
"e%	c #052E5D",
"f%	c #0B2C4B",
"g%	c #305D3E",
"h%	c #80C651",
"i%	c #86C74E",
"j%	c #60A729",
"k%	c #38820F",
"l%	c #040500",
"m%	c #030400",
"n%	c #2F7B0E",
"o%	c #88C756",
"p%	c #65B62D",
"q%	c #478B41",
"r%	c #235046",
"s%	c #184150",
"t%	c #1F4E4F",
"u%	c #3D7A48",
"v%	c #71B247",
"w%	c #88C753",
"x%	c #64A82F",
"y%	c #398412",
"z%	c #317C0C",
"A%	c #88C652",
"B%	c #68B823",
"C%	c #6AB824",
"D%	c #6AB925",
"E%	c #6EBA29",
"F%	c #7EC341",
"G%	c #8BC955",
"H%	c #68B034",
"I%	c #3A8612",
"J%	c #000201",
"K%	c #2E7A0C",
"L%	c #87C451",
"M%	c #67B421",
"N%	c #69B726",
"O%	c #7BC03A",
"P%	c #8BC851",
"Q%	c #71B439",
"R%	c #418916",
"S%	c #277009",
"T%	c #000202",
"U%	c #000302",
"V%	c #2C780D",
"W%	c #83C253",
"X%	c #72BB38",
"Y%	c #85C352",
"Z%	c #6FB43B",
"`%	c #438E17",
" &	c #287209",
".&	c #82C154",
"+&	c #71B53F",
"@&	c #48941B",
"#&	c #2A770B",
"$&	c #29750C",
"%&	c #48951E",
"&&	c #2A780B",
"*&	c #1C6906",
". . . . . . . . . . . . . . . . . . . . . . . . . . . . . . . . . . . . . . . . . . . . . . . . ",
". . . . . . . . . . . . . . . . . . . . . . . . . . . . . . . . . . . . . . . . . . . . . . . . ",
". . . . . . . . . . . . . . . . . . . . . . . . . . . . . . . . . . . . . . . . . . . . . . . . ",
". . . . . . . . . . . . . . . . . . . . . . . . . . . . . . . . . . . . . . . . . . . . . . . . ",
". . . . . + . . . . . . . . . . . . . . . . . . . . . . . . . . . . . . . . . . . . . . . . . . ",
". . . . . @ # $ . . . . . . . . . . . . . . . . . . . . . . . . . . . . . . . . . . . . . . . . ",
". . . . . @ % & * = . . . . . . . . . . . . . . . . . . . . . . . . . . . . . . . . . . . . . . ",
". . . . . @ - ; > , ' ) . . . . . . . . . . . . . . . . . . . . . . . . . . . . . . . . . . . . ",
". . . . . @ ! ~ { ] ^ / ( _ . . . . . . . . . . . . . . . . . . . . . . . . . . . . . . . . . . ",
". . . . . : < [ } | 1 2 3 4 5 6 7 . 8 9 0 a b c d . . . . . . . . . . . . . . . . . . . . . . . ",
". . . . . : e f g h i j k l m n o d d p q p . d . . . . . . . . . . . . . . . . . . . . . . . . ",
". . . . . : r s t u v w x y z A B C D d E F G H I . . . . . . . . . . . . . . . . . . . . . . . ",
". . . . . J K L M N O P Q R S T U V W X Y . Z ` 6 . . . . . . . . . . . . . . . . . . . . . . . ",
". . . . . :  ...+.f @.O #.$.%.&.*.=.-.;.>.,.'.q p . . . . . . . . . . . . . . . . . . . . . . . ",
". . . . . ).!.~...{.].@.h ^./.(._.:.<.[.}.|.1.2.3.. . . . . . . . . . . . . . . . . . . . . . . ",
". . . . . ).4.5.6.7.L f 8.9.0.a.b.c.d.e.f.] g.h.i.j.. . . . . . . . . . . . . . . . . . . . . . ",
". . . . . ).k.l.m.n.o.p.q.r.s.t.u.v.w.x.y.z.A.B.C.D.E.F.. . . . . . . . . . . . . . . . . . . . ",
". . . . . G.H.I.J.m.6.o.K.L.M.N.O.P.Q.R.S.T.U.V.W.w X.Y.Z.`.. . . . . . . . . . . . . . . . . . ",
". . . . .  +.+++@+J.#+$+~.%+&+*+=+-+;+>+,+'+)+!+~+{+]+^+/+(+_+:+. . . . . . . . . . . . . . . . ",
". . . . .  +<+[+}+|+1+2+3+~.4+*+5+6+s 7+8+9+0+[ a+a+f b+s c+d+& e+f+. . . . . . . . . . . . . . ",
". . . . . g+h+i+j+k+l+m+n+o+p+*+q+r+s+L t+u+v+L.w+L L L %+x+y+z+A+B+C+D+. . . . . . . . . . . . ",
". . . . . E+F+G+H+I+J+K+L+1+M+*+N+O+$+P+Q+R+S+x+y+y+y+~.n.5.o+o+l.T+U+V+W+X+. . . . . . . . . . ",
". . . . . Y+Z+`+ @.@H++@@@#@$@*+%@&@*@#+*@=@-@5.;@3+o+o+>@l.n+I.++#@,@'@)@!@~@. . . . . . . . . ",
". . . . . Y+{@]@^@/@(@_@:@<@[@*+}@|@L+1@2@3@4@n+n+n+1+I.I.++++}+[+<@i+5@6@7@8@9@0@. . . . . . . ",
". . . . . a@b@c@d@e@^@f@g@5@h@*+i@j@k@l@m@n@o@++p@++#@}+[+[+<@<@i+5@G+q@`+r@s@t@u@v@w@. . . . . ",
". . . p . a@x@y@z@A@d@B@C@q@D@E@F@G@i+H@I@J@K@+@<@<@<@H@i+i+5@G+(@q@`+r@L@M@N@O@P@. . . . . . . ",
". Z Q@R@S@T@U@V@W@X@Y@Z@`@ #.#+#@###(@q@$#%#.@.@_@5@G+G+(@q@q@`+r@]@&#*#=#-#;#. . . . . . . . . ",
". Z ` >#,#'#)#!#~#{#]#^#/#(#_#:#<#[#C@r@`+`+}#|#1#`+`+`+C@r@]@`@2#3#4#5#6#7#. . . . . . . . . . ",
". . ` 8#9#0#a#b#c#d#e#f#g#h#i#j#k#l#2#c@`@`@m# #n#`@`@2#2#c@c@o#p#q#r#s#. . . . . . . . . . . . ",
". t#t#,#Z u#v#w#x#y#z#A#B#C#D#E#F#G#H#I#z@z@J#K#L#z@z@z@H#M#N#O#P#Q#. . . . . . . . . . . . . . ",
",#R#R#. S#T#v#U#V#W#X#Y#Z#`# $.$+$@$#$$$%$&$g#*$=$&$%$-$;$>$,$a@. . . . . . . . . . . . . . . . ",
"d t#8#p 6 '$)$!$~${$]$^$/$($_$:$F#<$A#c#[$[$}$|$1$2$3$4$5$6$. . . . . . . . . . . . . . . . . . ",
",#8#. . 7$8$9$0$a$b$c$d$e$f$g$h$i$j$k$l$k$m$n$o$p$q$r$s$. . . . . . . . . . . . . . . . . . . . ",
"a 8 d H 7$t$u$v$w$x$y$z$A$B$C$D$E$F$G$H$G$I$J$K$L$M$. . . . . . . . . . . . . . . . . . . . . . ",
"p d . 9#9 N$O$_$P$Q$A$R$S$T$U$V$W$X$Y$Z$`$ %.%+%@%. . . . . . . . . . . . . . . . . . . . . . . ",
". 9#. d 7$#%$%v.%%&%*%R$=%-%;%>%,%'%)%!%~%{%]%8#8#. . . . . . . . . . . . . . . . . . . . . . . ",
",#,#8#d 0 ^%/%(%_%:%<%[%}%|%1%2%3%4%5%6%7%9#. . 8#. . . . . . . . . . . . . . . . . . . . . . . ",
"d 6 S@d ,#8%9%0%a%b%c%d%e%f%g%h%i%j%k%l%. . . . . . . . . . . . . . . . . . . . . . . . . . . . ",
". >#m%. H n%o%p%q%r%s%t%u%v%w%x%y%a 7$S@. d 9#,#,#. . . . . . . . . . . . . . . . . . . . . . . ",
",#l%m%. . z%A%B%C%D%E%F%G%H%I%J%d 9#. d . 8 9#,#p . . . . . . . . . . . . . . . . . . . . . . . ",
". R#S@,#. K%L%M%N%O%P%Q%R%S%T%U%. 9#9#9#. . ,#a p . . . . . . . . . . . . . . . . . . . . . . . ",
". . . . . V%W%X%Y%Z%`% &. . . . . . . . . . . . . . . . . . . . . . . . . . . . . . . . . . . . ",
". . . . . V%.&+&@&#&. . . . . . . . . . . . . . . . . . . . . . . . . . . . . . . . . . . . . . ",
". . . . . $&%&&&. . . . . . . . . . . . . . . . . . . . . . . . . . . . . . . . . . . . . . . . ",
". . . . . *&. . . . . . . . . . . . . . . . . . . . . . . . . . . . . . . . . . . . . . . . . . ",
". . . . . . . . . . . . . . . . . . . . . . . . . . . . . . . . . . . . . . . . . . . . . . . . ",
". . . . . . . . . . . . . . . . . . . . . . . . . . . . . . . . . . . . . . . . . . . . . . . . ",
". . . . . . . . . . . . . . . . . . . . . . . . . . . . . . . . . . . . . . . . . . . . . . . . "};
