/* XPM */
static char * noteoff_xpm[] = {
"48 48 822 2",
"  	c None",
". 	c #000000",
"+ 	c #9F231E",
"@ 	c #A02420",
"# 	c #A32520",
"$ 	c #9F201D",
"% 	c #B83F3B",
"& 	c #D1645D",
"* 	c #E18079",
"= 	c #EA968F",
"- 	c #F3A9A1",
"; 	c #F5AFA8",
"> 	c #D0625C",
", 	c #B63E39",
"' 	c #9E201D",
") 	c #A82825",
"! 	c #D15F5B",
"~ 	c #EB948E",
"{ 	c #F5A39D",
"] 	c #F38F88",
"^ 	c #F27F76",
"/ 	c #F0756B",
"( 	c #F06C62",
"_ 	c #EF695E",
": 	c #EB928E",
"< 	c #D05F5A",
"[ 	c #A62725",
"} 	c #A21F1F",
"| 	c #CE5857",
"1 	c #F19996",
"2 	c #F38C88",
"3 	c #F06E69",
"4 	c #EE6059",
"5 	c #EF6159",
"6 	c #EF625A",
"7 	c #EF635A",
"8 	c #F38D89",
"9 	c #F09996",
"0 	c #CE5754",
"a 	c #A11F1D",
"b 	c #B43131",
"c 	c #E78282",
"d 	c #F38A89",
"e 	c #EF6260",
"f 	c #EE5956",
"g 	c #EE5C56",
"h 	c #EC6055",
"i 	c #EC5E59",
"j 	c #ED5D58",
"k 	c #EC5E58",
"l 	c #EC5F58",
"m 	c #EE6056",
"n 	c #ED6056",
"o 	c #ED6055",
"p 	c #EC5D57",
"q 	c #ED5B55",
"r 	c #EE5A54",
"s 	c #ED5A54",
"t 	c #EB645E",
"u 	c #F08C8B",
"v 	c #E68080",
"w 	c #B33030",
"x 	c #C24141",
"y 	c #EF8F8F",
"z 	c #EF6E6E",
"A 	c #ED5353",
"B 	c #ED5554",
"C 	c #ED5654",
"D 	c #ED5854",
"E 	c #EC5A54",
"F 	c #EC5957",
"G 	c #EB5A56",
"H 	c #ED5A56",
"I 	c #EE5955",
"J 	c #EA5C58",
"K 	c #EB5B57",
"L 	c #ED5956",
"M 	c #ED5755",
"N 	c #EC5754",
"O 	c #EB5753",
"P 	c #ED5553",
"Q 	c #EC5353",
"R 	c #EC5253",
"S 	c #F08F8F",
"T 	c #C54646",
"U 	c #F08D8D",
"V 	c #ED5E5F",
"W 	c #EB5151",
"X 	c #EC5152",
"Y 	c #EC5252",
"Z 	c #ED5452",
"` 	c #EC5652",
" .	c #EC5554",
"..	c #EC5454",
"+.	c #EC5653",
"@.	c #EB5754",
"#.	c #E75454",
"$.	c #B74F58",
"%.	c #B84E55",
"&.	c #E65556",
"*.	c #ED5354",
"=.	c #EB5354",
"-.	c #E85556",
";.	c #EA5353",
">.	c #EC5154",
",.	c #EC5052",
"'.	c #EB534F",
").	c #EF8C8C",
"!.	c #C44546",
"~.	c #BF3E3F",
"{.	c #EF8889",
"].	c #EA5859",
"^.	c #E94F50",
"/.	c #EA5050",
"(.	c #EA5051",
"_.	c #EC5451",
":.	c #EB5351",
"<.	c #EB5153",
"[.	c #EC5153",
"}.	c #EB5352",
"|.	c #ED5253",
"1.	c #D04C59",
"2.	c #001742",
"3.	c #031746",
"4.	c #AF4757",
"5.	c #EA5251",
"6.	c #EB5152",
"7.	c #EB5052",
"8.	c #EA5150",
"9.	c #EA524F",
"0.	c #EE8788",
"a.	c #C03D3E",
"b.	c #B22C2E",
"c.	c #EB8282",
"d.	c #E9595A",
"e.	c #E84D4E",
"f.	c #E84E4F",
"g.	c #E94E4F",
"h.	c #EA4F50",
"i.	c #E95050",
"j.	c #EB5250",
"k.	c #CC4E5C",
"l.	c #011E53",
"m.	c #11265F",
"n.	c #3A2D4E",
"o.	c #E25457",
"p.	c #E94F51",
"q.	c #E7504F",
"r.	c #E84E4E",
"s.	c #E9595B",
"t.	c #EC8282",
"u.	c #B02B2C",
"v.	c #9F1A1A",
"w.	c #E26F70",
"x.	c #E96263",
"y.	c #E64B4D",
"z.	c #E74C4D",
"A.	c #E74C4E",
"B.	c #E94F4F",
"C.	c #E8504F",
"D.	c #EA4E50",
"E.	c #CB4C5A",
"F.	c #00205B",
"G.	c #0D2B66",
"H.	c #10275B",
"I.	c #7A3E54",
"J.	c #E94F4C",
"K.	c #E94D4F",
"L.	c #E65051",
"M.	c #E44F4E",
"N.	c #E84D4D",
"O.	c #E96465",
"P.	c #E06D6E",
"Q.	c #9E1819",
"R.	c #C94748",
"S.	c #EA7273",
"T.	c #E5494B",
"U.	c #E54A4C",
"V.	c #E64B4C",
"W.	c #E74D4E",
"X.	c #E74F4E",
"Y.	c #E94D4E",
"Z.	c #E94E4E",
"`.	c #CA4A56",
" +	c #00225B",
".+	c #0E2C65",
"++	c #0E2C67",
"@+	c #0A2250",
"#+	c #934353",
"$+	c #E74C4F",
"%+	c #E34D4F",
"&+	c #E54D4D",
"*+	c #E64C4C",
"=+	c #EA7274",
"-+	c #C84546",
";+	c #A31D1D",
">+	c #E67375",
",+	c #E45052",
"'+	c #E4484A",
")+	c #E4494B",
"!+	c #E64A4C",
"~+	c #E54B4C",
"{+	c #E44B4B",
"]+	c #E54D4C",
"^+	c #E54C4C",
"/+	c #E54B4D",
"(+	c #E64D4C",
"_+	c #CA4750",
":+	c #002158",
"<+	c #0F2C67",
"[+	c #0D2860",
"}+	c #112A60",
"|+	c #132553",
"1+	c #A4455A",
"2+	c #E64B4B",
"3+	c #E54B4B",
"4+	c #E45153",
"5+	c #A21C1E",
"6+	c #C74344",
"7+	c #E76768",
"8+	c #E24649",
"9+	c #E34749",
"0+	c #E3484A",
"a+	c #E4494A",
"b+	c #E54A4B",
"c+	c #D74142",
"d+	c #FFFDF3",
"e+	c #FEFCF3",
"f+	c #FFFCF1",
"g+	c #FEFDF1",
"h+	c #FEFDF2",
"i+	c #FFFCF2",
"j+	c #E0E2E4",
"k+	c #002154",
"l+	c #14346E",
"m+	c #1E3A6C",
"n+	c #0F3163",
"o+	c #10386F",
"p+	c #0A2858",
"q+	c #D5DEE4",
"r+	c #D74141",
"s+	c #E44A4B",
"t+	c #E14B4C",
"u+	c #C54143",
"v+	c #9A1515",
"w+	c #DE6365",
"x+	c #E24F51",
"y+	c #E14548",
"z+	c #E24648",
"A+	c #E24749",
"B+	c #D43E3F",
"C+	c #FEFBF1",
"D+	c #FFFBF2",
"E+	c #FFFBF1",
"F+	c #FEFCF0",
"G+	c #FEFCF2",
"H+	c #DFE2E4",
"I+	c #002156",
"J+	c #07275F",
"K+	c #B9C8DC",
"L+	c #7E94A7",
"M+	c #082C59",
"N+	c #11356E",
"O+	c #384E72",
"P+	c #C73C43",
"Q+	c #DF494B",
"R+	c #E25052",
"S+	c #9A1416",
"T+	c #AE2829",
"U+	c #E5696B",
"V+	c #DF4346",
"W+	c #E04447",
"X+	c #E04547",
"Y+	c #E14648",
"Z+	c #D33C3E",
"`+	c #FEFAF1",
" @	c #FFFAF2",
".@	c #FFFAF1",
"+@	c #FEFBF0",
"@@	c #FEFBF2",
"#@	c #DFE1E4",
"$@	c #00265B",
"%@	c #E5EBF3",
"&@	c #ABB6C5",
"*@	c #143262",
"=@	c #0F3267",
"-@	c #94394B",
";@	c #E24548",
">@	c #AD2728",
",@	c #C43C3E",
"'@	c #E2585C",
")@	c #DE4245",
"!@	c #E04446",
"~@	c #E14547",
"{@	c #D23C3D",
"]@	c #FEFAF2",
"^@	c #FDF9F1",
"/@	c #FEF9F2",
"(@	c #FEF9F1",
"_@	c #FDFAF0",
":@	c #FDFAF2",
"<@	c #DEE0E4",
"[@	c #01265B",
"}@	c #E6E8EB",
"|@	c #FEF9ED",
"1@	c #586A8B",
"2@	c #022D63",
"3@	c #3E2C4C",
"4@	c #E14449",
"5@	c #E2595C",
"6@	c #C33B3D",
"7@	c #D04A4C",
"8@	c #DF4D50",
"9@	c #DD4144",
"0@	c #DE4145",
"a@	c #DF4345",
"b@	c #E04346",
"c@	c #D13B3C",
"d@	c #FDF8F0",
"e@	c #FEF8F1",
"f@	c #FEF8F0",
"g@	c #FDF9EF",
"h@	c #DEDFE3",
"i@	c #04255B",
"j@	c #E7E6EF",
"k@	c #FEF9F0",
"l@	c #D3D8EC",
"m@	c #002552",
"n@	c #1F2442",
"o@	c #DF4D51",
"p@	c #CF4A4B",
"q@	c #991415",
"r@	c #D75155",
"s@	c #DD4549",
"t@	c #DC4043",
"u@	c #DD4044",
"v@	c #DE4144",
"w@	c #D0393C",
"x@	c #012557",
"y@	c #E3E6F0",
"z@	c #FBF9F1",
"A@	c #FAF9F1",
"B@	c #1E3D67",
"C@	c #2C2143",
"D@	c #DD464A",
"E@	c #D75154",
"F@	c #981414",
"G@	c #DB5558",
"H@	c #DB4044",
"I@	c #DB3E42",
"J@	c #DC3F42",
"K@	c #DC3F43",
"L@	c #CF383B",
"M@	c #FDF7F0",
"N@	c #FEF7F1",
"O@	c #FEF7F0",
"P@	c #FDF8EF",
"Q@	c #FDF8F1",
"R@	c #DEDEE3",
"S@	c #002756",
"T@	c #E0E7EE",
"U@	c #FEF7EE",
"V@	c #FBF8F1",
"W@	c #374F76",
"X@	c #672C4B",
"Y@	c #DA5458",
"Z@	c #991416",
"`@	c #9A1316",
" #	c #DD5458",
".#	c #DA3E42",
"+#	c #DA3D41",
"@#	c #DB3E41",
"##	c #DB3F42",
"$#	c #CE373A",
"%#	c #FDF6EF",
"&#	c #FEF6F0",
"*#	c #FEF6EF",
"=#	c #FDF7EE",
"-#	c #DEDDE2",
";#	c #022659",
">#	c #E1E6ED",
",#	c #FEF7EF",
"'#	c #FEF6EC",
")#	c #40506F",
"!#	c #A83845",
"~#	c #9A1315",
"{#	c #9A1314",
"]#	c #DC5155",
"^#	c #D83C41",
"/#	c #D93C40",
"(#	c #DB3F41",
"_#	c #CD3639",
":#	c #FDF6F0",
"<#	c #FCF6EF",
"[#	c #FCF5EF",
"}#	c #FCF5F0",
"|#	c #FDF5EF",
"1#	c #FCF6EE",
"2#	c #DDDCE2",
"3#	c #002056",
"4#	c #06215C",
"5#	c #E1E5EF",
"6#	c #FDF5EE",
"7#	c #F6F3EE",
"8#	c #777C8A",
"9#	c #C8393C",
"0#	c #DA4040",
"a#	c #DB5054",
"b#	c #981315",
"c#	c #991316",
"d#	c #D74B4F",
"e#	c #D73C40",
"f#	c #D83B3F",
"g#	c #D73D3F",
"h#	c #D83B40",
"i#	c #D93B41",
"j#	c #DA3D40",
"k#	c #DA413F",
"l#	c #D8403F",
"m#	c #CB3538",
"n#	c #FCF5EE",
"o#	c #FBF5EC",
"p#	c #FBF4EF",
"q#	c #FCF3F0",
"r#	c #FCF4EE",
"s#	c #FBF4EB",
"t#	c #FDF5F0",
"u#	c #FDF3EE",
"v#	c #DDDCE7",
"w#	c #002057",
"x#	c #03255A",
"y#	c #E2E4ED",
"z#	c #FCF4EF",
"A#	c #F8F1ED",
"B#	c #CC3438",
"C#	c #D93E40",
"D#	c #D74B4E",
"E#	c #991314",
"F#	c #971214",
"G#	c #D14347",
"H#	c #D73E42",
"I#	c #D7393E",
"J#	c #D73A3E",
"K#	c #D73D3E",
"L#	c #D73A3F",
"M#	c #D83A40",
"N#	c #D93D3F",
"O#	c #D93F3E",
"P#	c #D83C3E",
"Q#	c #CC3437",
"R#	c #FDF4EF",
"S#	c #FCF4EA",
"T#	c #FCF4ED",
"U#	c #FCF3EE",
"V#	c #FBF4ED",
"W#	c #F9F4ED",
"X#	c #FAF4EF",
"Y#	c #FDF4ED",
"Z#	c #DCDBE5",
"`#	c #001F57",
" $	c #01255B",
".$	c #E2E3EC",
"+$	c #CC3338",
"@$	c #D83C3F",
"#$	c #D83A3F",
"$$	c #D14346",
"%$	c #981313",
"&$	c #C9393E",
"*$	c #D74044",
"=$	c #D6383D",
"-$	c #D6393D",
";$	c #D63A3D",
">$	c #D83B3E",
",$	c #CA3136",
"'$	c #FDF3EF",
")$	c #FDF4EC",
"!$	c #FCF3ED",
"~$	c #FDF1EE",
"{$	c #FCF0EF",
"]$	c #FCF2EF",
"^$	c #DADCE3",
"/$	c #002151",
"($	c #01255A",
"_$	c #CA3137",
":$	c #D73B3F",
"<$	c #D6393E",
"[$	c #C8393D",
"}$	c #BC2E31",
"|$	c #D74347",
"1$	c #D5373C",
"2$	c #D5373D",
"3$	c #D43A3C",
"4$	c #D53A3D",
"5$	c #D7393D",
"6$	c #D6393F",
"7$	c #C93036",
"8$	c #FDF2EE",
"9$	c #FDF3EC",
"0$	c #FCF1EE",
"a$	c #F6EEEC",
"b$	c #FAF1EE",
"c$	c #DBDEEB",
"d$	c #002454",
"e$	c #022559",
"f$	c #FCF2EE",
"g$	c #D63A3E",
"h$	c #D73A3D",
"i$	c #D5383D",
"j$	c #BB2E30",
"k$	c #A71D1F",
"l$	c #D7474C",
"m$	c #D3353B",
"n$	c #D4363B",
"o$	c #D4353C",
"p$	c #D5373B",
"q$	c #D3393B",
"r$	c #D33A3B",
"s$	c #D4373C",
"t$	c #D3373E",
"u$	c #C83033",
"v$	c #FDF2EA",
"w$	c #FAF2E9",
"x$	c #FAF2EE",
"y$	c #ECEFEF",
"z$	c #8D98B1",
"A$	c #44597D",
"B$	c #2C446E",
"C$	c #3B4C75",
"D$	c #596995",
"E$	c #0B2E65",
"F$	c #02255A",
"G$	c #E1E1EB",
"H$	c #FCF1ED",
"I$	c #C82F35",
"J$	c #D5393C",
"K$	c #D5383C",
"L$	c #A61C20",
"M$	c #961113",
"N$	c #CF3F43",
"O$	c #D3393F",
"P$	c #D3353A",
"Q$	c #D3343B",
"R$	c #D2353B",
"S$	c #D3373A",
"T$	c #D3363B",
"U$	c #D3373B",
"V$	c #D4393B",
"W$	c #C53032",
"X$	c #F7F1ED",
"Y$	c #F4F1EE",
"Z$	c #9DA7BB",
"`$	c #1A355F",
" %	c #0C3569",
".%	c #0E3B70",
"+%	c #10346E",
"@%	c #112E67",
"#%	c #11376C",
"$%	c #E3E3ED",
"%%	c #FBF0ED",
"&%	c #C72E34",
"*%	c #D4383B",
"=%	c #951011",
"-%	c #B9292F",
";%	c #D44045",
">%	c #D23339",
",%	c #D2333A",
"'%	c #D23439",
")%	c #D2353A",
"!%	c #D23539",
"~%	c #D2373A",
"{%	c #C13032",
"]%	c #FCF0ED",
"^%	c #8490AB",
"/%	c #122C61",
"(%	c #12346C",
"_%	c #163870",
":%	c #0F3367",
"<%	c #0F3668",
"[%	c #12366B",
"}%	c #133266",
"|%	c #0E3766",
"1%	c #022758",
"2%	c #E3E2ED",
"3%	c #FBEFEC",
"4%	c #C62D33",
"5%	c #D33639",
"6%	c #D2343A",
"7%	c #BA2A2E",
"8%	c #9B1315",
"9%	c #D14146",
"0%	c #D1353B",
"a%	c #D13238",
"b%	c #D13438",
"c%	c #D03339",
"d%	c #D13339",
"e%	c #D13639",
"f%	c #C32D32",
"g%	c #83233B",
"h%	c #001848",
"i%	c #0D2761",
"j%	c #0A2C63",
"k%	c #0A2560",
"l%	c #0F235D",
"m%	c #0C275D",
"n%	c #0D245B",
"o%	c #0F265D",
"p%	c #092960",
"q%	c #002458",
"r%	c #9D2535",
"s%	c #AF1F22",
"t%	c #AD1F21",
"u%	c #C52B32",
"v%	c #D1343A",
"w%	c #D23538",
"x%	c #9C1316",
"y%	c #B7282C",
"z%	c #D23F44",
"A%	c #CF3436",
"B%	c #D03136",
"C%	c #CF3238",
"D%	c #D03139",
"E%	c #D13537",
"F%	c #C03137",
"G%	c #3B1F44",
"H%	c #0F205A",
"I%	c #0C295E",
"J%	c #0B2C5E",
"K%	c #0D295E",
"L%	c #0E2760",
"M%	c #0C2A61",
"N%	c #0E265F",
"O%	c #0E2362",
"P%	c #0F2463",
"Q%	c #141D4C",
"R%	c #BE3238",
"S%	c #C42C31",
"T%	c #C42C30",
"U%	c #C52B30",
"V%	c #C42A31",
"W%	c #C72D32",
"X%	c #D03338",
"Y%	c #D13337",
"Z%	c #D03238",
"`%	c #D03137",
" &	c #B6272B",
".&	c #971013",
"+&	c #C9383D",
"@&	c #CD3B3B",
"#&	c #CE3036",
"$&	c #CF3037",
"%&	c #CF3137",
"&&	c #D03037",
"*&	c #CE3335",
"=&	c #C9323A",
"-&	c #2F214A",
";&	c #112562",
">&	c #11265E",
",&	c #0D2760",
"'&	c #102661",
")&	c #0E2860",
"!&	c #0D275E",
"~&	c #10265F",
"{&	c #122661",
"]&	c #0C215D",
"^&	c #662343",
"/&	c #CD3238",
"(&	c #CF3336",
"_&	c #CF3236",
":&	c #CF3036",
"<&	c #D0373D",
"[&	c #C8373D",
"}&	c #971012",
"|&	c #A2181C",
"1&	c #CD3E42",
"2&	c #CF3339",
"3&	c #CE2F35",
"4&	c #CD2F36",
"5&	c #CF3135",
"6&	c #532343",
"7&	c #0A1E54",
"8&	c #0E2961",
"9&	c #0C2B62",
"0&	c #0C2D63",
"a&	c #0C2C65",
"b&	c #0B2A63",
"c&	c #10295E",
"d&	c #072553",
"e&	c #2B2951",
"f&	c #BE333E",
"g&	c #CC343A",
"h&	c #CE3436",
"i&	c #CE3535",
"j&	c #CF2F37",
"k&	c #CD3035",
"l&	c #CE2F36",
"m&	c #CE3C42",
"n&	c #A4181C",
"o&	c #AD1F23",
"p&	c #CF3B41",
"q&	c #CE3235",
"r&	c #CC3034",
"s&	c #CC2D35",
"t&	c #CD2E35",
"u&	c #CD3034",
"v&	c #C33440",
"w&	c #311F49",
"x&	c #0A2156",
"y&	c #0C2759",
"z&	c #0A2C5F",
"A&	c #072C63",
"B&	c #0A275D",
"C&	c #141E4C",
"D&	c #52233F",
"E&	c #C2363D",
"F&	c #CC3137",
"G&	c #CD3135",
"H&	c #CE3434",
"I&	c #CE3334",
"J&	c #CD2F35",
"K&	c #AD1E22",
"L&	c #010001",
"M&	c #B02226",
"N&	c #CF4042",
"O&	c #CB2C34",
"P&	c #CC3033",
"Q&	c #CB2F35",
"R&	c #C1333C",
"S&	c #872E4B",
"T&	c #43214B",
"U&	c #2D2153",
"V&	c #3B2552",
"W&	c #6E2D4C",
"X&	c #B12E39",
"Y&	c #CB2E37",
"Z&	c #CD2D36",
"`&	c #CC2E34",
" *	c #CD3133",
".*	c #CB3034",
"+*	c #CC2E35",
"@*	c #CD2D34",
"#*	c #CC2D34",
"$*	c #CC2D33",
"%*	c #CD3138",
"&*	c #CF3D44",
"**	c #AF2226",
"=*	c #020002",
"-*	c #841616",
";*	c #AC2524",
">*	c #CE4243",
",*	c #CD363C",
"'*	c #CB2C33",
")*	c #CB2F32",
"!*	c #CC2D32",
"~*	c #CB2D32",
"{*	c #CA2E35",
"]*	c #CA2E34",
"^*	c #CC2C34",
"/*	c #CB2D34",
"(*	c #CB2D33",
"_*	c #CB2B33",
":*	c #CD3F45",
"<*	c #AB2124",
"[*	c #871618",
"}*	c #7F2625",
"|*	c #9E1E1D",
"1*	c #C73940",
"2*	c #CF4046",
"3*	c #CA3236",
"4*	c #CB2F31",
"5*	c #CA2B31",
"6*	c #CB2B32",
"7*	c #CB2E31",
"8*	c #CC3031",
"9*	c #CB2E32",
"0*	c #CB2B34",
"a*	c #C82E35",
"b*	c #CA2C33",
"c*	c #CB2A32",
"d*	c #CA2B32",
"e*	c #CB3036",
"f*	c #CF4145",
"g*	c #C73A3F",
"h*	c #9E1B1F",
"i*	c #7A2626",
"j*	c #8F1D1F",
"k*	c #B2282E",
"l*	c #CD434A",
"m*	c #CE3F45",
"n*	c #CB3238",
"o*	c #C92A31",
"p*	c #CA2A31",
"q*	c #CA2A32",
"r*	c #CC434A",
"s*	c #B1272C",
"t*	c #8E1D1E",
"u*	c #7B3032",
"v*	c #901D1F",
"w*	c #B32A2E",
"x*	c #C94046",
"y*	c #D0494F",
"z*	c #CB363C",
"A*	c #CA2C32",
"B*	c #911D1F",
"C*	c #793333",
"D*	c #753636",
"E*	c #8A1F21",
"F*	c #9D2023",
"G*	c #B12B2F",
"H*	c #C0373D",
"I*	c #C84148",
"J*	c #CF4A50",
"K*	c #D14E54",
"L*	c #CE4A50",
"M*	c #B22B2F",
"N*	c #9B2023",
"O*	c #891F21",
"P*	c #73393B",
"Q*	c #80292B",
"R*	c #892023",
"S*	c #8C1C1E",
"T*	c #8D1A1B",
"U*	c #882023",
". . . . . . . . . . . . . . . . . . . . . . . . . . . . . . . . . . . . . . . . . . . . . . . . ",
". . . . . . . . . . . . . . . . . . . . . . . . . . . . . . . . . . . . . . . . . . . . . . . . ",
". . . . . . . . . . . . . . . . . . . . . . . . . . . . . . . . . . . . . . . . . . . . . . . . ",
". . . . . . . . . . . . . . . . . . . . . . . . . . . . . . . . . . . . . . . . . . . . . . . . ",
". . . . . . . . . . . . . . . . . . . . . . . . . . . . . . . . . . . . . . . . . . . . . . . . ",
". . . . . . . . . . . . . . . . . . . . . + @ # # @ + . . . . . . . . . . . . . . . . . . . . . ",
". . . . . . . . . . . . . . . . . $ % & * = - ; ; - = * > , ' . . . . . . . . . . . . . . . . . ",
". . . . . . . . . . . . . . . ) ! ~ { ] ^ / ( _ _ ( / ^ ] { : < [ . . . . . . . . . . . . . . . ",
". . . . . . . . . . . . . } | 1 2 3 4 5 6 6 7 7 7 7 6 6 5 4 3 8 9 0 a . . . . . . . . . . . . . ",
". . . . . . . . . . . . b c d e f f g h i j k l m n o j p q r s t u v w . . . . . . . . . . . . ",
". . . . . . . . . . . x y z A A B C D E F f G H I J K L M N O P Q R z S x . . . . . . . . . . . ",
". . . . . . . . . . T U V W X Y Y A Z `  ...+.@.#.$.%.&.*.=.-.;.>.,.'.V ).!.. . . . . . . . . . ",
". . . . . . . . . ~.{.].^./.(.W W X _.:.<.[.}.|.1.2.3.4.Y 5.6.W 7.8.9.^.].0.a.. . . . . . . . . ",
". . . . . . . . b.c.d.e.f.g.^.h./.i.j.W (.7.j.W k.l.m.n.o.9./.p.^.q.r.f.e.s.t.u.. . . . . . . . ",
". . . . . . . v.w.x.y.z.A.e.e.g.g.B.C.D.D.h././.E.F.G.H.I.^.J.K.L.M.N.A.z.y.O.P.Q.. . . . . . . ",
". . . . . . . R.S.T.U.V.y.z.z.W.e.e.X.Y.f.g.f.Z.`. +.+++@+#+e.$+%+&+*+y.V.U.T.=+-+. . . . . . . ",
". . . . . . ;+>+,+'+)+T.U.!+V.y.~+~+{+~+]+^+/+(+_+:+<+[+}+|+1+~+2+3+!+U.T.)+'+4+>+5+. . . . . . ",
". . . . . . 6+7+8+9+0+'+a+)+b+c+d+d+e+f+g+h+e+i+j+k+l+m+n+o+p+q+r+s+t+a+'+0+9+8+7+u+. . . . . . ",
". . . . . v+w+x+y+z+8+A+9+0+9+B+i+i+C+D+E+F+G+i+H+I+J+K+L+M+N+O+P+A+Q+9+A+8+z+y+R+w+S+. . . . . ",
". . . . . T+U+V+W+X+y+Y+z+8+z+Z+D+D+`+ @.@+@@@D+#@I+$@%@D+&@*@=@-@;@8+z+Y+y+X+W+V+U+>@. . . . . ",
". . . . . ,@'@)@V+V+!@W+~@y+X+{@]@]@^@/@(@_@:@]@<@I+[@}@|@]@1@2@3@X+4@~@W+!@V+V+)@5@6@. . . . . ",
". . . . . 7@8@9@0@)@a@V+b@W+V+c@(@(@d@e@f@g@^@(@h@I+i@j@k@e@l@m@n@V+W+b@V+a@)@0@9@o@p@. . . . . ",
". . . . q@r@s@t@u@9@v@)@)@a@)@w@(@(@d@e@f@g@^@(@h@I+x@y@z@f@A@B@C@)@)@)@)@v@9@u@t@D@E@F@. . . . ",
". . . . S+G@H@I@J@K@t@u@9@v@9@L@e@e@M@N@O@P@Q@e@R@I+S@T@Q@U@V@W@X@9@v@9@u@t@K@J@I@H@Y@Z@. . . . ",
". . . . `@ #.#+#@#I@##K@t@t@K@$#O@O@%#&#*#=#M@O@-#I+;#>#,#'#M@)#!#K@K@t@K@##I@@#+#.# #~#. . . . ",
". . . . {#]#^#/#/#+#+#I@I@(#(#_#:#<#[#}#|#1#}#:#2#3#4#5#:#6#7#8#9#0###I@I@+#+#/#/#^#a#b#. . . . ",
". . . . c#d#e#f#f#g#h#i#j#k#l#m#n#o#p#q#r#s#t#u#v#w#x#y#t#z#p#A#B#C#j#+#/#/#/#f#f#e#D#E#. . . . ",
". . . . F#G#H#I#J#K#L#M#N#O#P#Q#R#S#T#U#V#W#X#Y#Z#`# $.$R#U#R#R#+$@$N#/#f#f##$J#I#H#$$%$. . . . ",
". . . . . &$*$=$-$;$I#J#>$>$L#,$'$)$!$U#~${$]$u#^$/$($.$R#U#R#R#_$:$P##$J#I#<$-$=$*$[$. . . . . ",
". . . . . }$|$1$1$2$=$3$4$5$6$7$8$9$U#0$'$'$a$b$c$d$e$.$'$f$'$'$7$g$h$<$-$=$i$1$1$|$j$. . . . . ",
". . . . . k$l$m$n$o$p$q$r$s$t$u$v$w$x$y$z$A$B$C$D$E$F$G$8$H$8$8$I$i$J$K$1$1$n$n$m$l$L$. . . . . ",
". . . . . M$N$O$P$Q$R$S$T$U$V$W$X$Y$Z$`$x@ %.%+%@%#%;#$%0$%%0$0$&%s$*%n$n$m$P$P$O$N$=%. . . . . ",
". . . . . . -%;%>%,%'%)%P$!%~%{%]%^%/%(%_%:%<%[%}%|%1%2%]%3%3%]%4%R$5%P$P$6%'%>%;%7%. . . . . . ",
". . . . . . 8%9%0%a%b%c%d%>%e%f%g%h%i%j%k%l%m%n%o%p%q%r%s%t%s%s%u%v%w%'%d%d%a%0%9%x%. . . . . . ",
". . . . . . . y%z%A%B%C%a%D%E%F%G%H%I%J%K%L%M%N%O%P%Q%R%S%T%U%V%W%X%Y%a%Z%`%`%z% &. . . . . . . ",
". . . . . . . .&+&@&#&$&%&&&*&=&-&;&>&,&'&)&!&~&{&]&^&%&/&(&_&$&Z%%&B%%&%&:&<&[&}&. . . . . . . ",
". . . . . . . . |&1&2&3&4&4&5&#&6&7&8&9&0&a&b&c&d&e&f&g&h&i&(&j&:&:&k&l&l&2&m&n&. . . . . . . . ",
". . . . . . . . . o&p&q&r&s&t&u&v&w&x&y&z&A&B&C&D&E&F&G&H&I&J&l&3&3&t&t&#&p&K&. . . . . . . . . ",
". . . . . . . . . L&M&N&Q#O&O&P&Q&R&S&T&U&V&W&X&Y&Z&`&u& *.*+*`&@*#*$*%*&***. . . . . . . . . . ",
". . . . . . . . . =*-*;*>*,*'*)*!*~*#*#*#*#*#*{*]*]*#*^*#*/*(*'*_*'*,*:*<*[*. . . . . . . . . . ",
". . . . . . . . . =*. }*|*1*2*3*4*5*6*7*8*9*0*0*a*a*b*_*c*c*d*d*e*f*g*h*i*. . . . . . . . . . . ",
". . . . . . . . . . . . . j*k*l*m*n*o*p*p*p*q*q*q*q*p*p*p*o*n*m*r*s*t*. . . . . . . . . . . . . ",
". . . . . . . . . . . . . . u*v*w*x*y*m*z*_$A*o*o*b*_$z*m*y*x*w*B*C*. . . . . . . . . . . . . . ",
". . . . . . . . . . . . . . . . D*E*F*G*H*I*J*K*K*L*I*H*M*N*O*D*. . . . . . . . . . . . . . . . ",
". . . . . . . . . . . . . . . . . . . P*Q*R*S*T*T*S*U*Q*P*. . . . . . . . . . . . . . . . . . . ",
". . . . . . . . . . . . . . . . . . . . . . . . . . . . . . . . . . . . . . . . . . . . . . . . ",
". . . . . . . . . . . . . . . . . . . . . . . . . . . . . . . . . . . . . . . . . . . . . . . . ",
". . . . . . . . . . . . . . . . . . . . . . . . . . . . . . . . . . . . . . . . . . . . . . . . "};
