/* XPM */
static char * notmuted_xpm[] = {
"48 48 261 2",
"  	c None",
". 	c #2F2F2F",
"+ 	c #353535",
"@ 	c #3A3A3A",
"# 	c #444444",
"$ 	c #4F4F4F",
"% 	c #555555",
"& 	c #383838",
"* 	c #282828",
"= 	c #BEBEBE",
"- 	c #FFFFFF",
"; 	c #2E2E2E",
"> 	c #525252",
", 	c #CECECE",
"' 	c #585858",
") 	c #3D3D3D",
"! 	c #787878",
"~ 	c #8C8C8C",
"{ 	c #E0E0E0",
"] 	c #5A5A5A",
"^ 	c #B3F100",
"/ 	c #A3ED00",
"( 	c #92E800",
"_ 	c #3F3F3F",
": 	c #3B3B3B",
"< 	c #A4A4A4",
"[ 	c #AAAAAA",
"} 	c #F0F0F0",
"| 	c #5C5C5C",
"1 	c #A2EC00",
"2 	c #91E800",
"3 	c #80E300",
"4 	c #424242",
"5 	c #404040",
"6 	c #D1D1D1",
"7 	c #C8C8C8",
"8 	c #FEFEFE",
"9 	c #606060",
"0 	c #90E700",
"a 	c #6FDE00",
"b 	c #454545",
"c 	c #F6F6F6",
"d 	c #E6E6E6",
"e 	c #FBFBFB",
"f 	c #626262",
"g 	c #7FE300",
"h 	c #6EDE00",
"i 	c #5ED900",
"j 	c #474747",
"k 	c #494949",
"l 	c #C9C9C9",
"m 	c #D2D2D2",
"n 	c #EEEEEE",
"o 	c #F8F8F8",
"p 	c #646464",
"q 	c #6DDE00",
"r 	c #4DD500",
"s 	c #4B4B4B",
"t 	c #4D4D4D",
"u 	c #F4F4F4",
"v 	c #E9E9E9",
"w 	c #EDEDED",
"x 	c #F2F2F2",
"y 	c #E8E8E8",
"z 	c #676767",
"A 	c #5DD900",
"B 	c #4CD400",
"C 	c #3CD000",
"D 	c #FAFAFA",
"E 	c #D5D5D5",
"F 	c #6A6A6A",
"G 	c #565656",
"H 	c #EFEFEF",
"I 	c #DBDBDB",
"J 	c #C2C2C2",
"K 	c #6C6C6C",
"L 	c #88E500",
"M 	c #2BCB00",
"N 	c #595959",
"O 	c #ECECEC",
"P 	c #E4E4E4",
"Q 	c #CCCCCC",
"R 	c #ADADAD",
"S 	c #EAEAEA",
"T 	c #6E6E6E",
"U 	c #A1ED00",
"V 	c #6CDD00",
"W 	c #3BCF00",
"X 	c #2ACA00",
"Y 	c #BA7C01",
"Z 	c #BA7C00",
"` 	c #BE7E00",
" .	c #C38100",
"..	c #C88400",
"+.	c #CD8800",
"@.	c #5F5F5F",
"#.	c #DCDCDC",
"$.	c #BDBDBD",
"%.	c #989898",
"&.	c #FCFCFC",
"*.	c #727272",
"=.	c #85E400",
"-.	c #51D600",
";.	c #38CE00",
">.	c #1BC600",
",.	c #B57A04",
"'.	c #D0D0D0",
").	c #D6D6D6",
"!.	c #747474",
"~.	c #6ADC00",
"{.	c #50D600",
"].	c #37CF00",
"^.	c #19C600",
"/.	c #AF780A",
"(.	c #F7F7F7",
"_.	c #F5F5F5",
":.	c #A1A1A1",
"<.	c #858585",
"[.	c #CBCBCB",
"}.	c #767676",
"|.	c #50D500",
"1.	c #35CE00",
"2.	c #898782",
"3.	c #716F6C",
"4.	c #4B4A49",
"5.	c #A87510",
"6.	c #EBEBEB",
"7.	c #E7E7E7",
"8.	c #E3E3E3",
"9.	c #B1B1B1",
"0.	c #969696",
"a.	c #7C7C7C",
"b.	c #C0C0C0",
"c.	c #7A7A7A",
"d.	c #4ED500",
"e.	c #1FC700",
"f.	c #29CA00",
"g.	c #0BC200",
"h.	c #D9D9D9",
"i.	c #CFCFCF",
"j.	c #A27214",
"k.	c #FFFCED",
"l.	c #D4D4D4",
"m.	c #BCBCBC",
"n.	c #8B8B8B",
"o.	c #737373",
"p.	c #B6B6B6",
"q.	c #AAEF00",
"r.	c #56D700",
"s.	c #27C900",
"t.	c #0AC200",
"u.	c #818181",
"v.	c #9C701A",
"w.	c #FFF7D2",
"x.	c #BFBFBF",
"y.	c #979797",
"z.	c #808080",
"A.	c #ACACAC",
"B.	c #7E7E7E",
"C.	c #A9EF00",
"D.	c #7EE200",
"E.	c #54D600",
"F.	c #1AC600",
"G.	c #0AC100",
"H.	c #B7B7B7",
"I.	c #A8A8A8",
"J.	c #956E1F",
"K.	c #F9E4A2",
"L.	c #E5E5E5",
"M.	c #B0B0B0",
"N.	c #AFAFAF",
"O.	c #9E9E9E",
"P.	c #8A8A8A",
"Q.	c #616161",
"R.	c #A2A2A2",
"S.	c #79E100",
"T.	c #34CE00",
"U.	c #09C100",
"V.	c #A5A5A5",
"W.	c #939393",
"X.	c #8E6B24",
"Y.	c #F1C868",
"Z.	c #A0A0A0",
"`.	c #9F9F9F",
" +	c #909090",
".+	c #6B6B6B",
"++	c #848484",
"@+	c #53D600",
"#+	c #28CA00",
"$+	c #34CD00",
"%+	c #929292",
"&+	c #7F7F7F",
"*+	c #88682A",
"=+	c #E9AC2C",
"-+	c #8F8F8F",
";+	c #8E8E8E",
">+	c #707070",
",+	c #868686",
"'+	c #52D500",
")+	c #33CD00",
"!+	c #08C100",
"~+	c #6F6F6F",
"{+	c #826630",
"]+	c #E49A00",
"^+	c #C4C4C4",
"/+	c #B9B9B9",
"(+	c #7D7D7D",
"_+	c #6D6D6D",
":+	c #5D5D5D",
"<+	c #4C4C4C",
"[+	c #8D8D8D",
"}+	c #7B6434",
"|+	c #E9A600",
"1+	c #BBBBBB",
"2+	c #828282",
"3+	c #717171",
"4+	c #666666",
"5+	c #74613A",
"6+	c #EEB400",
"7+	c #B3B3B3",
"8+	c #9B9B9B",
"9+	c #959595",
"0+	c #949494",
"a+	c #757575",
"b+	c #D8D8D8",
"c+	c #6E5E3F",
"d+	c #F4C000",
"e+	c #A3A3A3",
"f+	c #9A9A9A",
"g+	c #686868",
"h+	c #AEAEAE",
"i+	c #DADADA",
"j+	c #5E5E5E",
"k+	c #414141",
"l+	c #685C44",
"m+	c #F8CE00",
"n+	c #BABABA",
"o+	c #615A4A",
"p+	c #FEDA00",
"q+	c #A6A6A6",
"r+	c #5B5B5B",
"s+	c #5B5750",
"t+	c #FFDD00",
"u+	c #565554",
"v+	c #B4B4B4",
"w+	c #9D9D9D",
"x+	c #A9A9A9",
"y+	c #535353",
"z+	c #C6C6C6",
"A+	c #B2B2B2",
"B+	c #E2E2E2",
"C+	c #545454",
"D+	c #CACACA",
"E+	c #B8B8B8",
"F+	c #888888",
"G+	c #DEDEDE",
"H+	c #797979",
"I+	c #696969",
"J+	c #C5C5C5",
"K+	c #373737",
"L+	c #393939",
". . . . . . . . . . . . . . . . . . . . . . . . . . . . . . . . . . . . . . . . . . . . . . . . ",
". . . . . . . . . . . . . . . . . . . . . . . . . . . . . . . . . . . . . . . . . . . . . . . . ",
". . . . . . . . . . . . . . . . . . . . . . . . . . . . . . . . . . . . . . . . . . . . . . . . ",
". . . . . . . . . . . . . . . . . . . . + @ # $ % % % % . . . . . . . . . . . . . . . . . . . . ",
". . . . . . . . . . . . . . . . . . . & * = = = = = - % . . . . . . . . . . . . . . . . . . . . ",
". . . . . . . . . . . . . . . . . . @ ; > , , , , , - ' . . . . . . . . . . . . . . . . . . . . ",
". . . . . . . . . . . . . . . . . ) + ! ~ { { { { { - ] . . . . . . . . . ^ / ( . . . . . . . . ",
". . . . . . . . . . . . . . . . _ : < [ ~ } } } } } - | . . . . . . . . . ^ 1 2 3 . . . . . . . ",
". . . . . . . . . . . . . . . 4 5 6 7 [ ~ 8 8 8 8 8 - 9 . . . . . . . . . . . 0 3 a . . . . . . ",
". . . . . . . . . . . . . . b b c d 7 [ [ e e e e e - f . . . . . . . . . . . . g h i . . . . . ",
". . . . . . . . . . . . . j k c 8 d l m n o o o o o - p . . . . . . . . . . . . . q i r . . . . ",
". . . . . . . . . . . . s t u - 8 v w x y c c c c c - z . . . . . . . . . . . . . . A B C . . . ",
". . . . . . . . . . . t > x - - 8 D c v E x x x x x - F . . . . . . . / . . . . . . . B C . . . ",
". . . . . . . . . . $ G H - - - - D n I J } } } } } - K . . . . . . . / L . . . . . . . C M . . ",
". . . . . . . . . > N O - - - - 8 c P Q R S S S S S 8 T . . . . . . . U L V . . . . . . W X . . ",
". . . Y Z `  ...+.@.S - - - - - 8 x #.$.%.{ { { { { &.*.. . . . . . . . =.V -.. . . . . ;.X >.. ",
". . . ,.- - - - - 8 8 - - - - 8 8 O '.R ~ ).).).).).D !.. . . . . . . . . ~.{.].. . . . . X ^.. ",
". . . /.- - - - - o e &.D o (._.x #.= :.<.[.[.[.[.[.o }.. . . . . . . . . . |.1.. . . . . X ^.. ",
"2.3.4.5.- - - - - - &.x n 6.7.8.{ [.9.0.a.b.b.b.b.b.u c.. . . . . . . . . . d.1.e.. . . . f.^.g.",
"<.h.i.j.k.k.k.k.k.- - S I l.'.'.i.m.< n.o.p.p.p.p.p.} a.. . q.g r.. . . . . . 1.>.. . . . s.^.t.",
"u.l m.v.w.w.w.w.w.&.e v b.b.b.b.x.R y.z.F A.A.A.A.A.O B.. . C.D.E.. . . . . . 1.F.. . . . . ^.G.",
"a.H.I.J.K.K.K.K.K.x } L.M.M.M.M.N.O.P.}.Q.R.R.R.R.R.d u.. . . S.E.f.. . . . . T.F.. . . . . ^.U.",
"! V.W.X.Y.Y.Y.Y.Y.P P { Z.Z.Z.Z.`. +B..+' 0.0.0.0.0.{ ++. . . . @+#+. . . . . $+F.. . . . . ^.U.",
"!.%+&+*+=+=+=+=+=+m m , -+-+-+-+;+u.>+9 $ ~ ~ ~ ~ ~ h.,+. . . . '+#+. . . . . )+F.. . . . . ^.!+",
"~+&+.+{+]+]+]+]+]+^+^+/+P.P.P.P.P.(+_+:+<+[+[+[+[+[+E ,+. . . . '+#+. . . . . )+F.. . . . . ^.!+",
".+.+G }+|+|+|+|+|+1+1+[  + + + +;+2+3+9 $ %.%.%.%.%.).++. . . . @+#+. . . . . $+F.. . . . . ^.U.",
"4+] # 5+6+6+6+6+6+7+7+8+9+9+9+9+0+,+a+p > < < < < < b+u.. . . S.E.f.. . . . . T.F.. . . . . ^.U.",
"f G 4 c+d+d+d+d+d+A.e+f+f+f+f+f+f+n.c.g+% h+h+h+h+h+i+B.. . C.D.E.. . . . . . 1.F.. . . . . ^.G.",
"j+> k+l+m+m+m+m+m+R.Z.Z.Z.Z.Z.Z.`. +B..+' n+n+n+n+n+#.a.. . q.g r.. . . . . . 1.>.. . . . s.^.t.",
"N $ 5 o+p+p+p+p+p+q+q+q+q+q+q+q+< 9+2+~+r+^+^+^+^+^+{ c.. . . . . . . . . . d.1.e.. . . . f.^.g.",
". . . s+t+t+t+t+t+[ [ [ [ [ [ [ [ f+,+*.j+'.'.'.'.'.P }.. . . . . . . . . . |.1.. . . . . X ^.. ",
". . . u+t+t+t+t+t+M.M.M.M.M.M.M.M.`.n.}.Q.I I I I I S !.. . . . . . . . . ~.{.].. . . . . X ^.. ",
". . . % % % % % % | 9+p.p.p.p.p.v+< -+c.p d d d d d H *.. . . . . . . . =.V -.. . . . . ;.X >.. ",
". . . . . . . . . Q.> w+1+1+1+1+n+x+W.(+z O O O O O x T . . . . . . . U L V . . . . . . W X . . ",
". . . . . . . . . . G > q+b.b.b.b.h+%.z.F 7.7.7.7.7.n K . . . . . . . / L . . . . . . . C M . . ",
". . . . . . . . . . . $ y+N.z+z+^+A+8+++_+B+B+B+B+B+S F . . . . . . . / . . . . . . . B C . . . ",
". . . . . . . . . . . . s C+n+Q D+E+Z.F+>+G+G+G+G+G+d z . . . . . . . . . . . . . . A B C . . . ",
". . . . . . . . . . . . . j ' J '.m.< n.o.b+b+b+b+b+{ p . . . . . . . . . . . . . q i r . . . . ",
". . . . . . . . . . . . . . b | Q ^+I.-+}.l.l.l.l.l.i+f . . . . . . . . . . . . g h i . . . . . ",
". . . . . . . . . . . . . . . 4 f m M.%+H+, , , , , E 9 . . . . . . . . . . . 0 3 a . . . . . . ",
". . . . . . . . . . . . . . . . _ I+7 0+c.D+D+D+D+D+'.| . . . . . . . . . ^ 1 2 3 . . . . . . . ",
". . . . . . . . . . . . . . . . . ) ~+N.c.J+J+J+J+J+7 ] . . . . . . . . . ^ / ( . . . . . . . . ",
". . . . . . . . . . . . . . . . . . @ o.n.b.b.b.b.b.J ' . . . . . . . . . . . . . . . . . . . . ",
". . . . . . . . . . . . . . . . . . . K+F m.m.m.m.m.m.% . . . . . . . . . . . . . . . . . . . . ",
". . . . . . . . . . . . . . . . . . . . + L+# $ % % % % . . . . . . . . . . . . . . . . . . . . ",
". . . . . . . . . . . . . . . . . . . . . . . . . . . . . . . . . . . . . . . . . . . . . . . . ",
". . . . . . . . . . . . . . . . . . . . . . . . . . . . . . . . . . . . . . . . . . . . . . . . ",
". . . . . . . . . . . . . . . . . . . . . . . . . . . . . . . . . . . . . . . . . . . . . . . . "};
