/* XPM */
static char * plug_xpm[] = {
"48 48 324 2",
"  	c None",
". 	c #000000",
"+ 	c #747471",
"@ 	c #2E2F30",
"# 	c #1D1E21",
"$ 	c #2F3034",
"% 	c #76797A",
"& 	c #434445",
"* 	c #1D1D21",
"= 	c #17181C",
"- 	c #16171B",
"; 	c #2B2C30",
"> 	c #3F4046",
", 	c #545557",
"' 	c #26272A",
") 	c #131417",
"! 	c #131418",
"~ 	c #15161A",
"{ 	c #1A1C1F",
"] 	c #404147",
"^ 	c #686A6C",
"/ 	c #3E3F42",
"( 	c #1C1D20",
"_ 	c #16171C",
": 	c #121317",
"< 	c #1D1F23",
"[ 	c #222428",
"} 	c #4D4E4D",
"| 	c #212225",
"1 	c #17181D",
"2 	c #191A1E",
"3 	c #16181C",
"4 	c #1A1D20",
"5 	c #1D2024",
"6 	c #2A2C30",
"7 	c #616365",
"8 	c #2F3033",
"9 	c #18191C",
"0 	c #18191D",
"a 	c #1B1C20",
"b 	c #1D2023",
"c 	c #171A1D",
"d 	c #1E2024",
"e 	c #202124",
"f 	c #3C3E44",
"g 	c #717273",
"h 	c #414243",
"i 	c #1A1B1F",
"j 	c #1E2325",
"k 	c #232428",
"l 	c #545555",
"m 	c #242528",
"n 	c #17191C",
"o 	c #1B1E21",
"p 	c #1D2124",
"q 	c #1F2326",
"r 	c #1E2225",
"s 	c #1E2023",
"t 	c #3A3B40",
"u 	c #656668",
"v 	c #323437",
"w 	c #15171B",
"x 	c #17191D",
"y 	c #212327",
"z 	c #34353A",
"A 	c #727474",
"B 	c #454749",
"C 	c #1B1D20",
"D 	c #1C1F22",
"E 	c #1F2225",
"F 	c #212428",
"G 	c #24272B",
"H 	c #585A5C",
"I 	c #272A2C",
"J 	c #121316",
"K 	c #16181B",
"L 	c #151619",
"M 	c #1F2125",
"N 	c #202226",
"O 	c #202427",
"P 	c #222427",
"Q 	c #363A3C",
"R 	c #616262",
"S 	c #3F4042",
"T 	c #141519",
"U 	c #131519",
"V 	c #141619",
"W 	c #202326",
"X 	c #292B2E",
"Y 	c #515352",
"Z 	c #27282A",
"` 	c #181A1E",
" .	c #171A1E",
"..	c #212427",
"+.	c #23272A",
"@.	c #3A3D42",
"#.	c #5B5C5C",
"$.	c #323435",
"%.	c #15171A",
"&.	c #191B1F",
"*.	c #191C1F",
"=.	c #1A1C20",
"-.	c #313436",
";.	c #5A5A59",
">.	c #3B3C3C",
",.	c #161618",
"'.	c #0E1012",
").	c #131518",
"!.	c #16191C",
"~.	c #181B1E",
"{.	c #1C1D21",
"].	c #26282C",
"^.	c #4E4D4D",
"/.	c #2A2B2E",
"(.	c #161719",
"_.	c #101113",
":.	c #111214",
"<.	c #0F1214",
"[.	c #1F2226",
"}.	c #1E1F23",
"|.	c #1D1E22",
"1.	c #37373B",
"2.	c #4B4A4A",
"3.	c #2A2C2E",
"4.	c #191A1C",
"5.	c #181A1B",
"6.	c #161718",
"7.	c #0D0E10",
"8.	c #0A0B0C",
"9.	c #14171A",
"0.	c #1E2124",
"a.	c #2B2D30",
"b.	c #4B4948",
"c.	c #50504E",
"d.	c #5B5A52",
"e.	c #36342D",
"f.	c #191815",
"g.	c #121313",
"h.	c #0F1012",
"i.	c #0F1013",
"j.	c #191B1E",
"k.	c #212226",
"l.	c #232529",
"m.	c #B9B8B2",
"n.	c #B5B2A7",
"o.	c #7F7B70",
"p.	c #5A564A",
"q.	c #2A2821",
"r.	c #17181B",
"s.	c #151719",
"t.	c #2C2E32",
"u.	c #E8E8E2",
"v.	c #DDDBD2",
"w.	c #AAA89E",
"x.	c #A6A499",
"y.	c #AEA999",
"z.	c #656052",
"A.	c #292823",
"B.	c #222325",
"C.	c #222326",
"D.	c #2E2F31",
"E.	c #DEDBD4",
"F.	c #B8B4AB",
"G.	c #9D9A90",
"H.	c #B4B0A4",
"I.	c #B8B3A6",
"J.	c #A6A092",
"K.	c #54524A",
"L.	c #2B2C2D",
"M.	c #434447",
"N.	c #DFDDD6",
"O.	c #C8C4BB",
"P.	c #9C998F",
"Q.	c #ABA79D",
"R.	c #B6B2A6",
"S.	c #BAB7AB",
"T.	c #BCB7AE",
"U.	c #676762",
"V.	c #404140",
"W.	c #DDDDD6",
"X.	c #D3D1C7",
"Y.	c #A4A298",
"Z.	c #A09E94",
"`.	c #B9B6AA",
" +	c #B2AFA3",
".+	c #C8C7BC",
"++	c #CAC7C0",
"@+	c #D8D7CE",
"#+	c #99978E",
"$+	c #B4B1A7",
"%+	c #B3B0A4",
"&+	c #BDBBB0",
"*+	c #D3D1C8",
"=+	c #DBD9D2",
"-+	c #C6C3B9",
";+	c #98968D",
">+	c #A9A69C",
",+	c #B9B6AB",
"'+	c #B5B2A8",
")+	c #CDCAC2",
"!+	c #DAD9D3",
"~+	c #D2CEC5",
"{+	c #A29F96",
"]+	c #9E9B92",
"^+	c #BEB9B0",
"/+	c #B1AEA5",
"(+	c #C4C2B9",
"_+	c #D6D5CD",
":+	c #D6D4CC",
"<+	c #B4B1A6",
"[+	c #95928A",
"}+	c #B6B3A9",
"|+	c #BBB8AF",
"1+	c #D0CFC7",
"2+	c #D9D6D0",
"3+	c #C7C4BB",
"4+	c #97948D",
"5+	c #A8A49D",
"6+	c #BDB9AF",
"7+	c #B3B0A8",
"8+	c #CBC8C0",
"9+	c #D8D7D2",
"0+	c #D1CEC7",
"a+	c #A29F97",
"b+	c #9A978F",
"c+	c #C2BFB6",
"d+	c #B0ADA5",
"e+	c #C1BFB8",
"f+	c #D4D4CD",
"g+	c #D8D5CE",
"h+	c #B7B3AB",
"i+	c #939088",
"j+	c #B9B5AB",
"k+	c #B6B2A9",
"l+	c #B8B6AF",
"m+	c #D1CFC8",
"n+	c #D9D8D2",
"o+	c #CAC5BD",
"p+	c #949089",
"q+	c #A5A29A",
"r+	c #C3BDB4",
"s+	c #B1AEA7",
"t+	c #CAC9C1",
"u+	c #D8D7D3",
"v+	c #95928B",
"w+	c #C6C2B8",
"x+	c #AEABA3",
"y+	c #C0BDB6",
"z+	c #D5D4CC",
"A+	c #D7D5CF",
"B+	c #B7B4AB",
"C+	c #8C8880",
"D+	c #B9B3AA",
"E+	c #B6B1A6",
"F+	c #B4B2AA",
"G+	c #D2D0CA",
"H+	c #DFE0D9",
"I+	c #CECAC0",
"J+	c #8C8A81",
"K+	c #9F9B92",
"L+	c #C6BFB3",
"M+	c #ACAA9F",
"N+	c #C9C7BF",
"O+	c #585756",
"P+	c #38393D",
"Q+	c #585858",
"R+	c #84827B",
"S+	c #CCC6BA",
"T+	c #AAA69B",
"U+	c #BCBAB0",
"V+	c #D6D4CE",
"W+	c #85827A",
"X+	c #524E48",
"Y+	c #181818",
"Z+	c #26282A",
"`+	c #818280",
" @	c #B9B7AF",
".@	c #D3D0C8",
"+@	c #CCCBC1",
"@@	c #BAB6A9",
"#@	c #918B7D",
"$@	c #7F796D",
"%@	c #504741",
"&@	c #242529",
"*@	c #8D9091",
"=@	c #E3E2DB",
"-@	c #AEABA0",
";@	c #ADA293",
">@	c #918473",
",@	c #9F9789",
"'@	c #59544D",
")@	c #3F4146",
"!@	c #D1CFC9",
"~@	c #CBC7BD",
"{@	c #AFA79B",
"]@	c #979083",
"^@	c #9E9686",
"/@	c #B0A89A",
"(@	c #C1BCB0",
"_@	c #D0CFC6",
":@	c #ACA99F",
"<@	c #A49E92",
"[@	c #9C958B",
"}@	c #958B7E",
"|@	c #AFABA1",
"1@	c #D4D1C6",
"2@	c #D3D1C9",
"3@	c #D1CEC4",
"4@	c #A6A195",
"5@	c #C4BEB1",
"6@	c #93897D",
"7@	c #B5AFA2",
"8@	c #B8B6AB",
"9@	c #A6A094",
"0@	c #C0B6A7",
"a@	c #5F594F",
"b@	c #98948C",
"c@	c #CCCAC2",
"d@	c #B5AEA0",
"e@	c #81796C",
"f@	c #A9A397",
"g@	c #D0CCC0",
"h@	c #B5AC9C",
"i@	c #BBB8AA",
". . . . . . . . . . . . . . . . . . . . . . . . . . . . . . . . . . . . . . . . . . . . . . . . ",
". . . . . . . . . . . . . . . . . . . . . . . . . . . . . . . . . . . . . . . . . . . . . . . . ",
". . . . . . . . . . . . . . . . . . . . . . . . . . . . . + @ # $ . . . . . . . . . . . . . . . ",
". . . . . . . . . . . . . . . . . . . . . . . . . . . . % & * = - - ; > . . . . . . . . . . . . ",
". . . . . . . . . . . . . . . . . . . . . . . . . . . . , ' ) ! ~ - ~ { ] . . . . . . . . . . . ",
". . . . . . . . . . . . . . . . . . . . . . . . . . . ^ / ( _ ~ : ! ~ < [ . . . . . . . . . . . ",
". . . . . . . . . . . . . . . . . . . . . . . . . . . } | 1 2 2 - - 3 4 5 6 . . . . . . . . . . ",
". . . . . . . . . . . . . . . . . . . . . . . . . . 7 8 9 0 = = = a b c d e f . . . . . . . . . ",
". . . . . . . . . . . . . . . . . . . . . . . . . g h i 1 = = = = b j < { k . . . . . . . . . . ",
". . . . . . . . . . . . . . . . . . . . . . . . . l m - 0 n = _ o p q r s t . . . . . . . . . . ",
". . . . . . . . . . . . . . . . . . . . . . . . u v ~ = - w w x p r y q z . . . . . . . . . . . ",
". . . . . . . . . . . . . . . . . . . . . . . A B C - = - w - D E q F G . . . . . . . . . . . . ",
". . . . . . . . . . . . . . . . . . . . . . . H I J - K w L { M N O P Q . . . . . . . . . . . . ",
". . . . . . . . . . . . . . . . . . . . . . R S # T U V ~ 3 p W W y X . . . . . . . . . . . . . ",
". . . . . . . . . . . . . . . . . . . . . . Y Z = ` n L T  .r W ..+.@.. . . . . . . . . . . . . ",
". . . . . . . . . . . . . . . . . . . . . #.$.%.` &.&.c *.=.o E O -.. . . . . . . . . . . . . . ",
". . . . . . . . . . . . . . . . . . . . ;.>.,.'.).!.~.~.b r { {.].. . . . . . . . . . . . . . . ",
". . . . . . . . . . . . . . . . . . . . ^./.(._.:.<.).4 E [.}.|.1.. . . . . . . . . . . . . . . ",
". . . . . . . . . . . . . . . . . . . . 2.3.4.5.6.7.8.9.0.y N a.. . . . . . . . . . . . . . . . ",
". . . . . . . . . . . . . . . . . . . . b.c.d.e.f.g.h.i.j.k.l.. . . . . . . . . . . . . . . . . ",
". . . . . . . . . . . . . . . . . . . . . m.n.o.p.q.6.r.s.( t.. . . . . . . . . . . . . . . . . ",
". . . . . . . . . . . . . . . . . . . . u.v.w.x.y.z.A.B.C.D.. . . . . . . . . . . . . . . . . . ",
". . . . . . . . . . . . . . . . . . . . E.F.G.H.I.J.K.L.M.. . . . . . . . . . . . . . . . . . . ",
". . . . . . . . . . . . . . . . . . . N.O.P.Q.R.S.T.U.V.. . . . . . . . . . . . . . . . . . . . ",
". . . . . . . . . . . . . . . . . . W.X.Y.Z.`. +.+++. . . . . . . . . . . . . . . . . . . . . . ",
". . . . . . . . . . . . . . . . . . @+n.#+$+%+&+*+. . . . . . . . . . . . . . . . . . . . . . . ",
". . . . . . . . . . . . . . . . . =+-+;+>+,+'+)+. . . . . . . . . . . . . . . . . . . . . . . . ",
". . . . . . . . . . . . . . . . !+~+{+]+^+/+(+_+. . . . . . . . . . . . . . . . . . . . . . . . ",
". . . . . . . . . . . . . . . . :+<+[+}+$+|+1+. . . . . . . . . . . . . . . . . . . . . . . . . ",
". . . . . . . . . . . . . . . 2+3+4+5+6+7+8+. . . . . . . . . . . . . . . . . . . . . . . . . . ",
". . . . . . . . . . . . . . 9+0+a+b+c+d+e+f+. . . . . . . . . . . . . . . . . . . . . . . . . . ",
". . . . . . . . . . . . . . g+h+i+j+k+l+m+. . . . . . . . . . . . . . . . . . . . . . . . . . . ",
". . . . . . . . . . . . . n+o+p+q+r+s+t+. . . . . . . . . . . . . . . . . . . . . . . . . . . . ",
". . . . . . . . . . . . u+*+a+v+w+x+y+z+. . . . . . . . . . . . . . . . . . . . . . . . . . . . ",
". . . . . . . . . . . . A+B+C+D+E+F+G+. . . . . . . . . . . . . . . . . . . . . . . . . . . . . ",
". . . . . . . . . . . H+I+J+K+L+M+N+. . . . . . . . . . . . . . . . . . . . . . . . . . . . . . ",
". . . . . . . . . . O+P+Q+R+S+T+U+V+. . . . . . . . . . . . . . . . . . . . . . . . . . . . . . ",
". . . . . . . . . . W+X+Y+Z+`+ @.@. . . . . . . . . . . . . . . . . . . . . . . . . . . . . . . ",
". . . . . . . . . +@@@#@$@%@&@*@=@. . . . . . . . . . . . . . . . . . . . . . . . . . . . . . . ",
". . . . . . . . . . -@;@>@,@'@)@. . . . . . . . . . . . . . . . . . . . . . . . . . . . . . . . ",
". . . . . . . . !@~@{@]@^@/@(@. . . . . . . . . . . . . . . . . . . . . . . . . . . . . . . . . ",
". . . . . . . _@:@<@[@}@|@1@2@. . . . . . . . . . . . . . . . . . . . . . . . . . . . . . . . . ",
". . . . . . . 3@4@5@6@7@8@. . . . . . . . . . . . . . . . . . . . . . . . . . . . . . . . . . . ",
". . . . . . . . 9@0@a@b@c@. . . . . . . . . . . . . . . . . . . . . . . . . . . . . . . . . . . ",
". . . . . . . . d@e@f@g@G+. . . . . . . . . . . . . . . . . . . . . . . . . . . . . . . . . . . ",
". . . . . . . . h@i@. . . . . . . . . . . . . . . . . . . . . . . . . . . . . . . . . . . . . . ",
". . . . . . . . . . . . . . . . . . . . . . . . . . . . . . . . . . . . . . . . . . . . . . . . ",
". . . . . . . . . . . . . . . . . . . . . . . . . . . . . . . . . . . . . . . . . . . . . . . . "};
