/* XPM */
static char * repeat_xpm[] = {
"48 48 445 2",
"  	c None",
". 	c #000000",
"+ 	c #215CB9",
"@ 	c #205DBB",
"# 	c #205CBA",
"$ 	c #1F58B9",
"% 	c #225FBC",
"& 	c #437ED0",
"* 	c #65A0E3",
"= 	c #80B8EF",
"- 	c #95C9F6",
"; 	c #A5D4FB",
"> 	c #ADDAFE",
", 	c #7FB7EF",
"' 	c #64A0E3",
") 	c #427ED0",
"! 	c #215EBB",
"~ 	c #3371C7",
"{ 	c #6AA5E7",
"] 	c #9CCEF9",
"^ 	c #9FD4FF",
"/ 	c #8CCCFE",
"( 	c #7CC4FF",
"_ 	c #71BFFE",
": 	c #68BBFE",
"< 	c #65BAFE",
"[ 	c #9FD5FF",
"} 	c #9CCEFA",
"| 	c #326FC5",
"1 	c #2C69C3",
"2 	c #70ACE9",
"3 	c #A2D5FE",
"4 	c #89CAFE",
"5 	c #6DBDFE",
"6 	c #62B8FE",
"7 	c #6EBDFE",
"8 	c #A1D5FD",
"9 	c #6FABEA",
"0 	c #2E6CC5",
"a 	c #174FB2",
"b 	c #508DD9",
"c 	c #9ACEFA",
"d 	c #87C8FD",
"e 	c #66B8FD",
"f 	c #61B6FD",
"g 	c #88C8FD",
"h 	c #99CDFA",
"i 	c #4F8DD8",
"j 	c #1A51B2",
"k 	c #215ABB",
"l 	c #6DA9E8",
"m 	c #98D0FE",
"n 	c #6DBBFD",
"o 	c #60B5FD",
"p 	c #6BA8E8",
"q 	c #2159BA",
"r 	c #235EBC",
"s 	c #77B2EF",
"t 	c #8AC9FD",
"u 	c #61B6FC",
"v 	c #5EB4FC",
"w 	c #8BC9FD",
"x 	c #77B2EE",
"y 	c #225EBD",
"z 	c #215AB8",
"A 	c #75B0EE",
"B 	c #84C6FC",
"C 	c #5EB4FB",
"D 	c #5DB3FB",
"E 	c #5CB2FA",
"F 	c #75BEFB",
"G 	c #85C6FC",
"H 	c #74B0EE",
"I 	c #1F59B9",
"J 	c #1850B3",
"K 	c #66A5E7",
"L 	c #5CB2FB",
"M 	c #58ACF6",
"N 	c #FCFDFF",
"O 	c #B8DCFB",
"P 	c #63B5FA",
"Q 	c #65A4E8",
"R 	c #1851B0",
"S 	c #4989D7",
"T 	c #8AC7FB",
"U 	c #5EB1FA",
"V 	c #5BB0FA",
"W 	c #56A9F5",
"X 	c #FFFFFF",
"Y 	c #EEF6FE",
"Z 	c #97CBFA",
"` 	c #5EB2FA",
" .	c #4988D9",
"..	c #2966C1",
"+.	c #86C1F7",
"@.	c #64B4FA",
"#.	c #5AAFF9",
"$.	c #55A8F4",
"%.	c #D5EAFD",
"&.	c #75BAF8",
"*.	c #85C1F7",
"=.	c #2864C1",
"-.	c #5EA0E6",
";.	c #75BCFA",
">.	c #59AEF9",
",.	c #5FB1F9",
"'.	c #93CAFA",
").	c #C7E3FC",
"!.	c #E4F1FD",
"~.	c #F7FBFE",
"{.	c #FBFDFF",
"].	c #B0D7FA",
"^.	c #5FB1F8",
"/.	c #75BBFA",
"(.	c #2A6AC3",
"_.	c #81C2F9",
":.	c #5AAFF8",
"<.	c #57ADF8",
"[.	c #96CCFA",
"}.	c #ECF5FD",
"|.	c #EBF5FD",
"1.	c #77BAF7",
"2.	c #5BAFF8",
"3.	c #81C1F8",
"4.	c #2B68C3",
"5.	c #5497E1",
"6.	c #6FB7F9",
"7.	c #56ABF8",
"8.	c #5BACF8",
"9.	c #BFDEFB",
"0.	c #F1F7FD",
"a.	c #98C3F2",
"b.	c #50A2F1",
"c.	c #54A8F6",
"d.	c #6FB8F9",
"e.	c #5496E2",
"f.	c #1D59B9",
"g.	c #73B5F2",
"h.	c #5CADF7",
"i.	c #55AAF7",
"j.	c #55A9F6",
"k.	c #C8E2FB",
"l.	c #EEF5FC",
"m.	c #B8D6F5",
"n.	c #A0C8F3",
"o.	c #AFD0F4",
"p.	c #5099E9",
"q.	c #4B9CED",
"r.	c #51A4F3",
"s.	c #74B4F3",
"t.	c #1D56B8",
"u.	c #3374CB",
"v.	c #74B8F7",
"w.	c #54A9F6",
"x.	c #54A8F5",
"y.	c #A5D1F9",
"z.	c #F7FAFE",
"A.	c #93C0F0",
"B.	c #4994E7",
"C.	c #4897E9",
"D.	c #4A9AEB",
"E.	c #D4E6F9",
"F.	c #67A5EA",
"G.	c #4999EA",
"H.	c #4FA2F1",
"I.	c #52A5F3",
"J.	c #74B9F7",
"K.	c #3273CA",
"L.	c #498DDD",
"M.	c #67B2F7",
"N.	c #53A8F6",
"O.	c #63AEF5",
"P.	c #F8FBFE",
"Q.	c #F3F8FD",
"R.	c #67A6EA",
"S.	c #4A9BED",
"T.	c #4FA1F1",
"U.	c #50A3F2",
"V.	c #4FA2F2",
"W.	c #89B9EF",
"X.	c #4794E7",
"Y.	c #4D9EEF",
"Z.	c #52A7F5",
"`.	c #498CDD",
" +	c #589FE9",
".+	c #5DADF6",
"++	c #51A6F4",
"@+	c #B0D4F8",
"#+	c #7DB2EC",
"$+	c #4C9DEE",
"%+	c #4FA3F2",
"&+	c #4EA1F1",
"*+	c #AFD0F3",
"=+	c #4F97E7",
"-+	c #4A9BEC",
";+	c #51A5F4",
">+	c #579DE8",
",+	c #1A55B5",
"'+	c #61A7EE",
")+	c #56A8F4",
"!+	c #E7F1FC",
"~+	c #D1E4F8",
"{+	c #4999EC",
"]+	c #4D9FF0",
"^+	c #4695E8",
"/+	c #4C9EEF",
"(+	c #1A53B6",
"_+	c #1A55B6",
":+	c #64ADF3",
"<+	c #4FA4F4",
"[+	c #61AAF2",
"}+	c #8EBDF0",
"|+	c #4C9FF1",
"1+	c #4DA0F1",
"2+	c #4CA0F0",
"3+	c #4EA3F3",
"4+	c #64ACF2",
"5+	c #1A55B7",
"6+	c #64AEF4",
"7+	c #4FA3F3",
"8+	c #4DA2F2",
"9+	c #71B1F1",
"0+	c #6CACEE",
"a+	c #63ADF3",
"b+	c #1A55B8",
"c+	c #61ACF4",
"d+	c #4EA2F3",
"e+	c #4DA2F3",
"f+	c #4CA1F2",
"g+	c #79B3F1",
"h+	c #65A9F0",
"i+	c #60AAF2",
"j+	c #C3DFFA",
"k+	c #6BAEF2",
"l+	c #4DA1F2",
"m+	c #5FABF3",
"n+	c #1A54B6",
"o+	c #5CA6F1",
"p+	c #4CA0F2",
"q+	c #4B9FF0",
"r+	c #67A9EE",
"s+	c #77B2F1",
"t+	c #4B9FF1",
"u+	c #78B4F2",
"v+	c #68A9EE",
"w+	c #4EA1F2",
"x+	c #5BA5F1",
"y+	c #1954B7",
"z+	c #1952B4",
"A+	c #549EEB",
"B+	c #4A9EF0",
"C+	c #509CEB",
"D+	c #FCFDFE",
"E+	c #A6CCF5",
"F+	c #4A9EEF",
"G+	c #A8CDF5",
"H+	c #FBFDFE",
"I+	c #4F9CEB",
"J+	c #549DEB",
"K+	c #1951B6",
"L+	c #4A93E5",
"M+	c #50A1F2",
"N+	c #4A9EF1",
"O+	c #4A9DF1",
"P+	c #4597EC",
"Q+	c #CFE2F8",
"R+	c #EFF5FD",
"S+	c #519FF0",
"T+	c #CCE0F7",
"U+	c #51A2F2",
"V+	c #4A92E4",
"W+	c #3C83D9",
"X+	c #53A3F1",
"Y+	c #489DF0",
"Z+	c #4599ED",
"`+	c #87B8EE",
" @	c #B4D5F7",
".@	c #479CEF",
"+@	c #B7D6F7",
"@@	c #86B7EE",
"#@	c #3B82D9",
"$@	c #296AC6",
"%@	c #57A4F1",
"&@	c #479BEF",
"*@	c #4598ED",
"=@	c #4291E7",
"-@	c #DEEBF9",
";@	c #ABD0F6",
">@	c #499BEF",
",@	c #ADD1F6",
"'@	c #DEEBFA",
")@	c #4291E6",
"!@	c #2869C6",
"~@	c #1752B6",
"{@	c #519DED",
"]@	c #4A9CEF",
"^@	c #469AEF",
"/@	c #4699EE",
"(@	c #4395EB",
"_@	c #65A1E7",
":@	c #F9FBFE",
"<@	c #DCECFC",
"[@	c #83BAF3",
"}@	c #4D9DF0",
"|@	c #4E9DF0",
"1@	c #DDECFC",
"2@	c #64A1E7",
"3@	c #499CEF",
"4@	c #519DEC",
"5@	c #1750B6",
"6@	c #3C83DA",
"7@	c #4F9FEF",
"8@	c #4599EE",
"9@	c #4497EC",
"0@	c #4090E8",
"a@	c #7CAEEA",
"b@	c #FBFCFE",
"c@	c #E9F2FC",
"d@	c #7BAEEA",
"e@	c #3C82DA",
"f@	c #1F5EBD",
"g@	c #53A0EF",
"h@	c #4498EE",
"i@	c #4295EC",
"j@	c #3E8DE6",
"k@	c #69A2E7",
"l@	c #EEF4FC",
"m@	c #4294EC",
"n@	c #53A0EE",
"o@	c #205DBF",
"p@	c #3C86DC",
"q@	c #4D9CEE",
"r@	c #4397ED",
"s@	c #4194EA",
"t@	c #3D8EE6",
"u@	c #438BE1",
"v@	c #A1C5EF",
"w@	c #F2F7FD",
"x@	c #9FC4EF",
"y@	c #3E8FE7",
"z@	c #4D9DEE",
"A@	c #3C86DB",
"B@	c #1D58BB",
"C@	c #4E98EB",
"D@	c #4092EA",
"E@	c #3A88E2",
"F@	c #3984DF",
"G@	c #6AA2E6",
"H@	c #90B9ED",
"I@	c #A7C8F0",
"J@	c #A6C7F0",
"K@	c #4093EB",
"L@	c #4697EC",
"M@	c #4E99EB",
"N@	c #2E72CF",
"O@	c #4E9CEE",
"P@	c #4194EC",
"Q@	c #4094EC",
"R@	c #3E90EA",
"S@	c #3D8EE7",
"T@	c #3B8BE5",
"U@	c #3988E2",
"V@	c #3887E2",
"W@	c #2C71CE",
"X@	c #0F47AD",
"Y@	c #3881DA",
"Z@	c #4A99EC",
"`@	c #3F93EB",
" #	c #3E92E9",
".#	c #3E91EA",
"+#	c #3D90E9",
"@#	c #3882DB",
"##	c #1148AE",
"$#	c #144EB1",
"%#	c #3E89DF",
"&#	c #4898EB",
"*#	c #3F92EA",
"=#	c #3E92EA",
"-#	c #3D91E9",
";#	c #4998EB",
">#	c #3E88DE",
",#	c #154EB4",
"'#	c #1750B4",
")#	c #4089E0",
"!#	c #4B98EC",
"~#	c #3F91EA",
"{#	c #3C8FE9",
"]#	c #3D90EA",
"^#	c #4088DF",
"/#	c #1950AF",
"(#	c #4F99EA",
"_#	c #4191E9",
":#	c #3B8EE8",
"<#	c #3C8FE8",
"[#	c #509AEB",
"}#	c #3A82D9",
"|#	c #194FAD",
"1#	c #1E4C9F",
"2#	c #2D6FCA",
"3#	c #5097E8",
"4#	c #4B96EB",
"5#	c #3D8FE9",
"6#	c #4B97EB",
"7#	c #4F96E8",
"8#	c #2D70CB",
"9#	c #1F4DA1",
"0#	c #2F4E8C",
"a#	c #2158B1",
"b#	c #3B81D8",
"c#	c #559CEA",
"d#	c #4A97E9",
"e#	c #3E90E8",
"f#	c #398DE7",
"g#	c #398CE6",
"h#	c #3A80D7",
"i#	c #2159B3",
"j#	c #30518E",
"k#	c #2B5095",
"l#	c #245BB3",
"m#	c #397CD5",
"n#	c #5196E5",
"o#	c #549CEA",
"p#	c #4B96E8",
"q#	c #4492E8",
"r#	c #3A8CE6",
"s#	c #398BE6",
"t#	c #245BB4",
"u#	c #334F8A",
"v#	c #2251A6",
"w#	c #2963BB",
"x#	c #3779D1",
"y#	c #4388DC",
"z#	c #4E92E3",
"A#	c #579AE8",
"B#	c #5B9FEA",
"C#	c #3678D1",
"D#	c #2962BB",
"E#	c #2250A6",
"F#	c #33518B",
"G#	c #384F83",
"H#	c #2C5295",
"I#	c #2450A1",
"J#	c #2151A6",
"K#	c #1D50A7",
"L#	c #385084",
". . . . . . . . . . . . . . . . . . . . . . . . . . . . . . . . . . . . . . . . . . . . . . . . ",
". . . . . . . . . . . . . . . . . . . . . . . . . . . . . . . . . . . . . . . . . . . . . . . . ",
". . . . . . . . . . . . . . . . . . . . . . . . . . . . . . . . . . . . . . . . . . . . . . . . ",
". . . . . . . . . . . . . . . . . . . . . + @ # # @ $ . . . . . . . . . . . . . . . . . . . . . ",
". . . . . . . . . . . . . . . . . % & * = - ; > > ; - , ' ) ! . . . . . . . . . . . . . . . . . ",
". . . . . . . . . . . . . . . ~ { ] ^ / ( _ : < < : _ ( / [ } { | . . . . . . . . . . . . . . . ",
". . . . . . . . . . . . . 1 2 3 4 5 6 6 6 6 6 6 6 6 6 6 6 6 7 4 8 9 0 . . . . . . . . . . . . . ",
". . . . . . . . . . . a b c d e f f f f f f f f f f f f f f f f e g h i j . . . . . . . . . . . ",
". . . . . . . . . . k l m n o o o o o o o o o o o o o o o o o o o o n m p q . . . . . . . . . . ",
". . . . . . . . . r s t u v v v v v v v v v v v v v v v v v v v v v v u w x y . . . . . . . . . ",
". . . . . . . . z A B C D D D D D D D D D D D E F D D D D D D D D D D D C G H I . . . . . . . . ",
". . . . . . . J K G D L L L L L L L L L L L L M N O P L L L L L L L L L L D G Q R . . . . . . . ",
". . . . . . . S T U V V V V V V V V V V V V V W X X Y Z V V V V V V V V V V ` T  .. . . . . . . ",
". . . . . . ..+.@.#.#.#.#.#.#.#.#.#.#.#.#.#.#.$.X X X X %.&.#.#.#.#.#.#.#.#.#.@.*.=.. . . . . . ",
". . . . . . -.;.>.>.>.>.>.>.>.>.>.>.>.,.'.).!.~.X X X X X {.].^.>.>.>.>.>.>.>.>./.-.. . . . . . ",
". . . . . (._.:.<.<.<.<.<.<.<.<.<.<.[.}.X X X X X X X X X X X |.1.<.<.<.<.<.<.<.2.3.4.. . . . . ",
". . . . . 5.6.7.7.7.7.7.7.7.7.7.8.9.X X X X X X X X X X X X 0.a.b.c.7.7.7.7.7.7.7.d.e.. . . . . ",
". . . . f.g.h.i.i.i.i.i.i.i.i.j.k.X X X X l.m.n.X X X X N o.p.q.r.c.i.i.i.i.i.i.i.h.s.t.. . . . ",
". . . . u.v.w.w.w.w.w.w.w.w.x.y.X X X z.A.B.C.D.X X X E.F.G.H.I.x.w.w.w.w.w.w.w.w.w.J.K.. . . . ",
". . . . L.M.N.N.N.N.N.N.N.N.O.P.X X Q.R.S.T.U.V.X l.W.X.Y.U.Z.N.N.N.N.N.N.N.N.N.N.N.M.`.. . . . ",
". . . .  +.+Z.Z.Z.Z.Z.Z.Z.++@+X X X #+$+%+++Z.&+*+=+-+&+;+Z.Z.Z.Z.Z.Z.Z.Z.Z.Z.Z.Z.Z..+>+. . . . ",
". . . ,+'+)+;+;+;+;+;+;+;+&+!+X X ~+{+&+;+;+;+]+^+/+H.r.;+;+;+;+;+;+;+;+;+;+;+;+;+;+)+'+(+. . . ",
". . . _+:+;+<+<+<+<+<+<+<+[+X X X }+|+<+<+<+<+1+2+3+<+<+<+<+<+<+<+<+<+<+<+<+<+<+<+<+;+4+_+. . . ",
". . . 5+6+7+3+3+3+3+3+3+8+9+X X X 0+2+3+3+3+3+3+3+3+3+3+3+3+3+3+3+3+3+3+3+3+3+3+3+3+7+a+b+. . . ",
". . . 5+c+d+e+e+e+e+e+e+f+g+X X X h+f+e+e+e+e+e+e+e+e+e+e+e+i+j+j+j+k+l+e+e+e+e+e+e+d+m+b+. . . ",
". . . n+o+l+p+p+p+p+p+p+q+r+X X X s+t+p+p+p+p+p+p+p+p+p+p+t+u+X X X v+q+p+p+p+p+p+p+w+x+y+. . . ",
". . . z+A+T.t+t+t+t+t+t+B+C+D+X X E+F+t+t+t+t+t+t+t+t+t+t+F+G+X X H+I+B+t+t+t+t+t+t+T.J+K+. . . ",
". . . . L+M+N+N+N+N+N+N+O+P+Q+X X R+S+N+N+N+N+N+N+N+N+N+N+S+l.X X T+P+O+N+N+N+N+N+N+U+V+. . . . ",
". . . . W+X+Y+Y+Y+Y+Y+Y+Y+Z+`+X X X  @.@Y+Y+Y+Y+Y+Y+Y+Y+.@+@X X X @@Z+Y+Y+Y+Y+Y+Y+Y+X+#@. . . . ",
". . . . $@%@&@&@&@&@&@&@&@*@=@-@X X X ;@>@&@&@&@&@&@&@>@,@X X X '@)@*@&@&@&@&@&@&@&@%@!@. . . . ",
". . . . ~@{@]@^@^@^@^@^@^@/@(@_@:@X X X <@[@}@^@^@|@[@1@X X X P.2@(@/@^@^@^@^@^@^@3@4@5@. . . . ",
". . . . . 6@7@8@8@8@8@8@8@8@9@0@a@H+X X X X b@c@c@{.X X X X H+d@0@9@8@8@8@8@8@8@8@7@e@. . . . . ",
". . . . . f@g@8@h@h@h@h@h@h@h@i@j@k@l.X X X X X X X X X X l@k@j@m@h@h@h@h@h@h@h@8@n@o@. . . . . ",
". . . . . . p@q@r@r@r@r@r@r@r@r@s@t@u@v@w@X X X X X X w@x@u@y@s@r@r@r@r@r@r@r@r@z@A@. . . . . . ",
". . . . . . B@C@P+i@i@i@i@i@i@i@i@D@y@E@F@G@H@I@J@H@G@F@E@y@K@i@i@i@i@i@i@i@i@L@M@B@. . . . . . ",
". . . . . . . N@O@P@Q@Q@Q@Q@Q@Q@Q@Q@K@R@S@T@U@V@V@U@T@S@R@K@Q@Q@Q@Q@Q@Q@Q@Q@P@O@W@. . . . . . . ",
". . . . . . . X@Y@Z@K@`@`@`@`@`@`@`@`@`@`@ #.#+#+#.# #`@`@`@`@`@`@`@`@`@`@K@Z@@###. . . . . . . ",
". . . . . . . . $#%#&#*#=#=#=#=#=#-#-#-#-#-#-#-#-#-#-#-#-#-#-#=#=#=#=#=#*#;#>#,#. . . . . . . . ",
". . . . . . . . . '#)#!#~#{#{#{#{#{#{#{#]#]#]#]#]#]#]#]#{#{#{#{#{#{#{#~#!#^#'#. . . . . . . . . ",
". . . . . . . . . . /##@(#_#:#:#{#{#<#<#<#<#<#<#<#<#<#<#<#<#{#{#:#:#_#[#}#|#. . . . . . . . . . ",
". . . . . . . . . . . 1#2#3#4#5#:#:#:#:#:#:#:#:#:#:#:#:#:#:#:#:#5#6#7#8#9#. . . . . . . . . . . ",
". . . . . . . . . . . . 0#a#b#c#d#e#f#f#f#g#g#g#g#g#g#f#f#f#e#d#c#h#i#j#. . . . . . . . . . . . ",
". . . . . . . . . . . . . . k#l#m#n#o#p#q#y@r#s#s#r#y@q#p#o#n#m#t#k#. . . . . . . . . . . . . . ",
". . . . . . . . . . . . . . . . u#v#w#x#y#z#A#B#B#A#z#y#C#D#E#F#. . . . . . . . . . . . . . . . ",
". . . . . . . . . . . . . . . . . . . G#H#I#J#K#K#J#I#H#L#. . . . . . . . . . . . . . . . . . . ",
". . . . . . . . . . . . . . . . . . . . . . . . . . . . . . . . . . . . . . . . . . . . . . . . ",
". . . . . . . . . . . . . . . . . . . . . . . . . . . . . . . . . . . . . . . . . . . . . . . . ",
". . . . . . . . . . . . . . . . . . . . . . . . . . . . . . . . . . . . . . . . . . . . . . . . "};
