/* XPM */
static char * speaker_xpm[] = {
"48 48 412 2",
"  	c None",
". 	c #000000",
"+ 	c #474747",
"@ 	c #4A4A4A",
"# 	c #4B4B4B",
"$ 	c #4C4C4C",
"% 	c #808080",
"& 	c #B4B4B4",
"* 	c #D3D3D3",
"= 	c #E2E2E2",
"- 	c #E9E9E9",
"; 	c #EFEFEF",
"> 	c #E1E1E1",
", 	c #D4D4D4",
"' 	c #B5B5B5",
") 	c #7E7E7E",
"! 	c #696969",
"~ 	c #BEBEBE",
"{ 	c #F0F0F0",
"] 	c #ECECEC",
"^ 	c #E8E8E8",
"/ 	c #E6E6E6",
"( 	c #E5E5E5",
"_ 	c #E7E7E7",
": 	c #BBBBBB",
"< 	c #646464",
"[ 	c #545454",
"} 	c #636363",
"| 	c #CACACA",
"1 	c #F1F1F1",
"2 	c #EEEEEE",
"3 	c #E4E4E4",
"4 	c #EDEDED",
"5 	c #C5C5C5",
"6 	c #5E5E5E",
"7 	c #454545",
"8 	c #4D4D4D",
"9 	c #444444",
"0 	c #7C7C7C",
"a 	c #FAFAFA",
"b 	c #E3E3E3",
"c 	c #7B7B7B",
"d 	c #A6A6A6",
"e 	c #9B9B9B",
"f 	c #747474",
"g 	c #D9D9D9",
"h 	c #737373",
"i 	c #F4F4F4",
"j 	c #DADADA",
"k 	c #F5F5F5",
"l 	c #DBDBDB",
"m 	c #3B3B3B",
"n 	c #303030",
"o 	c #3C3C3C",
"p 	c #DDDDDD",
"q 	c #CCCCCC",
"r 	c #555555",
"s 	c #F9F9F9",
"t 	c #959595",
"u 	c #F2F2F2",
"v 	c #EBEBEB",
"w 	c #333333",
"x 	c #323232",
"y 	c #373737",
"z 	c #3D3D3D",
"A 	c #3E3E3E",
"B 	c #666666",
"C 	c #CBCBCB",
"D 	c #8C8C8C",
"E 	c #353535",
"F 	c #3F3F3F",
"G 	c #767676",
"H 	c #E0E0E0",
"I 	c #D5D5D5",
"J 	c #424242",
"K 	c #F6F6F6",
"L 	c #CFCFCF",
"M 	c #3A3A3A",
"N 	c #393939",
"O 	c #383838",
"P 	c #494949",
"Q 	c #D0D0D0",
"R 	c #717171",
"S 	c #9F9F9F",
"T 	c #363636",
"U 	c #473D35",
"V 	c #6F4A2C",
"W 	c #965824",
"X 	c #A85E21",
"Y 	c #B6631D",
"Z 	c #6F4B2C",
"` 	c #463C35",
" .	c #BCBCBC",
"..	c #979797",
"+.	c #5F5F5F",
"@.	c #CECECE",
"#.	c #453B34",
"$.	c #895529",
"%.	c #BC671F",
"&.	c #C06A20",
"*.	c #C26C21",
"=.	c #C36D22",
"-.	c #BD671E",
";.	c #915727",
">.	c #463C33",
",.	c #DFDFDF",
"'.	c #595959",
").	c #C4C4C4",
"!.	c #DEDEDE",
"~.	c #624731",
"{.	c #B96820",
"].	c #C57024",
"^.	c #C77226",
"/.	c #C97428",
"(.	c #CA7629",
"_.	c #CB7629",
":.	c #614730",
"<.	c #B6B6B6",
"[.	c #676767",
"}.	c #7A7A7A",
"|.	c #724D2D",
"1.	c #C16C22",
"2.	c #CA7528",
"3.	c #CD792B",
"4.	c #CF7B2D",
"5.	c #D17D2E",
"6.	c #D27E2F",
"7.	c #D27F30",
"8.	c #714C2D",
"9.	c #DCDCDC",
"0.	c #5C5C5C",
"a.	c #343434",
"b.	c #5F4731",
"c.	c #C47025",
"d.	c #CE7A2C",
"e.	c #D17D2F",
"f.	c #D48131",
"g.	c #D68433",
"h.	c #D88635",
"i.	c #DA8736",
"j.	c #DA8837",
"k.	c #C36F24",
"l.	c #624831",
"m.	c #6C6C6C",
"n.	c #453B33",
"o.	c #C06F27",
"p.	c #CC772A",
"q.	c #D07C2E",
"r.	c #D48132",
"s.	c #D88535",
"t.	c #DB8938",
"u.	c #DE8C3A",
"v.	c #E08F3C",
"w.	c #DC8C3A",
"x.	c #D88939",
"y.	c #BF6F27",
"z.	c #443C34",
"A.	c #6A6A6A",
"B.	c #D7D7D7",
"C.	c #D2D2D2",
"D.	c #797979",
"E.	c #EAEAEA",
"F.	c #905C2D",
"G.	c #CC782B",
"H.	c #DB8937",
"I.	c #DF8D3B",
"J.	c #E2913E",
"K.	c #DF903D",
"L.	c #D58637",
"M.	c #CF8034",
"N.	c #CC7F33",
"O.	c #8D5A2D",
"P.	c #A9A9A9",
"Q.	c #473D34",
"R.	c #CB782B",
"S.	c #D27F2F",
"T.	c #D78534",
"U.	c #DC8B39",
"V.	c #E1903D",
"W.	c #E59541",
"X.	c #E29442",
"Y.	c #D4893D",
"Z.	c #AA6A2E",
"`.	c #694422",
" +	c #4B3522",
".+	c #CA772A",
"++	c #453C34",
"@+	c #D1D1D1",
"#+	c #C6C6C6",
"$+	c #765131",
"%+	c #D17E2F",
"&+	c #DD8B39",
"*+	c #E79742",
"=+	c #E99C49",
"-+	c #D99249",
";+	c #8C5A2C",
">+	c #3F3329",
",+	c #616161",
"'+	c #818181",
")+	c #828282",
"!+	c #8C5B2C",
"~+	c #745131",
"{+	c #484848",
"]+	c #A46830",
"^+	c #D68333",
"/+	c #DC8A38",
"(+	c #E89843",
"_+	c #E99D4B",
":+	c #E6A054",
"<+	c #B0783E",
"[+	c #3A2E23",
"}+	c #5A5A5A",
"|+	c #868686",
"1+	c #777777",
"2+	c #5B5B5B",
"3+	c #B2793F",
"4+	c #A26730",
"5+	c #525252",
"6+	c #CDCDCD",
"7+	c #BFBFBF",
"8+	c #434343",
"9+	c #BC7531",
"0+	c #E79642",
"a+	c #EBA354",
"b+	c #E3A35F",
"c+	c #674729",
"d+	c #8D8D8D",
"e+	c #8E8E8E",
"f+	c #727272",
"g+	c #565656",
"h+	c #684829",
"i+	c #BB7431",
"j+	c #414141",
"k+	c #CF8134",
"l+	c #DD8C39",
"m+	c #E49440",
"n+	c #E99B48",
"o+	c #EAA252",
"p+	c #ECA95D",
"q+	c #E5AB6B",
"r+	c #412F1E",
"s+	c #464646",
"t+	c #656565",
"u+	c #787878",
"v+	c #43311F",
"w+	c #C8C8C8",
"x+	c #D18336",
"y+	c #E79743",
"z+	c #EA9F4E",
"A+	c #ECA659",
"B+	c #EDAD64",
"C+	c #EBB677",
"D+	c #413120",
"E+	c #D08336",
"F+	c #C7C7C7",
"G+	c #404040",
"H+	c #C27D38",
"I+	c #E3923E",
"J+	c #E99A47",
"K+	c #EBA252",
"L+	c #ECAA5E",
"M+	c #EEB16A",
"N+	c #F1C083",
"O+	c #695135",
"P+	c #252525",
"Q+	c #262626",
"R+	c #6C5337",
"S+	c #C17C38",
"T+	c #585858",
"U+	c #AD7238",
"V+	c #E59440",
"W+	c #E99C4A",
"X+	c #EBA456",
"Y+	c #EDAC62",
"Z+	c #EFB46E",
"`+	c #F2C082",
" @	c #C8A475",
".@	c #2D251C",
"+@	c #2D2D2D",
"@@	c #313131",
"#@	c #2E261D",
"$@	c #C9A475",
"%@	c #AC7238",
"&@	c #C3C3C3",
"*@	c #B3B3B3",
"=@	c #7B5936",
"-@	c #E69541",
";@	c #E99E4C",
">@	c #EBA658",
",@	c #EDAE65",
"'@	c #F0B671",
")@	c #F2BE7F",
"!@	c #F5CE9A",
"~@	c #A18765",
"{@	c #2B251D",
"]@	c #202020",
"^@	c #2E2E2E",
"/@	c #212121",
"(@	c #2C261E",
"_@	c #A28866",
":@	c #F5CD99",
"<@	c #7A5837",
"[@	c #6F6F6F",
"}@	c #C2C2C2",
"|@	c #A4A4A4",
"1@	c #A3A3A3",
"2@	c #AFAFAF",
"3@	c #453C33",
"4@	c #E39541",
"5@	c #EA9E4C",
"6@	c #EEAF66",
"7@	c #F0B772",
"8@	c #F2BF7F",
"9@	c #F4C88D",
"0@	c #F7D6A7",
"a@	c #D1B994",
"b@	c #746852",
"c@	c #423B30",
"d@	c #433C31",
"e@	c #756853",
"f@	c #D1B995",
"g@	c #9E9E9E",
"h@	c #C0C0C0",
"i@	c #878787",
"j@	c #757575",
"k@	c #A06F3C",
"l@	c #EEAE65",
"m@	c #F2BE7E",
"n@	c #F4C68A",
"o@	c #F6CE96",
"p@	c #F9D9AA",
"q@	c #FAE2BA",
"r@	c #FCE8C4",
"s@	c #9D6D3B",
"t@	c #C1C1C1",
"u@	c #5D5D5D",
"v@	c #E09849",
"w@	c #EBA556",
"x@	c #EFB46F",
"y@	c #F1BC7B",
"z@	c #F3C486",
"A@	c #F5CB92",
"B@	c #F6D29C",
"C@	c #F8D8A5",
"D@	c #F9DBAB",
"E@	c #DE9749",
"F@	c #433B33",
"G@	c #BDBDBD",
"H@	c #AAAAAA",
"I@	c #675039",
"J@	c #E9A153",
"K@	c #ECAA5F",
"L@	c #F0B975",
"M@	c #F2C080",
"N@	c #F5CC93",
"O@	c #F6D19A",
"P@	c #F7D39E",
"Q@	c #E9A152",
"R@	c #695239",
"S@	c #8A8A8A",
"T@	c #7F5F3D",
"U@	c #EAA658",
"V@	c #EDAE64",
"W@	c #F1BB79",
"X@	c #F2C182",
"Y@	c #F3C689",
"Z@	c #F4C98F",
"`@	c #7E5F3D",
" #	c #BABABA",
".#	c #68523B",
"+#	c #E2A35B",
"@#	c #EEAF67",
"##	c #EFB570",
"$#	c #F1BA78",
"%#	c #F2BF7E",
"&#	c #F2C283",
"*#	c #F3C385",
"=#	c #E1A25B",
"-#	c #67523A",
";#	c #929292",
">#	c #3E3933",
",#	c #9B764A",
"'#	c #EBAD65",
")#	c #EFB36D",
"!#	c #F0B773",
"~#	c #F0BA77",
"{#	c #A27A4C",
"]#	c #423B33",
"^#	c #B9B9B9",
"/#	c #B2B2B2",
"(#	c #909090",
"_#	c #2F2F2F",
":#	c #433C34",
"<#	c #7E6344",
"[#	c #B78A57",
"}#	c #D09D61",
"|#	c #E6AD69",
"1#	c #B68A57",
"2#	c #B0B0B0",
"3#	c #B8B8B8",
"4#	c #6D6D6D",
"5#	c #C9C9C9",
"6#	c #7F7F7F",
"7#	c #B1B1B1",
"8#	c #A8A8A8",
"9#	c #ADADAD",
"0#	c #D6D6D6",
"a#	c #575757",
"b#	c #A2A2A2",
"c#	c #D8D8D8",
"d#	c #969696",
"e#	c #8B8B8B",
". . . . . . . . . . . . . . . . . . . . . . . . . . . . . . . . . . . . . . . . . . . . . . . . ",
". . . . . . . . . . . . . . . . . . . . . . . . . . . . . . . . . . . . . . . . . . . . . . . . ",
". . . . . . . . . . . . . . . . . . . . . . . . . . . . . . . . . . . . . . . . . . . . . . . . ",
". . . . . . . . . . . . . . . . . . . . . + @ # # @ + . . . . . . . . . . . . . . . . . . . . . ",
". . . . . . . . . . . . . . . . . $ % & * = - ; ; - > , ' ) @ . . . . . . . . . . . . . . . . . ",
". . . . . . . . . . . . . . . ! ~ - { ] ^ / ( ( / _ ^ - ] { ^ : < . . . . . . . . . . . . . . . ",
". . . . . . . . # [ @ . . } | 1 2 _ 3 3 3 3 ( ( ( ( ( ( ( ( _ 4 2 5 6 . . 7 8 9 . . . . . . . . ",
". . . . . . . 0 ^ a b c d 4 { - ( 3 3 3 3 ( ( ( ( ( ( ( ( ( / / _ ] _ e f g 2 g h . . . . . . . ",
". . . . . . # _ i j i k k 4 ^ ( 3 3 l e < @ m n n o @ < e p / / / / - ; 2 ^ q 3 g 9 . . . . . . ",
". . . . . . r s j t , u v ^ ( 3 q < w x y o z A A z m y x w B q / / / _ v C D q ] $ . . . . . . ",
". . . . . . @ = i , ( v ^ ( p f x E A F F F F F F F F F F A E x G H / _ _ p C ^ I J . . . . . . ",
". . . . . . . c K u v ^ ( L # w o A A z M N O y y O N M z A A o x P Q _ _ _ v 4 R . . . . . . . ",
". . . . . . . S i v ^ ( : o T A A z O U V W X Y Y X W Z ` O z A A T z  ._ _ / v ... . . . . . . ",
". . . . . . +.- 4 ^ ( @.o O z z M #.$.%.&.*.=.=.=.=.*.&.-.;.>.M z z O o L ( b b ,.'.. . . . . . ",
". . . . . . ).2 ^ ( !.$ y z o O ~.{.=.].^./.(._._.(./.^.].=.{.:.O o z T $ !.> ,.b <.. . . . . . ",
". . . . . [.4 - ( ( }.w o o y |.1.^.2.3.4.5.6.7.7.6.5.4.3.2.^.1.8.O o o x }.H p 9.> 0.. . . . . ",
". . . . . <.] ( 3 L a.N m y b.c.2.d.e.f.g.h.i.j.j.i.h.g.f.e.d.2.k.l.O m M E | l g !.d . . . . . ",
". . . . $ = / 3 ( m.E m M n.o.p.q.r.s.t.u.v.w.x.x.w.v.u.t.s.r.q.p.y.z.M m E A.l B.B.C.J . . . . ",
". . . . D.E.3 3 ,.y N M y F.G.6.g.H.I.J.K.L.M.N.N.M.L.K.J.I.H.g.6.G.O.T M N y , I * j A.. . . . ",
". . . . P._ 3 ( d x M M Q.R.S.T.U.V.W.X.Y.Z.`. + +`.Z.Y.X.W.V.U.T.S..+++N M w S , @+I ... . . . ",
". . . . #+/ 3 ( R E N y $+%+T.&+J.*+=+-+;+>+,+'+)+,+>+!+-+=+*+J.&+T.%+~+y N a.m.* L Q ' . . . . ",
". . . {+I ( 3 _ [ T O E ]+^+/+J.(+_+:+<+[+}+G |+|+1+2+[+3+:+_+(+J./+^+4+E O T 5+C.6+@.7+F . . . ",
". . . # 9.( ( _ 8+O O E 9+i.v.0+_+a+b+c+O r R d+e+f+g+N h+b+a+_+0+v.i.i+E O O J @+q C 5 j+. . . ",
". . . $ 3 ( ( _ T y y a.k+l+m+n+o+p+q+r+M s+t+u+D.t++ m v+q+p+o+n+m+l+k+a.y y E @+| w+| j+. . . ",
". . . 8 3 ( ( ^ y y y a.x+v.y+z+A+B+C+D+x N # }+2+# M w D+C+B+A+z+y+v.E+a.y y y L w+#+F+G+. . . ",
". . . # 9.( ( ^ 7 T T a.H+I+J+K+L+M+N+O+P+w T N N y w Q+R+N+M+L+K+J+I+S+a.T T 9 6+#+).~ F . . . ",
". . . + * / ( _ T+a.T a.U+V+W+X+Y+Z+`+ @.@+@n @@@@n +@#@$@`+Z+Y+X+W+V+%@a.T a.[ C ).&@*@M . . . ",
". . . . )./ ( _ 1+w E a.=@-@;@>@,@'@)@!@~@{@]@^@^@/@(@_@:@)@'@,@>@;@-@<@a.E x [@w+}@}@|@. . . . ",
". . . . 1@_ ( / 2@n a.w 3@4@5@A+6@7@8@9@0@a@b@c@d@e@f@0@9@8@7@6@A+5@4@3@a.a.n g@5 h@}@i@. . . . ",
". . . . j@_ ( ( 3 N a.a.w k@;@>@l@'@m@n@o@p@q@r@r@q@p@o@n@m@'@l@>@;@s@w a.a.O ).t@~ }@u@. . . . ",
". . . . # j ( / ^ }.@@w x z.v@w@Y+x@y@z@A@B@C@D@D@C@B@A@z@y@x@Y+w@E@F@w w @@[@#+~ G@' m . . . . ",
". . . . . H@_ / _ B.O w w w I@J@K@M+L@M@n@N@O@P@P@O@N@n@M@L@M+K@Q@R@w w w y  .h@ .~ S@. . . . . ",
". . . . . +.3 / / - D n x x x T@U@V@x@W@X@Y@Z@A@A@Z@Y@X@W@x@V@U@`@x x x n 0 5  .:  #$ . . . . . ",
". . . . . . <._ / / 3 '.n @@@@n .#+#@###$#%#&#*#*#&#%#$###@#=#-#n @@@@n 5+&@G@ # .;#. . . . . . ",
". . . . . . T+l / / _ j 9 n @@@@n >#,#'#)#!#~#W@W@~#!#)#'#{#]#n @@@@n G+ #h@ #^#/#s+. . . . . . ",
". . . . . . . (#^ / _ - 6+7 _#n n n n :#<#[#}#|#|#}#1#<#:#n n n n _#J 2#t@ #3#: f+. . . . . . . ",
". . . . . . . 4#_ ^ _ _ - p 6 _#n n n n n n n n n n n n n n n n _#5+ .}@ #3#^#^#g+. . . . . . . ",
". . . . . . 8+5#3 C p _ _ _ = (#y _#_#_#_#_#_#_#_#_#_#_#_#_#_#T '+).h@ #3#2#g@*@g@w . . . . . . ",
". . . . . . $ ( C D C ^ ( b = b * 6#m _#^@_#_#_#_#_#_#^@_#M G ~ #+~  #^# #g@4#e 7#O . . . . . . ",
". . . . . . 9 6+,.C ( ( / = ,.p p !.l /#6#u@@ O O @ 0.}.8#| w+t@ . # #G@ #& e 9#g@x . . . . . . ",
". . . . . . . 4#6+/ q 4#e+B.H 9.g B.0#0#B.B.0#0#, C.L C F+t@~  .: ~ ' f+a#b#' g@5+. . . . . . . ",
". . . . . . . . 7 8 P . . T+2#l l 0#* @+L 6+q | w+#+).}@h@~ ~ t@7+t @ . . m m T . . . . . . . . ",
". . . . . . . . . . . . . . J 2+b#@.c#, Q @.C w+#+5 ).).5 #+ #e+8 o . . . . . . . . . . . . . . ",
". . . . . . . . . . . . . . . . M + A.d#& t@w+6+C &@3#P.e#,+j+O . . . . . . . . . . . . . . . . ",
". . . . . . . . . . . . . . . . . . . . G+s+7 9 9 8+8+o . . . . . . . . . . . . . . . . . . . . ",
". . . . . . . . . . . . . . . . . . . . . . . . . . . . . . . . . . . . . . . . . . . . . . . . ",
". . . . . . . . . . . . . . . . . . . . . . . . . . . . . . . . . . . . . . . . . . . . . . . . ",
". . . . . . . . . . . . . . . . . . . . . . . . . . . . . . . . . . . . . . . . . . . . . . . . "};
