/* XPM */
static char * stop_xpm[] = {
"48 48 351 2",
"  	c None",
". 	c #000000",
"+ 	c #BDC0BA",
"@ 	c #BBBEB7",
"# 	c #BABDB7",
"$ 	c #BABDB6",
"% 	c #B8BBB4",
"& 	c #B7BAB3",
"* 	c #B5B8B1",
"= 	c #B3B6AF",
"- 	c #B1B4AD",
"; 	c #AEB1AA",
"> 	c #ACAFA9",
", 	c #AEB1AB",
"' 	c #DBDCD9",
") 	c #FFFFFF",
"! 	c #CFD0CD",
"~ 	c #ABAEA6",
"{ 	c #BEC1B9",
"] 	c #FEFEFE",
"^ 	c #FCFCFC",
"/ 	c #FBFBFB",
"( 	c #CBCDCA",
"_ 	c #A4A7A2",
": 	c #BDC0B9",
"< 	c #FAFAFA",
"[ 	c #F9F9F9",
"} 	c #C8CAC6",
"| 	c #A0A39C",
"1 	c #DADCD9",
"2 	c #F8F8F8",
"3 	c #F8F7F7",
"4 	c #F5F0F0",
"5 	c #C5C6C3",
"6 	c #989B95",
"7 	c #BDC0B8",
"8 	c #DADCD8",
"9 	c #F7F7F7",
"0 	c #F6F5F5",
"a 	c #C05050",
"b 	c #A50202",
"c 	c #A60303",
"d 	c #C55E5E",
"e 	c #F7F6F6",
"f 	c #C2C3C0",
"g 	c #939790",
"h 	c #BCBFB9",
"i 	c #F5F5F5",
"j 	c #F4F3F3",
"k 	c #C15252",
"l 	c #B61212",
"m 	c #E62121",
"n 	c #E92222",
"o 	c #E82121",
"p 	c #E71F1F",
"q 	c #E61E1E",
"r 	c #E41C1C",
"s 	c #E31B1B",
"t 	c #E11919",
"u 	c #E01717",
"v 	c #DE1515",
"w 	c #D91212",
"x 	c #B30F0F",
"y 	c #C45C5C",
"z 	c #F5F4F4",
"A 	c #BFC0BE",
"B 	c #90918C",
"C 	c #BDBFB9",
"D 	c #F6F6F6",
"E 	c #F4F4F4",
"F 	c #F3F2F2",
"G 	c #B71313",
"H 	c #E82323",
"I 	c #EB2424",
"J 	c #EA2424",
"K 	c #E51D1D",
"L 	c #E21919",
"M 	c #E01818",
"N 	c #DE1616",
"O 	c #DD1414",
"P 	c #D81111",
"Q 	c #B20E0E",
"R 	c #C35B5B",
"S 	c #BBBEBA",
"T 	c #898C86",
"U 	c #DADBD7",
"V 	c #F3F3F3",
"W 	c #F2F1F1",
"X 	c #C15353",
"Y 	c #E82424",
"Z 	c #EC2626",
"` 	c #ED2626",
" .	c #EC2525",
"..	c #E72020",
"+.	c #E21A1A",
"@.	c #DF1616",
"#.	c #DB1212",
"$.	c #D70F0F",
"%.	c #B10D0D",
"&.	c #C25959",
"*.	c #B7BAB6",
"=.	c #858682",
"-.	c #F5F5F4",
";.	c #F2F2F1",
">.	c #F1F0EF",
",.	c #C15352",
"'.	c #B61111",
").	c #E72222",
"!.	c #EE2727",
"~.	c #EE2828",
"{.	c #E82020",
"].	c #E11818",
"^.	c #DA1010",
"/.	c #D60D0D",
"(.	c #B10C0C",
"_.	c #C15858",
":.	c #F2F1F0",
"<.	c #FDFDFD",
"[.	c #B4B5B2",
"}.	c #7F807C",
"|.	c #F4F4F3",
"1.	c #F1F1F0",
"2.	c #F0EFEE",
"3.	c #C05353",
"4.	c #B51111",
"5.	c #E52020",
"6.	c #EA2323",
"7.	c #ED2727",
"8.	c #D80E0E",
"9.	c #D40B0B",
"0.	c #B00C0C",
"a.	c #C15757",
"b.	c #AFB0AD",
"c.	c #7A7C77",
"d.	c #F3F3F2",
"e.	c #F0F0EF",
"f.	c #EFEEED",
"g.	c #C05453",
"h.	c #B51010",
"i.	c #E31D1D",
"j.	c #EB2525",
"k.	c #E51E1E",
"l.	c #D91010",
"m.	c #D60C0C",
"n.	c #D20A0A",
"o.	c #C15655",
"p.	c #747672",
"q.	c #B9BCB6",
"r.	c #EFEFED",
"s.	c #BF5454",
"t.	c #B41010",
"u.	c #E11B1B",
"v.	c #E92323",
"w.	c #E41D1D",
"x.	c #DC1313",
"y.	c #DB1111",
"z.	c #D90F0F",
"A.	c #D70D0D",
"B.	c #D60B0B",
"C.	c #D40909",
"D.	c #D00707",
"E.	c #B00B0B",
"F.	c #71736D",
"G.	c #B6B9B3",
"H.	c #EEEEEC",
"I.	c #ECE7E5",
"J.	c #DF1818",
"K.	c #E61F1F",
"L.	c #DC1212",
"M.	c #DA1111",
"N.	c #D50B0B",
"O.	c #D20707",
"P.	c #CE0505",
"Q.	c #A40000",
"R.	c #6D716B",
"S.	c #B3B6B0",
"T.	c #ECECEA",
"U.	c #EAE5E3",
"V.	c #DF1717",
"W.	c #DD1313",
"X.	c #D50A0A",
"Y.	c #D30808",
"Z.	c #D10606",
"`.	c #D00404",
" +	c #6A6C68",
".+	c #AFB2AC",
"++	c #EAEBE9",
"@+	c #E8E4E2",
"#+	c #D10505",
"$+	c #CF0404",
"%+	c #676964",
"&+	c #E9E9E7",
"*+	c #E7E2E0",
"=+	c #D20606",
"-+	c #D00505",
";+	c #CE0303",
">+	c #F8F8F7",
",+	c #636562",
"'+	c #A7AAA4",
")+	c #E7E7E5",
"!+	c #E5E0DE",
"~+	c #D70C0C",
"{+	c #CE0202",
"]+	c #61625E",
"^+	c #A4A7A0",
"/+	c #E5E5E3",
"(+	c #E3DEDC",
"_+	c #CD0101",
":+	c #5C5E5A",
"<+	c #A0A39D",
"[+	c #E3E3E1",
"}+	c #E1DCDA",
"|+	c #CF0303",
"1+	c #CC0000",
"2+	c #5A5C58",
"3+	c #9DA09A",
"4+	c #E1E2E0",
"5+	c #DFDBD9",
"6+	c #9A9C96",
"7+	c #DFE0DE",
"8+	c #DDD9D7",
"9+	c #D80F0F",
"0+	c #F0F0F0",
"a+	c #969993",
"b+	c #DDDEDC",
"c+	c #DBD7D5",
"d+	c #D40A0A",
"e+	c #EEEEED",
"f+	c #939590",
"g+	c #F4F5F4",
"h+	c #DBDCDA",
"i+	c #D9D5D3",
"j+	c #D00808",
"k+	c #D30909",
"l+	c #CD0202",
"m+	c #CA0000",
"n+	c #ECECEB",
"o+	c #8F928C",
"p+	c #DADBD9",
"q+	c #B84D4D",
"r+	c #AF0A0A",
"s+	c #CF0606",
"t+	c #AD0A0A",
"u+	c #BB5A59",
"v+	c #EAEBEA",
"w+	c #5A5B58",
"x+	c #8B8D88",
"y+	c #F1F1F1",
"z+	c #DEDFDD",
"A+	c #DADAD8",
"B+	c #B94E4D",
"C+	c #AE0A0A",
"D+	c #AD0909",
"E+	c #BB5959",
"F+	c #E6E7E6",
"G+	c #595A57",
"H+	c #878A86",
"I+	c #ADAFAC",
"J+	c #EEEFEE",
"K+	c #DBDBD9",
"L+	c #B94F4F",
"M+	c #AE0909",
"N+	c #CD0303",
"O+	c #DFDFDE",
"P+	c #E7E7E6",
"Q+	c #848583",
"R+	c #5B5F5A",
"S+	c #838580",
"T+	c #AAABA8",
"U+	c #E0E1DF",
"V+	c #DDDEDB",
"W+	c #DDDDDA",
"X+	c #BA5150",
"Y+	c #AF0A09",
"Z+	c #CB0101",
"`+	c #AE0A09",
" @	c #BB5958",
".@	c #E0E1DE",
"+@	c #E7E8E6",
"@@	c #848582",
"#@	c #5C5D5A",
"$@	c #7D807C",
"%@	c #A5A7A3",
"&@	c #EDEEEC",
"*@	c #E1E2DF",
"=@	c #DEDFDC",
"-@	c #DEDEDB",
";@	c #BA5251",
">@	c #BC5857",
",@	c #838481",
"'@	c #5D5E59",
")@	c #787B76",
"!@	c #A0A29F",
"~@	c #E3E4E1",
"{@	c #E0E0DD",
"]@	c #BB5453",
"^@	c #BD5857",
"/@	c #E2E3E1",
"(@	c #E6E8E5",
"_@	c #838482",
":@	c #747771",
"<@	c #9B9E9A",
"[@	c #ECEDEB",
"}@	c #E5E6E3",
"|@	c #E2E3E0",
"1@	c #E2E2DF",
"2@	c #BC5554",
"3@	c #AF0B0B",
"4@	c #BE5857",
"5@	c #E4E5E2",
"6@	c #6F716E",
"7@	c #979896",
"8@	c #EDEDEC",
"9@	c #E6E6E4",
"0@	c #E4E4E2",
"a@	c #E4E3E1",
"b@	c #BE5756",
"c@	c #E8E8E6",
"d@	c #828381",
"e@	c #6B6D68",
"f@	c #939491",
"g@	c #ECEDEC",
"h@	c #E5E6E4",
"i@	c #E7E8E7",
"j@	c #818280",
"k@	c #5B5D5A",
"l@	c #656762",
"m@	c #8D8F8D",
"n@	c #E9EAE8",
"o@	c #E8E9E7",
"p@	c #E8E9E8",
"q@	c #80827D",
"r@	c #5A5D59",
"s@	c #5C5E5B",
"t@	c #888A86",
"u@	c #ECECEC",
"v@	c #EAEAEA",
"w@	c #E9E9E8",
"x@	c #EAEAE9",
"y@	c #7E807C",
"z@	c #585954",
"A@	c #555854",
"B@	c #868784",
"C@	c #EBEBEA",
"D@	c #EDEDED",
"E@	c #EBEBEB",
"F@	c #7D7E7C",
"G@	c #555753",
"H@	c #595B57",
"I@	c #595C57",
"J@	c #555654",
". . . . . . . . . . . . . . . . . . . . . . . . . . . . . . . . . . . . . . . . . . . . . . . . ",
". . . . . . . . . . . . . . . . . . . . . . . . . . . . . . . . . . . . . . . . . . . . . . . . ",
". . . . . . . . . . . . . . . . . . . . . . . . . . . . . . . . . . . . . . . . . . . . . . . . ",
". . . . . . . . . . . . . . . . . . . . . . . . . . . . . . . . . . . . . . . . . . . . . . . . ",
". . . . . . . . . . . . . . . . . . . . . . . . . . . . . . . . . . . . . . . . . . . . . . . . ",
". . . . . . . . . . . . . . . . . . . . . . . . . . . . . . . . . . . . . . . . . . . . . . . . ",
". . . . . . . . . . . . . . . + @ @ # # @ @ $ $ % & * = - ; > , . . . . . . . . . . . . . . . . ",
". . . . . . . . . . . . . . + ' ) ) ) ) ) ) ) ) ) ) ) ) ) ) ) ! ~ . . . . . . . . . . . . . . . ",
". . . . . . . . . . . . . { ' ] ^ / / / / / / / / / / / / / ^ ] ( _ . . . . . . . . . . . . . . ",
". . . . . . . . . . . . : ' ] < [ [ [ [ [ [ [ [ [ [ [ [ [ [ [ < ] } | . . . . . . . . . . . . . ",
". . . . . . . . . . . + 1 ] [ 2 2 3 4 4 4 4 4 4 4 4 4 4 4 2 2 2 < ] 5 6 . . . . . . . . . . . . ",
". . . . . . . . . . 7 8 ] [ 9 9 0 a b c c c c c c c c c b d e 9 9 [ ] f g . . . . . . . . . . . ",
". . . . . . . . . h 8 ] 9 i i j k l m n o p q r s t u v w x y z i i 9 ] A B . . . . . . . . . . ",
". . . . . . . . C 8 ] D E E F k G H I J n o p K s L M N O P Q R j E E D ] S T . . . . . . . . . ",
". . . . . . . : U ] i V V W X l Y Z `  .I n ..q r +.M @.O #.$.%.&.F V V D ] *.=.. . . . . . . . ",
". . . . . . { U ] -.;.;.>.,.'.). .!.~.` I n {.q r +.].@.O #.^./.(._.:.;.;.-.<.[.}.. . . . . . . ",
". . . . . { U ] |.1.1.2.3.4.5.6. .7.7.Z I n ..q r +.].@.O #.^.8.9.0.a.>.1.1.|.^ b.c.. . . . . . ",
". . . . . @ ] d.e.e.f.g.h.i.{.n J j. .I 6.o p k.r +.M @.O #.l.8.m.n.0.o.2.e.e.d.^ p.. . . . . . ",
". . . . . q.] r.r.r.s.t.u.K p o n v.6.n o ..q w.s t u v x.y.z.A.B.C.D.E.s.r.r.r.^ F.. . . . . . ",
". . . . . G.] H.H.I.b J.s r k.K...{.o ..p q K s +.M @.O L.M.z.A.N.C.O.P.Q.H.H.H./ R.. . . . . . ",
". . . . . S.] T.T.U.c M t s r K k.q q q K r s +.].V.v W.#.l.8.m.X.Y.Z.`.Q.T.T.T.<  +. . . . . . ",
". . . . . .+] ++++@+c @.M t +.s r r r r s s L ].u v O L.^.z.A.N.C.O.#+$+Q.++++++[ %+. . . . . . ",
". . . . . > <.&+&+*+c v @.u ].t L +.+.+.L t M V.v O L.M.z.8.m.X.Y.=+-+;+Q.&+&+&+>+,+. . . . . . ",
". . . . . '+^ )+)+!+c x.O v @.u u M M M u V.@.v O L.M.z.8.~+N.C.O.#+$+{+Q.)+)+)+D ]+. . . . . . ",
". . . . . ^+/ /+/+(+c y.L.x.O v v v N v v O O x.#.M.z.8.~+N.C.Y.Z.`.;+_+Q./+/+/+-.:+. . . . . . ",
". . . . . <+< [+[+}+c z.^.y.#.x.x.x.x.x.x.L.#.M.^.z.8.~+N.C.Y.Z.-+|+_+1+Q.[+[+[+d.2+. . . . . . ",
". . . . . 3+[ 4+4+5+c A.8.z.^.^.M.y.y.y.M.^.l.z.8.A.m.N.C.Y.=+-+|+{+1+1+Q.4+4+4+;.2+. . . . . . ",
". . . . . 6+>+7+7+8+c m.~+A.8.8.z.z.z.z.9+8.8.A.m.N.X.C.Y.Z.-+|+{+1+1+1+Q.7+7+7+0+2+. . . . . . ",
". . . . . a+D b+b+c+c d+X.N.m.m.A.A.A.A.~+m.B.N.X.C.Y.O.Z.-+|+{+1+1+1+1+Q.b+b+b+e+2+. . . . . . ",
". . . . . f+g+h+h+i+b j+Y.C.d+X.X.X.N.X.X.d+C.k+Y.O.Z.-+$+;+l+1+1+1+1+m+Q.h+h+h+n+2+. . . . . . ",
". . . . . o+V p+p+p+q+r+s+O.O.Y.Y.Y.Y.Y.Y.Y.O.O.Z.-+`.|+{+_+1+1+1+1+m+t+u+p+p+p+v+w+. . . . . . ",
". . . . . x+y+z+p+p+A+B+C+P.#+Z.Z.Z.Z.Z.Z.#+-+-+$+|+{+_+1+1+1+1+1+m+D+E+p+p+p+z+F+G+. . . . . . ",
". . . . . H+I+J+7+h+h+K+L+M+N+|+$+$+$+$+$+|+;+{+{+_+1+1+1+1+1+1+m+D+u+h+h+h+O+P+Q+R+. . . . . . ",
". . . . . . S+T+e+U+V+V+W+X+Y+Z+l+l+l+l+_+_+_+1+1+1+1+1+1+1+1+m+`+ @V+V+V+.@+@@@#@. . . . . . . ",
". . . . . . . $@%@&@*@=@=@-@;@`+m+1+1+1+1+1+1+1+1+1+1+1+1+1+m+`+>@=@=@=@*@)+,@'@. . . . . . . . ",
". . . . . . . . )@!@&@~@.@.@{@]@C+m+1+1+1+1+1+1+1+1+1+1+1+m+C+^@.@.@.@/@(@_@#@. . . . . . . . . ",
". . . . . . . . . :@<@[@}@|@|@1@2@3@m+1+1+1+1+1+1+1+1+1+m+C+4@|@|@|@5@+@,@#@. . . . . . . . . . ",
". . . . . . . . . . 6@7@8@9@0@0@a@b@Q.Q.Q.Q.Q.Q.Q.Q.Q.Q.Q.4@a@0@0@9@c@d@'@. . . . . . . . . . . ",
". . . . . . . . . . . e@f@g@+@h@h@h@h@h@h@h@h@h@h@h@h@h@h@h@h@h@+@i@j@k@. . . . . . . . . . . . ",
". . . . . . . . . . . . l@m@[@n@+@+@+@+@+@+@+@+@+@+@+@+@+@+@+@o@p@q@r@. . . . . . . . . . . . . ",
". . . . . . . . . . . . . s@t@u@v@w@w@w@w@w@w@w@w@w@w@w@w@w@x@w@y@z@. . . . . . . . . . . . . . ",
". . . . . . . . . . . . . . A@B@C@e+D@D@u@u@n+E@C@v@x@x@x@w@h@F@G@. . . . . . . . . . . . . . . ",
". . . . . . . . . . . . . . . A@2+2+2+2+2+H@2+2+2+H@H@H@I@I@I@J@. . . . . . . . . . . . . . . . ",
". . . . . . . . . . . . . . . . . . . . . . . . . . . . . . . . . . . . . . . . . . . . . . . . ",
". . . . . . . . . . . . . . . . . . . . . . . . . . . . . . . . . . . . . . . . . . . . . . . . ",
". . . . . . . . . . . . . . . . . . . . . . . . . . . . . . . . . . . . . . . . . . . . . . . . ",
". . . . . . . . . . . . . . . . . . . . . . . . . . . . . . . . . . . . . . . . . . . . . . . . ",
". . . . . . . . . . . . . . . . . . . . . . . . . . . . . . . . . . . . . . . . . . . . . . . . "};
