/* XPM */
static char * system_shutdown_xpm[] = {
"48 48 564 2",
"  	c None",
". 	c #000000",
"+ 	c #DE412C",
"@ 	c #DD402C",
"# 	c #DD3D29",
"$ 	c #DD3C27",
"% 	c #DD402B",
"& 	c #D93C2A",
"* 	c #DA3C2B",
"= 	c #DF5747",
"- 	c #EA846F",
"; 	c #F0A48E",
"> 	c #F5B9A2",
", 	c #F7C6B1",
"' 	c #F9CCB5",
") 	c #EA836E",
"! 	c #E05644",
"~ 	c #DA3D2B",
"{ 	c #DB3C2A",
"] 	c #D73B2B",
"^ 	c #D9402F",
"/ 	c #E87C6B",
"( 	c #F2AF9D",
"_ 	c #F5BAA6",
": 	c #F4AE94",
"< 	c #F3A484",
"[ 	c #F29F7C",
"} 	c #F29C75",
"| 	c #F29A73",
"1 	c #F2AE9D",
"2 	c #E87C6A",
"3 	c #DA4030",
"4 	c #D53B2B",
"5 	c #E47665",
"6 	c #F2AE9F",
"7 	c #F2A490",
"8 	c #EF9074",
"9 	c #EE8767",
"0 	c #EE8A68",
"a 	c #EF8D6A",
"b 	c #F0906B",
"c 	c #DA896A",
"d 	c #AF7B66",
"e 	c #DB8A6A",
"f 	c #F2A590",
"g 	c #E47565",
"h 	c #D63B2B",
"i 	c #D4382B",
"j 	c #D7493C",
"k 	c #ED9B8E",
"l 	c #EF9E8E",
"m 	c #EB8069",
"n 	c #EA7B60",
"o 	c #EB7F62",
"p 	c #EC8264",
"q 	c #ED8565",
"r 	c #EE8968",
"s 	c #C69F92",
"t 	c #F6F0EE",
"u 	c #F5F0EE",
"v 	c #C69E90",
"w 	c #EF9F8E",
"x 	c #ED9A8C",
"y 	c #D3392C",
"z 	c #D0372B",
"A 	c #DB5A4F",
"B 	c #EE9F93",
"C 	c #EA8372",
"D 	c #E76F59",
"E 	c #E8725B",
"F 	c #E9765D",
"G 	c #EA795F",
"H 	c #EB7C60",
"I 	c #EC8163",
"J 	c #EC8364",
"K 	c #F5EFEE",
"L 	c #FFFFFF",
"M 	c #F5EFED",
"N 	c #EA8373",
"O 	c #EE9E93",
"P 	c #DA594D",
"Q 	c #D0372C",
"R 	c #CF372B",
"S 	c #DB5D54",
"T 	c #EC978E",
"U 	c #E66E60",
"V 	c #E56654",
"W 	c #E66A56",
"X 	c #E76D58",
"Y 	c #E8715A",
"Z 	c #E9745C",
"` 	c #EA795E",
" .	c #E66F60",
"..	c #ED968D",
"+.	c #DA5D53",
"@.	c #CE372B",
"#.	c #CA352B",
"$.	c #D6534B",
"%.	c #EA9188",
"&.	c #E46658",
"*.	c #E35E4F",
"=.	c #E46151",
"-.	c #E56553",
";.	c #E66855",
">.	c #E76B57",
",.	c #E36E58",
"'.	c #E8715B",
").	c #E9755D",
"!.	c #EB9088",
"~.	c #D5534B",
"{.	c #CB362C",
"].	c #CC423A",
"^.	c #E98C84",
"/.	c #E26459",
"(.	c #E15A4D",
"_.	c #E25B4E",
":.	c #E35D4F",
"<.	c #E45F50",
"[.	c #DD6253",
"}.	c #B46257",
"|.	c #A76C64",
"1.	c #AC665B",
"2.	c #DE6B58",
"3.	c #E76E58",
"4.	c #E98B84",
"5.	c #CC4038",
"6.	c #C6352D",
"7.	c #E37C75",
"8.	c #E26A61",
"9.	c #DF564B",
"0.	c #E0574C",
"a.	c #E1594D",
"b.	c #E25A4D",
"c.	c #D35C4F",
"d.	c #B06D66",
"e.	c #E4D1CF",
"f.	c #FFFEFE",
"g.	c #F3EBE9",
"h.	c #C6786E",
"i.	c #E56755",
"j.	c #C6796F",
"k.	c #E36B63",
"l.	c #E37B74",
"m.	c #C5332C",
"n.	c #C4332C",
"o.	c #D55A54",
"p.	c #E47871",
"q.	c #DD5249",
"r.	c #DE5449",
"s.	c #DF554A",
"t.	c #E0574B",
"u.	c #CF594E",
"v.	c #B67F7A",
"w.	c #F5EEEE",
"x.	c #E5BDB9",
"y.	c #E46051",
"z.	c #E5BEBA",
"A.	c #B57E7A",
"B.	c #D0594E",
"C.	c #E47972",
"D.	c #D45652",
"E.	c #C5312C",
"F.	c #C2342E",
"G.	c #E37B75",
"H.	c #DD574E",
"I.	c #DC5047",
"J.	c #DD5248",
"K.	c #DE5349",
"L.	c #D5554C",
"M.	c #BA837F",
"N.	c #FCFAFA",
"O.	c #EFB3AD",
"P.	c #E25C4E",
"Q.	c #BA837E",
"R.	c #DD574F",
"S.	c #C23330",
"T.	c #BE2F2B",
"U.	c #D0534F",
"V.	c #E06B65",
"W.	c #DA4C45",
"X.	c #DB4E46",
"Y.	c #DC4F47",
"Z.	c #DB5148",
"`.	c #B56F6A",
" +	c #F8F3F3",
".+	c #F8DBD8",
"++	c #E26358",
"@+	c #E1594C",
"#+	c #F8F3F2",
"$+	c #B56E69",
"%+	c #DC5249",
"&+	c #BF2E2C",
"*+	c #BC2E2D",
"=+	c #DC6B68",
"-+	c #DA534D",
";+	c #D94A44",
">+	c #DA4B44",
",+	c #DA4D45",
"'+	c #C5534D",
")+	c #EDDFDE",
"!+	c #F1B5B1",
"~+	c #E0584E",
"{+	c #F1B7B2",
"]+	c #C4524B",
"^+	c #DA544E",
"/+	c #DC6A67",
"(+	c #BC2E2C",
"_+	c #C03838",
":+	c #DE6A67",
"<+	c #D74641",
"[+	c #D84842",
"}+	c #D94943",
"|+	c #D84A44",
"1+	c #C59491",
"2+	c #EEADA8",
"3+	c #DD5148",
"4+	c #EEAFAB",
"5+	c #C59290",
"6+	c #BF3837",
"7+	c #C84847",
"8+	c #DA5A56",
"9+	c #D64440",
"0+	c #D74541",
"a+	c #D74742",
"b+	c #CB4E48",
"c+	c #F3EAEA",
"d+	c #F3CECC",
"e+	c #DB4F47",
"f+	c #F3CFCD",
"g+	c #F2E9E8",
"h+	c #CB4D47",
"i+	c #DA5B57",
"j+	c #C94847",
"k+	c #B62B2E",
"l+	c #D05252",
"m+	c #D74D4B",
"n+	c #D5423F",
"o+	c #D5433F",
"p+	c #C87573",
"q+	c #FDFCFB",
"r+	c #DF645F",
"s+	c #D94B44",
"t+	c #DB4D45",
"u+	c #DB4D46",
"v+	c #DF6560",
"w+	c #FEFCFC",
"x+	c #C87371",
"y+	c #D74D4C",
"z+	c #CF5251",
"A+	c #B52B2D",
"B+	c #B32A2E",
"C+	c #D35555",
"D+	c #D44442",
"E+	c #D33F3D",
"F+	c #D4403E",
"G+	c #D4AAA9",
"H+	c #ECC6C4",
"I+	c #D84742",
"J+	c #D84943",
"K+	c #D94A43",
"L+	c #ECC7C6",
"M+	c #D3A8A7",
"N+	c #D54543",
"O+	c #D25655",
"P+	c #B22A2D",
"Q+	c #B0292E",
"R+	c #D55555",
"S+	c #D23E3D",
"T+	c #D23D3C",
"U+	c #D33E3C",
"V+	c #EAD9D8",
"W+	c #DE817E",
"X+	c #D64540",
"Y+	c #D64541",
"Z+	c #F9EBEB",
"`+	c #F9EBEA",
" @	c #DE817F",
".@	c #EBDADA",
"+@	c #D55455",
"@@	c #B0292D",
"#@	c #AC272F",
"$@	c #D45253",
"%@	c #D03A3A",
"&@	c #D13A3A",
"*@	c #D13B3B",
"=@	c #D23C3B",
"-@	c #F5EEED",
";@	c #D85552",
">@	c #D64340",
",@	c #E27B77",
"'@	c #FAEBEA",
")@	c #FAEAE9",
"!@	c #E27A77",
"~@	c #D85754",
"{@	c #F7F2F2",
"]@	c #D45152",
"^@	c #AD282F",
"/@	c #AA262F",
"(@	c #D34D4F",
"_@	c #CF3839",
":@	c #D03939",
"<@	c #D14444",
"[@	c #D3403D",
"}@	c #D4413E",
"|@	c #D04444",
"1@	c #FDFBFB",
"2@	c #D34C4D",
"3@	c #AB272F",
"4@	c #A82430",
"5@	c #D0484B",
"6@	c #CD3638",
"7@	c #CE3537",
"8@	c #CF3638",
"9@	c #CF3738",
"0@	c #F6ECEC",
"a@	c #CB4D4D",
"b@	c #D23E3C",
"c@	c #D33E3D",
"d@	c #CA4C4C",
"e@	c #F5EBEB",
"f@	c #CE3638",
"g@	c #A9262F",
"h@	c #A7252F",
"i@	c #C94145",
"j@	c #CD363A",
"k@	c #CD3336",
"l@	c #CD3436",
"m@	c #EDD8D8",
"n@	c #C46363",
"o@	c #D0393A",
"p@	c #D13B3A",
"q@	c #D13C3B",
"r@	c #C56565",
"s@	c #EDD7D7",
"t@	c #A72630",
"u@	c #A5252F",
"v@	c #C23940",
"w@	c #CD373B",
"x@	c #CB3034",
"y@	c #CC3135",
"z@	c #CC3235",
"A@	c #E6B4B6",
"B@	c #CB9797",
"C@	c #D03839",
"D@	c #CB9999",
"E@	c #E5B3B4",
"F@	c #C13940",
"G@	c #A52430",
"H@	c #B5303B",
"I@	c #CC393F",
"J@	c #CA2D32",
"K@	c #CA2E33",
"L@	c #CB2F34",
"M@	c #DA7073",
"N@	c #E8D8D8",
"O@	c #BC3B3D",
"P@	c #CE3437",
"Q@	c #CE3637",
"R@	c #BB3B3C",
"S@	c #E9D9D9",
"T@	c #DA6E71",
"U@	c #B52F3A",
"V@	c #A52635",
"W@	c #CD3D43",
"X@	c #C82B31",
"Y@	c #C92C31",
"Z@	c #C92C32",
"`@	c #CC3438",
" #	c #FBF4F4",
".#	c #BA7F80",
"+#	c #C63337",
"@#	c #C73438",
"##	c #BB8081",
"$#	c #FAF3F3",
"%#	c #CB3338",
"&#	c #A42734",
"*#	c #9C2030",
"=#	c #C53840",
"-#	c #C82D34",
";#	c #C82930",
">#	c #C82A30",
",#	c #E29295",
"'#	c #F2E9E9",
")#	c #A85255",
"!#	c #C73034",
"~#	c #CB2F33",
"{#	c #A85356",
"]#	c #E28F92",
"^#	c #C43740",
"/#	c #9E2030",
"(#	c #981F31",
"_#	c #AF2C38",
":#	c #C9343C",
"<#	c #C6262E",
"[#	c #C7272F",
"}#	c #C7282F",
"|#	c #C93036",
"1#	c #F7E7E7",
"2#	c #E8D7D8",
"3#	c #A14E50",
"4#	c #BE3136",
"5#	c #A24F51",
"6#	c #E9D8D9",
"7#	c #F6E5E6",
"8#	c #C92F36",
"9#	c #AF2B39",
"0#	c #9A1F32",
"a#	c #971F33",
"b#	c #C23643",
"c#	c #C22733",
"d#	c #C2252F",
"e#	c #C4252F",
"f#	c #C5262E",
"g#	c #D45C62",
"h#	c #FDFAFA",
"i#	c #F0E5E6",
"j#	c #A7676A",
"k#	c #A63A3F",
"l#	c #BE3035",
"m#	c #C72A30",
"n#	c #A7686A",
"o#	c #F0E6E6",
"p#	c #FDF9FA",
"q#	c #D45A60",
"r#	c #971F32",
"s#	c #941D32",
"t#	c #A8283B",
"u#	c #C03240",
"v#	c #BD2332",
"w#	c #BE2431",
"x#	c #C02431",
"y#	c #C12530",
"z#	c #D8757C",
"A#	c #FEFEFE",
"B#	c #D7BABC",
"C#	c #A8696C",
"D#	c #974045",
"E#	c #A23A3F",
"F#	c #A6383D",
"G#	c #D8BBBC",
"H#	c #D8747B",
"I#	c #A6283B",
"J#	c #961E31",
"K#	c #921C33",
"L#	c #B53042",
"M#	c #BA2A3B",
"N#	c #B92233",
"O#	c #BA2333",
"P#	c #BB2332",
"Q#	c #BC2332",
"R#	c #D6747C",
"S#	c #FCF7F8",
"T#	c #F4ECED",
"U#	c #DEC7C9",
"V#	c #D4B6B8",
"W#	c #FCF7F7",
"X#	c #D5727B",
"Y#	c #B43042",
"Z#	c #921D33",
"`#	c #921E35",
" $	c #B63146",
".$	c #B4253A",
"+$	c #B42135",
"@$	c #B62135",
"#$	c #B72234",
"$$	c #B82234",
"%$	c #C74D5B",
"&$	c #F4DDE0",
"*$	c #F4DCDE",
"=$	c #C64C59",
"-$	c #B63145",
";$	c #931E34",
">$	c #861930",
",$	c #972038",
"'$	c #B42F46",
")$	c #B02239",
"!$	c #B02037",
"~$	c #B12037",
"{$	c #B22036",
"]$	c #B32036",
"^$	c #B52438",
"/$	c #D17783",
"($	c #F6E5E7",
"_$	c #F6E4E7",
":$	c #D17582",
"<$	c #B52437",
"[$	c #972139",
"}$	c #861931",
"|$	c #97223C",
"1$	c #B0304B",
"2$	c #AC223D",
"3$	c #AB1E39",
"4$	c #AC1F39",
"5$	c #AD1F38",
"6$	c #AE1F38",
"7$	c #AF1F38",
"8$	c #B02139",
"9$	c #C25264",
"0$	c #D9949F",
"a$	c #EBC8CE",
"b$	c #F3DDE0",
"c$	c #FCF5F6",
"d$	c #EBC7CD",
"e$	c #C15163",
"f$	c #871832",
"g$	c #831731",
"h$	c #91213C",
"i$	c #AC3250",
"j$	c #AA2844",
"k$	c #A71D3B",
"l$	c #A81D3A",
"m$	c #A91E3A",
"n$	c #AA1E3A",
"o$	c #AA1E39",
"p$	c #AC324F",
"q$	c #831732",
"r$	c #7C1530",
"s$	c #881D38",
"t$	c #A53250",
"u$	c #AA3150",
"v$	c #A42042",
"w$	c #A21C3D",
"x$	c #A31C3C",
"y$	c #A41C3C",
"z$	c #A51C3C",
"A$	c #A53251",
"B$	c #7A152F",
"C$	c #831734",
"D$	c #932746",
"E$	c #A83958",
"F$	c #A63052",
"G$	c #A02246",
"H$	c #9E1A3E",
"I$	c #9E1B3E",
"J$	c #9F1B3E",
"K$	c #761330",
"L$	c #811835",
"M$	c #922848",
"N$	c #A2395A",
"O$	c #A73B5D",
"P$	c #A33054",
"Q$	c #9F274C",
"R$	c #9D2147",
"S$	c #9A1C42",
"T$	c #991A41",
"U$	c #9B1D43",
"V$	c #A1395A",
"W$	c #922849",
"X$	c #761430",
"Y$	c #72122E",
"Z$	c #7D1434",
"`$	c #831C3C",
" %	c #90294A",
".%	c #9A3356",
"+%	c #A03A5D",
"@%	c #A43F63",
"#%	c #A64164",
"$%	c #8F284B",
"%%	c #6C1130",
"&%	c #761235",
"*%	c #7A1336",
"=%	c #7A1435",
"-%	c #7B1336",
";%	c #6D1130",
". . . . . . . . . . . . . . . . . . . . . . . . . . . . . . . . . . . . . . . . . . . . . . . . ",
". . . . . . . . . . . . . . . . . . . . . . . . . . . . . . . . . . . . . . . . . . . . . . . . ",
". . . . . . . . . . . . . . . . . . . . . . . . . . . . . . . . . . . . . . . . . . . . . . . . ",
". . . . . . . . . . . . . . . . . . . . . . . . . . . . . . . . . . . . . . . . . . . . . . . . ",
". . . . . . . . . . . . . . . . . . . . . . . . . . . . . . . . . . . . . . . . . . . . . . . . ",
". . . . . . . . . . . . . . . . . . . . + @ # $ $ # % + . . . . . . . . . . . . . . . . . . . . ",
". . . . . . . . . . . . . . . . & * = - ; > , ' ' , > ; ) ! ~ { . . . . . . . . . . . . . . . . ",
". . . . . . . . . . . . . . ] ^ / ( _ : < [ } | | } [ < : _ 1 2 3 ] . . . . . . . . . . . . . . ",
". . . . . . . . . . . . . 4 5 6 7 8 9 0 a b c d d e b a 0 9 8 f 6 g h . . . . . . . . . . . . . ",
". . . . . . . . . . . i j k l m n o p q 9 r s t u v r 9 q p o n m w x j y . . . . . . . . . . . ",
". . . . . . . . . . z A B C D E F G H o I J K L L M J I o H G F E D N O P Q . . . . . . . . . . ",
". . . . . . . . . R S T U V W X Y Z F ` n H L L L L H n ` F Z Y X W V  ...+.@.. . . . . . . . . ",
". . . . . . . . #.$.%.&.*.=.-.;.>.,.'.E Z ).L L L L ).Z E '.,.>.;.-.=.*.&.!.~.{.. . . . . . . . ",
". . . . . . . . ].^./.(._.:.<.[.}.|.1.2.3.D L L L L D 3.2.1.|.}.[.<.:._.(./.4.5.. . . . . . . . ",
". . . . . . . 6.7.8.9.0.a.b.c.d.e.f.g.h.i.;.L L L L ;.i.j.g.f.e.d.c.b.a.0.9.k.l.m.. . . . . . . ",
". . . . . . n.o.p.q.r.s.t.u.v.w.L L L x.y.=.L L L L =.y.z.L L L w.A.B.t.s.r.q.C.D.E.. . . . . . ",
". . . . . . F.G.H.I.J.K.L.M.N.L L L L O.P.P.L L L L P.P.O.L L L L N.Q.L.K.J.I.R.G.S.. . . . . . ",
". . . . . T.U.V.W.X.Y.Z.`. +L L L L .+++@+a.L L L L a.@+++.+L L L L #+$+%+Y.X.W.V.U.&+. . . . . ",
". . . . . *+=+-+;+>+,+'+)+L L L L !+~+s.9.9.L L L L 9.9.s.~+{+L L L L )+]+,+>+;+^+/+(+. . . . . ",
". . . . . _+:+<+[+}+|+1+L L L L 2+3+J.q.K.K.L L L L K.K.q.J.3+4+L L L L 5+|+}+[+<+:+6+. . . . . ",
". . . . . 7+8+9+0+a+b+c+L L L d+e+X.Y.Y.I.I.L L L L I.I.Y.Y.X.e+f+L L L g+h+a+0+9+i+j+. . . . . ",
". . . . k+l+m+n+o+9+p+L L L q+r+s+W.W.,+t+u+L L L L u+t+,+W.W.s+v+w+L L L x+9+o+n+y+z+A+. . . . ",
". . . . B+C+D+E+F+n+G+L L L H+I+[+J+}+K+;+;+L L L L ;+;+K+}+J+[+I+L+L L L M+n+F+E+N+O+P+. . . . ",
". . . . Q+R+S+T+U+E+V+L L L W+X+Y+<+<+a+a+I+Z+L L `+I+a+a+<+<+Y+X+ @L L L .@E+U+T+S++@@@. . . . ",
". . . . #@$@%@&@*@=@-@L L L ;@n+n+o+>@9+9+9+,@'@)@!@9+9+9+>@o+n+n+~@L L L {@=@*@&@%@]@^@. . . . ",
". . . . /@(@_@_@:@%@N.L L L <@E+[@F+}@}@}@}@n+n+n+n+}@}@}@}@F+[@E+|@L L L 1@%@:@_@_@2@3@. . . . ",
". . . . 4@5@6@7@8@9@0@L L L a@=@T+T+b@U+c@E+E+E+E+E+E+c@U+b@T+T+=@d@L L L e@9@8@7@f@5@g@. . . . ",
". . . . h@i@j@k@l@7@m@L L L n@o@%@&@p@*@*@q@q@q@q@q@q@*@*@p@&@%@o@r@L L L s@7@l@k@j@i@t@. . . . ",
". . . . u@v@w@x@y@z@A@L L L B@8@9@9@_@C@C@:@:@:@:@:@:@C@C@_@9@9@8@D@L L L E@z@y@x@w@F@G@. . . . ",
". . . . . H@I@J@K@L@M@L L L N@O@l@P@7@7@7@Q@Q@f@f@Q@Q@7@7@7@P@l@R@S@L L L T@L@K@J@I@U@. . . . . ",
". . . . . V@W@X@Y@Z@`@ #L L L .#+#z@z@z@k@k@k@k@k@k@k@k@z@z@z@@###L L L $#%#Z@Y@X@W@&#. . . . . ",
". . . . . *#=#-#;#>#X@,#L L L '#)#!#~#L@x@x@x@x@x@x@x@x@L@~#!#{#c+L L L ]#X@>#;#-#^#/#. . . . . ",
". . . . . (#_#:#<#[#}#|#1#L L L 2#3#4#Z@J@J@J@J@J@J@J@J@Z@4#5#6#L L L 7#8#}#[#<#:#9#0#. . . . . ",
". . . . . . a#b#c#d#e#f#g#h#L L L i#j#k#l#m#>#>#>#>#m#l#k#n#o#L L L p#q#f#e#d#c#b#r#. . . . . . ",
". . . . . . s#t#u#v#w#x#y#z#f.L L L A#B#C#D#E#F#F#E#D#C#G#A#L L L f.H#y#x#w#v#u#I#J#. . . . . . ",
". . . . . . . K#L#M#N#O#P#Q#R#S#L L L L L T#U#V#V#U#T#L L L L L W#X#Q#P#O#N#M#Y#Z#. . . . . . . ",
". . . . . . . . `# $.$+$@$#$$$%$&$L L L L L L L L L L L L L L *$=$$$#$@$+$.$-$;$. . . . . . . . ",
". . . . . . . . >$,$'$)$!$~${$]$^$/$($L L L L L L L L L L _$:$<$]${$~$!$)$'$[$}$. . . . . . . . ",
". . . . . . . . . }$|$1$2$3$4$5$6$7$8$9$0$a$b$c$c$b$d$0$e$8$7$6$5$4$3$2$1$|$f$. . . . . . . . . ",
". . . . . . . . . . g$h$i$j$k$k$l$m$m$n$o$o$3$3$3$3$o$o$n$m$m$l$k$k$j$p$h$q$. . . . . . . . . . ",
". . . . . . . . . . . r$s$t$u$v$w$x$y$y$y$z$z$z$z$z$z$y$y$y$x$w$v$u$A$s$B$. . . . . . . . . . . ",
". . . . . . . . . . . . . C$D$E$F$G$H$H$I$J$J$J$J$J$J$I$H$H$G$F$E$D$C$. . . . . . . . . . . . . ",
". . . . . . . . . . . . . . K$L$M$N$O$P$Q$R$S$T$T$U$R$Q$P$O$V$W$L$X$. . . . . . . . . . . . . . ",
". . . . . . . . . . . . . . . . Y$Z$`$ %.%+%@%#%#%@%+%.%$%`$Z$Y$. . . . . . . . . . . . . . . . ",
". . . . . . . . . . . . . . . . . . . %%&%*%=%-%-%=%*%&%;%. . . . . . . . . . . . . . . . . . . ",
". . . . . . . . . . . . . . . . . . . . . . . . . . . . . . . . . . . . . . . . . . . . . . . . ",
". . . . . . . . . . . . . . . . . . . . . . . . . . . . . . . . . . . . . . . . . . . . . . . . ",
". . . . . . . . . . . . . . . . . . . . . . . . . . . . . . . . . . . . . . . . . . . . . . . . "};
