/* XPM */
static char * updown_xpm[] = {
"48 48 239 2",
"  	c None",
". 	c #2E790C",
"+ 	c #66A03C",
"@ 	c #5F9A38",
"# 	c #67A13D",
"$ 	c #6AA43F",
"% 	c #6CA641",
"& 	c #2D780C",
"* 	c #5D9C36",
"= 	c #9AC86A",
"- 	c #7EB452",
"; 	c #7DB350",
"> 	c #82B856",
", 	c #84B957",
"' 	c #8EC060",
") 	c #8DBF5F",
"! 	c #77AF4C",
"~ 	c #AED87C",
"{ 	c #C0E58C",
"] 	c #A2CE72",
"^ 	c #90C061",
"/ 	c #86B858",
"( 	c #7FB352",
"_ 	c #7AB04E",
": 	c #87B959",
"< 	c #92C264",
"[ 	c #82B656",
"} 	c #619C37",
"| 	c #2C780C",
"1 	c #9BCA6B",
"2 	c #B8E280",
"3 	c #ADD87B",
"4 	c #ACD87A",
"5 	c #AED97C",
"6 	c #AFD97C",
"7 	c #B3DE7E",
"8 	c #B2DC7D",
"9 	c #C5EE87",
"0 	c #CAF289",
"a 	c #BBE581",
"b 	c #B2DD7C",
"c 	c #ADD97A",
"d 	c #AAD678",
"e 	c #ACD779",
"f 	c #B4DF7E",
"g 	c #B1DC7C",
"h 	c #A8D477",
"i 	c #2B760B",
"j 	c #B4DF7B",
"k 	c #C4EF82",
"l 	c #C8EE8B",
"m 	c #C9EF8C",
"n 	c #C7EF88",
"o 	c #C5EF86",
"p 	c #C3F17B",
"q 	c #C2F177",
"r 	c #C3F080",
"s 	c #C4EF85",
"t 	c #C6EE88",
"u 	c #C6EE8A",
"v 	c #C5EF85",
"w 	c #C5EE85",
"x 	c #C7EE8B",
"y 	c #29750B",
"z 	c #2A750A",
"A 	c #AEE06B",
"B 	c #BEEF74",
"C 	c #C2F07A",
"D 	c #C0EF77",
"E 	c #BFEF76",
"F 	c #BCEF6E",
"G 	c #BBEF6B",
"H 	c #BFF073",
"I 	c #C0F076",
"J 	c #C1F079",
"K 	c #C2F07B",
"L 	c #287409",
"M 	c #28740A",
"N 	c #A5DD5B",
"O 	c #B8ED68",
"P 	c #257209",
"Q 	c #277309",
"R 	c #A2DC58",
"S 	c #B5EC64",
"T 	c #247109",
"U 	c #247209",
"V 	c #8BCA49",
"W 	c #B1EA60",
"X 	c #217008",
"Y 	c #237008",
"Z 	c #81C040",
"` 	c #AEE85C",
" .	c #1D6B07",
"..	c #216E07",
"+.	c #7FC03E",
"@.	c #ABE759",
"#.	c #1F6D07",
"$.	c #7CBE3A",
"%.	c #A7E555",
"&.	c #216F09",
"*.	c #74B936",
"=.	c #A4E451",
"-.	c #A3E350",
";.	c #216D08",
">.	c #1C6906",
",.	c #73B735",
"'.	c #A1E24E",
").	c #A0E14D",
"!.	c #1F6B07",
"~.	c #1B6906",
"{.	c #7CBE3C",
"].	c #9EE04C",
"^.	c #9EDF4C",
"/.	c #2B760D",
"(.	c #216E0A",
"_.	c #77BC37",
":.	c #9BDE4A",
"<.	c #4E9227",
"[.	c #1F6D09",
"}.	c #73B933",
"|.	c #98DB47",
"1.	c #97DA46",
"2.	c #4E9425",
"3.	c #1D6A07",
"4.	c #70B731",
"5.	c #95D945",
"6.	c #94D844",
"7.	c #479019",
"8.	c #6EB52E",
"9.	c #92D642",
"0.	c #91D541",
"a.	c #448E19",
"b.	c #25730B",
"c.	c #71B930",
"d.	c #8FD541",
"e.	c #8ED440",
"f.	c #428D18",
"g.	c #28760D",
"h.	c #73BB30",
"i.	c #8CD23E",
"j.	c #8BD13D",
"k.	c #3F8B16",
"l.	c #26730B",
"m.	c #70B92F",
"n.	c #89D03C",
"o.	c #88CF3B",
"p.	c #3D8915",
"q.	c #23710A",
"r.	c #6DB62D",
"s.	c #86CD39",
"t.	c #85CC38",
"u.	c #398614",
"v.	c #3A821B",
"w.	c #6FB533",
"x.	c #83CB37",
"y.	c #3F8721",
"z.	c #226E09",
"A.	c #6DB330",
"B.	c #80C935",
"C.	c #23700A",
"D.	c #1C6A06",
"E.	c #74BC34",
"F.	c #7DC733",
"G.	c #1D6A06",
"H.	c #7EC538",
"I.	c #7AC430",
"J.	c #22700A",
"K.	c #307A0D",
"L.	c #7BC336",
"M.	c #77C22E",
"N.	c #78C133",
"O.	c #74C02C",
"P.	c #75BF31",
"Q.	c #71BE2A",
"R.	c #71BC2E",
"S.	c #6EBB27",
"T.	c #6EB92C",
"U.	c #6BB925",
"V.	c #6AB62A",
"W.	c #67B623",
"X.	c #65B328",
"Y.	c #63B321",
"Z.	c #61B026",
"`.	c #5FB020",
" +	c #206D07",
".+	c #1F6E07",
"++	c #5BAC25",
"@+	c #5AAC1F",
"#+	c #29760B",
"$+	c #28750B",
"%+	c #57A923",
"&+	c #56A91D",
"*+	c #27740B",
"=+	c #52A521",
"-+	c #51A61C",
";+	c #51A51C",
">+	c #27730A",
",+	c #25720A",
"'+	c #4DA120",
")+	c #4CA21B",
"!+	c #4CA11B",
"~+	c #247009",
"{+	c #489D1E",
"]+	c #489E19",
"^+	c #489D19",
"/+	c #237009",
"(+	c #236F08",
"_+	c #439A1C",
":+	c #439B18",
"<+	c #439A18",
"[+	c #226E08",
"}+	c #206D08",
"|+	c #3F961B",
"1+	c #3F9717",
"2+	c #3F9617",
"3+	c #1F6D08",
"4+	c #1F6A08",
"5+	c #338C12",
"6+	c #3A9415",
"7+	c #399314",
"8+	c #1E6A07",
"9+	c #256A09",
"0+	c #348D13",
"a+	c #369114",
"b+	c #359013",
"c+	c #226909",
"d+	c #308A12",
"e+	c #318D13",
"f+	c #308C12",
"g+	c #2B8811",
"h+	c #2C8A11",
"i+	c #2B8911",
"j+	c #348B1D",
"k+	c #358D1E",
"l+	c #348C1D",
"m+	c #30821E",
"n+	c #31821F",
"o+	c #156305",
"p+	c #156205",
"                          . + + + + @ + + + + @ + + + + + + @ # $ % .                           ",
"                          & * = - ; > , ' ) ! ~ { ] ^ / ( _ : < [ } &                           ",
"                          | 1 2 3 4 5 6 7 8 3 9 0 a b c d d e f g h i                           ",
"                          i j k l l m m n o l p q r s t u u u v w x y                           ",
"                          z A B C C C C D E C F G H I J K K C I I K L                           ",
"                          M N O O O O O O O O O O O O O O O O O O O P                           ",
"                          Q R S S S S S S S S S S S S S S S S S S S T                           ",
"                          U V W W W W W W W W W W W W W W W W W W W X                           ",
"                          Y Z ` ` ` ` ` ` ` ` ` ` ` ` ` ` ` ` ` ` `  .                          ",
"                          ..+.@.@.@.@.@.@.@.@.@.@.@.@.@.@.@.@.@.@.@.T                           ",
"                          #.$.%.%.%.%.%.%.%.%.%.%.%.%.%.%.%.%.%.%.%.&.                          ",
"                           .*.=.=.=.=.=.=.=.=.=.=.=.=.=.=.=.=.=.=.-.;.                          ",
"                          >.,.'.'.'.'.'.'.'.'.'.'.'.'.'.'.'.'.'.'.).!.                          ",
"                          ~.{.].].].].].].].].].].].].].].].].].].^./.                          ",
"                          (._.:.:.:.:.:.:.:.:.:.:.:.:.:.:.:.:.:.:.:.<.                          ",
"                          [.}.|.|.|.|.|.|.|.|.|.|.|.|.|.|.|.|.|.|.1.2.                          ",
"                          3.4.5.5.5.5.5.5.5.5.5.5.5.5.5.5.5.5.5.5.6.7.                          ",
"                          ~.8.9.9.9.9.9.9.9.9.9.9.9.9.9.9.9.9.9.9.0.a.                          ",
"                          b.c.d.d.d.d.d.d.d.d.d.d.d.d.d.d.d.d.d.d.e.f.                          ",
"                          g.h.i.i.i.i.i.i.i.i.i.i.i.i.i.i.i.i.i.i.j.k.                          ",
"                          l.m.n.n.n.n.n.n.n.n.n.n.n.n.n.n.n.n.n.n.o.p.                          ",
"                          q.r.s.s.s.s.s.s.s.s.s.s.s.s.s.s.s.s.s.s.t.u.                          ",
"                          v.w.x.x.x.x.x.x.x.x.x.x.x.x.x.x.x.x.x.x.x.y.                          ",
"                          z.A.B.B.B.B.B.B.B.B.B.B.B.B.B.B.B.B.B.B.B.C.                          ",
"                          D.E.F.F.F.F.F.F.F.F.F.F.F.F.F.F.F.F.F.F.F.G.                          ",
"                          &.H.I.I.I.I.I.I.I.I.I.I.I.I.I.I.I.I.I.I.I.J.                          ",
"                          K.L.M.M.M.M.M.M.M.M.M.M.M.M.M.M.M.M.M.M.M.K.                          ",
"                          . N.O.O.O.O.O.O.O.O.O.O.O.O.O.O.O.O.O.O.O..                           ",
"                          & P.Q.Q.Q.Q.Q.Q.Q.Q.Q.Q.Q.Q.Q.Q.Q.Q.Q.Q.Q.&                           ",
"                          i R.S.S.S.S.S.S.S.S.S.S.S.S.S.S.S.S.S.S.S.i                           ",
"                          y T.U.U.U.U.U.U.U.U.U.U.U.U.U.U.U.U.U.U.U.y                           ",
"                          L V.W.W.W.W.W.W.W.W.W.W.W.W.W.W.W.W.W.W.W.L                           ",
"                          P X.Y.Y.Y.Y.Y.Y.Y.Y.Y.Y.Y.Y.Y.Y.Y.Y.Y.Y.Y.P                           ",
"                          T Z.`.`.`.`.`.`.`.`.`.`.`.`.`.`.`.`.`.`.`. +                          ",
"                          .+++@+@+@+@+@+@+@+@+@+@+@+@+@+@+@+@+@+@+@+#+                          ",
"                          $+%+&+&+&+&+&+&+&+&+&+&+&+&+&+&+&+&+&+&+&+$+                          ",
"                          *+=+-+-+-+-+-+-+-+-+-+-+-+-+-+-+-+-+-+-+;+>+                          ",
"                          ,+'+)+)+)+)+)+)+)+)+)+)+)+)+)+)+)+)+)+)+!+T                           ",
"                          ~+{+]+]+]+]+]+]+]+]+]+]+]+]+]+]+]+]+]+]+^+/+                          ",
"                          (+_+:+:+:+:+:+:+:+:+:+:+:+:+:+:+:+:+:+:+<+[+                          ",
"                          }+|+1+1+1+1+1+1+1+1+1+1+1+1+1+1+1+1+1+1+2+3+                          ",
"                          4+5+6+6+6+6+6+6+6+6+6+6+6+6+6+6+6+6+6+6+7+8+                          ",
"                          9+0+a+a+a+a+a+a+a+a+a+a+a+a+a+a+a+a+a+a+b+c+                          ",
"                          4+d+e+e+e+e+e+e+e+e+e+e+e+e+e+e+e+e+e+e+f+4+                          ",
"                          4+g+h+h+h+h+h+h+h+h+h+h+h+h+h+h+h+h+h+h+i+4+                          ",
"                          4+j+k+k+k+k+k+k+k+k+k+k+k+k+k+k+k+k+k+k+l+4+                          ",
"                          4+m+n+m+m+m+m+m+m+m+m+m+m+m+m+m+m+m+m+m+m+4+                          ",
"                          4+o+p+p+p+p+p+p+p+p+p+p+p+p+p+p+p+p+p+p+o+4+                          "};
