/* XPM */
static char * zoom_out_xpm[] = {
"48 48 152 2",
"  	c None",
". 	c #000000",
"+ 	c #000000",
"@ 	c #000000",
"# 	c #000000",
"$ 	c #000000",
"% 	c #000000",
"& 	c #000000",
"* 	c #000000",
"= 	c #000000",
"- 	c #000000",
"; 	c #000000",
"> 	c #BFBFBF",
", 	c #000000",
"' 	c #B1C4B1",
") 	c #000000",
"! 	c #000000",
"~ 	c #000000",
"{ 	c #000000",
"] 	c #000000",
"^ 	c #000000",
"/ 	c #000000",
"( 	c #000000",
"_ 	c #000000",
": 	c #000000",
"< 	c #000000",
"[ 	c #000000",
"} 	c #000000",
"| 	c #000000",
"1 	c #000000",
"2 	c #000000",
"3 	c #181818",
"4 	c #000000",
"5 	c #1D1D1D",
"6 	c #000000",
"7 	c #000000",
"8 	c #000000",
"9 	c #000000",
"0 	c #000000",
"a 	c #000000",
"b 	c #000000",
"c 	c #000000",
"d 	c #000000",
"e 	c #BABEB7",
"f 	c #676764",
"g 	c #BBBEB5",
"h 	c #666963",
"i 	c #323330",
"j 	c #30322E",
"k 	c #BDC0BA",
"l 	c #BEC1BB",
"m 	c #676966",
"n 	c #BDC0B9",
"o 	c #676865",
"p 	c #757874",
"q 	c #BEC1BA",
"r 	c #BEC1BB",
"s 	c #5C5F5A",
"t 	c #5B5E5A",
"u 	c #535451",
"v 	c #797A76",
"w 	c #BFC1BB",
"x 	c #BFC3BB",
"y 	c #787B75",
"z 	c #BEC2BA",
"A 	c #BEC2BB",
"B 	c #5D5E5B",
"C 	c #898B88",
"D 	c #D2D4D0",
"E 	c #D3D5D0",
"F 	c #7F807D",
"G 	c #7E807C",
"H 	c #ADAEAC",
"I 	c #E9EAE8",
"J 	c #61625F",
"K 	c #61635F",
"L 	c #767873",
"M 	c #7D7F7A",
"N 	c #7F807C",
"O 	c #848681",
"P 	c #848682",
"Q 	c #898C87",
"R 	c #8B8D88",
"S 	c #8F918C",
"T 	c #92948F",
"U 	c #939690",
"V 	c #989B95",
"W 	c #999C96",
"X 	c #9DA09A",
"Y 	c #A2A59F",
"Z 	c #A7A9A4",
"` 	c #ABAEA9",
" .	c #B0B3AD",
"..	c #B5B8B2",
"+.	c #BABCB7",
"@.	c #BFC2BC",
"#.	c #C1C4BD",
"$.	c #C1C4BE",
"%.	c #C2C4BE",
"&.	c #C2C5BF",
"*.	c #C3C5BF",
"=.	c #D3D4D2",
"-.	c #D7D7D6",
";.	c #DADBD9",
">.	c #DBDCDA",
",.	c #DCDDDB",
"'.	c #DEDEDC",
").	c #DEDFDD",
"!.	c #E1E1DF",
"~.	c #E1E2DF",
"{.	c #E4E4E2",
"].	c #E4E5E3",
"^.	c #E6E7E5",
"/.	c #E7E7E6",
"(.	c #E9EAE8",
"_.	c #EAEAE9",
":.	c #EAEAEA",
"<.	c #EAEBEA",
"[.	c #ECECEA",
"}.	c #ECEDEC",
"|.	c #EDEDEC",
"1.	c #EDEDED",
"2.	c #EFEFED",
"3.	c #EFEFEE",
"4.	c #EFEFEF",
"5.	c #EFF0EF",
"6.	c #F0F0EF",
"7.	c #F0F1EF",
"8.	c #F1F1F0",
"9.	c #F1F1F1",
"0.	c #F1F2F1",
"a.	c #F2F2F1",
"b.	c #F2F2F2",
"c.	c #F3F3F2",
"d.	c #F3F3F3",
"e.	c #F5F5F4",
"f.	c #F5F5F5",
"g.	c #F6F6F6",
"h.	c #F7F7F6",
"i.	c #F7F7F7",
"j.	c #F7F8F7",
"k.	c #F8F8F7",
"l.	c #F9F9F8",
"m.	c #F9F9F9",
"n.	c #FAFAF9",
"o.	c #FBFBFA",
"p.	c #FBFBFB",
"q.	c #FCFCFB",
"r.	c #FCFCFC",
"s.	c #FDFDFD",
"t.	c #FEFEFE",
"u.	c #FFFFFF",
"                                                                                                ",
"                                                                                                ",
"                                                                                                ",
"                                                                                                ",
"                                                                                                ",
"                                                                                                ",
"                                                                                                ",
"                                                                                                ",
"                                                                                                ",
"                                                                                                ",
"                          q x &.*.*.*.*.*.*.*.*.*.*.*.*.*.*.*.*.&.A q                           ",
"                      k D h.t.s.s.s.s.s.s.s.s.s.s.s.s.s.s.s.s.s.s.t.h.D k                       ",
"                    n I t.q.o.o.o.o.o.o.o.o.o.o.o.o.o.o.o.o.o.o.o.o.q.t.I l                     ",
"                    E t.s.s.s.s.s.s.s.s.s.s.s.s.s.s.s.s.s.s.s.s.s.s.s.s.t.E                     ",
"                  r j.r.p.p.p.p.p.p.p.p.p.p.p.p.p.p.p.p.p.p.p.p.p.p.p.p.r.j.r                   ",
"                  z s.m.m.m.m.m.m.m.m.m.m.m.m.m.m.m.m.m.m.m.m.m.m.m.m.m.m.s.w                   ",
"                  #.s.i.i.i.i.i.i.i.i.i.i.i.i.i.i.i.i.i.i.i.i.i.i.i.i.i.i.s.#.                  ",
"                  %.s.f.f.f.f.f.f.f.f.f.f.f.f.f.f.f.f.f.f.f.f.f.f.f.f.f.f.s.%.                  ",
"                  $.r.d.d.d.d.d.d.d.d.d.d.d.d.d.d.d.d.d.d.d.d.d.d.d.d.d.d.r.$.                  ",
"                  $.p.9.9.9.9.9.9.9.9.9.9.9.9.9.9.9.9.9.9.9.9.9.9.9.9.9.9.p.$.                  ",
"                  @.o.6.6.6.6.6.6.6.6.6.6.6.6.6.6.6.6.6.6.6.6.6.6.6.6.6.6.o.@.                  ",
"                  +.n.2.2.2.c.c.c.c.c.c.c.c.c.c.c.c.c.c.c.c.c.c.c.c.2.2.2.n.+.                  ",
"                  ..l.[.[.[.a.L L L L L L L L L L L L L L L L L L a.[.[.[.l...                  ",
"                   .k.(.(.(.8.M u.u.u.u.u.u.u.u.u.u.u.u.u.u.u.u.M 8.(.(.(.k. .                  ",
"                  ` g.^.^.^.6.O u.u.u.u.u.u.u.u.u.u.u.u.u.u.u.u.O 6.^.^.^.g.`                   ",
"                  Z e.{.{.{.6.R u.u.u.u.u.u.u.u.u.u.u.u.u.u.u.u.R 6.{.{.{.e.Z                   ",
"                  Y c.!.!.!.3.T u.u.u.u.u.u.u.u.u.u.u.u.u.u.u.u.T 3.!.!.!.c.Y                   ",
"                  X a.'.'.'.3.W W W W W W W W W W W W W W W W W W 3.'.'.'.a.X                   ",
"                  V 6.>.>.>.3.3.3.3.3.3.3.3.3.3.3.3.3.3.3.3.3.3.3.3.>.>.>.6.V                   ",
"                  U 3.;.;.;.;.;.;.;.;.;.;.;.;.;.;.;.;.;.;.;.;.;.;.;.;.;.;.3.U                   ",
"                  S 3.,.,.,.,.,.,.,.,.,.,.,.,.,.,.,.,.,.,.,.,.,.,.,.,.,.,.3.S                   ",
"                  Q 5.).).).).).).).).).).).).).).).).).).).).).).).).).).5.Q                   ",
"                  P 7.~.~.~.~.~.~.~.~.~.~.~.~.~.~.~.~.~.~.~.~.~.~.~.~.~.~.7.P                   ",
"                  N 0.].].].].].].].].].].].].].].].].].].].].].].].].].].0.N                   ",
"                  y <././././././././././././././././././././././././././.<.v                   ",
"                  p -.|._._._._._._._._._._._._._._._._._._._._._._._._.|.-.p                   ",
"                    C 0.1.}.}.}.}.}.}.}.}.}.}.}.}.}.}.}.}.}.}.}.}.}.}.1.b.C                     ",
"                    o H d.9.4.4.4.4.4.4.4.4.4.4.4.4.4.4.4.4.4.4.4.4.9.d.H m                     ",
"                      t G =.:.f.g.g.g.g.g.g.g.g.g.g.g.g.g.g.g.g.f.:.=.F s                       ",
"                        j u B J K K K K K K K K K K K K K K K K J B u i                         ",
"                                                                                                ",
"                                                                                                ",
"                                                                                                ",
"                                                                                                ",
"                                                                                                ",
"                                                                                                ",
"                                                                                                ",
"                                                                                                "};
