/* XPM */
static char * zoom_in_xpm[] = {
"48 48 155 2",
"  	c None",
". 	c #000000",
"+ 	c #000000",
"@ 	c #000000",
"# 	c #000000",
"$ 	c #000000",
"% 	c #000000",
"& 	c #000000",
"* 	c #000000",
"= 	c #000000",
"- 	c #000000",
"; 	c #000000",
"> 	c #BFBFBF",
", 	c #000000",
"' 	c #000000",
") 	c #000000",
"! 	c #000000",
"~ 	c #000000",
"{ 	c #000000",
"] 	c #000000",
"^ 	c #000000",
"/ 	c #000000",
"( 	c #000000",
"_ 	c #000000",
": 	c #000000",
"< 	c #000000",
"[ 	c #000000",
"} 	c #000000",
"| 	c #000000",
"1 	c #000000",
"2 	c #181818",
"3 	c #000000",
"4 	c #000000",
"5 	c #000000",
"6 	c #000000",
"7 	c #000000",
"8 	c #000000",
"9 	c #000000",
"0 	c #000000",
"a 	c #000000",
"b 	c #000000",
"c 	c #BABEB7",
"d 	c #676764",
"e 	c #323330",
"f 	c #30322E",
"g 	c #BDC0BA",
"h 	c #BEC1BB",
"i 	c #676966",
"j 	c #757874",
"k 	c #BEC1BA",
"l 	c #BEC1BB",
"m 	c #5C5F5A",
"n 	c #5B5E5A",
"o 	c #535451",
"p 	c #797A76",
"q 	c #BFC1BB",
"r 	c #BFC3BB",
"s 	c #787B75",
"t 	c #BEC2BA",
"u 	c #BEC2BB",
"v 	c #5D5E5B",
"w 	c #898B88",
"x 	c #D2D4D0",
"y 	c #D3D5D0",
"z 	c #7F807D",
"A 	c #7E807C",
"B 	c #ADAEAC",
"C 	c #E9EAE8",
"D 	c #555753",
"E 	c #595B57",
"F 	c #60635E",
"G 	c #61625F",
"H 	c #61635F",
"I 	c #686A65",
"J 	c #6F716C",
"K 	c #767873",
"L 	c #7D7F7A",
"M 	c #7F807C",
"N 	c #848681",
"O 	c #848682",
"P 	c #898C87",
"Q 	c #8B8D88",
"R 	c #8F918C",
"S 	c #92948F",
"T 	c #939690",
"U 	c #989B95",
"V 	c #999C96",
"W 	c #9DA09A",
"X 	c #A0A39C",
"Y 	c #A2A59F",
"Z 	c #A7A9A4",
"` 	c #A7AAA3",
" .	c #ABAEA9",
"..	c #AEB1AA",
"+.	c #B0B3AD",
"@.	c #B5B8B1",
"#.	c #B5B8B2",
"$.	c #BABCB7",
"%.	c #BABDB6",
"&.	c #BFC2BC",
"*.	c #C1C4BD",
"=.	c #C1C4BE",
"-.	c #C2C4BE",
";.	c #C2C5BF",
">.	c #C3C5BF",
",.	c #D3D4D2",
"'.	c #D7D7D6",
").	c #DADBD9",
"!.	c #DBDCDA",
"~.	c #DCDDDB",
"{.	c #DEDEDC",
"].	c #DEDFDD",
"^.	c #E1E1DF",
"/.	c #E1E2DF",
"(.	c #E4E4E2",
"_.	c #E4E5E3",
":.	c #E6E7E5",
"<.	c #E7E7E6",
"[.	c #E9EAE8",
"}.	c #EAEAE9",
"|.	c #EAEAEA",
"1.	c #EAEBEA",
"2.	c #ECECEA",
"3.	c #ECEDEC",
"4.	c #EDEDEC",
"5.	c #EDEDED",
"6.	c #EFEFED",
"7.	c #EFEFEE",
"8.	c #EFEFEF",
"9.	c #EFF0EF",
"0.	c #F0F0EF",
"a.	c #F0F1EF",
"b.	c #F1F1F1",
"c.	c #F1F2F1",
"d.	c #F2F2F1",
"e.	c #F2F2F2",
"f.	c #F3F3F2",
"g.	c #F3F3F3",
"h.	c #F5F5F4",
"i.	c #F5F5F5",
"j.	c #F6F6F6",
"k.	c #F7F7F6",
"l.	c #F7F7F7",
"m.	c #F7F8F7",
"n.	c #F8F8F7",
"o.	c #F9F9F8",
"p.	c #F9F9F9",
"q.	c #FAFAF9",
"r.	c #FBFBFA",
"s.	c #FBFBFB",
"t.	c #FCFCFB",
"u.	c #FCFCFC",
"v.	c #FDFDFD",
"w.	c #FEFEFE",
"x.	c #FFFFFF",
"                                                                                                ",
"                                                                                                ",
"                                                                                                ",
"                                                                                                ",
"                                                                                                ",
"                                                                                                ",
"                                                                                                ",
"                                                                                                ",
"                                                                                                ",
"                                                                                                ",
"                          k r ;.>.>.>.>.>.>.>.>.>.>.>.>.>.>.>.>.;.u k                           ",
"                      g x k.w.v.v.v.v.v.v.v.v.v.v.v.v.v.v.v.v.v.v.w.k.x g                       ",
"                    h C w.t.r.r.r.r.r.r.r.r.r.r.r.r.r.r.r.r.r.r.r.r.t.w.C h                     ",
"                    y w.v.v.v.v.v.v.v.v.v.v.v.v.v.v.v.v.v.v.v.v.v.v.v.v.w.y                     ",
"                  l m.u.s.s.s.s.s.s.s.s.s.s.s.s.s.s.s.s.s.s.s.s.s.s.s.s.u.m.l                   ",
"                  t v.p.p.p.p.p.p.p.p.p.p.p.p.p.p.p.p.p.p.p.p.p.p.p.p.p.p.v.q                   ",
"                  *.v.l.l.l.l.l.l.l.l.l.l.D D D D D D l.l.l.l.l.l.l.l.l.l.v.*.                  ",
"                  -.v.i.i.i.i.i.i.i.i.i.i.D x.x.x.x.D i.i.i.i.i.i.i.i.i.i.v.-.                  ",
"                  =.u.g.g.g.g.g.g.g.g.g.g.E x.x.x.x.E g.g.g.g.g.g.g.g.g.g.u.=.                  ",
"                  =.s.b.b.b.b.b.b.b.b.b.b.F x.x.x.x.F b.b.b.b.b.b.b.b.b.b.s.=.                  ",
"                  &.r.0.0.0.0.0.0.0.0.0.0.I x.x.x.x.I 0.0.0.0.0.0.0.0.0.0.r.&.                  ",
"                  $.q.6.6.6.6.6.6.6.6.6.6.J x.x.x.x.J 6.6.6.6.6.6.6.6.6.6.q.$.                  ",
"                  #.o.2.2.2.2.K K K K K K K x.x.x.x.K K K K K K K 2.2.2.2.o.#.                  ",
"                  +.n.[.[.[.[.L x.x.x.x.x.x.x.x.x.x.x.x.x.x.x.x.L [.[.[.[.n.+.                  ",
"                   .j.:.:.:.:.N x.x.x.x.x.x.x.x.x.x.x.x.x.x.x.x.N :.:.:.:.j. .                  ",
"                  Z h.(.(.(.(.Q x.x.x.x.x.x.x.x.x.x.x.x.x.x.x.x.Q (.(.(.(.h.Z                   ",
"                  Y f.^.^.^.^.S x.x.x.x.x.x.x.x.x.x.x.x.x.x.x.x.S ^.^.^.^.f.Y                   ",
"                  W d.{.{.{.{.V V V V V V V x.x.x.x.V V V V V V V {.{.{.{.d.W                   ",
"                  U 0.!.!.!.!.!.!.!.!.!.!.X x.x.x.x.X !.!.!.!.!.!.!.!.!.!.0.U                   ",
"                  T 7.).).).).).).).).).).` x.x.x.x.` ).).).).).).).).).).7.T                   ",
"                  R 7.~.~.~.~.~.~.~.~.~.~...x.x.x.x...~.~.~.~.~.~.~.~.~.~.7.R                   ",
"                  P 9.].].].].].].].].].].@.x.x.x.x.@.].].].].].].].].].].9.P                   ",
"                  O a././././././././././.%.x.x.x.x.%././././././././././.a.O                   ",
"                  M c._._._._._._._._._._.%.%.%.%.%.%._._._._._._._._._._.c.M                   ",
"                  s 1.<.<.<.<.<.<.<.<.<.<.<.<.<.<.<.<.<.<.<.<.<.<.<.<.<.<.1.p                   ",
"                  j '.4.}.}.}.}.}.}.}.}.}.}.}.}.}.}.}.}.}.}.}.}.}.}.}.}.4.'.j                   ",
"                    w c.5.3.3.3.3.3.3.3.3.3.3.3.3.3.3.3.3.3.3.3.3.3.3.5.e.w                     ",
"                    i B g.b.8.8.8.8.8.8.8.8.8.8.8.8.8.8.8.8.8.8.8.8.b.g.B i                     ",
"                      n A ,.|.i.j.j.j.j.j.j.j.j.j.j.j.j.j.j.j.j.i.|.,.z m                       ",
"                        f o v G H H H H H H H H H H H H H H H H G v o e                         ",
"                                                                                                ",
"                                                                                                ",
"                                                                                                ",
"                                                                                                ",
"                                                                                                ",
"                                                                                                ",
"                                                                                                ",
"                                                                                                "};
